G75*
%MOIN*%
%OFA0B0*%
%FSLAX25Y25*%
%IPPOS*%
%LPD*%
%AMOC8*
5,1,8,0,0,1.08239X$1,22.5*
%
%ADD10C,0.04756*%
%ADD11C,0.06000*%
%ADD12C,0.01200*%
%ADD13C,0.01600*%
%ADD14R,0.04134X0.04134*%
D10*
X0034972Y0039598D02*
X0034972Y0044354D01*
X0042846Y0044354D02*
X0042846Y0039598D01*
X0050720Y0039598D02*
X0050720Y0044354D01*
X0058594Y0044354D02*
X0058594Y0039598D01*
X0066469Y0039598D02*
X0066469Y0044354D01*
X0074343Y0044354D02*
X0074343Y0039598D01*
X0082768Y0050803D02*
X0087524Y0050803D01*
X0087524Y0058677D02*
X0082768Y0058677D01*
X0082768Y0066551D02*
X0087524Y0066551D01*
X0087524Y0074425D02*
X0082768Y0074425D01*
X0082768Y0082299D02*
X0087524Y0082299D01*
X0087524Y0090173D02*
X0082768Y0090173D01*
X0082768Y0098047D02*
X0087524Y0098047D01*
X0087524Y0105921D02*
X0082768Y0105921D01*
X0026862Y0105921D02*
X0022106Y0105921D01*
X0022106Y0098047D02*
X0026862Y0098047D01*
X0026862Y0090173D02*
X0022106Y0090173D01*
X0022106Y0082299D02*
X0026862Y0082299D01*
X0026862Y0074425D02*
X0022106Y0074425D01*
X0022106Y0066551D02*
X0026862Y0066551D01*
X0026862Y0058677D02*
X0022106Y0058677D01*
X0022106Y0050803D02*
X0026862Y0050803D01*
D11*
X0013208Y0049863D02*
X0007208Y0049863D01*
X0007208Y0059863D02*
X0013208Y0059863D01*
X0013208Y0069863D02*
X0007208Y0069863D01*
X0007208Y0079863D02*
X0013208Y0079863D01*
X0013208Y0089863D02*
X0007208Y0089863D01*
X0007208Y0099863D02*
X0013208Y0099863D01*
X0013208Y0109863D02*
X0007208Y0109863D01*
X0007208Y0119863D02*
X0013208Y0119863D01*
X0013208Y0129863D02*
X0007208Y0129863D01*
X0007208Y0039863D02*
X0013208Y0039863D01*
X0013208Y0029863D02*
X0007208Y0029863D01*
X0007208Y0019863D02*
X0013208Y0019863D01*
X0013208Y0009863D02*
X0007208Y0009863D01*
X0038869Y0006985D02*
X0044869Y0006985D01*
X0044869Y0024785D02*
X0038869Y0024785D01*
X0064469Y0024785D02*
X0070469Y0024785D01*
X0070469Y0006985D02*
X0064469Y0006985D01*
X0097208Y0009863D02*
X0103208Y0009863D01*
X0103208Y0019863D02*
X0097208Y0019863D01*
X0097208Y0029863D02*
X0103208Y0029863D01*
X0103208Y0039863D02*
X0097208Y0039863D01*
X0097208Y0049863D02*
X0103208Y0049863D01*
X0103208Y0059863D02*
X0097208Y0059863D01*
X0097208Y0069863D02*
X0103208Y0069863D01*
X0103208Y0079863D02*
X0097208Y0079863D01*
X0097208Y0089863D02*
X0103208Y0089863D01*
X0103208Y0099863D02*
X0097208Y0099863D01*
X0097208Y0109863D02*
X0103208Y0109863D01*
X0103208Y0119863D02*
X0097208Y0119863D01*
X0097208Y0129863D02*
X0103208Y0129863D01*
D12*
X0050720Y0044354D02*
X0050720Y0041374D01*
X0042203Y0032856D01*
X0038203Y0032856D01*
X0034203Y0028856D01*
X0034203Y0021856D01*
X0022203Y0009856D01*
X0010216Y0009856D01*
X0010208Y0009863D01*
X0010216Y0019856D02*
X0010208Y0019863D01*
X0010216Y0019856D02*
X0026203Y0019856D01*
X0031203Y0024856D01*
X0031203Y0029856D01*
X0042846Y0041500D01*
X0042846Y0044354D01*
X0034972Y0044354D02*
X0034972Y0042626D01*
X0022203Y0029856D01*
X0010216Y0029856D01*
X0010208Y0029863D01*
X0023203Y0074856D02*
X0026431Y0074856D01*
X0026862Y0074425D01*
X0023203Y0074856D02*
X0018203Y0079856D01*
X0018203Y0082856D01*
X0011195Y0089863D01*
X0010208Y0089863D01*
X0018203Y0091856D02*
X0010208Y0099850D01*
X0010208Y0099863D01*
X0018203Y0103856D02*
X0012195Y0109863D01*
X0010208Y0109863D01*
X0018203Y0103856D02*
X0018203Y0095856D01*
X0022203Y0090856D01*
X0026179Y0090856D01*
X0026862Y0090173D01*
X0026305Y0082856D02*
X0023203Y0082856D01*
X0018203Y0087856D01*
X0018203Y0091856D01*
X0026305Y0082856D02*
X0026862Y0082299D01*
D13*
X0002800Y0008486D02*
X0002800Y0002800D01*
X0036511Y0002800D01*
X0036354Y0002880D01*
X0035742Y0003324D01*
X0035208Y0003858D01*
X0034764Y0004470D01*
X0034421Y0005143D01*
X0034187Y0005861D01*
X0034069Y0006608D01*
X0034069Y0006785D01*
X0041669Y0006785D01*
X0041669Y0007185D01*
X0034069Y0007185D01*
X0034069Y0007363D01*
X0034187Y0008109D01*
X0034421Y0008828D01*
X0034764Y0009501D01*
X0035208Y0010112D01*
X0035742Y0010647D01*
X0036354Y0011091D01*
X0037027Y0011434D01*
X0037745Y0011667D01*
X0038492Y0011785D01*
X0041669Y0011785D01*
X0041669Y0007185D01*
X0042069Y0007185D01*
X0049669Y0007185D01*
X0049669Y0007363D01*
X0049551Y0008109D01*
X0049318Y0008828D01*
X0048975Y0009501D01*
X0048531Y0010112D01*
X0047996Y0010647D01*
X0047385Y0011091D01*
X0046712Y0011434D01*
X0045993Y0011667D01*
X0045247Y0011785D01*
X0042069Y0011785D01*
X0042069Y0007185D01*
X0042069Y0006785D01*
X0049669Y0006785D01*
X0049669Y0006608D01*
X0049551Y0005861D01*
X0049318Y0005143D01*
X0048975Y0004470D01*
X0048531Y0003858D01*
X0047996Y0003324D01*
X0047385Y0002880D01*
X0047228Y0002800D01*
X0062111Y0002800D01*
X0061954Y0002880D01*
X0061342Y0003324D01*
X0060808Y0003858D01*
X0060364Y0004470D01*
X0060021Y0005143D01*
X0059787Y0005861D01*
X0059669Y0006608D01*
X0059669Y0006785D01*
X0067269Y0006785D01*
X0067269Y0007185D01*
X0059669Y0007185D01*
X0059669Y0007363D01*
X0059787Y0008109D01*
X0060021Y0008828D01*
X0060364Y0009501D01*
X0060808Y0010112D01*
X0061342Y0010647D01*
X0061954Y0011091D01*
X0062627Y0011434D01*
X0063345Y0011667D01*
X0064092Y0011785D01*
X0067269Y0011785D01*
X0067269Y0007185D01*
X0067669Y0007185D01*
X0075269Y0007185D01*
X0075269Y0007363D01*
X0075151Y0008109D01*
X0074918Y0008828D01*
X0074575Y0009501D01*
X0074131Y0010112D01*
X0073596Y0010647D01*
X0072985Y0011091D01*
X0072312Y0011434D01*
X0071593Y0011667D01*
X0070847Y0011785D01*
X0067669Y0011785D01*
X0067669Y0007185D01*
X0067669Y0006785D01*
X0075269Y0006785D01*
X0075269Y0006608D01*
X0075151Y0005861D01*
X0074918Y0005143D01*
X0074575Y0004470D01*
X0074131Y0003858D01*
X0073596Y0003324D01*
X0072985Y0002880D01*
X0072828Y0002800D01*
X0107401Y0002800D01*
X0107401Y0007964D01*
X0107108Y0007258D01*
X0105814Y0005964D01*
X0104123Y0005263D01*
X0096293Y0005263D01*
X0094603Y0005964D01*
X0093309Y0007258D01*
X0092608Y0008948D01*
X0092608Y0010778D01*
X0093309Y0012469D01*
X0094603Y0013763D01*
X0096293Y0014463D01*
X0104123Y0014463D01*
X0105814Y0013763D01*
X0107108Y0012469D01*
X0107401Y0011762D01*
X0107401Y0017964D01*
X0107108Y0017258D01*
X0105814Y0015964D01*
X0104123Y0015263D01*
X0096293Y0015263D01*
X0094603Y0015964D01*
X0093309Y0017258D01*
X0092608Y0018948D01*
X0092608Y0020778D01*
X0093309Y0022469D01*
X0094603Y0023763D01*
X0096293Y0024463D01*
X0104123Y0024463D01*
X0105814Y0023763D01*
X0107108Y0022469D01*
X0107401Y0021762D01*
X0107401Y0027964D01*
X0107108Y0027258D01*
X0105814Y0025964D01*
X0104123Y0025263D01*
X0096293Y0025263D01*
X0094603Y0025964D01*
X0093309Y0027258D01*
X0092608Y0028948D01*
X0092608Y0030778D01*
X0093309Y0032469D01*
X0094603Y0033763D01*
X0096293Y0034463D01*
X0104123Y0034463D01*
X0105814Y0033763D01*
X0107108Y0032469D01*
X0107401Y0031762D01*
X0107401Y0037964D01*
X0107108Y0037258D01*
X0105814Y0035964D01*
X0104123Y0035263D01*
X0096293Y0035263D01*
X0094603Y0035964D01*
X0093309Y0037258D01*
X0092608Y0038948D01*
X0092608Y0040778D01*
X0093309Y0042469D01*
X0094603Y0043763D01*
X0096293Y0044463D01*
X0104123Y0044463D01*
X0105814Y0043763D01*
X0107108Y0042469D01*
X0107401Y0041762D01*
X0107401Y0047519D01*
X0107314Y0047348D01*
X0106870Y0046736D01*
X0106335Y0046202D01*
X0105724Y0045758D01*
X0105051Y0045415D01*
X0104332Y0045181D01*
X0103586Y0045063D01*
X0100408Y0045063D01*
X0100408Y0049663D01*
X0100008Y0049663D01*
X0092408Y0049663D01*
X0092408Y0049485D01*
X0092527Y0048739D01*
X0092760Y0048021D01*
X0093103Y0047348D01*
X0093547Y0046736D01*
X0094081Y0046202D01*
X0094693Y0045758D01*
X0095366Y0045415D01*
X0096084Y0045181D01*
X0096831Y0045063D01*
X0100008Y0045063D01*
X0100008Y0049663D01*
X0100008Y0050063D01*
X0092408Y0050063D01*
X0092408Y0050241D01*
X0092527Y0050987D01*
X0092760Y0051706D01*
X0093103Y0052379D01*
X0093547Y0052990D01*
X0094081Y0053524D01*
X0094693Y0053969D01*
X0095366Y0054312D01*
X0096084Y0054545D01*
X0096831Y0054663D01*
X0100008Y0054663D01*
X0100008Y0050063D01*
X0100408Y0050063D01*
X0100408Y0054663D01*
X0103586Y0054663D01*
X0104332Y0054545D01*
X0105051Y0054312D01*
X0105724Y0053969D01*
X0106335Y0053524D01*
X0106870Y0052990D01*
X0107314Y0052379D01*
X0107401Y0052208D01*
X0107401Y0057519D01*
X0107314Y0057348D01*
X0106870Y0056736D01*
X0106335Y0056202D01*
X0105724Y0055758D01*
X0105051Y0055415D01*
X0104332Y0055181D01*
X0103586Y0055063D01*
X0100408Y0055063D01*
X0100408Y0059663D01*
X0100008Y0059663D01*
X0092408Y0059663D01*
X0092408Y0059485D01*
X0092527Y0058739D01*
X0092760Y0058021D01*
X0093103Y0057348D01*
X0093547Y0056736D01*
X0094081Y0056202D01*
X0094693Y0055758D01*
X0095366Y0055415D01*
X0096084Y0055181D01*
X0096831Y0055063D01*
X0100008Y0055063D01*
X0100008Y0059663D01*
X0100008Y0060063D01*
X0092408Y0060063D01*
X0092408Y0060241D01*
X0092527Y0060987D01*
X0092760Y0061706D01*
X0093103Y0062379D01*
X0093547Y0062990D01*
X0094081Y0063524D01*
X0094693Y0063969D01*
X0095366Y0064312D01*
X0096084Y0064545D01*
X0096831Y0064663D01*
X0100008Y0064663D01*
X0100008Y0060063D01*
X0100408Y0060063D01*
X0100408Y0064663D01*
X0103586Y0064663D01*
X0104332Y0064545D01*
X0105051Y0064312D01*
X0105724Y0063969D01*
X0106335Y0063524D01*
X0106870Y0062990D01*
X0107314Y0062379D01*
X0107401Y0062208D01*
X0107401Y0067964D01*
X0107108Y0067258D01*
X0105814Y0065964D01*
X0104123Y0065263D01*
X0096293Y0065263D01*
X0094603Y0065964D01*
X0093309Y0067258D01*
X0092608Y0068948D01*
X0092608Y0070778D01*
X0093309Y0072469D01*
X0094603Y0073763D01*
X0096293Y0074463D01*
X0104123Y0074463D01*
X0105814Y0073763D01*
X0107108Y0072469D01*
X0107401Y0071762D01*
X0107401Y0077964D01*
X0107108Y0077258D01*
X0105814Y0075964D01*
X0104123Y0075263D01*
X0096293Y0075263D01*
X0094603Y0075964D01*
X0093309Y0077258D01*
X0092608Y0078948D01*
X0092608Y0080778D01*
X0093309Y0082469D01*
X0094603Y0083763D01*
X0096293Y0084463D01*
X0104123Y0084463D01*
X0105814Y0083763D01*
X0107108Y0082469D01*
X0107401Y0081762D01*
X0107401Y0087964D01*
X0107108Y0087258D01*
X0105814Y0085964D01*
X0104123Y0085263D01*
X0096293Y0085263D01*
X0094603Y0085964D01*
X0093309Y0087258D01*
X0092608Y0088948D01*
X0092608Y0090778D01*
X0093309Y0092469D01*
X0094603Y0093763D01*
X0096293Y0094463D01*
X0104123Y0094463D01*
X0105814Y0093763D01*
X0107108Y0092469D01*
X0107401Y0091762D01*
X0107401Y0097964D01*
X0107108Y0097258D01*
X0105814Y0095964D01*
X0104123Y0095263D01*
X0096293Y0095263D01*
X0094603Y0095964D01*
X0094481Y0096085D01*
X0094237Y0095497D01*
X0093562Y0094821D01*
X0090975Y0092235D01*
X0091502Y0090964D01*
X0091502Y0089382D01*
X0090896Y0087920D01*
X0089777Y0086801D01*
X0088414Y0086236D01*
X0089777Y0085672D01*
X0090896Y0084553D01*
X0091502Y0083090D01*
X0091502Y0081508D01*
X0090896Y0080046D01*
X0089777Y0078927D01*
X0088414Y0078362D01*
X0089777Y0077798D01*
X0090896Y0076679D01*
X0091502Y0075216D01*
X0091502Y0073634D01*
X0090896Y0072172D01*
X0089777Y0071053D01*
X0088414Y0070488D01*
X0089777Y0069924D01*
X0090896Y0068805D01*
X0091502Y0067342D01*
X0091502Y0065760D01*
X0090896Y0064298D01*
X0089777Y0063179D01*
X0088414Y0062614D01*
X0089777Y0062049D01*
X0090896Y0060930D01*
X0091502Y0059468D01*
X0091502Y0057886D01*
X0090896Y0056424D01*
X0089777Y0055305D01*
X0088639Y0054834D01*
X0089127Y0054675D01*
X0089713Y0054376D01*
X0090245Y0053990D01*
X0090710Y0053525D01*
X0091097Y0052993D01*
X0091395Y0052407D01*
X0091599Y0051781D01*
X0091702Y0051132D01*
X0091702Y0050803D01*
X0082768Y0050803D01*
X0082768Y0050803D01*
X0082768Y0046625D01*
X0087852Y0046625D01*
X0088502Y0046728D01*
X0089127Y0046931D01*
X0089713Y0047230D01*
X0090245Y0047616D01*
X0090710Y0048081D01*
X0091097Y0048613D01*
X0091395Y0049199D01*
X0091599Y0049825D01*
X0091702Y0050474D01*
X0091702Y0050803D01*
X0082768Y0050803D01*
X0082768Y0050803D01*
X0082703Y0050738D01*
X0082703Y0010356D01*
X0082203Y0006856D01*
X0068599Y0006856D01*
X0067469Y0006985D01*
X0041869Y0006985D01*
X0041669Y0007440D02*
X0042069Y0007440D01*
X0042069Y0009038D02*
X0041669Y0009038D01*
X0041669Y0010637D02*
X0042069Y0010637D01*
X0048006Y0010637D02*
X0061332Y0010637D01*
X0060128Y0009038D02*
X0049210Y0009038D01*
X0049657Y0007440D02*
X0059681Y0007440D01*
X0059794Y0005841D02*
X0049545Y0005841D01*
X0048810Y0004243D02*
X0060529Y0004243D01*
X0067269Y0007440D02*
X0067669Y0007440D01*
X0067669Y0009038D02*
X0067269Y0009038D01*
X0067269Y0010637D02*
X0067669Y0010637D01*
X0073606Y0010637D02*
X0092608Y0010637D01*
X0092608Y0009038D02*
X0074810Y0009038D01*
X0075257Y0007440D02*
X0093233Y0007440D01*
X0094898Y0005841D02*
X0075145Y0005841D01*
X0074410Y0004243D02*
X0107401Y0004243D01*
X0107401Y0005841D02*
X0105519Y0005841D01*
X0107183Y0007440D02*
X0107401Y0007440D01*
X0107401Y0012235D02*
X0107205Y0012235D01*
X0107401Y0013834D02*
X0105643Y0013834D01*
X0104531Y0015432D02*
X0107401Y0015432D01*
X0107401Y0017031D02*
X0106881Y0017031D01*
X0107374Y0021826D02*
X0107401Y0021826D01*
X0107401Y0023425D02*
X0106152Y0023425D01*
X0107401Y0025023D02*
X0075069Y0025023D01*
X0075069Y0025700D02*
X0074369Y0027391D01*
X0073075Y0028685D01*
X0071384Y0029385D01*
X0063554Y0029385D01*
X0061864Y0028685D01*
X0060570Y0027391D01*
X0059869Y0025700D01*
X0059869Y0023870D01*
X0060570Y0022180D01*
X0061864Y0020886D01*
X0063554Y0020185D01*
X0071384Y0020185D01*
X0073075Y0020886D01*
X0074369Y0022180D01*
X0075069Y0023870D01*
X0075069Y0025700D01*
X0074688Y0026622D02*
X0093944Y0026622D01*
X0092910Y0028220D02*
X0073540Y0028220D01*
X0074885Y0023425D02*
X0094264Y0023425D01*
X0093042Y0021826D02*
X0074016Y0021826D01*
X0071487Y0020228D02*
X0092608Y0020228D01*
X0092740Y0018629D02*
X0034087Y0018629D01*
X0032488Y0017031D02*
X0093535Y0017031D01*
X0094774Y0013834D02*
X0029291Y0013834D01*
X0027693Y0012235D02*
X0093212Y0012235D01*
X0095885Y0015432D02*
X0030890Y0015432D01*
X0026094Y0010637D02*
X0035732Y0010637D01*
X0034528Y0009038D02*
X0024496Y0009038D01*
X0024403Y0008945D02*
X0036320Y0020862D01*
X0037954Y0020185D01*
X0045784Y0020185D01*
X0047475Y0020886D01*
X0048769Y0022180D01*
X0049469Y0023870D01*
X0049469Y0025700D01*
X0048769Y0027391D01*
X0047475Y0028685D01*
X0045784Y0029385D01*
X0037954Y0029385D01*
X0037764Y0029307D01*
X0039114Y0030656D01*
X0043114Y0030656D01*
X0044403Y0031945D01*
X0048620Y0036163D01*
X0049929Y0035620D01*
X0051512Y0035620D01*
X0052974Y0036226D01*
X0054093Y0037345D01*
X0054657Y0038708D01*
X0055222Y0037345D01*
X0056341Y0036226D01*
X0057803Y0035620D01*
X0059386Y0035620D01*
X0060848Y0036226D01*
X0061967Y0037345D01*
X0062531Y0038708D01*
X0063096Y0037345D01*
X0064215Y0036226D01*
X0065677Y0035620D01*
X0067260Y0035620D01*
X0068722Y0036226D01*
X0069841Y0037345D01*
X0070405Y0038708D01*
X0070970Y0037345D01*
X0072089Y0036226D01*
X0073551Y0035620D01*
X0075134Y0035620D01*
X0076596Y0036226D01*
X0077715Y0037345D01*
X0078320Y0038807D01*
X0078320Y0045146D01*
X0077715Y0046608D01*
X0076596Y0047727D01*
X0075134Y0048332D01*
X0073551Y0048332D01*
X0072089Y0047727D01*
X0070970Y0046608D01*
X0070405Y0045244D01*
X0069841Y0046608D01*
X0068722Y0047727D01*
X0067260Y0048332D01*
X0065677Y0048332D01*
X0064215Y0047727D01*
X0063096Y0046608D01*
X0062531Y0045244D01*
X0061967Y0046608D01*
X0060848Y0047727D01*
X0059386Y0048332D01*
X0057803Y0048332D01*
X0056341Y0047727D01*
X0055222Y0046608D01*
X0054657Y0045244D01*
X0054093Y0046608D01*
X0052974Y0047727D01*
X0051512Y0048332D01*
X0049929Y0048332D01*
X0048467Y0047727D01*
X0047348Y0046608D01*
X0046783Y0045244D01*
X0046219Y0046608D01*
X0045100Y0047727D01*
X0043638Y0048332D01*
X0042055Y0048332D01*
X0040593Y0047727D01*
X0039474Y0046608D01*
X0038909Y0045244D01*
X0038345Y0046608D01*
X0037226Y0047727D01*
X0035764Y0048332D01*
X0034181Y0048332D01*
X0032719Y0047727D01*
X0031600Y0046608D01*
X0030994Y0045146D01*
X0030994Y0041759D01*
X0021291Y0032056D01*
X0017279Y0032056D01*
X0017108Y0032469D01*
X0015814Y0033763D01*
X0014123Y0034463D01*
X0006293Y0034463D01*
X0004603Y0033763D01*
X0003309Y0032469D01*
X0002800Y0031241D01*
X0002800Y0037942D01*
X0003103Y0037348D01*
X0003547Y0036736D01*
X0004081Y0036202D01*
X0004693Y0035758D01*
X0005366Y0035415D01*
X0006084Y0035181D01*
X0006831Y0035063D01*
X0010008Y0035063D01*
X0010008Y0039663D01*
X0010408Y0039663D01*
X0010408Y0035063D01*
X0013586Y0035063D01*
X0014332Y0035181D01*
X0015051Y0035415D01*
X0015724Y0035758D01*
X0016335Y0036202D01*
X0016870Y0036736D01*
X0017314Y0037348D01*
X0017657Y0038021D01*
X0017890Y0038739D01*
X0018008Y0039485D01*
X0018008Y0039663D01*
X0010408Y0039663D01*
X0010408Y0040063D01*
X0010008Y0040063D01*
X0010008Y0044663D01*
X0006831Y0044663D01*
X0006084Y0044545D01*
X0005366Y0044312D01*
X0004693Y0043969D01*
X0004081Y0043524D01*
X0003547Y0042990D01*
X0003103Y0042379D01*
X0002800Y0041784D01*
X0002800Y0048486D01*
X0003309Y0047258D01*
X0004603Y0045964D01*
X0006293Y0045263D01*
X0014123Y0045263D01*
X0015814Y0045964D01*
X0017108Y0047258D01*
X0017193Y0047463D01*
X0019820Y0047463D01*
X0019853Y0047431D01*
X0021315Y0046825D01*
X0027653Y0046825D01*
X0029116Y0047431D01*
X0030235Y0048550D01*
X0030840Y0050012D01*
X0030840Y0051594D01*
X0030235Y0053056D01*
X0029116Y0054175D01*
X0027752Y0054740D01*
X0029116Y0055305D01*
X0030235Y0056424D01*
X0030840Y0057886D01*
X0030840Y0059468D01*
X0030235Y0060930D01*
X0029116Y0062049D01*
X0027752Y0062614D01*
X0029116Y0063179D01*
X0030235Y0064298D01*
X0030840Y0065760D01*
X0030840Y0067342D01*
X0030235Y0068805D01*
X0029116Y0069924D01*
X0027752Y0070488D01*
X0029116Y0071053D01*
X0030235Y0072172D01*
X0030840Y0073634D01*
X0030840Y0075216D01*
X0030235Y0076679D01*
X0029116Y0077798D01*
X0027752Y0078362D01*
X0029116Y0078927D01*
X0030235Y0080046D01*
X0030840Y0081508D01*
X0030840Y0083090D01*
X0030235Y0084553D01*
X0029116Y0085672D01*
X0027752Y0086236D01*
X0029116Y0086801D01*
X0030235Y0087920D01*
X0030840Y0089382D01*
X0030840Y0090964D01*
X0030235Y0092427D01*
X0029116Y0093546D01*
X0027752Y0094110D01*
X0029116Y0094675D01*
X0030235Y0095794D01*
X0030730Y0096989D01*
X0033562Y0099821D01*
X0034237Y0100497D01*
X0034603Y0101379D01*
X0034603Y0120333D01*
X0034237Y0121216D01*
X0033562Y0121891D01*
X0032680Y0122256D01*
X0017196Y0122256D01*
X0017108Y0122469D01*
X0015814Y0123763D01*
X0014123Y0124463D01*
X0006293Y0124463D01*
X0004603Y0123763D01*
X0003309Y0122469D01*
X0002800Y0121241D01*
X0002800Y0128486D01*
X0003309Y0127258D01*
X0004603Y0125964D01*
X0006293Y0125263D01*
X0014123Y0125263D01*
X0015814Y0125964D01*
X0017108Y0127258D01*
X0017808Y0128948D01*
X0017808Y0130778D01*
X0017108Y0132469D01*
X0015814Y0133763D01*
X0014123Y0134463D01*
X0006293Y0134463D01*
X0004603Y0133763D01*
X0003309Y0132469D01*
X0002800Y0131241D01*
X0002800Y0139856D01*
X0107401Y0139856D01*
X0107401Y0131762D01*
X0107108Y0132469D01*
X0105814Y0133763D01*
X0104123Y0134463D01*
X0096293Y0134463D01*
X0094603Y0133763D01*
X0093309Y0132469D01*
X0092608Y0130778D01*
X0092608Y0128948D01*
X0093309Y0127258D01*
X0094603Y0125964D01*
X0096293Y0125263D01*
X0104123Y0125263D01*
X0105814Y0125964D01*
X0107108Y0127258D01*
X0107401Y0127964D01*
X0107401Y0121762D01*
X0107108Y0122469D01*
X0105814Y0123763D01*
X0104123Y0124463D01*
X0096293Y0124463D01*
X0094603Y0123763D01*
X0093309Y0122469D01*
X0092608Y0120778D01*
X0092608Y0118948D01*
X0093309Y0117258D01*
X0094603Y0115964D01*
X0096293Y0115263D01*
X0104123Y0115263D01*
X0105814Y0115964D01*
X0107108Y0117258D01*
X0107401Y0117964D01*
X0107401Y0111762D01*
X0107108Y0112469D01*
X0105814Y0113763D01*
X0104123Y0114463D01*
X0096293Y0114463D01*
X0094603Y0113763D01*
X0093309Y0112469D01*
X0092608Y0110778D01*
X0092608Y0108948D01*
X0093309Y0107258D01*
X0093759Y0106808D01*
X0091092Y0104141D01*
X0091502Y0105130D01*
X0091502Y0106713D01*
X0090896Y0108175D01*
X0089777Y0109294D01*
X0088315Y0109899D01*
X0081976Y0109899D01*
X0080514Y0109294D01*
X0079395Y0108175D01*
X0078790Y0106713D01*
X0078790Y0105130D01*
X0079395Y0103668D01*
X0080514Y0102549D01*
X0081878Y0101984D01*
X0080514Y0101420D01*
X0079395Y0100301D01*
X0078790Y0098839D01*
X0078790Y0097256D01*
X0079395Y0095794D01*
X0080514Y0094675D01*
X0081878Y0094110D01*
X0080514Y0093546D01*
X0079395Y0092427D01*
X0078790Y0090964D01*
X0078790Y0089382D01*
X0079395Y0087920D01*
X0080514Y0086801D01*
X0081878Y0086236D01*
X0080514Y0085672D01*
X0079395Y0084553D01*
X0078790Y0083090D01*
X0078790Y0081508D01*
X0079395Y0080046D01*
X0080514Y0078927D01*
X0081878Y0078362D01*
X0080514Y0077798D01*
X0079395Y0076679D01*
X0078790Y0075216D01*
X0078790Y0073634D01*
X0079395Y0072172D01*
X0080514Y0071053D01*
X0081878Y0070488D01*
X0080514Y0069924D01*
X0079395Y0068805D01*
X0078790Y0067342D01*
X0078790Y0065760D01*
X0079395Y0064298D01*
X0080514Y0063179D01*
X0081878Y0062614D01*
X0080514Y0062049D01*
X0079395Y0060930D01*
X0078790Y0059468D01*
X0078790Y0057886D01*
X0079395Y0056424D01*
X0080514Y0055305D01*
X0081652Y0054834D01*
X0081164Y0054675D01*
X0080578Y0054376D01*
X0080046Y0053990D01*
X0079581Y0053525D01*
X0079194Y0052993D01*
X0078896Y0052407D01*
X0078693Y0051781D01*
X0078590Y0051132D01*
X0078590Y0050803D01*
X0078590Y0050474D01*
X0078693Y0049825D01*
X0078896Y0049199D01*
X0079194Y0048613D01*
X0079581Y0048081D01*
X0080046Y0047616D01*
X0080578Y0047230D01*
X0081164Y0046931D01*
X0081789Y0046728D01*
X0082439Y0046625D01*
X0082768Y0046625D01*
X0082768Y0050803D01*
X0078590Y0050803D01*
X0082768Y0050803D01*
X0082768Y0050803D01*
X0082768Y0050600D02*
X0082768Y0050600D01*
X0082768Y0049001D02*
X0082768Y0049001D01*
X0082768Y0047402D02*
X0082768Y0047402D01*
X0080340Y0047402D02*
X0076920Y0047402D01*
X0078048Y0045804D02*
X0094629Y0045804D01*
X0095671Y0044205D02*
X0078320Y0044205D01*
X0078320Y0042607D02*
X0093447Y0042607D01*
X0092704Y0041008D02*
X0078320Y0041008D01*
X0078320Y0039410D02*
X0092608Y0039410D01*
X0093079Y0037811D02*
X0077908Y0037811D01*
X0076564Y0036213D02*
X0094353Y0036213D01*
X0093856Y0033016D02*
X0045474Y0033016D01*
X0047072Y0034614D02*
X0107401Y0034614D01*
X0107401Y0033016D02*
X0106561Y0033016D01*
X0106063Y0036213D02*
X0107401Y0036213D01*
X0107401Y0037811D02*
X0107337Y0037811D01*
X0107401Y0042607D02*
X0106970Y0042607D01*
X0107401Y0044205D02*
X0104746Y0044205D01*
X0105787Y0045804D02*
X0107401Y0045804D01*
X0107401Y0047402D02*
X0107342Y0047402D01*
X0107401Y0053797D02*
X0105961Y0053797D01*
X0104990Y0055395D02*
X0107401Y0055395D01*
X0107401Y0056994D02*
X0107056Y0056994D01*
X0107401Y0063388D02*
X0106472Y0063388D01*
X0107401Y0064986D02*
X0091181Y0064986D01*
X0091502Y0066585D02*
X0093982Y0066585D01*
X0092925Y0068183D02*
X0091153Y0068183D01*
X0089919Y0069782D02*
X0092608Y0069782D01*
X0092858Y0071380D02*
X0090104Y0071380D01*
X0091230Y0072979D02*
X0093818Y0072979D01*
X0091502Y0074577D02*
X0107401Y0074577D01*
X0107401Y0072979D02*
X0106598Y0072979D01*
X0106026Y0076176D02*
X0107401Y0076176D01*
X0107401Y0077774D02*
X0107322Y0077774D01*
X0107401Y0082570D02*
X0107007Y0082570D01*
X0107401Y0084168D02*
X0104836Y0084168D01*
X0105339Y0085767D02*
X0107401Y0085767D01*
X0107401Y0087365D02*
X0107153Y0087365D01*
X0107236Y0092161D02*
X0107401Y0092161D01*
X0107401Y0093759D02*
X0105818Y0093759D01*
X0104352Y0095358D02*
X0107401Y0095358D01*
X0107401Y0096956D02*
X0106807Y0096956D01*
X0100208Y0109863D02*
X0092203Y0101857D01*
X0092203Y0096856D01*
X0085520Y0090173D01*
X0082768Y0090173D01*
X0081030Y0093759D02*
X0028599Y0093759D01*
X0029798Y0095358D02*
X0079831Y0095358D01*
X0078914Y0096956D02*
X0030716Y0096956D01*
X0032295Y0098555D02*
X0078790Y0098555D01*
X0079334Y0100153D02*
X0033894Y0100153D01*
X0034603Y0101752D02*
X0081317Y0101752D01*
X0079713Y0103350D02*
X0034603Y0103350D01*
X0034603Y0104949D02*
X0078865Y0104949D01*
X0078790Y0106547D02*
X0034603Y0106547D01*
X0034603Y0108146D02*
X0079384Y0108146D01*
X0081603Y0109744D02*
X0034603Y0109744D01*
X0034603Y0111343D02*
X0092842Y0111343D01*
X0092608Y0109744D02*
X0088689Y0109744D01*
X0090908Y0108146D02*
X0092941Y0108146D01*
X0093498Y0106547D02*
X0091502Y0106547D01*
X0091427Y0104949D02*
X0091900Y0104949D01*
X0093781Y0112941D02*
X0034603Y0112941D01*
X0034603Y0114540D02*
X0107401Y0114540D01*
X0107401Y0116138D02*
X0105989Y0116138D01*
X0107307Y0117737D02*
X0107401Y0117737D01*
X0107401Y0122533D02*
X0107044Y0122533D01*
X0107401Y0124131D02*
X0104925Y0124131D01*
X0105249Y0125730D02*
X0107401Y0125730D01*
X0107401Y0127328D02*
X0107137Y0127328D01*
X0107251Y0132124D02*
X0107401Y0132124D01*
X0107401Y0133722D02*
X0105855Y0133722D01*
X0107401Y0135321D02*
X0002800Y0135321D01*
X0002800Y0136919D02*
X0107401Y0136919D01*
X0107401Y0138518D02*
X0002800Y0138518D01*
X0002800Y0133722D02*
X0004562Y0133722D01*
X0003166Y0132124D02*
X0002800Y0132124D01*
X0002800Y0127328D02*
X0003279Y0127328D01*
X0002800Y0125730D02*
X0005168Y0125730D01*
X0005491Y0124131D02*
X0002800Y0124131D01*
X0002800Y0122533D02*
X0003372Y0122533D01*
X0010208Y0119863D02*
X0010216Y0119856D01*
X0032203Y0119856D01*
X0032203Y0101856D01*
X0028394Y0098047D01*
X0026862Y0098047D01*
X0030345Y0092161D02*
X0079285Y0092161D01*
X0078790Y0090562D02*
X0030840Y0090562D01*
X0030667Y0088964D02*
X0078963Y0088964D01*
X0079950Y0087365D02*
X0029680Y0087365D01*
X0028886Y0085767D02*
X0080744Y0085767D01*
X0079236Y0084168D02*
X0030394Y0084168D01*
X0030840Y0082570D02*
X0078790Y0082570D01*
X0079012Y0080971D02*
X0030618Y0080971D01*
X0029561Y0079373D02*
X0080069Y0079373D01*
X0080491Y0077774D02*
X0029139Y0077774D01*
X0030443Y0076176D02*
X0079187Y0076176D01*
X0078790Y0074577D02*
X0030840Y0074577D01*
X0030569Y0072979D02*
X0079061Y0072979D01*
X0080187Y0071380D02*
X0029443Y0071380D01*
X0029257Y0069782D02*
X0080373Y0069782D01*
X0079138Y0068183D02*
X0030492Y0068183D01*
X0030840Y0066585D02*
X0078790Y0066585D01*
X0079110Y0064986D02*
X0030520Y0064986D01*
X0029324Y0063388D02*
X0080306Y0063388D01*
X0080254Y0061789D02*
X0029376Y0061789D01*
X0030541Y0060191D02*
X0079089Y0060191D01*
X0078790Y0058592D02*
X0030840Y0058592D01*
X0030471Y0056994D02*
X0079159Y0056994D01*
X0080424Y0055395D02*
X0029206Y0055395D01*
X0029494Y0053797D02*
X0079853Y0053797D01*
X0078828Y0052198D02*
X0030590Y0052198D01*
X0030840Y0050600D02*
X0078590Y0050600D01*
X0078997Y0049001D02*
X0030421Y0049001D01*
X0029047Y0047402D02*
X0032395Y0047402D01*
X0031267Y0045804D02*
X0015429Y0045804D01*
X0015051Y0044312D02*
X0014332Y0044545D01*
X0013586Y0044663D01*
X0010408Y0044663D01*
X0010408Y0040063D01*
X0018008Y0040063D01*
X0018008Y0040241D01*
X0017890Y0040987D01*
X0017657Y0041706D01*
X0017314Y0042379D01*
X0016870Y0042990D01*
X0016335Y0043524D01*
X0015724Y0043969D01*
X0015051Y0044312D01*
X0015259Y0044205D02*
X0030994Y0044205D01*
X0030994Y0042607D02*
X0017148Y0042607D01*
X0017883Y0041008D02*
X0030244Y0041008D01*
X0028645Y0039410D02*
X0017996Y0039410D01*
X0017550Y0037811D02*
X0027047Y0037811D01*
X0025448Y0036213D02*
X0016346Y0036213D01*
X0016561Y0033016D02*
X0022251Y0033016D01*
X0023850Y0034614D02*
X0002800Y0034614D01*
X0002800Y0033016D02*
X0003856Y0033016D01*
X0002873Y0031417D02*
X0002800Y0031417D01*
X0002800Y0036213D02*
X0004070Y0036213D01*
X0002867Y0037811D02*
X0002800Y0037811D01*
X0002800Y0042607D02*
X0003269Y0042607D01*
X0002800Y0044205D02*
X0005157Y0044205D01*
X0004988Y0045804D02*
X0002800Y0045804D01*
X0002800Y0047402D02*
X0003249Y0047402D01*
X0010208Y0049863D02*
X0025922Y0049863D01*
X0026862Y0050803D01*
X0026862Y0058677D02*
X0026683Y0058856D01*
X0023203Y0058856D01*
X0012195Y0069863D01*
X0010208Y0069863D01*
X0018203Y0072856D02*
X0011195Y0079863D01*
X0010208Y0079863D01*
X0018203Y0072856D02*
X0018203Y0070856D01*
X0022203Y0066856D01*
X0026557Y0066856D01*
X0026862Y0066551D01*
X0019921Y0047402D02*
X0017168Y0047402D01*
X0010208Y0049863D02*
X0010208Y0059863D01*
X0010008Y0044205D02*
X0010408Y0044205D01*
X0010408Y0042607D02*
X0010008Y0042607D01*
X0010008Y0041008D02*
X0010408Y0041008D01*
X0010408Y0039410D02*
X0010008Y0039410D01*
X0010008Y0037811D02*
X0010408Y0037811D01*
X0010408Y0036213D02*
X0010008Y0036213D01*
X0002800Y0008486D02*
X0003309Y0007258D01*
X0004603Y0005964D01*
X0006293Y0005263D01*
X0014123Y0005263D01*
X0015814Y0005964D01*
X0017108Y0007258D01*
X0017273Y0007656D01*
X0023114Y0007656D01*
X0024403Y0008945D01*
X0017183Y0007440D02*
X0034081Y0007440D01*
X0034194Y0005841D02*
X0015519Y0005841D01*
X0004898Y0005841D02*
X0002800Y0005841D01*
X0002800Y0004243D02*
X0034929Y0004243D01*
X0035686Y0020228D02*
X0037852Y0020228D01*
X0038277Y0029819D02*
X0092608Y0029819D01*
X0092873Y0031417D02*
X0043875Y0031417D01*
X0047940Y0028220D02*
X0061399Y0028220D01*
X0060251Y0026622D02*
X0049088Y0026622D01*
X0049469Y0025023D02*
X0059869Y0025023D01*
X0060054Y0023425D02*
X0049285Y0023425D01*
X0048416Y0021826D02*
X0060923Y0021826D01*
X0063452Y0020228D02*
X0045887Y0020228D01*
X0052942Y0036213D02*
X0056373Y0036213D01*
X0055029Y0037811D02*
X0054286Y0037811D01*
X0054426Y0045804D02*
X0054889Y0045804D01*
X0056017Y0047402D02*
X0053298Y0047402D01*
X0048143Y0047402D02*
X0045424Y0047402D01*
X0046552Y0045804D02*
X0047015Y0045804D01*
X0040269Y0047402D02*
X0037550Y0047402D01*
X0038678Y0045804D02*
X0039141Y0045804D01*
X0061172Y0047402D02*
X0063891Y0047402D01*
X0062763Y0045804D02*
X0062300Y0045804D01*
X0062160Y0037811D02*
X0062903Y0037811D01*
X0064247Y0036213D02*
X0060816Y0036213D01*
X0068690Y0036213D02*
X0072121Y0036213D01*
X0070777Y0037811D02*
X0070034Y0037811D01*
X0070174Y0045804D02*
X0070637Y0045804D01*
X0071765Y0047402D02*
X0069046Y0047402D01*
X0089951Y0047402D02*
X0093075Y0047402D01*
X0092485Y0049001D02*
X0091294Y0049001D01*
X0091702Y0050600D02*
X0092465Y0050600D01*
X0093011Y0052198D02*
X0091463Y0052198D01*
X0090439Y0053797D02*
X0094456Y0053797D01*
X0095427Y0055395D02*
X0089867Y0055395D01*
X0091132Y0056994D02*
X0093360Y0056994D01*
X0092574Y0058592D02*
X0091502Y0058592D01*
X0091202Y0060191D02*
X0092408Y0060191D01*
X0092802Y0061789D02*
X0090037Y0061789D01*
X0089986Y0063388D02*
X0093944Y0063388D01*
X0100008Y0063388D02*
X0100408Y0063388D01*
X0100408Y0061789D02*
X0100008Y0061789D01*
X0100008Y0060191D02*
X0100408Y0060191D01*
X0100408Y0058592D02*
X0100008Y0058592D01*
X0100008Y0056994D02*
X0100408Y0056994D01*
X0100408Y0055395D02*
X0100008Y0055395D01*
X0100008Y0053797D02*
X0100408Y0053797D01*
X0100408Y0052198D02*
X0100008Y0052198D01*
X0100008Y0050600D02*
X0100408Y0050600D01*
X0100408Y0049001D02*
X0100008Y0049001D01*
X0100008Y0047402D02*
X0100408Y0047402D01*
X0100408Y0045804D02*
X0100008Y0045804D01*
X0106472Y0026622D02*
X0107401Y0026622D01*
X0107401Y0066585D02*
X0106435Y0066585D01*
X0094391Y0076176D02*
X0091104Y0076176D01*
X0089800Y0077774D02*
X0093095Y0077774D01*
X0092608Y0079373D02*
X0090223Y0079373D01*
X0091279Y0080971D02*
X0092688Y0080971D01*
X0093409Y0082570D02*
X0091502Y0082570D01*
X0091055Y0084168D02*
X0095581Y0084168D01*
X0095078Y0085767D02*
X0089547Y0085767D01*
X0090341Y0087365D02*
X0093264Y0087365D01*
X0092608Y0088964D02*
X0091328Y0088964D01*
X0091502Y0090562D02*
X0092608Y0090562D01*
X0093181Y0092161D02*
X0091006Y0092161D01*
X0092500Y0093759D02*
X0094599Y0093759D01*
X0094098Y0095358D02*
X0096065Y0095358D01*
X0106636Y0112941D02*
X0107401Y0112941D01*
X0095491Y0124131D02*
X0014925Y0124131D01*
X0015249Y0125730D02*
X0095168Y0125730D01*
X0093279Y0127328D02*
X0017137Y0127328D01*
X0017799Y0128927D02*
X0092617Y0128927D01*
X0092608Y0130525D02*
X0017808Y0130525D01*
X0017251Y0132124D02*
X0093166Y0132124D01*
X0094562Y0133722D02*
X0015855Y0133722D01*
X0017044Y0122533D02*
X0093372Y0122533D01*
X0092673Y0120934D02*
X0034354Y0120934D01*
X0034603Y0119335D02*
X0092608Y0119335D01*
X0093110Y0117737D02*
X0034603Y0117737D01*
X0034603Y0116138D02*
X0094428Y0116138D01*
X0003233Y0007440D02*
X0002800Y0007440D01*
D14*
X0054203Y0054856D03*
X0018203Y0136856D03*
X0091203Y0136856D03*
M02*
