G75*
%MOIN*%
%OFA0B0*%
%FSLAX25Y25*%
%IPPOS*%
%LPD*%
%AMOC8*
5,1,8,0,0,1.08239X$1,22.5*
%
%ADD10C,0.00000*%
%ADD11C,0.00400*%
%ADD12C,0.00500*%
%ADD13C,0.00800*%
%ADD14C,0.00300*%
%ADD15C,0.00600*%
%ADD16C,0.00200*%
D10*
X0001297Y0001644D02*
X0001297Y0154530D01*
X0109498Y0154530D01*
X0109498Y0001644D01*
X0001297Y0001644D01*
D11*
X0016700Y0009301D02*
X0017301Y0008700D01*
X0018502Y0008700D01*
X0019102Y0009301D01*
X0019102Y0011703D01*
X0018502Y0012303D01*
X0017301Y0012303D01*
X0016700Y0011703D01*
X0016700Y0011102D01*
X0017301Y0010502D01*
X0019102Y0010502D01*
X0019102Y0018700D02*
X0019102Y0022303D01*
X0017901Y0021102D01*
X0016700Y0022303D01*
X0016700Y0018700D01*
X0020383Y0018700D02*
X0021584Y0018700D01*
X0020984Y0018700D02*
X0020984Y0021102D01*
X0020383Y0021102D01*
X0020984Y0022303D02*
X0020984Y0022904D01*
X0020984Y0028700D02*
X0020383Y0029301D01*
X0020984Y0028700D02*
X0022185Y0028700D01*
X0022785Y0029301D01*
X0022785Y0029901D01*
X0022185Y0030502D01*
X0020984Y0030502D01*
X0020383Y0031102D01*
X0020383Y0031703D01*
X0020984Y0032303D01*
X0022185Y0032303D01*
X0022785Y0031703D01*
X0019102Y0031703D02*
X0018502Y0032303D01*
X0017301Y0032303D01*
X0016700Y0031703D01*
X0016700Y0029301D01*
X0017301Y0028700D01*
X0018502Y0028700D01*
X0019102Y0029301D01*
X0018502Y0038700D02*
X0017301Y0038700D01*
X0016700Y0039301D01*
X0016700Y0041703D01*
X0017301Y0042303D01*
X0018502Y0042303D01*
X0019102Y0041703D01*
X0019102Y0040502D02*
X0017901Y0040502D01*
X0019102Y0040502D02*
X0019102Y0039301D01*
X0018502Y0038700D01*
X0020383Y0038700D02*
X0020383Y0041102D01*
X0022185Y0041102D01*
X0022785Y0040502D01*
X0022785Y0038700D01*
X0024066Y0039301D02*
X0024066Y0040502D01*
X0024667Y0041102D01*
X0026468Y0041102D01*
X0026468Y0042303D02*
X0026468Y0038700D01*
X0024667Y0038700D01*
X0024066Y0039301D01*
X0019699Y0045700D02*
X0020300Y0046301D01*
X0020300Y0047502D01*
X0019699Y0048102D01*
X0019099Y0048102D01*
X0018498Y0047502D01*
X0018498Y0046901D01*
X0018498Y0047502D02*
X0017898Y0048102D01*
X0017297Y0048102D01*
X0016697Y0047502D01*
X0016697Y0046301D01*
X0017297Y0045700D01*
X0016697Y0049383D02*
X0019099Y0049383D01*
X0020300Y0050584D01*
X0019099Y0051785D01*
X0016697Y0051785D01*
X0017297Y0053066D02*
X0016697Y0053667D01*
X0016697Y0054868D01*
X0017297Y0055468D01*
X0017898Y0055468D01*
X0018498Y0054868D01*
X0019099Y0055468D01*
X0019699Y0055468D01*
X0020300Y0054868D01*
X0020300Y0053667D01*
X0019699Y0053066D01*
X0018498Y0054267D02*
X0018498Y0054868D01*
X0017297Y0055700D02*
X0016697Y0056301D01*
X0016697Y0057502D01*
X0017297Y0058102D01*
X0017898Y0058102D01*
X0018498Y0057502D01*
X0019099Y0058102D01*
X0019699Y0058102D01*
X0020300Y0057502D01*
X0020300Y0056301D01*
X0019699Y0055700D01*
X0018498Y0056901D02*
X0018498Y0057502D01*
X0019099Y0059383D02*
X0016697Y0059383D01*
X0016697Y0061785D02*
X0019099Y0061785D01*
X0020300Y0060584D01*
X0019099Y0059383D01*
X0019699Y0063066D02*
X0020300Y0063667D01*
X0020300Y0064868D01*
X0019699Y0065468D01*
X0019099Y0065468D01*
X0018498Y0064868D01*
X0018498Y0064267D01*
X0018498Y0064868D02*
X0017898Y0065468D01*
X0017297Y0065468D01*
X0016697Y0064868D01*
X0016697Y0063667D01*
X0017297Y0063066D01*
X0017898Y0067334D02*
X0016697Y0068535D01*
X0020300Y0068535D01*
X0020300Y0067334D02*
X0020300Y0069736D01*
X0019699Y0071017D02*
X0020300Y0071617D01*
X0020300Y0072818D01*
X0019699Y0073419D01*
X0019099Y0073419D01*
X0018498Y0072818D01*
X0018498Y0072218D01*
X0018498Y0072818D02*
X0017898Y0073419D01*
X0017297Y0073419D01*
X0016697Y0072818D01*
X0016697Y0071617D01*
X0017297Y0071017D01*
X0017898Y0077334D02*
X0016697Y0078535D01*
X0020300Y0078535D01*
X0020300Y0077334D02*
X0020300Y0079736D01*
X0020300Y0081017D02*
X0017898Y0083419D01*
X0017297Y0083419D01*
X0016697Y0082818D01*
X0016697Y0081617D01*
X0017297Y0081017D01*
X0020300Y0081017D02*
X0020300Y0083419D01*
X0020300Y0087334D02*
X0020300Y0089736D01*
X0020300Y0088535D02*
X0016697Y0088535D01*
X0017898Y0087334D01*
X0018498Y0091017D02*
X0018498Y0093419D01*
X0016697Y0092818D02*
X0018498Y0091017D01*
X0016697Y0092818D02*
X0020300Y0092818D01*
X0020300Y0097334D02*
X0020300Y0099736D01*
X0020300Y0098535D02*
X0016697Y0098535D01*
X0017898Y0097334D01*
X0018498Y0101017D02*
X0018498Y0102818D01*
X0019099Y0103419D01*
X0019699Y0103419D01*
X0020300Y0102818D01*
X0020300Y0101617D01*
X0019699Y0101017D01*
X0018498Y0101017D01*
X0017297Y0102218D01*
X0016697Y0103419D01*
X0017297Y0107334D02*
X0019699Y0107334D01*
X0020300Y0107934D01*
X0020300Y0109135D01*
X0019699Y0109736D01*
X0020300Y0111017D02*
X0016697Y0111017D01*
X0017898Y0111617D02*
X0017898Y0112818D01*
X0018498Y0113419D01*
X0020300Y0113419D01*
X0018498Y0111017D02*
X0017898Y0111617D01*
X0017297Y0109736D02*
X0016697Y0109135D01*
X0016697Y0107934D01*
X0017297Y0107334D01*
X0017898Y0117266D02*
X0016697Y0118467D01*
X0017898Y0119668D01*
X0020300Y0119668D01*
X0019699Y0120950D02*
X0018498Y0120950D01*
X0017898Y0121550D01*
X0017898Y0123352D01*
X0016697Y0123352D02*
X0020300Y0123352D01*
X0020300Y0121550D01*
X0019699Y0120950D01*
X0018498Y0119668D02*
X0018498Y0117266D01*
X0017898Y0117266D02*
X0020300Y0117266D01*
X0020300Y0126334D02*
X0016697Y0126334D01*
X0016697Y0128135D01*
X0017297Y0128736D01*
X0018498Y0128736D01*
X0019099Y0128135D01*
X0019099Y0126334D01*
X0019099Y0127535D02*
X0020300Y0128736D01*
X0019699Y0130017D02*
X0018498Y0130017D01*
X0017898Y0130617D01*
X0017898Y0131818D01*
X0018498Y0132419D01*
X0019099Y0132419D01*
X0019099Y0130017D01*
X0019699Y0130017D02*
X0020300Y0130617D01*
X0020300Y0131818D01*
X0039958Y0094371D02*
X0039958Y0089167D01*
X0043428Y0089167D01*
X0045114Y0090034D02*
X0045982Y0089167D01*
X0047717Y0089167D01*
X0048584Y0090034D01*
X0048584Y0090902D01*
X0047717Y0091769D01*
X0045982Y0091769D01*
X0045114Y0092636D01*
X0045114Y0093504D01*
X0045982Y0094371D01*
X0047717Y0094371D01*
X0048584Y0093504D01*
X0050271Y0094371D02*
X0050271Y0089167D01*
X0050271Y0090902D02*
X0052873Y0090902D01*
X0053741Y0091769D01*
X0053741Y0093504D01*
X0052873Y0094371D01*
X0050271Y0094371D01*
X0055427Y0091769D02*
X0058897Y0091769D01*
X0060584Y0090034D02*
X0060584Y0093504D01*
X0061451Y0094371D01*
X0063186Y0094371D01*
X0064053Y0093504D01*
X0060584Y0090034D01*
X0061451Y0089167D01*
X0063186Y0089167D01*
X0064053Y0090034D01*
X0064053Y0093504D01*
X0065740Y0094371D02*
X0069210Y0094371D01*
X0069210Y0093504D01*
X0065740Y0090034D01*
X0065740Y0089167D01*
X0058428Y0080902D02*
X0056693Y0079167D01*
X0055825Y0079167D01*
X0054958Y0080034D01*
X0054958Y0080902D01*
X0056693Y0082636D01*
X0056693Y0083504D01*
X0055825Y0084371D01*
X0054958Y0083504D01*
X0054958Y0082636D01*
X0058428Y0079167D01*
X0057318Y0074371D02*
X0057318Y0069167D01*
X0055584Y0069167D02*
X0059053Y0069167D01*
X0060740Y0069167D02*
X0064210Y0072636D01*
X0064210Y0073504D01*
X0063342Y0074371D01*
X0061607Y0074371D01*
X0060740Y0073504D01*
X0057318Y0074371D02*
X0055584Y0072636D01*
X0053897Y0071769D02*
X0050427Y0071769D01*
X0048741Y0071769D02*
X0047873Y0070902D01*
X0045271Y0070902D01*
X0043584Y0070902D02*
X0043584Y0070034D01*
X0042717Y0069167D01*
X0040982Y0069167D01*
X0040114Y0070034D01*
X0038428Y0069167D02*
X0034958Y0069167D01*
X0034958Y0074371D01*
X0038428Y0074371D01*
X0036693Y0071769D02*
X0034958Y0071769D01*
X0040114Y0072636D02*
X0040982Y0071769D01*
X0042717Y0071769D01*
X0043584Y0070902D01*
X0045271Y0069167D02*
X0045271Y0074371D01*
X0047873Y0074371D01*
X0048741Y0073504D01*
X0048741Y0071769D01*
X0043584Y0073504D02*
X0042717Y0074371D01*
X0040982Y0074371D01*
X0040114Y0073504D01*
X0040114Y0072636D01*
X0039958Y0091769D02*
X0041693Y0091769D01*
X0043428Y0094371D02*
X0039958Y0094371D01*
X0060740Y0069167D02*
X0064210Y0069167D01*
X0065896Y0070902D02*
X0065896Y0072636D01*
X0067631Y0074371D01*
X0069334Y0074371D02*
X0069334Y0069167D01*
X0072804Y0069167D01*
X0074490Y0069167D02*
X0076225Y0070902D01*
X0076225Y0072636D01*
X0074490Y0074371D01*
X0072804Y0074371D02*
X0069334Y0074371D01*
X0069334Y0071769D02*
X0071069Y0071769D01*
X0067631Y0069167D02*
X0065896Y0070902D01*
X0087334Y0071102D02*
X0088535Y0072303D01*
X0088535Y0068700D01*
X0087334Y0068700D02*
X0089736Y0068700D01*
X0091017Y0069301D02*
X0091617Y0068700D01*
X0092818Y0068700D01*
X0093419Y0069301D01*
X0093419Y0070502D01*
X0092818Y0071102D01*
X0092218Y0071102D01*
X0091017Y0070502D01*
X0091017Y0072303D01*
X0093419Y0072303D01*
X0093419Y0078700D02*
X0091017Y0078700D01*
X0093419Y0081102D01*
X0093419Y0081703D01*
X0092818Y0082303D01*
X0091617Y0082303D01*
X0091017Y0081703D01*
X0091617Y0088700D02*
X0091017Y0089301D01*
X0093419Y0091703D01*
X0093419Y0089301D01*
X0092818Y0088700D01*
X0091617Y0088700D01*
X0091017Y0089301D02*
X0091017Y0091703D01*
X0091617Y0092303D01*
X0092818Y0092303D01*
X0093419Y0091703D01*
X0092818Y0098700D02*
X0092818Y0102303D01*
X0091017Y0100502D01*
X0093419Y0100502D01*
X0092818Y0108700D02*
X0091617Y0108700D01*
X0091017Y0109301D01*
X0091017Y0110502D02*
X0092218Y0111102D01*
X0092818Y0111102D01*
X0093419Y0110502D01*
X0093419Y0109301D01*
X0092818Y0108700D01*
X0091017Y0110502D02*
X0091017Y0112303D01*
X0093419Y0112303D01*
X0093300Y0117700D02*
X0089697Y0117700D01*
X0089697Y0119502D01*
X0090297Y0120102D01*
X0091498Y0120102D01*
X0092099Y0119502D01*
X0092099Y0117700D01*
X0092099Y0118901D02*
X0093300Y0120102D01*
X0093300Y0121383D02*
X0090898Y0123785D01*
X0089697Y0125700D02*
X0089697Y0128102D01*
X0089697Y0126901D02*
X0093300Y0126901D01*
X0093300Y0129383D02*
X0090898Y0131785D01*
X0090898Y0129383D02*
X0093300Y0131785D01*
X0093300Y0123785D02*
X0090898Y0121383D01*
X0090697Y0065468D02*
X0094300Y0065468D01*
X0094300Y0063667D01*
X0093699Y0063066D01*
X0092498Y0063066D01*
X0091898Y0063667D01*
X0091898Y0065468D01*
X0092498Y0061785D02*
X0091898Y0061185D01*
X0091898Y0059383D01*
X0094300Y0059383D01*
X0093699Y0058102D02*
X0092498Y0058102D01*
X0092498Y0056901D01*
X0091297Y0055700D02*
X0093699Y0055700D01*
X0094300Y0056301D01*
X0094300Y0057502D01*
X0093699Y0058102D01*
X0091297Y0058102D02*
X0090697Y0057502D01*
X0090697Y0056301D01*
X0091297Y0055700D01*
X0090697Y0054468D02*
X0094300Y0054468D01*
X0094300Y0052667D01*
X0093699Y0052066D01*
X0092498Y0052066D01*
X0091898Y0052667D01*
X0091898Y0054468D01*
X0092498Y0050785D02*
X0091898Y0050185D01*
X0091898Y0048383D01*
X0094300Y0048383D01*
X0093699Y0047102D02*
X0092498Y0047102D01*
X0092498Y0045901D01*
X0091297Y0044700D02*
X0093699Y0044700D01*
X0094300Y0045301D01*
X0094300Y0046502D01*
X0093699Y0047102D01*
X0091297Y0047102D02*
X0090697Y0046502D01*
X0090697Y0045301D01*
X0091297Y0044700D01*
X0092498Y0050785D02*
X0094300Y0050785D01*
X0094300Y0061785D02*
X0092498Y0061785D01*
X0088135Y0032303D02*
X0086934Y0032303D01*
X0086334Y0031703D01*
X0086334Y0031102D01*
X0086934Y0030502D01*
X0088135Y0030502D01*
X0088736Y0029901D01*
X0088736Y0029301D01*
X0088135Y0028700D01*
X0086934Y0028700D01*
X0086334Y0029301D01*
X0088736Y0031703D02*
X0088135Y0032303D01*
X0090017Y0030502D02*
X0090017Y0029301D01*
X0090617Y0028700D01*
X0092419Y0028700D01*
X0092419Y0031102D02*
X0090617Y0031102D01*
X0090017Y0030502D01*
X0089736Y0022303D02*
X0089736Y0018700D01*
X0091017Y0019301D02*
X0091617Y0018700D01*
X0092818Y0018700D01*
X0093419Y0019301D01*
X0093419Y0020502D01*
X0092818Y0021102D01*
X0091617Y0021102D01*
X0091017Y0020502D01*
X0091017Y0019301D01*
X0088535Y0021102D02*
X0089736Y0022303D01*
X0088535Y0021102D02*
X0087334Y0022303D01*
X0087334Y0018700D01*
X0088535Y0012303D02*
X0087334Y0011102D01*
X0088535Y0012303D02*
X0088535Y0008700D01*
X0087334Y0008700D02*
X0089736Y0008700D01*
X0091017Y0009301D02*
X0093419Y0011703D01*
X0093419Y0009301D01*
X0092818Y0008700D01*
X0091617Y0008700D01*
X0091017Y0009301D01*
X0091017Y0011703D01*
X0091617Y0012303D01*
X0092818Y0012303D01*
X0093419Y0011703D01*
D12*
X0093066Y0037838D02*
X0093066Y0041341D01*
X0090730Y0041341D02*
X0090730Y0037838D01*
X0089443Y0037838D02*
X0088275Y0037838D01*
X0088859Y0037838D02*
X0088859Y0041341D01*
X0088275Y0041341D02*
X0089443Y0041341D01*
X0090730Y0041341D02*
X0093066Y0037838D01*
X0086927Y0039006D02*
X0086927Y0041341D01*
X0086927Y0039006D02*
X0085760Y0037838D01*
X0084592Y0039006D01*
X0084592Y0041341D01*
X0086608Y0045148D02*
X0086608Y0139636D01*
X0023616Y0139636D01*
X0023616Y0045148D01*
X0086608Y0045148D01*
D13*
X0075800Y0142832D02*
X0075800Y0149037D01*
X0078903Y0149037D01*
X0079937Y0148003D01*
X0079937Y0145934D01*
X0078903Y0144900D01*
X0075800Y0144900D01*
X0073492Y0144900D02*
X0073492Y0148003D01*
X0072458Y0149037D01*
X0070389Y0149037D01*
X0070389Y0146968D02*
X0073492Y0146968D01*
X0073492Y0144900D02*
X0070389Y0144900D01*
X0069355Y0145934D01*
X0070389Y0146968D01*
X0067046Y0144900D02*
X0063944Y0144900D01*
X0062909Y0145934D01*
X0062909Y0148003D01*
X0063944Y0149037D01*
X0067046Y0149037D01*
X0067046Y0151105D02*
X0067046Y0144900D01*
X0060601Y0144900D02*
X0060601Y0149037D01*
X0058532Y0151105D01*
X0056464Y0149037D01*
X0056464Y0144900D01*
X0056464Y0148003D02*
X0060601Y0148003D01*
X0054155Y0148003D02*
X0050018Y0148003D01*
X0047710Y0146968D02*
X0047710Y0145934D01*
X0046676Y0144900D01*
X0044607Y0144900D01*
X0043573Y0145934D01*
X0043573Y0148003D01*
X0046676Y0148003D01*
X0047710Y0146968D01*
X0045641Y0150071D02*
X0043573Y0148003D01*
X0041264Y0146968D02*
X0041264Y0145934D01*
X0040230Y0144900D01*
X0038162Y0144900D01*
X0037127Y0145934D01*
X0037127Y0148003D01*
X0040230Y0148003D01*
X0041264Y0146968D01*
X0039196Y0150071D02*
X0037127Y0148003D01*
X0034819Y0149037D02*
X0034819Y0150071D01*
X0033785Y0151105D01*
X0031716Y0151105D01*
X0030682Y0150071D01*
X0028373Y0150071D02*
X0028373Y0149037D01*
X0027339Y0148003D01*
X0025271Y0148003D01*
X0024236Y0149037D01*
X0024236Y0150071D01*
X0025271Y0151105D01*
X0027339Y0151105D01*
X0028373Y0150071D01*
X0027339Y0148003D02*
X0028373Y0146968D01*
X0028373Y0145934D01*
X0027339Y0144900D01*
X0025271Y0144900D01*
X0024236Y0145934D01*
X0024236Y0146968D01*
X0025271Y0148003D01*
X0021928Y0148003D02*
X0020894Y0146968D01*
X0017791Y0146968D01*
X0017791Y0144900D02*
X0017791Y0151105D01*
X0020894Y0151105D01*
X0021928Y0150071D01*
X0021928Y0148003D01*
X0015482Y0146968D02*
X0015482Y0145934D01*
X0014448Y0144900D01*
X0012380Y0144900D01*
X0011345Y0145934D01*
X0012380Y0148003D02*
X0014448Y0148003D01*
X0015482Y0146968D01*
X0015482Y0150071D02*
X0014448Y0151105D01*
X0012380Y0151105D01*
X0011345Y0150071D01*
X0011345Y0149037D01*
X0012380Y0148003D01*
X0009037Y0151105D02*
X0004900Y0151105D01*
X0004900Y0144900D01*
X0009037Y0144900D01*
X0006968Y0148003D02*
X0004900Y0148003D01*
X0030682Y0144900D02*
X0034819Y0149037D01*
X0034819Y0144900D02*
X0030682Y0144900D01*
X0039196Y0150071D02*
X0041264Y0151105D01*
X0045641Y0150071D02*
X0047710Y0151105D01*
X0082246Y0149037D02*
X0084314Y0149037D01*
X0083280Y0150071D02*
X0083280Y0145934D01*
X0084314Y0144900D01*
X0086543Y0145934D02*
X0086543Y0148003D01*
X0087577Y0149037D01*
X0089646Y0149037D01*
X0090680Y0148003D01*
X0090680Y0146968D01*
X0086543Y0146968D01*
X0086543Y0145934D02*
X0087577Y0144900D01*
X0089646Y0144900D01*
X0092988Y0144900D02*
X0092988Y0149037D01*
X0092988Y0146968D02*
X0095057Y0149037D01*
X0096091Y0149037D01*
D14*
X0064436Y0111353D02*
X0061967Y0111353D01*
X0061967Y0109502D01*
X0063201Y0110119D01*
X0063818Y0110119D01*
X0064436Y0109502D01*
X0064436Y0108267D01*
X0063818Y0107650D01*
X0062584Y0107650D01*
X0061967Y0108267D01*
X0060752Y0107650D02*
X0058284Y0107650D01*
X0059518Y0107650D02*
X0059518Y0111353D01*
X0058284Y0110119D01*
X0057069Y0110736D02*
X0057069Y0108267D01*
X0056452Y0107650D01*
X0055218Y0107650D01*
X0054601Y0108267D01*
X0057069Y0110736D01*
X0056452Y0111353D01*
X0055218Y0111353D01*
X0054601Y0110736D01*
X0054601Y0108267D01*
X0053386Y0107650D02*
X0050917Y0107650D01*
X0053386Y0110119D01*
X0053386Y0110736D01*
X0052769Y0111353D01*
X0051535Y0111353D01*
X0050917Y0110736D01*
X0046013Y0108267D02*
X0045396Y0108267D01*
X0045396Y0107650D01*
X0046013Y0107650D01*
X0046013Y0108267D01*
X0046013Y0107650D02*
X0044779Y0106416D01*
X0043558Y0107650D02*
X0042941Y0108267D01*
X0042941Y0110736D01*
X0043558Y0110119D02*
X0042323Y0110119D01*
X0041109Y0110119D02*
X0039257Y0110119D01*
X0038640Y0109502D01*
X0038640Y0108267D01*
X0039257Y0107650D01*
X0041109Y0107650D01*
X0037426Y0108267D02*
X0037426Y0110736D01*
X0036809Y0111353D01*
X0035574Y0111353D01*
X0034957Y0110736D01*
X0034957Y0108267D01*
X0035574Y0107650D01*
X0036809Y0107650D01*
X0037426Y0108267D01*
X0072759Y0011119D02*
X0073993Y0008650D01*
X0075228Y0011119D01*
X0076442Y0011119D02*
X0077677Y0012353D01*
X0077677Y0008650D01*
X0078911Y0008650D02*
X0076442Y0008650D01*
X0080125Y0008650D02*
X0080742Y0008650D01*
X0080742Y0009267D01*
X0080125Y0009267D01*
X0080125Y0008650D01*
X0081967Y0009267D02*
X0084436Y0011736D01*
X0084436Y0009267D01*
X0083818Y0008650D01*
X0082584Y0008650D01*
X0081967Y0009267D01*
X0081967Y0011736D01*
X0082584Y0012353D01*
X0083818Y0012353D01*
X0084436Y0011736D01*
D15*
X0095506Y0013007D02*
X0095506Y0008007D01*
X0098006Y0005507D01*
X0103006Y0005507D01*
X0105506Y0008007D01*
X0105506Y0013007D01*
X0103006Y0015507D01*
X0098006Y0015507D01*
X0095506Y0013007D01*
X0098006Y0015507D02*
X0095506Y0018007D01*
X0095506Y0023007D01*
X0098006Y0025507D01*
X0095506Y0028007D01*
X0095506Y0033007D01*
X0098006Y0035507D01*
X0095506Y0038007D01*
X0095506Y0043007D01*
X0098006Y0045507D01*
X0095506Y0048007D01*
X0095506Y0053007D01*
X0098006Y0055507D01*
X0095506Y0058007D01*
X0095506Y0063007D01*
X0098006Y0065507D01*
X0095506Y0068007D01*
X0095506Y0073007D01*
X0098006Y0075507D01*
X0095506Y0078007D01*
X0095506Y0083007D01*
X0098006Y0085507D01*
X0095506Y0088007D01*
X0095506Y0093007D01*
X0098006Y0095507D01*
X0095506Y0098007D01*
X0095506Y0103007D01*
X0098006Y0105507D01*
X0095506Y0108007D01*
X0095506Y0113007D01*
X0098006Y0115507D01*
X0095506Y0118007D01*
X0095506Y0123007D01*
X0098006Y0125507D01*
X0095506Y0128007D01*
X0095506Y0133007D01*
X0098006Y0135507D01*
X0103006Y0135507D01*
X0105506Y0133007D01*
X0105506Y0128007D01*
X0103006Y0125507D01*
X0105506Y0123007D01*
X0105506Y0118007D01*
X0103006Y0115507D01*
X0098006Y0115507D01*
X0103006Y0115507D02*
X0105506Y0113007D01*
X0105506Y0108007D01*
X0103006Y0105507D01*
X0105506Y0103007D01*
X0105506Y0098007D01*
X0103006Y0095507D01*
X0105506Y0093007D01*
X0105506Y0088007D01*
X0103006Y0085507D01*
X0098006Y0085507D01*
X0103006Y0085507D02*
X0105506Y0083007D01*
X0105506Y0078007D01*
X0103006Y0075507D01*
X0105506Y0073007D01*
X0105506Y0068007D01*
X0103006Y0065507D01*
X0105506Y0063007D01*
X0105506Y0058007D01*
X0103006Y0055507D01*
X0098006Y0055507D01*
X0103006Y0055507D02*
X0105506Y0053007D01*
X0105506Y0048007D01*
X0103006Y0045507D01*
X0105506Y0043007D01*
X0105506Y0038007D01*
X0103006Y0035507D01*
X0105506Y0033007D01*
X0105506Y0028007D01*
X0103006Y0025507D01*
X0098006Y0025507D01*
X0103006Y0025507D02*
X0105506Y0023007D01*
X0105506Y0018007D01*
X0103006Y0015507D01*
X0103006Y0035507D02*
X0098006Y0035507D01*
X0098006Y0045507D02*
X0103006Y0045507D01*
X0103006Y0065507D02*
X0098006Y0065507D01*
X0098006Y0075507D02*
X0103006Y0075507D01*
X0103006Y0095507D02*
X0098006Y0095507D01*
X0098006Y0105507D02*
X0103006Y0105507D01*
X0103006Y0125507D02*
X0098006Y0125507D01*
X0063467Y0028529D02*
X0059967Y0028529D01*
X0049967Y0028529D01*
X0046467Y0028529D01*
X0042967Y0020529D02*
X0042967Y0019529D01*
X0041967Y0019529D01*
X0041967Y0013529D01*
X0042967Y0013529D01*
X0042967Y0012529D01*
X0046467Y0004529D02*
X0049967Y0004529D01*
X0059467Y0004529D01*
X0063467Y0004529D01*
X0066967Y0012529D02*
X0066967Y0013529D01*
X0067967Y0013529D01*
X0067967Y0019529D01*
X0066967Y0019529D01*
X0066967Y0020529D01*
X0053967Y0016529D02*
X0053969Y0016592D01*
X0053975Y0016654D01*
X0053985Y0016716D01*
X0053998Y0016778D01*
X0054016Y0016838D01*
X0054037Y0016897D01*
X0054062Y0016955D01*
X0054091Y0017011D01*
X0054123Y0017065D01*
X0054158Y0017117D01*
X0054196Y0017166D01*
X0054238Y0017214D01*
X0054282Y0017258D01*
X0054330Y0017300D01*
X0054379Y0017338D01*
X0054431Y0017373D01*
X0054485Y0017405D01*
X0054541Y0017434D01*
X0054599Y0017459D01*
X0054658Y0017480D01*
X0054718Y0017498D01*
X0054780Y0017511D01*
X0054842Y0017521D01*
X0054904Y0017527D01*
X0054967Y0017529D01*
X0055030Y0017527D01*
X0055092Y0017521D01*
X0055154Y0017511D01*
X0055216Y0017498D01*
X0055276Y0017480D01*
X0055335Y0017459D01*
X0055393Y0017434D01*
X0055449Y0017405D01*
X0055503Y0017373D01*
X0055555Y0017338D01*
X0055604Y0017300D01*
X0055652Y0017258D01*
X0055696Y0017214D01*
X0055738Y0017166D01*
X0055776Y0017117D01*
X0055811Y0017065D01*
X0055843Y0017011D01*
X0055872Y0016955D01*
X0055897Y0016897D01*
X0055918Y0016838D01*
X0055936Y0016778D01*
X0055949Y0016716D01*
X0055959Y0016654D01*
X0055965Y0016592D01*
X0055967Y0016529D01*
X0055965Y0016466D01*
X0055959Y0016404D01*
X0055949Y0016342D01*
X0055936Y0016280D01*
X0055918Y0016220D01*
X0055897Y0016161D01*
X0055872Y0016103D01*
X0055843Y0016047D01*
X0055811Y0015993D01*
X0055776Y0015941D01*
X0055738Y0015892D01*
X0055696Y0015844D01*
X0055652Y0015800D01*
X0055604Y0015758D01*
X0055555Y0015720D01*
X0055503Y0015685D01*
X0055449Y0015653D01*
X0055393Y0015624D01*
X0055335Y0015599D01*
X0055276Y0015578D01*
X0055216Y0015560D01*
X0055154Y0015547D01*
X0055092Y0015537D01*
X0055030Y0015531D01*
X0054967Y0015529D01*
X0054904Y0015531D01*
X0054842Y0015537D01*
X0054780Y0015547D01*
X0054718Y0015560D01*
X0054658Y0015578D01*
X0054599Y0015599D01*
X0054541Y0015624D01*
X0054485Y0015653D01*
X0054431Y0015685D01*
X0054379Y0015720D01*
X0054330Y0015758D01*
X0054282Y0015800D01*
X0054238Y0015844D01*
X0054196Y0015892D01*
X0054158Y0015941D01*
X0054123Y0015993D01*
X0054091Y0016047D01*
X0054062Y0016103D01*
X0054037Y0016161D01*
X0054016Y0016220D01*
X0053998Y0016280D01*
X0053985Y0016342D01*
X0053975Y0016404D01*
X0053969Y0016466D01*
X0053967Y0016529D01*
X0047967Y0016529D02*
X0047969Y0016701D01*
X0047975Y0016872D01*
X0047986Y0017044D01*
X0048001Y0017215D01*
X0048020Y0017386D01*
X0048043Y0017556D01*
X0048070Y0017726D01*
X0048102Y0017895D01*
X0048137Y0018063D01*
X0048177Y0018230D01*
X0048221Y0018396D01*
X0048268Y0018561D01*
X0048320Y0018725D01*
X0048376Y0018887D01*
X0048436Y0019048D01*
X0048500Y0019208D01*
X0048568Y0019366D01*
X0048639Y0019522D01*
X0048714Y0019676D01*
X0048794Y0019829D01*
X0048876Y0019979D01*
X0048963Y0020128D01*
X0049053Y0020274D01*
X0049147Y0020418D01*
X0049244Y0020560D01*
X0049345Y0020699D01*
X0049449Y0020836D01*
X0049556Y0020970D01*
X0049667Y0021101D01*
X0049780Y0021230D01*
X0049897Y0021356D01*
X0050017Y0021479D01*
X0050140Y0021599D01*
X0050266Y0021716D01*
X0050395Y0021829D01*
X0050526Y0021940D01*
X0050660Y0022047D01*
X0050797Y0022151D01*
X0050936Y0022252D01*
X0051078Y0022349D01*
X0051222Y0022443D01*
X0051368Y0022533D01*
X0051517Y0022620D01*
X0051667Y0022702D01*
X0051820Y0022782D01*
X0051974Y0022857D01*
X0052130Y0022928D01*
X0052288Y0022996D01*
X0052448Y0023060D01*
X0052609Y0023120D01*
X0052771Y0023176D01*
X0052935Y0023228D01*
X0053100Y0023275D01*
X0053266Y0023319D01*
X0053433Y0023359D01*
X0053601Y0023394D01*
X0053770Y0023426D01*
X0053940Y0023453D01*
X0054110Y0023476D01*
X0054281Y0023495D01*
X0054452Y0023510D01*
X0054624Y0023521D01*
X0054795Y0023527D01*
X0054967Y0023529D01*
X0055139Y0023527D01*
X0055310Y0023521D01*
X0055482Y0023510D01*
X0055653Y0023495D01*
X0055824Y0023476D01*
X0055994Y0023453D01*
X0056164Y0023426D01*
X0056333Y0023394D01*
X0056501Y0023359D01*
X0056668Y0023319D01*
X0056834Y0023275D01*
X0056999Y0023228D01*
X0057163Y0023176D01*
X0057325Y0023120D01*
X0057486Y0023060D01*
X0057646Y0022996D01*
X0057804Y0022928D01*
X0057960Y0022857D01*
X0058114Y0022782D01*
X0058267Y0022702D01*
X0058417Y0022620D01*
X0058566Y0022533D01*
X0058712Y0022443D01*
X0058856Y0022349D01*
X0058998Y0022252D01*
X0059137Y0022151D01*
X0059274Y0022047D01*
X0059408Y0021940D01*
X0059539Y0021829D01*
X0059668Y0021716D01*
X0059794Y0021599D01*
X0059917Y0021479D01*
X0060037Y0021356D01*
X0060154Y0021230D01*
X0060267Y0021101D01*
X0060378Y0020970D01*
X0060485Y0020836D01*
X0060589Y0020699D01*
X0060690Y0020560D01*
X0060787Y0020418D01*
X0060881Y0020274D01*
X0060971Y0020128D01*
X0061058Y0019979D01*
X0061140Y0019829D01*
X0061220Y0019676D01*
X0061295Y0019522D01*
X0061366Y0019366D01*
X0061434Y0019208D01*
X0061498Y0019048D01*
X0061558Y0018887D01*
X0061614Y0018725D01*
X0061666Y0018561D01*
X0061713Y0018396D01*
X0061757Y0018230D01*
X0061797Y0018063D01*
X0061832Y0017895D01*
X0061864Y0017726D01*
X0061891Y0017556D01*
X0061914Y0017386D01*
X0061933Y0017215D01*
X0061948Y0017044D01*
X0061959Y0016872D01*
X0061965Y0016701D01*
X0061967Y0016529D01*
X0061965Y0016357D01*
X0061959Y0016186D01*
X0061948Y0016014D01*
X0061933Y0015843D01*
X0061914Y0015672D01*
X0061891Y0015502D01*
X0061864Y0015332D01*
X0061832Y0015163D01*
X0061797Y0014995D01*
X0061757Y0014828D01*
X0061713Y0014662D01*
X0061666Y0014497D01*
X0061614Y0014333D01*
X0061558Y0014171D01*
X0061498Y0014010D01*
X0061434Y0013850D01*
X0061366Y0013692D01*
X0061295Y0013536D01*
X0061220Y0013382D01*
X0061140Y0013229D01*
X0061058Y0013079D01*
X0060971Y0012930D01*
X0060881Y0012784D01*
X0060787Y0012640D01*
X0060690Y0012498D01*
X0060589Y0012359D01*
X0060485Y0012222D01*
X0060378Y0012088D01*
X0060267Y0011957D01*
X0060154Y0011828D01*
X0060037Y0011702D01*
X0059917Y0011579D01*
X0059794Y0011459D01*
X0059668Y0011342D01*
X0059539Y0011229D01*
X0059408Y0011118D01*
X0059274Y0011011D01*
X0059137Y0010907D01*
X0058998Y0010806D01*
X0058856Y0010709D01*
X0058712Y0010615D01*
X0058566Y0010525D01*
X0058417Y0010438D01*
X0058267Y0010356D01*
X0058114Y0010276D01*
X0057960Y0010201D01*
X0057804Y0010130D01*
X0057646Y0010062D01*
X0057486Y0009998D01*
X0057325Y0009938D01*
X0057163Y0009882D01*
X0056999Y0009830D01*
X0056834Y0009783D01*
X0056668Y0009739D01*
X0056501Y0009699D01*
X0056333Y0009664D01*
X0056164Y0009632D01*
X0055994Y0009605D01*
X0055824Y0009582D01*
X0055653Y0009563D01*
X0055482Y0009548D01*
X0055310Y0009537D01*
X0055139Y0009531D01*
X0054967Y0009529D01*
X0054795Y0009531D01*
X0054624Y0009537D01*
X0054452Y0009548D01*
X0054281Y0009563D01*
X0054110Y0009582D01*
X0053940Y0009605D01*
X0053770Y0009632D01*
X0053601Y0009664D01*
X0053433Y0009699D01*
X0053266Y0009739D01*
X0053100Y0009783D01*
X0052935Y0009830D01*
X0052771Y0009882D01*
X0052609Y0009938D01*
X0052448Y0009998D01*
X0052288Y0010062D01*
X0052130Y0010130D01*
X0051974Y0010201D01*
X0051820Y0010276D01*
X0051667Y0010356D01*
X0051517Y0010438D01*
X0051368Y0010525D01*
X0051222Y0010615D01*
X0051078Y0010709D01*
X0050936Y0010806D01*
X0050797Y0010907D01*
X0050660Y0011011D01*
X0050526Y0011118D01*
X0050395Y0011229D01*
X0050266Y0011342D01*
X0050140Y0011459D01*
X0050017Y0011579D01*
X0049897Y0011702D01*
X0049780Y0011828D01*
X0049667Y0011957D01*
X0049556Y0012088D01*
X0049449Y0012222D01*
X0049345Y0012359D01*
X0049244Y0012498D01*
X0049147Y0012640D01*
X0049053Y0012784D01*
X0048963Y0012930D01*
X0048876Y0013079D01*
X0048794Y0013229D01*
X0048714Y0013382D01*
X0048639Y0013536D01*
X0048568Y0013692D01*
X0048500Y0013850D01*
X0048436Y0014010D01*
X0048376Y0014171D01*
X0048320Y0014333D01*
X0048268Y0014497D01*
X0048221Y0014662D01*
X0048177Y0014828D01*
X0048137Y0014995D01*
X0048102Y0015163D01*
X0048070Y0015332D01*
X0048043Y0015502D01*
X0048020Y0015672D01*
X0048001Y0015843D01*
X0047986Y0016014D01*
X0047975Y0016186D01*
X0047969Y0016357D01*
X0047967Y0016529D01*
X0015506Y0018007D02*
X0013006Y0015507D01*
X0015506Y0013007D01*
X0015506Y0008007D01*
X0013006Y0005507D01*
X0008006Y0005507D01*
X0005506Y0008007D01*
X0005506Y0013007D01*
X0008006Y0015507D01*
X0005506Y0018007D01*
X0005506Y0023007D01*
X0008006Y0025507D01*
X0005506Y0028007D01*
X0005506Y0033007D01*
X0008006Y0035507D01*
X0005506Y0038007D01*
X0005506Y0043007D01*
X0008006Y0045507D01*
X0005506Y0048007D01*
X0005506Y0053007D01*
X0008006Y0055507D01*
X0005506Y0058007D01*
X0005506Y0063007D01*
X0008006Y0065507D01*
X0005506Y0068007D01*
X0005506Y0073007D01*
X0008006Y0075507D01*
X0005506Y0078007D01*
X0005506Y0083007D01*
X0008006Y0085507D01*
X0005506Y0088007D01*
X0005506Y0093007D01*
X0008006Y0095507D01*
X0005506Y0098007D01*
X0005506Y0103007D01*
X0008006Y0105507D01*
X0005506Y0108007D01*
X0005506Y0113007D01*
X0008006Y0115507D01*
X0005506Y0118007D01*
X0005506Y0123007D01*
X0008006Y0125507D01*
X0005506Y0128007D01*
X0005506Y0133007D01*
X0008006Y0135507D01*
X0013006Y0135507D01*
X0015506Y0133007D01*
X0015506Y0128007D01*
X0013006Y0125507D01*
X0015506Y0123007D01*
X0015506Y0118007D01*
X0013006Y0115507D01*
X0008006Y0115507D01*
X0013006Y0115507D02*
X0015506Y0113007D01*
X0015506Y0108007D01*
X0013006Y0105507D01*
X0015506Y0103007D01*
X0015506Y0098007D01*
X0013006Y0095507D01*
X0015506Y0093007D01*
X0015506Y0088007D01*
X0013006Y0085507D01*
X0008006Y0085507D01*
X0013006Y0085507D02*
X0015506Y0083007D01*
X0015506Y0078007D01*
X0013006Y0075507D01*
X0015506Y0073007D01*
X0015506Y0068007D01*
X0013006Y0065507D01*
X0015506Y0063007D01*
X0015506Y0058007D01*
X0013006Y0055507D01*
X0008006Y0055507D01*
X0013006Y0055507D02*
X0015506Y0053007D01*
X0015506Y0048007D01*
X0013006Y0045507D01*
X0015506Y0043007D01*
X0015506Y0038007D01*
X0013006Y0035507D01*
X0015506Y0033007D01*
X0015506Y0028007D01*
X0013006Y0025507D01*
X0008006Y0025507D01*
X0013006Y0025507D02*
X0015506Y0023007D01*
X0015506Y0018007D01*
X0013006Y0015507D02*
X0008006Y0015507D01*
X0008006Y0035507D02*
X0013006Y0035507D01*
X0013006Y0045507D02*
X0008006Y0045507D01*
X0008006Y0065507D02*
X0013006Y0065507D01*
X0013006Y0075507D02*
X0008006Y0075507D01*
X0008006Y0095507D02*
X0013006Y0095507D01*
X0013006Y0105507D02*
X0008006Y0105507D01*
X0008006Y0125507D02*
X0013006Y0125507D01*
D16*
X0049967Y0028529D02*
X0049967Y0027529D01*
X0059967Y0027529D01*
X0059967Y0028529D01*
X0059467Y0005529D02*
X0049967Y0005529D01*
X0049967Y0004529D01*
X0059467Y0004529D02*
X0059467Y0005529D01*
M02*
