G75*
%MOIN*%
%OFA0B0*%
%FSLAX25Y25*%
%IPPOS*%
%LPD*%
%AMOC8*
5,1,8,0,0,1.08239X$1,22.5*
%
%ADD10C,0.00000*%
%ADD11C,0.00800*%
%ADD12C,0.00400*%
D10*
X0001000Y0001000D02*
X0001000Y0153886D01*
X0109201Y0153886D01*
X0109201Y0001000D01*
X0001000Y0001000D01*
D11*
X0049882Y0110874D02*
X0075685Y0110874D01*
X0075685Y0124874D01*
X0049882Y0124874D01*
X0049882Y0110874D01*
X0036902Y0142188D02*
X0036902Y0148393D01*
X0033799Y0148393D01*
X0032765Y0147359D01*
X0032765Y0145290D01*
X0033799Y0144256D01*
X0036902Y0144256D01*
X0039211Y0144256D02*
X0039211Y0147359D01*
X0040245Y0148393D01*
X0042313Y0148393D01*
X0042313Y0146325D02*
X0039211Y0146325D01*
X0039211Y0144256D02*
X0042313Y0144256D01*
X0043348Y0145290D01*
X0042313Y0146325D01*
X0045656Y0148393D02*
X0048759Y0148393D01*
X0049793Y0147359D01*
X0049793Y0145290D01*
X0048759Y0144256D01*
X0045656Y0144256D01*
X0045656Y0150461D01*
X0052102Y0148393D02*
X0052102Y0144256D01*
X0052102Y0147359D02*
X0056239Y0147359D01*
X0056239Y0148393D02*
X0054170Y0150461D01*
X0052102Y0148393D01*
X0056239Y0148393D02*
X0056239Y0144256D01*
X0058547Y0147359D02*
X0062684Y0147359D01*
X0064993Y0146325D02*
X0064993Y0145290D01*
X0066027Y0144256D01*
X0068095Y0144256D01*
X0069130Y0145290D01*
X0069130Y0147359D01*
X0066027Y0147359D01*
X0064993Y0146325D01*
X0067061Y0149427D02*
X0064993Y0150461D01*
X0067061Y0149427D02*
X0069130Y0147359D01*
X0071438Y0146325D02*
X0071438Y0145290D01*
X0072472Y0144256D01*
X0074541Y0144256D01*
X0075575Y0145290D01*
X0075575Y0147359D01*
X0072472Y0147359D01*
X0071438Y0146325D01*
X0073507Y0149427D02*
X0071438Y0150461D01*
X0073507Y0149427D02*
X0075575Y0147359D01*
X0077884Y0148393D02*
X0077884Y0149427D01*
X0078918Y0150461D01*
X0080986Y0150461D01*
X0082021Y0149427D01*
X0084329Y0149427D02*
X0084329Y0148393D01*
X0085363Y0147359D01*
X0087432Y0147359D01*
X0088466Y0148393D01*
X0088466Y0149427D01*
X0087432Y0150461D01*
X0085363Y0150461D01*
X0084329Y0149427D01*
X0085363Y0147359D02*
X0084329Y0146325D01*
X0084329Y0145290D01*
X0085363Y0144256D01*
X0087432Y0144256D01*
X0088466Y0145290D01*
X0088466Y0146325D01*
X0087432Y0147359D01*
X0090775Y0147359D02*
X0091809Y0146325D01*
X0094912Y0146325D01*
X0094912Y0144256D02*
X0094912Y0150461D01*
X0091809Y0150461D01*
X0090775Y0149427D01*
X0090775Y0147359D01*
X0097220Y0146325D02*
X0097220Y0145290D01*
X0098254Y0144256D01*
X0100323Y0144256D01*
X0101357Y0145290D01*
X0100323Y0147359D02*
X0098254Y0147359D01*
X0097220Y0146325D01*
X0097220Y0149427D02*
X0098254Y0150461D01*
X0100323Y0150461D01*
X0101357Y0149427D01*
X0101357Y0148393D01*
X0100323Y0147359D01*
X0103666Y0150461D02*
X0107803Y0150461D01*
X0107803Y0144256D01*
X0103666Y0144256D01*
X0105734Y0147359D02*
X0107803Y0147359D01*
X0082021Y0144256D02*
X0077884Y0148393D01*
X0077884Y0144256D02*
X0082021Y0144256D01*
X0030457Y0148393D02*
X0028388Y0148393D01*
X0029422Y0149427D02*
X0029422Y0145290D01*
X0028388Y0144256D01*
X0026160Y0145290D02*
X0026160Y0147359D01*
X0025125Y0148393D01*
X0023057Y0148393D01*
X0022023Y0147359D01*
X0022023Y0146325D01*
X0026160Y0146325D01*
X0026160Y0145290D02*
X0025125Y0144256D01*
X0023057Y0144256D01*
X0019714Y0144256D02*
X0019714Y0148393D01*
X0019714Y0146325D02*
X0017646Y0148393D01*
X0016611Y0148393D01*
D12*
X0045196Y0129921D02*
X0045196Y0128386D01*
X0045963Y0127619D01*
X0045963Y0126084D02*
X0045196Y0125317D01*
X0045196Y0123782D01*
X0045963Y0123015D01*
X0049033Y0123015D01*
X0049800Y0123782D01*
X0049800Y0125317D01*
X0049033Y0126084D01*
X0049033Y0127619D02*
X0049800Y0128386D01*
X0049800Y0129921D01*
X0049033Y0130688D01*
X0048265Y0130688D01*
X0047498Y0129921D01*
X0046731Y0130688D01*
X0045963Y0130688D01*
X0045196Y0129921D01*
X0047498Y0129921D02*
X0047498Y0129154D01*
X0057555Y0115275D02*
X0060624Y0115275D01*
X0062159Y0116042D02*
X0062926Y0115275D01*
X0064461Y0115275D01*
X0065228Y0116042D01*
X0065228Y0119112D01*
X0064461Y0119879D01*
X0062926Y0119879D01*
X0062159Y0119112D01*
X0060624Y0118344D02*
X0059090Y0119879D01*
X0059090Y0115275D01*
X0066763Y0115275D02*
X0068298Y0115275D01*
X0067530Y0115275D02*
X0067530Y0119879D01*
X0066763Y0119879D02*
X0068298Y0119879D01*
X0050055Y0089969D02*
X0045452Y0089969D01*
X0045452Y0091503D02*
X0045452Y0088434D01*
X0046219Y0086900D02*
X0045452Y0086132D01*
X0045452Y0084598D01*
X0046219Y0083830D01*
X0049288Y0083830D01*
X0050055Y0084598D01*
X0050055Y0086132D01*
X0049288Y0086900D01*
X0048521Y0088434D02*
X0050055Y0089969D01*
X0044417Y0101657D02*
X0044417Y0106261D01*
X0042115Y0106261D01*
X0041348Y0105493D01*
X0041348Y0103959D01*
X0042115Y0103191D01*
X0044417Y0103191D01*
X0042883Y0103191D02*
X0041348Y0101657D01*
X0039813Y0101657D02*
X0036744Y0101657D01*
X0038279Y0101657D02*
X0038279Y0106261D01*
X0039813Y0104726D01*
X0034249Y0091358D02*
X0035016Y0090590D01*
X0035016Y0089056D01*
X0034249Y0088289D01*
X0034249Y0086754D02*
X0035016Y0085987D01*
X0035016Y0084452D01*
X0034249Y0083685D01*
X0031179Y0083685D01*
X0030412Y0084452D01*
X0030412Y0085987D01*
X0031179Y0086754D01*
X0030412Y0088289D02*
X0033481Y0091358D01*
X0034249Y0091358D01*
X0030412Y0091358D02*
X0030412Y0088289D01*
X0067403Y0079462D02*
X0067403Y0077927D01*
X0068170Y0077160D01*
X0067403Y0075625D02*
X0068937Y0074091D01*
X0068937Y0074858D02*
X0068937Y0072556D01*
X0067403Y0072556D02*
X0072006Y0072556D01*
X0072006Y0074858D01*
X0071239Y0075625D01*
X0069704Y0075625D01*
X0068937Y0074858D01*
X0071239Y0077160D02*
X0072006Y0077927D01*
X0072006Y0079462D01*
X0071239Y0080229D01*
X0070472Y0080229D01*
X0069704Y0079462D01*
X0068937Y0080229D01*
X0068170Y0080229D01*
X0067403Y0079462D01*
X0069704Y0079462D02*
X0069704Y0078695D01*
X0043853Y0033279D02*
X0041551Y0033279D01*
X0040784Y0032512D01*
X0040784Y0030977D01*
X0041551Y0030210D01*
X0043853Y0030210D01*
X0043853Y0028675D02*
X0043853Y0033279D01*
X0042318Y0030210D02*
X0040784Y0028675D01*
X0039249Y0028675D02*
X0036180Y0031745D01*
X0036180Y0032512D01*
X0036947Y0033279D01*
X0038482Y0033279D01*
X0039249Y0032512D01*
X0039249Y0028675D02*
X0036180Y0028675D01*
M02*
