G75*
%MOIN*%
%OFA0B0*%
%FSLAX25Y25*%
%IPPOS*%
%LPD*%
%AMOC8*
5,1,8,0,0,1.08239X$1,22.5*
%
%ADD10C,0.04756*%
%ADD11C,0.06000*%
%ADD12C,0.01200*%
%ADD13C,0.01600*%
%ADD14R,0.04134X0.04134*%
D10*
X0035270Y0040242D02*
X0035270Y0044998D01*
X0043144Y0044998D02*
X0043144Y0040242D01*
X0051018Y0040242D02*
X0051018Y0044998D01*
X0058892Y0044998D02*
X0058892Y0040242D01*
X0066766Y0040242D02*
X0066766Y0044998D01*
X0074640Y0044998D02*
X0074640Y0040242D01*
X0083065Y0051447D02*
X0087821Y0051447D01*
X0087821Y0059321D02*
X0083065Y0059321D01*
X0083065Y0067195D02*
X0087821Y0067195D01*
X0087821Y0075069D02*
X0083065Y0075069D01*
X0083065Y0082943D02*
X0087821Y0082943D01*
X0087821Y0090817D02*
X0083065Y0090817D01*
X0083065Y0098691D02*
X0087821Y0098691D01*
X0087821Y0106565D02*
X0083065Y0106565D01*
X0027160Y0106565D02*
X0022404Y0106565D01*
X0022404Y0098691D02*
X0027160Y0098691D01*
X0027160Y0090817D02*
X0022404Y0090817D01*
X0022404Y0082943D02*
X0027160Y0082943D01*
X0027160Y0075069D02*
X0022404Y0075069D01*
X0022404Y0067195D02*
X0027160Y0067195D01*
X0027160Y0059321D02*
X0022404Y0059321D01*
X0022404Y0051447D02*
X0027160Y0051447D01*
D11*
X0013506Y0050507D02*
X0007506Y0050507D01*
X0007506Y0060507D02*
X0013506Y0060507D01*
X0013506Y0070507D02*
X0007506Y0070507D01*
X0007506Y0080507D02*
X0013506Y0080507D01*
X0013506Y0090507D02*
X0007506Y0090507D01*
X0007506Y0100507D02*
X0013506Y0100507D01*
X0013506Y0110507D02*
X0007506Y0110507D01*
X0007506Y0120507D02*
X0013506Y0120507D01*
X0013506Y0130507D02*
X0007506Y0130507D01*
X0007506Y0040507D02*
X0013506Y0040507D01*
X0013506Y0030507D02*
X0007506Y0030507D01*
X0007506Y0020507D02*
X0013506Y0020507D01*
X0013506Y0010507D02*
X0007506Y0010507D01*
X0039167Y0007629D02*
X0045167Y0007629D01*
X0045167Y0025429D02*
X0039167Y0025429D01*
X0064767Y0025429D02*
X0070767Y0025429D01*
X0070767Y0007629D02*
X0064767Y0007629D01*
X0097506Y0010507D02*
X0103506Y0010507D01*
X0103506Y0020507D02*
X0097506Y0020507D01*
X0097506Y0030507D02*
X0103506Y0030507D01*
X0103506Y0040507D02*
X0097506Y0040507D01*
X0097506Y0050507D02*
X0103506Y0050507D01*
X0103506Y0060507D02*
X0097506Y0060507D01*
X0097506Y0070507D02*
X0103506Y0070507D01*
X0103506Y0080507D02*
X0097506Y0080507D01*
X0097506Y0090507D02*
X0103506Y0090507D01*
X0103506Y0100507D02*
X0097506Y0100507D01*
X0097506Y0110507D02*
X0103506Y0110507D01*
X0103506Y0120507D02*
X0097506Y0120507D01*
X0097506Y0130507D02*
X0103506Y0130507D01*
D12*
X0051018Y0044998D02*
X0051018Y0042018D01*
X0042500Y0033500D01*
X0038500Y0033500D01*
X0034500Y0029500D01*
X0034500Y0022500D01*
X0022500Y0010500D01*
X0010513Y0010500D01*
X0010506Y0010507D01*
X0010513Y0020500D02*
X0010506Y0020507D01*
X0010513Y0020500D02*
X0026500Y0020500D01*
X0031500Y0025500D01*
X0031500Y0030500D01*
X0043144Y0042144D01*
X0043144Y0044998D01*
X0035270Y0044998D02*
X0035270Y0043270D01*
X0022500Y0030500D01*
X0010513Y0030500D01*
X0010506Y0030507D01*
X0023500Y0075500D02*
X0026729Y0075500D01*
X0027160Y0075069D01*
X0023500Y0075500D02*
X0018500Y0080500D01*
X0018500Y0083500D01*
X0011493Y0090507D01*
X0010506Y0090507D01*
X0018500Y0092500D02*
X0010506Y0100494D01*
X0010506Y0100507D01*
X0018500Y0104500D02*
X0012493Y0110507D01*
X0010506Y0110507D01*
X0018500Y0104500D02*
X0018500Y0096500D01*
X0022500Y0091500D01*
X0026477Y0091500D01*
X0027160Y0090817D01*
X0026603Y0083500D02*
X0023500Y0083500D01*
X0018500Y0088500D01*
X0018500Y0092500D01*
X0026603Y0083500D02*
X0027160Y0082943D01*
D13*
X0003097Y0009129D02*
X0003097Y0003444D01*
X0036808Y0003444D01*
X0036651Y0003524D01*
X0036040Y0003968D01*
X0035506Y0004502D01*
X0035061Y0005114D01*
X0034718Y0005787D01*
X0034485Y0006505D01*
X0034367Y0007252D01*
X0034367Y0007429D01*
X0041967Y0007429D01*
X0041967Y0007829D01*
X0034367Y0007829D01*
X0034367Y0008007D01*
X0034485Y0008753D01*
X0034718Y0009472D01*
X0035061Y0010145D01*
X0035506Y0010756D01*
X0036040Y0011291D01*
X0036651Y0011735D01*
X0037324Y0012078D01*
X0038043Y0012311D01*
X0038789Y0012429D01*
X0041967Y0012429D01*
X0041967Y0007829D01*
X0042367Y0007829D01*
X0049967Y0007829D01*
X0049967Y0008007D01*
X0049849Y0008753D01*
X0049615Y0009472D01*
X0049272Y0010145D01*
X0048828Y0010756D01*
X0048294Y0011291D01*
X0047682Y0011735D01*
X0047009Y0012078D01*
X0046291Y0012311D01*
X0045545Y0012429D01*
X0042367Y0012429D01*
X0042367Y0007829D01*
X0042367Y0007429D01*
X0049967Y0007429D01*
X0049967Y0007252D01*
X0049849Y0006505D01*
X0049615Y0005787D01*
X0049272Y0005114D01*
X0048828Y0004502D01*
X0048294Y0003968D01*
X0047682Y0003524D01*
X0047525Y0003444D01*
X0062408Y0003444D01*
X0062251Y0003524D01*
X0061640Y0003968D01*
X0061106Y0004502D01*
X0060661Y0005114D01*
X0060318Y0005787D01*
X0060085Y0006505D01*
X0059967Y0007252D01*
X0059967Y0007429D01*
X0067567Y0007429D01*
X0067567Y0007829D01*
X0059967Y0007829D01*
X0059967Y0008007D01*
X0060085Y0008753D01*
X0060318Y0009472D01*
X0060661Y0010145D01*
X0061106Y0010756D01*
X0061640Y0011291D01*
X0062251Y0011735D01*
X0062924Y0012078D01*
X0063643Y0012311D01*
X0064389Y0012429D01*
X0067567Y0012429D01*
X0067567Y0007829D01*
X0067967Y0007829D01*
X0075567Y0007829D01*
X0075567Y0008007D01*
X0075449Y0008753D01*
X0075215Y0009472D01*
X0074872Y0010145D01*
X0074428Y0010756D01*
X0073894Y0011291D01*
X0073282Y0011735D01*
X0072609Y0012078D01*
X0071891Y0012311D01*
X0071145Y0012429D01*
X0067967Y0012429D01*
X0067967Y0007829D01*
X0067967Y0007429D01*
X0075567Y0007429D01*
X0075567Y0007252D01*
X0075449Y0006505D01*
X0075215Y0005787D01*
X0074872Y0005114D01*
X0074428Y0004502D01*
X0073894Y0003968D01*
X0073282Y0003524D01*
X0073125Y0003444D01*
X0107698Y0003444D01*
X0107698Y0008608D01*
X0107405Y0007902D01*
X0106111Y0006608D01*
X0104421Y0005907D01*
X0096591Y0005907D01*
X0094900Y0006608D01*
X0093606Y0007902D01*
X0092906Y0009592D01*
X0092906Y0011422D01*
X0093606Y0013113D01*
X0094900Y0014407D01*
X0096591Y0015107D01*
X0104421Y0015107D01*
X0106111Y0014407D01*
X0107405Y0013113D01*
X0107698Y0012406D01*
X0107698Y0018608D01*
X0107405Y0017902D01*
X0106111Y0016608D01*
X0104421Y0015907D01*
X0096591Y0015907D01*
X0094900Y0016608D01*
X0093606Y0017902D01*
X0092906Y0019592D01*
X0092906Y0021422D01*
X0093606Y0023113D01*
X0094900Y0024407D01*
X0096591Y0025107D01*
X0104421Y0025107D01*
X0106111Y0024407D01*
X0107405Y0023113D01*
X0107698Y0022406D01*
X0107698Y0028608D01*
X0107405Y0027902D01*
X0106111Y0026608D01*
X0104421Y0025907D01*
X0096591Y0025907D01*
X0094900Y0026608D01*
X0093606Y0027902D01*
X0092906Y0029592D01*
X0092906Y0031422D01*
X0093606Y0033113D01*
X0094900Y0034407D01*
X0096591Y0035107D01*
X0104421Y0035107D01*
X0106111Y0034407D01*
X0107405Y0033113D01*
X0107698Y0032406D01*
X0107698Y0038608D01*
X0107405Y0037902D01*
X0106111Y0036608D01*
X0104421Y0035907D01*
X0096591Y0035907D01*
X0094900Y0036608D01*
X0093606Y0037902D01*
X0092906Y0039592D01*
X0092906Y0041422D01*
X0093606Y0043113D01*
X0094900Y0044407D01*
X0096591Y0045107D01*
X0104421Y0045107D01*
X0106111Y0044407D01*
X0107405Y0043113D01*
X0107698Y0042406D01*
X0107698Y0048163D01*
X0107611Y0047991D01*
X0107167Y0047380D01*
X0106633Y0046846D01*
X0106022Y0046402D01*
X0105348Y0046059D01*
X0104630Y0045825D01*
X0103884Y0045707D01*
X0100706Y0045707D01*
X0100706Y0050307D01*
X0100306Y0050307D01*
X0100306Y0045707D01*
X0097128Y0045707D01*
X0096382Y0045825D01*
X0095663Y0046059D01*
X0094990Y0046402D01*
X0094379Y0046846D01*
X0093845Y0047380D01*
X0093400Y0047991D01*
X0093057Y0048665D01*
X0092824Y0049383D01*
X0092706Y0050129D01*
X0092706Y0050307D01*
X0100306Y0050307D01*
X0100306Y0050707D01*
X0092706Y0050707D01*
X0092706Y0050885D01*
X0092824Y0051631D01*
X0093057Y0052350D01*
X0093400Y0053023D01*
X0093845Y0053634D01*
X0094379Y0054168D01*
X0094990Y0054613D01*
X0095663Y0054956D01*
X0096382Y0055189D01*
X0097128Y0055307D01*
X0100306Y0055307D01*
X0100306Y0050707D01*
X0100706Y0050707D01*
X0100706Y0055307D01*
X0103884Y0055307D01*
X0104630Y0055189D01*
X0105348Y0054956D01*
X0106022Y0054613D01*
X0106633Y0054168D01*
X0107167Y0053634D01*
X0107611Y0053023D01*
X0107698Y0052852D01*
X0107698Y0058163D01*
X0107611Y0057991D01*
X0107167Y0057380D01*
X0106633Y0056846D01*
X0106022Y0056402D01*
X0105348Y0056059D01*
X0104630Y0055825D01*
X0103884Y0055707D01*
X0100706Y0055707D01*
X0100706Y0060307D01*
X0100306Y0060307D01*
X0100306Y0055707D01*
X0097128Y0055707D01*
X0096382Y0055825D01*
X0095663Y0056059D01*
X0094990Y0056402D01*
X0094379Y0056846D01*
X0093845Y0057380D01*
X0093400Y0057991D01*
X0093057Y0058665D01*
X0092824Y0059383D01*
X0092706Y0060129D01*
X0092706Y0060307D01*
X0100306Y0060307D01*
X0100306Y0060707D01*
X0092706Y0060707D01*
X0092706Y0060885D01*
X0092824Y0061631D01*
X0093057Y0062350D01*
X0093400Y0063023D01*
X0093845Y0063634D01*
X0094379Y0064168D01*
X0094990Y0064613D01*
X0095663Y0064956D01*
X0096382Y0065189D01*
X0097128Y0065307D01*
X0100306Y0065307D01*
X0100306Y0060707D01*
X0100706Y0060707D01*
X0100706Y0065307D01*
X0103884Y0065307D01*
X0104630Y0065189D01*
X0105348Y0064956D01*
X0106022Y0064613D01*
X0106633Y0064168D01*
X0107167Y0063634D01*
X0107611Y0063023D01*
X0107698Y0062852D01*
X0107698Y0068608D01*
X0107405Y0067902D01*
X0106111Y0066608D01*
X0104421Y0065907D01*
X0096591Y0065907D01*
X0094900Y0066608D01*
X0093606Y0067902D01*
X0092906Y0069592D01*
X0092906Y0071422D01*
X0093606Y0073113D01*
X0094900Y0074407D01*
X0096591Y0075107D01*
X0104421Y0075107D01*
X0106111Y0074407D01*
X0107405Y0073113D01*
X0107698Y0072406D01*
X0107698Y0078608D01*
X0107405Y0077902D01*
X0106111Y0076608D01*
X0104421Y0075907D01*
X0096591Y0075907D01*
X0094900Y0076608D01*
X0093606Y0077902D01*
X0092906Y0079592D01*
X0092906Y0081422D01*
X0093606Y0083113D01*
X0094900Y0084407D01*
X0096591Y0085107D01*
X0104421Y0085107D01*
X0106111Y0084407D01*
X0107405Y0083113D01*
X0107698Y0082406D01*
X0107698Y0088608D01*
X0107405Y0087902D01*
X0106111Y0086608D01*
X0104421Y0085907D01*
X0096591Y0085907D01*
X0094900Y0086608D01*
X0093606Y0087902D01*
X0092906Y0089592D01*
X0092906Y0091422D01*
X0093606Y0093113D01*
X0094900Y0094407D01*
X0096591Y0095107D01*
X0104421Y0095107D01*
X0106111Y0094407D01*
X0107405Y0093113D01*
X0107698Y0092406D01*
X0107698Y0098608D01*
X0107405Y0097902D01*
X0106111Y0096608D01*
X0104421Y0095907D01*
X0096591Y0095907D01*
X0094900Y0096608D01*
X0094778Y0096729D01*
X0094535Y0096141D01*
X0093859Y0095465D01*
X0091273Y0092879D01*
X0091799Y0091608D01*
X0091799Y0090026D01*
X0091193Y0088564D01*
X0090074Y0087445D01*
X0088711Y0086880D01*
X0090074Y0086315D01*
X0091193Y0085196D01*
X0091799Y0083734D01*
X0091799Y0082152D01*
X0091193Y0080690D01*
X0090074Y0079571D01*
X0088711Y0079006D01*
X0090074Y0078441D01*
X0091193Y0077322D01*
X0091799Y0075860D01*
X0091799Y0074278D01*
X0091193Y0072816D01*
X0090074Y0071697D01*
X0088711Y0071132D01*
X0090074Y0070567D01*
X0091193Y0069448D01*
X0091799Y0067986D01*
X0091799Y0066404D01*
X0091193Y0064942D01*
X0090074Y0063823D01*
X0088711Y0063258D01*
X0090074Y0062693D01*
X0091193Y0061574D01*
X0091799Y0060112D01*
X0091799Y0058530D01*
X0091193Y0057068D01*
X0090074Y0055949D01*
X0088937Y0055478D01*
X0089425Y0055319D01*
X0090011Y0055020D01*
X0090543Y0054634D01*
X0091008Y0054169D01*
X0091394Y0053637D01*
X0091693Y0053051D01*
X0091896Y0052425D01*
X0091999Y0051776D01*
X0091999Y0051447D01*
X0083065Y0051447D01*
X0078887Y0051447D01*
X0078887Y0051118D01*
X0078990Y0050469D01*
X0079193Y0049843D01*
X0079492Y0049257D01*
X0079878Y0048725D01*
X0080343Y0048260D01*
X0080875Y0047874D01*
X0081461Y0047575D01*
X0082087Y0047372D01*
X0082736Y0047269D01*
X0083065Y0047269D01*
X0083065Y0051447D01*
X0083065Y0051447D01*
X0083065Y0051447D01*
X0078887Y0051447D01*
X0078887Y0051776D01*
X0078990Y0052425D01*
X0079193Y0053051D01*
X0079492Y0053637D01*
X0079878Y0054169D01*
X0080343Y0054634D01*
X0080875Y0055020D01*
X0081461Y0055319D01*
X0081950Y0055478D01*
X0080812Y0055949D01*
X0079693Y0057068D01*
X0079087Y0058530D01*
X0079087Y0060112D01*
X0079693Y0061574D01*
X0080812Y0062693D01*
X0082175Y0063258D01*
X0080812Y0063823D01*
X0079693Y0064942D01*
X0079087Y0066404D01*
X0079087Y0067986D01*
X0079693Y0069448D01*
X0080812Y0070567D01*
X0082175Y0071132D01*
X0080812Y0071697D01*
X0079693Y0072816D01*
X0079087Y0074278D01*
X0079087Y0075860D01*
X0079693Y0077322D01*
X0080812Y0078441D01*
X0082175Y0079006D01*
X0080812Y0079571D01*
X0079693Y0080690D01*
X0079087Y0082152D01*
X0079087Y0083734D01*
X0079693Y0085196D01*
X0080812Y0086315D01*
X0082175Y0086880D01*
X0080812Y0087445D01*
X0079693Y0088564D01*
X0079087Y0090026D01*
X0079087Y0091608D01*
X0079693Y0093070D01*
X0080812Y0094189D01*
X0082175Y0094754D01*
X0080812Y0095319D01*
X0079693Y0096438D01*
X0079087Y0097900D01*
X0079087Y0099482D01*
X0079693Y0100944D01*
X0080812Y0102063D01*
X0082175Y0102628D01*
X0080812Y0103193D01*
X0079693Y0104312D01*
X0079087Y0105774D01*
X0079087Y0107356D01*
X0079693Y0108819D01*
X0080812Y0109938D01*
X0082274Y0110543D01*
X0088612Y0110543D01*
X0090074Y0109938D01*
X0091193Y0108819D01*
X0091799Y0107356D01*
X0091799Y0105774D01*
X0091389Y0104785D01*
X0094056Y0107452D01*
X0093606Y0107902D01*
X0092906Y0109592D01*
X0092906Y0111422D01*
X0093606Y0113113D01*
X0094900Y0114407D01*
X0096591Y0115107D01*
X0104421Y0115107D01*
X0106111Y0114407D01*
X0107405Y0113113D01*
X0107698Y0112406D01*
X0107698Y0118608D01*
X0107405Y0117902D01*
X0106111Y0116608D01*
X0104421Y0115907D01*
X0096591Y0115907D01*
X0094900Y0116608D01*
X0093606Y0117902D01*
X0092906Y0119592D01*
X0092906Y0121422D01*
X0093606Y0123113D01*
X0094900Y0124407D01*
X0096591Y0125107D01*
X0104421Y0125107D01*
X0106111Y0124407D01*
X0107405Y0123113D01*
X0107698Y0122406D01*
X0107698Y0128608D01*
X0107405Y0127902D01*
X0106111Y0126608D01*
X0104421Y0125907D01*
X0096591Y0125907D01*
X0094900Y0126608D01*
X0093606Y0127902D01*
X0092906Y0129592D01*
X0092906Y0131422D01*
X0093606Y0133113D01*
X0094900Y0134407D01*
X0096591Y0135107D01*
X0104421Y0135107D01*
X0106111Y0134407D01*
X0107405Y0133113D01*
X0107698Y0132406D01*
X0107698Y0140500D01*
X0003097Y0140500D01*
X0003097Y0131885D01*
X0003606Y0133113D01*
X0004900Y0134407D01*
X0006591Y0135107D01*
X0014421Y0135107D01*
X0016111Y0134407D01*
X0017405Y0133113D01*
X0018106Y0131422D01*
X0018106Y0129592D01*
X0017405Y0127902D01*
X0016111Y0126608D01*
X0014421Y0125907D01*
X0006591Y0125907D01*
X0004900Y0126608D01*
X0003606Y0127902D01*
X0003097Y0129129D01*
X0003097Y0121885D01*
X0003606Y0123113D01*
X0004900Y0124407D01*
X0006591Y0125107D01*
X0014421Y0125107D01*
X0016111Y0124407D01*
X0017405Y0123113D01*
X0017494Y0122900D01*
X0032977Y0122900D01*
X0033859Y0122535D01*
X0034535Y0121859D01*
X0034900Y0120977D01*
X0034900Y0102023D01*
X0034535Y0101141D01*
X0033859Y0100465D01*
X0031027Y0097633D01*
X0030532Y0096438D01*
X0029413Y0095319D01*
X0028050Y0094754D01*
X0029413Y0094189D01*
X0030532Y0093070D01*
X0031138Y0091608D01*
X0031138Y0090026D01*
X0030532Y0088564D01*
X0029413Y0087445D01*
X0028050Y0086880D01*
X0029413Y0086315D01*
X0030532Y0085196D01*
X0031138Y0083734D01*
X0031138Y0082152D01*
X0030532Y0080690D01*
X0029413Y0079571D01*
X0028050Y0079006D01*
X0029413Y0078441D01*
X0030532Y0077322D01*
X0031138Y0075860D01*
X0031138Y0074278D01*
X0030532Y0072816D01*
X0029413Y0071697D01*
X0028050Y0071132D01*
X0029413Y0070567D01*
X0030532Y0069448D01*
X0031138Y0067986D01*
X0031138Y0066404D01*
X0030532Y0064942D01*
X0029413Y0063823D01*
X0028050Y0063258D01*
X0029413Y0062693D01*
X0030532Y0061574D01*
X0031138Y0060112D01*
X0031138Y0058530D01*
X0030532Y0057068D01*
X0029413Y0055949D01*
X0028050Y0055384D01*
X0029413Y0054819D01*
X0030532Y0053700D01*
X0031138Y0052238D01*
X0031138Y0050656D01*
X0030532Y0049194D01*
X0029413Y0048075D01*
X0027951Y0047469D01*
X0021612Y0047469D01*
X0020150Y0048075D01*
X0020118Y0048107D01*
X0017491Y0048107D01*
X0017405Y0047902D01*
X0016111Y0046608D01*
X0014421Y0045907D01*
X0006591Y0045907D01*
X0004900Y0046608D01*
X0003606Y0047902D01*
X0003097Y0049129D01*
X0003097Y0042428D01*
X0003400Y0043023D01*
X0003845Y0043634D01*
X0004379Y0044168D01*
X0004990Y0044613D01*
X0005663Y0044956D01*
X0006382Y0045189D01*
X0007128Y0045307D01*
X0010306Y0045307D01*
X0010306Y0040707D01*
X0010706Y0040707D01*
X0018306Y0040707D01*
X0018306Y0040885D01*
X0018188Y0041631D01*
X0017954Y0042350D01*
X0017611Y0043023D01*
X0017167Y0043634D01*
X0016633Y0044168D01*
X0016022Y0044613D01*
X0015348Y0044956D01*
X0014630Y0045189D01*
X0013884Y0045307D01*
X0010706Y0045307D01*
X0010706Y0040707D01*
X0010706Y0040307D01*
X0018306Y0040307D01*
X0018306Y0040129D01*
X0018188Y0039383D01*
X0017954Y0038665D01*
X0017611Y0037991D01*
X0017167Y0037380D01*
X0016633Y0036846D01*
X0016022Y0036402D01*
X0015348Y0036059D01*
X0014630Y0035825D01*
X0013884Y0035707D01*
X0010706Y0035707D01*
X0010706Y0040307D01*
X0010306Y0040307D01*
X0010306Y0035707D01*
X0007128Y0035707D01*
X0006382Y0035825D01*
X0005663Y0036059D01*
X0004990Y0036402D01*
X0004379Y0036846D01*
X0003845Y0037380D01*
X0003400Y0037991D01*
X0003097Y0038586D01*
X0003097Y0031885D01*
X0003606Y0033113D01*
X0004900Y0034407D01*
X0006591Y0035107D01*
X0014421Y0035107D01*
X0016111Y0034407D01*
X0017405Y0033113D01*
X0017576Y0032700D01*
X0021589Y0032700D01*
X0031292Y0042403D01*
X0031292Y0045790D01*
X0031898Y0047252D01*
X0033017Y0048371D01*
X0034479Y0048976D01*
X0036061Y0048976D01*
X0037523Y0048371D01*
X0038642Y0047252D01*
X0039207Y0045888D01*
X0039772Y0047252D01*
X0040891Y0048371D01*
X0042353Y0048976D01*
X0043935Y0048976D01*
X0045397Y0048371D01*
X0046516Y0047252D01*
X0047081Y0045888D01*
X0047646Y0047252D01*
X0048765Y0048371D01*
X0050227Y0048976D01*
X0051809Y0048976D01*
X0053271Y0048371D01*
X0054390Y0047252D01*
X0054955Y0045888D01*
X0055520Y0047252D01*
X0056639Y0048371D01*
X0058101Y0048976D01*
X0059683Y0048976D01*
X0061145Y0048371D01*
X0062264Y0047252D01*
X0062829Y0045888D01*
X0063394Y0047252D01*
X0064513Y0048371D01*
X0065975Y0048976D01*
X0067557Y0048976D01*
X0069019Y0048371D01*
X0070138Y0047252D01*
X0070703Y0045888D01*
X0071268Y0047252D01*
X0072387Y0048371D01*
X0073849Y0048976D01*
X0075431Y0048976D01*
X0076893Y0048371D01*
X0078012Y0047252D01*
X0078618Y0045790D01*
X0078618Y0039451D01*
X0078012Y0037989D01*
X0076893Y0036870D01*
X0075431Y0036264D01*
X0073849Y0036264D01*
X0072387Y0036870D01*
X0071268Y0037989D01*
X0070703Y0039352D01*
X0070138Y0037989D01*
X0069019Y0036870D01*
X0067557Y0036264D01*
X0065975Y0036264D01*
X0064513Y0036870D01*
X0063394Y0037989D01*
X0062829Y0039352D01*
X0062264Y0037989D01*
X0061145Y0036870D01*
X0059683Y0036264D01*
X0058101Y0036264D01*
X0056639Y0036870D01*
X0055520Y0037989D01*
X0054955Y0039352D01*
X0054390Y0037989D01*
X0053271Y0036870D01*
X0051809Y0036264D01*
X0050227Y0036264D01*
X0048918Y0036807D01*
X0044700Y0032589D01*
X0043411Y0031300D01*
X0039411Y0031300D01*
X0038062Y0029951D01*
X0038252Y0030029D01*
X0046082Y0030029D01*
X0047772Y0029329D01*
X0049066Y0028035D01*
X0049767Y0026344D01*
X0049767Y0024514D01*
X0049066Y0022824D01*
X0047772Y0021530D01*
X0046082Y0020829D01*
X0038252Y0020829D01*
X0036617Y0021506D01*
X0024700Y0009589D01*
X0023411Y0008300D01*
X0017571Y0008300D01*
X0017405Y0007902D01*
X0016111Y0006608D01*
X0014421Y0005907D01*
X0006591Y0005907D01*
X0004900Y0006608D01*
X0003606Y0007902D01*
X0003097Y0009129D01*
X0003097Y0008084D02*
X0003531Y0008084D01*
X0003097Y0006485D02*
X0005196Y0006485D01*
X0003097Y0004887D02*
X0035226Y0004887D01*
X0034491Y0006485D02*
X0015816Y0006485D01*
X0017481Y0008084D02*
X0034379Y0008084D01*
X0034826Y0009682D02*
X0024793Y0009682D01*
X0026392Y0011281D02*
X0036030Y0011281D01*
X0031187Y0016076D02*
X0096183Y0016076D01*
X0095071Y0014478D02*
X0029589Y0014478D01*
X0027990Y0012879D02*
X0093509Y0012879D01*
X0092906Y0011281D02*
X0073904Y0011281D01*
X0075108Y0009682D02*
X0092906Y0009682D01*
X0093531Y0008084D02*
X0075555Y0008084D01*
X0075442Y0006485D02*
X0095196Y0006485D01*
X0093833Y0017675D02*
X0032786Y0017675D01*
X0034384Y0019273D02*
X0093038Y0019273D01*
X0092906Y0020872D02*
X0071784Y0020872D01*
X0071682Y0020829D02*
X0073372Y0021530D01*
X0074666Y0022824D01*
X0075367Y0024514D01*
X0075367Y0026344D01*
X0074666Y0028035D01*
X0073372Y0029329D01*
X0071682Y0030029D01*
X0063852Y0030029D01*
X0062161Y0029329D01*
X0060867Y0028035D01*
X0060167Y0026344D01*
X0060167Y0024514D01*
X0060867Y0022824D01*
X0062161Y0021530D01*
X0063852Y0020829D01*
X0071682Y0020829D01*
X0074313Y0022470D02*
X0093340Y0022470D01*
X0094562Y0024069D02*
X0075182Y0024069D01*
X0075367Y0025667D02*
X0107698Y0025667D01*
X0107698Y0024069D02*
X0106450Y0024069D01*
X0107672Y0022470D02*
X0107698Y0022470D01*
X0107698Y0017675D02*
X0107179Y0017675D01*
X0107698Y0016076D02*
X0104829Y0016076D01*
X0105941Y0014478D02*
X0107698Y0014478D01*
X0107698Y0012879D02*
X0107502Y0012879D01*
X0107481Y0008084D02*
X0107698Y0008084D01*
X0107698Y0006485D02*
X0105816Y0006485D01*
X0107698Y0004887D02*
X0074707Y0004887D01*
X0068896Y0007500D02*
X0067767Y0007629D01*
X0042167Y0007629D01*
X0041967Y0008084D02*
X0042367Y0008084D01*
X0042367Y0009682D02*
X0041967Y0009682D01*
X0041967Y0011281D02*
X0042367Y0011281D01*
X0048304Y0011281D02*
X0061630Y0011281D01*
X0060426Y0009682D02*
X0049508Y0009682D01*
X0049955Y0008084D02*
X0059979Y0008084D01*
X0060091Y0006485D02*
X0049842Y0006485D01*
X0049107Y0004887D02*
X0060826Y0004887D01*
X0067567Y0008084D02*
X0067967Y0008084D01*
X0068896Y0007500D02*
X0082500Y0007500D01*
X0083000Y0011000D01*
X0083000Y0051382D01*
X0083065Y0051447D01*
X0083065Y0047269D01*
X0088150Y0047269D01*
X0088799Y0047372D01*
X0089425Y0047575D01*
X0090011Y0047874D01*
X0090543Y0048260D01*
X0091008Y0048725D01*
X0091394Y0049257D01*
X0091693Y0049843D01*
X0091896Y0050469D01*
X0091999Y0051118D01*
X0091999Y0051447D01*
X0083065Y0051447D01*
X0083065Y0051447D01*
X0083065Y0051243D02*
X0083065Y0051243D01*
X0083065Y0049645D02*
X0083065Y0049645D01*
X0083065Y0048046D02*
X0083065Y0048046D01*
X0080638Y0048046D02*
X0077217Y0048046D01*
X0078345Y0046448D02*
X0094927Y0046448D01*
X0095968Y0044849D02*
X0078618Y0044849D01*
X0078618Y0043251D02*
X0093744Y0043251D01*
X0093001Y0041652D02*
X0078618Y0041652D01*
X0078618Y0040054D02*
X0092906Y0040054D01*
X0093377Y0038455D02*
X0078205Y0038455D01*
X0076861Y0036857D02*
X0094651Y0036857D01*
X0094153Y0033660D02*
X0045771Y0033660D01*
X0047370Y0035258D02*
X0107698Y0035258D01*
X0107698Y0033660D02*
X0106859Y0033660D01*
X0106361Y0036857D02*
X0107698Y0036857D01*
X0107698Y0038455D02*
X0107635Y0038455D01*
X0107698Y0043251D02*
X0107267Y0043251D01*
X0107698Y0044849D02*
X0105043Y0044849D01*
X0106085Y0046448D02*
X0107698Y0046448D01*
X0107698Y0048046D02*
X0107639Y0048046D01*
X0107698Y0054440D02*
X0106258Y0054440D01*
X0105287Y0056039D02*
X0107698Y0056039D01*
X0107698Y0057637D02*
X0107354Y0057637D01*
X0107698Y0064032D02*
X0106770Y0064032D01*
X0107698Y0065630D02*
X0091479Y0065630D01*
X0091799Y0067229D02*
X0094279Y0067229D01*
X0093223Y0068827D02*
X0091451Y0068827D01*
X0090216Y0070426D02*
X0092906Y0070426D01*
X0093155Y0072024D02*
X0090402Y0072024D01*
X0091528Y0073623D02*
X0094116Y0073623D01*
X0091799Y0075221D02*
X0107698Y0075221D01*
X0107698Y0073623D02*
X0106896Y0073623D01*
X0106324Y0076820D02*
X0107698Y0076820D01*
X0107698Y0078418D02*
X0107619Y0078418D01*
X0107698Y0083214D02*
X0107305Y0083214D01*
X0107698Y0084812D02*
X0105133Y0084812D01*
X0105636Y0086411D02*
X0107698Y0086411D01*
X0107698Y0088009D02*
X0107450Y0088009D01*
X0107533Y0092805D02*
X0107698Y0092805D01*
X0107698Y0094403D02*
X0106115Y0094403D01*
X0104649Y0096002D02*
X0107698Y0096002D01*
X0107698Y0097600D02*
X0107104Y0097600D01*
X0100506Y0110507D02*
X0092500Y0102501D01*
X0092500Y0097500D01*
X0085817Y0090817D01*
X0083065Y0090817D01*
X0080247Y0088009D02*
X0029977Y0088009D01*
X0029183Y0086411D02*
X0081042Y0086411D01*
X0079534Y0084812D02*
X0030691Y0084812D01*
X0031138Y0083214D02*
X0079087Y0083214D01*
X0079310Y0081615D02*
X0030915Y0081615D01*
X0029859Y0080017D02*
X0080366Y0080017D01*
X0080789Y0078418D02*
X0029436Y0078418D01*
X0030740Y0076820D02*
X0079485Y0076820D01*
X0079087Y0075221D02*
X0031138Y0075221D01*
X0030866Y0073623D02*
X0079359Y0073623D01*
X0080485Y0072024D02*
X0029740Y0072024D01*
X0029555Y0070426D02*
X0080670Y0070426D01*
X0079435Y0068827D02*
X0030789Y0068827D01*
X0031138Y0067229D02*
X0079087Y0067229D01*
X0079408Y0065630D02*
X0030817Y0065630D01*
X0029622Y0064032D02*
X0080603Y0064032D01*
X0080551Y0062433D02*
X0029673Y0062433D01*
X0030838Y0060834D02*
X0079386Y0060834D01*
X0079087Y0059236D02*
X0031138Y0059236D01*
X0030768Y0057637D02*
X0079457Y0057637D01*
X0080722Y0056039D02*
X0029503Y0056039D01*
X0029792Y0054440D02*
X0080150Y0054440D01*
X0079125Y0052842D02*
X0030888Y0052842D01*
X0031138Y0051243D02*
X0078887Y0051243D01*
X0079294Y0049645D02*
X0030719Y0049645D01*
X0029345Y0048046D02*
X0032692Y0048046D01*
X0031565Y0046448D02*
X0015726Y0046448D01*
X0015557Y0044849D02*
X0031292Y0044849D01*
X0031292Y0043251D02*
X0017445Y0043251D01*
X0018181Y0041652D02*
X0030541Y0041652D01*
X0028943Y0040054D02*
X0018294Y0040054D01*
X0017847Y0038455D02*
X0027344Y0038455D01*
X0025746Y0036857D02*
X0016644Y0036857D01*
X0016859Y0033660D02*
X0022549Y0033660D01*
X0024147Y0035258D02*
X0003097Y0035258D01*
X0003097Y0033660D02*
X0004153Y0033660D01*
X0003171Y0032061D02*
X0003097Y0032061D01*
X0003097Y0036857D02*
X0004368Y0036857D01*
X0003164Y0038455D02*
X0003097Y0038455D01*
X0003097Y0043251D02*
X0003566Y0043251D01*
X0003097Y0044849D02*
X0005455Y0044849D01*
X0005285Y0046448D02*
X0003097Y0046448D01*
X0003097Y0048046D02*
X0003546Y0048046D01*
X0010506Y0050507D02*
X0026220Y0050507D01*
X0027160Y0051447D01*
X0020219Y0048046D02*
X0017465Y0048046D01*
X0010506Y0050507D02*
X0010506Y0060507D01*
X0010506Y0070507D02*
X0012493Y0070507D01*
X0023500Y0059500D01*
X0026981Y0059500D01*
X0027160Y0059321D01*
X0027160Y0067195D02*
X0026855Y0067500D01*
X0022500Y0067500D01*
X0018500Y0071500D01*
X0018500Y0073500D01*
X0011493Y0080507D01*
X0010506Y0080507D01*
X0027160Y0098691D02*
X0028691Y0098691D01*
X0032500Y0102500D01*
X0032500Y0120500D01*
X0010513Y0120500D01*
X0010506Y0120507D01*
X0015223Y0124775D02*
X0095789Y0124775D01*
X0095465Y0126373D02*
X0015546Y0126373D01*
X0017435Y0127972D02*
X0093577Y0127972D01*
X0092915Y0129570D02*
X0018097Y0129570D01*
X0018106Y0131169D02*
X0092906Y0131169D01*
X0093463Y0132768D02*
X0017549Y0132768D01*
X0016152Y0134366D02*
X0094859Y0134366D01*
X0093670Y0123176D02*
X0017342Y0123176D01*
X0005789Y0124775D02*
X0003097Y0124775D01*
X0003097Y0123176D02*
X0003670Y0123176D01*
X0003097Y0126373D02*
X0005465Y0126373D01*
X0003577Y0127972D02*
X0003097Y0127972D01*
X0003097Y0132768D02*
X0003463Y0132768D01*
X0003097Y0134366D02*
X0004859Y0134366D01*
X0003097Y0135965D02*
X0107698Y0135965D01*
X0107698Y0137563D02*
X0003097Y0137563D01*
X0003097Y0139162D02*
X0107698Y0139162D01*
X0107698Y0134366D02*
X0106152Y0134366D01*
X0107549Y0132768D02*
X0107698Y0132768D01*
X0107698Y0127972D02*
X0107435Y0127972D01*
X0107698Y0126373D02*
X0105546Y0126373D01*
X0105223Y0124775D02*
X0107698Y0124775D01*
X0107698Y0123176D02*
X0107342Y0123176D01*
X0107604Y0118381D02*
X0107698Y0118381D01*
X0107698Y0116782D02*
X0106286Y0116782D01*
X0107698Y0115184D02*
X0034900Y0115184D01*
X0034900Y0116782D02*
X0094725Y0116782D01*
X0093408Y0118381D02*
X0034900Y0118381D01*
X0034900Y0119979D02*
X0092906Y0119979D01*
X0092970Y0121578D02*
X0034651Y0121578D01*
X0034900Y0113585D02*
X0094079Y0113585D01*
X0093140Y0111987D02*
X0034900Y0111987D01*
X0034900Y0110388D02*
X0081900Y0110388D01*
X0079681Y0108790D02*
X0034900Y0108790D01*
X0034900Y0107191D02*
X0079087Y0107191D01*
X0079162Y0105593D02*
X0034900Y0105593D01*
X0034900Y0103994D02*
X0080010Y0103994D01*
X0081614Y0102396D02*
X0034900Y0102396D01*
X0034191Y0100797D02*
X0079632Y0100797D01*
X0079087Y0099199D02*
X0032593Y0099199D01*
X0031013Y0097600D02*
X0079211Y0097600D01*
X0080129Y0096002D02*
X0030096Y0096002D01*
X0028897Y0094403D02*
X0081328Y0094403D01*
X0079583Y0092805D02*
X0030642Y0092805D01*
X0031138Y0091206D02*
X0079087Y0091206D01*
X0079260Y0089608D02*
X0030964Y0089608D01*
X0037847Y0048046D02*
X0040566Y0048046D01*
X0039439Y0046448D02*
X0038975Y0046448D01*
X0045721Y0048046D02*
X0048440Y0048046D01*
X0047313Y0046448D02*
X0046849Y0046448D01*
X0053595Y0048046D02*
X0056314Y0048046D01*
X0055187Y0046448D02*
X0054723Y0046448D01*
X0054583Y0038455D02*
X0055326Y0038455D01*
X0056670Y0036857D02*
X0053239Y0036857D01*
X0048237Y0028864D02*
X0061696Y0028864D01*
X0060548Y0027266D02*
X0049385Y0027266D01*
X0049767Y0025667D02*
X0060167Y0025667D01*
X0060351Y0024069D02*
X0049582Y0024069D01*
X0048713Y0022470D02*
X0061220Y0022470D01*
X0063749Y0020872D02*
X0046184Y0020872D01*
X0038149Y0020872D02*
X0035983Y0020872D01*
X0038574Y0030463D02*
X0092906Y0030463D01*
X0093171Y0032061D02*
X0044173Y0032061D01*
X0061113Y0036857D02*
X0064544Y0036857D01*
X0063200Y0038455D02*
X0062457Y0038455D01*
X0062597Y0046448D02*
X0063061Y0046448D01*
X0064188Y0048046D02*
X0061469Y0048046D01*
X0069343Y0048046D02*
X0072062Y0048046D01*
X0070935Y0046448D02*
X0070471Y0046448D01*
X0070331Y0038455D02*
X0071074Y0038455D01*
X0072418Y0036857D02*
X0068987Y0036857D01*
X0073837Y0028864D02*
X0093207Y0028864D01*
X0094242Y0027266D02*
X0074985Y0027266D01*
X0067967Y0011281D02*
X0067567Y0011281D01*
X0067567Y0009682D02*
X0067967Y0009682D01*
X0090248Y0048046D02*
X0093372Y0048046D01*
X0092783Y0049645D02*
X0091592Y0049645D01*
X0091999Y0051243D02*
X0092763Y0051243D01*
X0093308Y0052842D02*
X0091761Y0052842D01*
X0090736Y0054440D02*
X0094753Y0054440D01*
X0095724Y0056039D02*
X0090165Y0056039D01*
X0091429Y0057637D02*
X0093658Y0057637D01*
X0092872Y0059236D02*
X0091799Y0059236D01*
X0091500Y0060834D02*
X0092706Y0060834D01*
X0093100Y0062433D02*
X0090335Y0062433D01*
X0090283Y0064032D02*
X0094242Y0064032D01*
X0100306Y0064032D02*
X0100706Y0064032D01*
X0100706Y0062433D02*
X0100306Y0062433D01*
X0100306Y0060834D02*
X0100706Y0060834D01*
X0100706Y0059236D02*
X0100306Y0059236D01*
X0100306Y0057637D02*
X0100706Y0057637D01*
X0100706Y0056039D02*
X0100306Y0056039D01*
X0100306Y0054440D02*
X0100706Y0054440D01*
X0100706Y0052842D02*
X0100306Y0052842D01*
X0100306Y0051243D02*
X0100706Y0051243D01*
X0100706Y0049645D02*
X0100306Y0049645D01*
X0100306Y0048046D02*
X0100706Y0048046D01*
X0100706Y0046448D02*
X0100306Y0046448D01*
X0106770Y0027266D02*
X0107698Y0027266D01*
X0107698Y0067229D02*
X0106733Y0067229D01*
X0094688Y0076820D02*
X0091402Y0076820D01*
X0090098Y0078418D02*
X0093392Y0078418D01*
X0092906Y0080017D02*
X0090520Y0080017D01*
X0091577Y0081615D02*
X0092986Y0081615D01*
X0093707Y0083214D02*
X0091799Y0083214D01*
X0091353Y0084812D02*
X0095879Y0084812D01*
X0095375Y0086411D02*
X0089845Y0086411D01*
X0090639Y0088009D02*
X0093561Y0088009D01*
X0092906Y0089608D02*
X0091626Y0089608D01*
X0091799Y0091206D02*
X0092906Y0091206D01*
X0093478Y0092805D02*
X0091303Y0092805D01*
X0092797Y0094403D02*
X0094896Y0094403D01*
X0094396Y0096002D02*
X0096362Y0096002D01*
X0092197Y0105593D02*
X0091724Y0105593D01*
X0091799Y0107191D02*
X0093796Y0107191D01*
X0093238Y0108790D02*
X0091205Y0108790D01*
X0092906Y0110388D02*
X0088986Y0110388D01*
X0106933Y0113585D02*
X0107698Y0113585D01*
X0010706Y0044849D02*
X0010306Y0044849D01*
X0010306Y0043251D02*
X0010706Y0043251D01*
X0010706Y0041652D02*
X0010306Y0041652D01*
X0010306Y0040054D02*
X0010706Y0040054D01*
X0010706Y0038455D02*
X0010306Y0038455D01*
X0010306Y0036857D02*
X0010706Y0036857D01*
D14*
X0054500Y0055500D03*
X0018500Y0137500D03*
X0091500Y0137500D03*
M02*
