%
M48
M72
T01C0.02756
T02C0.04000
%
T01
X34972Y44354
X42846Y44354
X50720Y44354
X58594Y44354
X66469Y44354
X74343Y44354
X82768Y50803
X82768Y58677
X82768Y66551
X82768Y74425
X82768Y82299
X82768Y90173
X82768Y98047
X82768Y105921
X91203Y136856
X54203Y54856
X26862Y58677
X26862Y50803
X26862Y66551
X26862Y74425
X26862Y82299
X26862Y90173
X26862Y98047
X26862Y105921
X18203Y136856
T02
X10208Y9863
X10208Y19863
X10208Y29863
X10208Y39863
X10208Y49863
X10208Y59863
X10208Y69863
X10208Y79863
X10208Y89863
X10208Y99863
X10208Y109863
X10208Y119863
X10208Y129863
X41869Y24785
X41869Y6985
X67469Y6985
X67469Y24785
X100208Y19863
X100208Y9863
X100208Y29863
X100208Y39863
X100208Y49863
X100208Y59863
X100208Y69863
X100208Y79863
X100208Y89863
X100208Y99863
X100208Y109863
X100208Y119863
X100208Y129863
M30
