G75*
%MOIN*%
%OFA0B0*%
%FSLAX25Y25*%
%IPPOS*%
%LPD*%
%AMOC8*
5,1,8,0,0,1.08239X$1,22.5*
%
%ADD10C,0.04756*%
%ADD11C,0.06000*%
%ADD12R,0.04799X0.08799*%
%ADD13R,0.14173X0.08661*%
%ADD14R,0.07087X0.08465*%
%ADD15R,0.06299X0.05118*%
%ADD16R,0.05118X0.05906*%
%ADD17R,0.05906X0.05118*%
%ADD18C,0.01600*%
%ADD19C,0.01200*%
%ADD20R,0.04356X0.04356*%
D10*
X0034972Y0039598D02*
X0034972Y0044354D01*
X0042846Y0044354D02*
X0042846Y0039598D01*
X0050720Y0039598D02*
X0050720Y0044354D01*
X0058594Y0044354D02*
X0058594Y0039598D01*
X0066469Y0039598D02*
X0066469Y0044354D01*
X0074343Y0044354D02*
X0074343Y0039598D01*
X0082768Y0050803D02*
X0087524Y0050803D01*
X0087524Y0058677D02*
X0082768Y0058677D01*
X0082768Y0066551D02*
X0087524Y0066551D01*
X0087524Y0074425D02*
X0082768Y0074425D01*
X0082768Y0082299D02*
X0087524Y0082299D01*
X0087524Y0090173D02*
X0082768Y0090173D01*
X0082768Y0098047D02*
X0087524Y0098047D01*
X0087524Y0105921D02*
X0082768Y0105921D01*
X0026862Y0105921D02*
X0022106Y0105921D01*
X0022106Y0098047D02*
X0026862Y0098047D01*
X0026862Y0090173D02*
X0022106Y0090173D01*
X0022106Y0082299D02*
X0026862Y0082299D01*
X0026862Y0074425D02*
X0022106Y0074425D01*
X0022106Y0066551D02*
X0026862Y0066551D01*
X0026862Y0058677D02*
X0022106Y0058677D01*
X0022106Y0050803D02*
X0026862Y0050803D01*
D11*
X0013208Y0049863D02*
X0007208Y0049863D01*
X0007208Y0059863D02*
X0013208Y0059863D01*
X0013208Y0069863D02*
X0007208Y0069863D01*
X0007208Y0079863D02*
X0013208Y0079863D01*
X0013208Y0089863D02*
X0007208Y0089863D01*
X0007208Y0099863D02*
X0013208Y0099863D01*
X0013208Y0109863D02*
X0007208Y0109863D01*
X0007208Y0119863D02*
X0013208Y0119863D01*
X0013208Y0129863D02*
X0007208Y0129863D01*
X0007208Y0039863D02*
X0013208Y0039863D01*
X0013208Y0029863D02*
X0007208Y0029863D01*
X0007208Y0019863D02*
X0013208Y0019863D01*
X0013208Y0009863D02*
X0007208Y0009863D01*
X0038869Y0006985D02*
X0044869Y0006985D01*
X0044869Y0024785D02*
X0038869Y0024785D01*
X0064469Y0024785D02*
X0070469Y0024785D01*
X0070469Y0006985D02*
X0064469Y0006985D01*
X0097208Y0009863D02*
X0103208Y0009863D01*
X0103208Y0019863D02*
X0097208Y0019863D01*
X0097208Y0029863D02*
X0103208Y0029863D01*
X0103208Y0039863D02*
X0097208Y0039863D01*
X0097208Y0049863D02*
X0103208Y0049863D01*
X0103208Y0059863D02*
X0097208Y0059863D01*
X0097208Y0069863D02*
X0103208Y0069863D01*
X0103208Y0079863D02*
X0097208Y0079863D01*
X0097208Y0089863D02*
X0103208Y0089863D01*
X0103208Y0099863D02*
X0097208Y0099863D01*
X0097208Y0109863D02*
X0103208Y0109863D01*
X0103208Y0119863D02*
X0097208Y0119863D01*
X0097208Y0129863D02*
X0103208Y0129863D01*
D12*
X0071882Y0105673D03*
X0062783Y0105673D03*
X0053685Y0105673D03*
D13*
X0062783Y0130075D03*
D14*
X0055854Y0092949D03*
X0055854Y0080154D03*
X0039894Y0080299D03*
X0039894Y0093094D03*
D15*
X0040051Y0122815D03*
X0040051Y0130689D03*
D16*
X0043331Y0111543D03*
X0035850Y0111543D03*
D17*
X0074203Y0073596D03*
X0074203Y0066116D03*
X0054763Y0019969D03*
X0054763Y0012488D03*
D18*
X0003800Y0006766D02*
X0003800Y0003800D01*
X0035266Y0003800D01*
X0035208Y0003858D01*
X0034764Y0004470D01*
X0034421Y0005143D01*
X0034187Y0005861D01*
X0034069Y0006608D01*
X0034069Y0006785D01*
X0041669Y0006785D01*
X0041669Y0007185D01*
X0034069Y0007185D01*
X0034069Y0007363D01*
X0034187Y0008109D01*
X0034421Y0008828D01*
X0034764Y0009501D01*
X0035208Y0010112D01*
X0035742Y0010647D01*
X0036354Y0011091D01*
X0037027Y0011434D01*
X0037745Y0011667D01*
X0038492Y0011785D01*
X0041162Y0011785D01*
X0030291Y0022656D01*
X0029003Y0023945D01*
X0029003Y0029952D01*
X0017853Y0041102D01*
X0017890Y0040987D01*
X0018008Y0040241D01*
X0018008Y0040063D01*
X0010408Y0040063D01*
X0010408Y0039663D01*
X0010408Y0035063D01*
X0013586Y0035063D01*
X0014332Y0035181D01*
X0015051Y0035415D01*
X0015724Y0035758D01*
X0016335Y0036202D01*
X0016870Y0036736D01*
X0017314Y0037348D01*
X0017657Y0038021D01*
X0017890Y0038739D01*
X0018008Y0039485D01*
X0018008Y0039663D01*
X0010408Y0039663D01*
X0010008Y0039663D01*
X0010008Y0035063D01*
X0006831Y0035063D01*
X0006084Y0035181D01*
X0005366Y0035415D01*
X0004693Y0035758D01*
X0004081Y0036202D01*
X0003800Y0036483D01*
X0003800Y0032960D01*
X0004603Y0033763D01*
X0006293Y0034463D01*
X0014123Y0034463D01*
X0015814Y0033763D01*
X0017108Y0032469D01*
X0017808Y0030778D01*
X0017808Y0028948D01*
X0017108Y0027258D01*
X0015814Y0025964D01*
X0014123Y0025263D01*
X0006293Y0025263D01*
X0004603Y0025964D01*
X0003800Y0026766D01*
X0003800Y0022960D01*
X0004603Y0023763D01*
X0006293Y0024463D01*
X0014123Y0024463D01*
X0015814Y0023763D01*
X0017108Y0022469D01*
X0017808Y0020778D01*
X0017808Y0018948D01*
X0017108Y0017258D01*
X0015814Y0015964D01*
X0014123Y0015263D01*
X0006293Y0015263D01*
X0004603Y0015964D01*
X0003800Y0016766D01*
X0003800Y0012960D01*
X0004603Y0013763D01*
X0006293Y0014463D01*
X0014123Y0014463D01*
X0015814Y0013763D01*
X0017108Y0012469D01*
X0017808Y0010778D01*
X0017808Y0008948D01*
X0017108Y0007258D01*
X0015814Y0005964D01*
X0014123Y0005263D01*
X0006293Y0005263D01*
X0004603Y0005964D01*
X0003800Y0006766D01*
X0003800Y0005841D02*
X0004898Y0005841D01*
X0003800Y0004243D02*
X0034929Y0004243D01*
X0034194Y0005841D02*
X0015519Y0005841D01*
X0017183Y0007440D02*
X0034081Y0007440D01*
X0034528Y0009038D02*
X0017808Y0009038D01*
X0017808Y0010637D02*
X0035732Y0010637D01*
X0039114Y0013834D02*
X0015643Y0013834D01*
X0014531Y0015432D02*
X0037515Y0015432D01*
X0035917Y0017031D02*
X0016881Y0017031D01*
X0017676Y0018629D02*
X0034318Y0018629D01*
X0032720Y0020228D02*
X0017808Y0020228D01*
X0017374Y0021826D02*
X0031121Y0021826D01*
X0029523Y0023425D02*
X0016152Y0023425D01*
X0016472Y0026622D02*
X0029003Y0026622D01*
X0029003Y0028220D02*
X0017507Y0028220D01*
X0017808Y0029819D02*
X0029003Y0029819D01*
X0027537Y0031417D02*
X0017544Y0031417D01*
X0016561Y0033016D02*
X0025939Y0033016D01*
X0024340Y0034614D02*
X0003800Y0034614D01*
X0003800Y0033016D02*
X0003856Y0033016D01*
X0003800Y0036213D02*
X0004070Y0036213D01*
X0003800Y0043243D02*
X0003800Y0046766D01*
X0004603Y0045964D01*
X0006293Y0045263D01*
X0013691Y0045263D01*
X0014447Y0044508D01*
X0014332Y0044545D01*
X0013586Y0044663D01*
X0010408Y0044663D01*
X0010408Y0040063D01*
X0010008Y0040063D01*
X0010008Y0044663D01*
X0006831Y0044663D01*
X0006084Y0044545D01*
X0005366Y0044312D01*
X0004693Y0043969D01*
X0004081Y0043524D01*
X0003800Y0043243D01*
X0003800Y0044205D02*
X0005157Y0044205D01*
X0004988Y0045804D02*
X0003800Y0045804D01*
X0010008Y0044205D02*
X0010408Y0044205D01*
X0010408Y0042607D02*
X0010008Y0042607D01*
X0010008Y0041008D02*
X0010408Y0041008D01*
X0010208Y0039863D02*
X0017195Y0037863D01*
X0019203Y0035856D01*
X0019203Y0009856D01*
X0019332Y0006985D01*
X0041869Y0006985D01*
X0042069Y0006785D02*
X0042069Y0007185D01*
X0049669Y0007185D01*
X0049669Y0007363D01*
X0049551Y0008109D01*
X0049318Y0008828D01*
X0048975Y0009501D01*
X0048531Y0010112D01*
X0048355Y0010288D01*
X0050211Y0010288D01*
X0050211Y0009266D01*
X0051148Y0008329D01*
X0058379Y0008329D01*
X0059316Y0009266D01*
X0059316Y0015710D01*
X0058798Y0016228D01*
X0059316Y0016747D01*
X0059316Y0022585D01*
X0060402Y0022585D01*
X0060570Y0022180D01*
X0061864Y0020886D01*
X0063554Y0020185D01*
X0071384Y0020185D01*
X0073075Y0020886D01*
X0074369Y0022180D01*
X0075069Y0023870D01*
X0075069Y0025700D01*
X0074944Y0026004D01*
X0082003Y0018945D01*
X0082003Y0008945D01*
X0083291Y0007656D01*
X0093144Y0007656D01*
X0093309Y0007258D01*
X0094603Y0005964D01*
X0096293Y0005263D01*
X0104123Y0005263D01*
X0105814Y0005964D01*
X0106401Y0006550D01*
X0106401Y0003800D01*
X0074072Y0003800D01*
X0074131Y0003858D01*
X0074575Y0004470D01*
X0074918Y0005143D01*
X0075151Y0005861D01*
X0075269Y0006608D01*
X0075269Y0006785D01*
X0067669Y0006785D01*
X0067669Y0007185D01*
X0075269Y0007185D01*
X0075269Y0007363D01*
X0075151Y0008109D01*
X0074918Y0008828D01*
X0074575Y0009501D01*
X0074131Y0010112D01*
X0073596Y0010647D01*
X0072985Y0011091D01*
X0072312Y0011434D01*
X0071593Y0011667D01*
X0070847Y0011785D01*
X0067669Y0011785D01*
X0067669Y0007185D01*
X0067269Y0007185D01*
X0067269Y0006785D01*
X0059669Y0006785D01*
X0059669Y0006608D01*
X0059787Y0005861D01*
X0060021Y0005143D01*
X0060364Y0004470D01*
X0060808Y0003858D01*
X0060866Y0003800D01*
X0048472Y0003800D01*
X0048531Y0003858D01*
X0048975Y0004470D01*
X0049318Y0005143D01*
X0049551Y0005861D01*
X0049669Y0006608D01*
X0049669Y0006785D01*
X0042069Y0006785D01*
X0040712Y0012235D02*
X0017205Y0012235D01*
X0005885Y0015432D02*
X0003800Y0015432D01*
X0003800Y0013834D02*
X0004774Y0013834D01*
X0004264Y0023425D02*
X0003800Y0023425D01*
X0003800Y0025023D02*
X0029003Y0025023D01*
X0022742Y0036213D02*
X0016346Y0036213D01*
X0017550Y0037811D02*
X0021143Y0037811D01*
X0019545Y0039410D02*
X0017996Y0039410D01*
X0017946Y0041008D02*
X0017883Y0041008D01*
X0023345Y0046825D02*
X0027653Y0046825D01*
X0029116Y0047431D01*
X0030235Y0048550D01*
X0030840Y0050012D01*
X0030840Y0051387D01*
X0034649Y0055195D01*
X0035014Y0056078D01*
X0035014Y0074858D01*
X0035245Y0074627D01*
X0035656Y0074390D01*
X0036113Y0074267D01*
X0039094Y0074267D01*
X0039094Y0079499D01*
X0040694Y0079499D01*
X0040694Y0081099D01*
X0045237Y0081099D01*
X0045237Y0084768D01*
X0045114Y0085226D01*
X0044877Y0085637D01*
X0044542Y0085972D01*
X0044132Y0086209D01*
X0043674Y0086331D01*
X0040694Y0086331D01*
X0040694Y0081099D01*
X0039094Y0081099D01*
X0039094Y0086331D01*
X0036113Y0086331D01*
X0035656Y0086209D01*
X0035448Y0086089D01*
X0036747Y0087262D01*
X0044100Y0087262D01*
X0045037Y0088199D01*
X0045037Y0097990D01*
X0044100Y0098927D01*
X0042753Y0098927D01*
X0042753Y0106991D01*
X0046552Y0106991D01*
X0047490Y0107928D01*
X0047490Y0115159D01*
X0046552Y0116096D01*
X0045503Y0116096D01*
X0045503Y0118762D01*
X0053997Y0127256D01*
X0054097Y0127256D01*
X0054097Y0125081D01*
X0055034Y0124144D01*
X0070533Y0124144D01*
X0071470Y0125081D01*
X0071470Y0135068D01*
X0070533Y0136005D01*
X0055034Y0136005D01*
X0054097Y0135068D01*
X0054097Y0132056D01*
X0052525Y0132056D01*
X0051643Y0131691D01*
X0044801Y0124848D01*
X0044801Y0126037D01*
X0044206Y0126632D01*
X0044306Y0126690D01*
X0044641Y0127025D01*
X0044878Y0127435D01*
X0045001Y0127893D01*
X0045001Y0130209D01*
X0040531Y0130209D01*
X0040531Y0131169D01*
X0039572Y0131169D01*
X0039572Y0135048D01*
X0036665Y0135048D01*
X0036207Y0134925D01*
X0035796Y0134688D01*
X0035461Y0134353D01*
X0035224Y0133943D01*
X0035102Y0133485D01*
X0035102Y0131169D01*
X0039572Y0131169D01*
X0039572Y0130209D01*
X0035102Y0130209D01*
X0035102Y0127893D01*
X0035224Y0127435D01*
X0035461Y0127025D01*
X0035796Y0126690D01*
X0035897Y0126632D01*
X0035302Y0126037D01*
X0035302Y0119593D01*
X0036239Y0118656D01*
X0040703Y0118656D01*
X0040703Y0116096D01*
X0040109Y0116096D01*
X0039591Y0115578D01*
X0039072Y0116096D01*
X0032629Y0116096D01*
X0031691Y0115159D01*
X0031691Y0107928D01*
X0032629Y0106991D01*
X0033450Y0106991D01*
X0033450Y0102498D01*
X0030843Y0099891D01*
X0030533Y0099580D01*
X0030235Y0100301D01*
X0029116Y0101420D01*
X0027752Y0101984D01*
X0029116Y0102549D01*
X0030235Y0103668D01*
X0030840Y0105130D01*
X0030840Y0106713D01*
X0030235Y0108175D01*
X0029116Y0109294D01*
X0027653Y0109899D01*
X0025996Y0109899D01*
X0020237Y0115658D01*
X0020237Y0121867D01*
X0020259Y0122751D01*
X0020237Y0122774D01*
X0020237Y0122806D01*
X0019612Y0123431D01*
X0016525Y0126675D01*
X0017108Y0127258D01*
X0017808Y0128948D01*
X0017808Y0130778D01*
X0017108Y0132469D01*
X0015814Y0133763D01*
X0014123Y0134463D01*
X0006293Y0134463D01*
X0004603Y0133763D01*
X0003800Y0132960D01*
X0003800Y0139856D01*
X0106401Y0139856D01*
X0106401Y0133176D01*
X0105814Y0133763D01*
X0104123Y0134463D01*
X0096293Y0134463D01*
X0094603Y0133763D01*
X0093309Y0132469D01*
X0092608Y0130778D01*
X0092608Y0128948D01*
X0093309Y0127258D01*
X0093759Y0126808D01*
X0080733Y0113782D01*
X0080368Y0112900D01*
X0080368Y0109147D01*
X0079395Y0108175D01*
X0078790Y0106713D01*
X0078790Y0105130D01*
X0079395Y0103668D01*
X0080514Y0102549D01*
X0081878Y0101984D01*
X0080514Y0101420D01*
X0079395Y0100301D01*
X0078790Y0098839D01*
X0078790Y0097256D01*
X0079395Y0095794D01*
X0080514Y0094675D01*
X0081878Y0094110D01*
X0080514Y0093546D01*
X0079395Y0092427D01*
X0078790Y0090964D01*
X0078790Y0089382D01*
X0079395Y0087920D01*
X0080514Y0086801D01*
X0081878Y0086236D01*
X0080514Y0085672D01*
X0079395Y0084553D01*
X0078790Y0083090D01*
X0078790Y0081508D01*
X0079395Y0080046D01*
X0080514Y0078927D01*
X0081878Y0078362D01*
X0080514Y0077798D01*
X0079395Y0076679D01*
X0078955Y0075616D01*
X0078955Y0076392D01*
X0078833Y0076850D01*
X0078596Y0077261D01*
X0078261Y0077596D01*
X0077850Y0077833D01*
X0077392Y0077955D01*
X0074682Y0077955D01*
X0074682Y0074076D01*
X0073723Y0074076D01*
X0073723Y0077955D01*
X0071013Y0077955D01*
X0070555Y0077833D01*
X0070145Y0077596D01*
X0069809Y0077261D01*
X0069572Y0076850D01*
X0069450Y0076392D01*
X0069450Y0074076D01*
X0073723Y0074076D01*
X0073723Y0073117D01*
X0069450Y0073117D01*
X0069450Y0070800D01*
X0069572Y0070342D01*
X0069809Y0069932D01*
X0070027Y0069715D01*
X0069650Y0069338D01*
X0069650Y0062894D01*
X0070587Y0061957D01*
X0076094Y0061957D01*
X0078790Y0059261D01*
X0078790Y0057886D01*
X0079395Y0056424D01*
X0080514Y0055305D01*
X0081652Y0054834D01*
X0081164Y0054675D01*
X0080578Y0054376D01*
X0080046Y0053990D01*
X0079581Y0053525D01*
X0079194Y0052993D01*
X0078896Y0052407D01*
X0078693Y0051781D01*
X0078590Y0051132D01*
X0078590Y0050863D01*
X0071237Y0058216D01*
X0070562Y0058891D01*
X0069680Y0059256D01*
X0066653Y0059256D01*
X0066653Y0087109D01*
X0066698Y0087385D01*
X0066653Y0087581D01*
X0066653Y0087783D01*
X0066545Y0088042D01*
X0066482Y0088315D01*
X0066364Y0088479D01*
X0066287Y0088666D01*
X0066089Y0088863D01*
X0065926Y0089091D01*
X0065755Y0089198D01*
X0065612Y0089341D01*
X0065353Y0089448D01*
X0060998Y0092160D01*
X0060998Y0097844D01*
X0060060Y0098781D01*
X0058153Y0098781D01*
X0058153Y0104283D01*
X0057787Y0105166D01*
X0057685Y0105268D01*
X0057685Y0110736D01*
X0056747Y0111673D01*
X0050623Y0111673D01*
X0049685Y0110736D01*
X0049685Y0100611D01*
X0050623Y0099674D01*
X0053353Y0099674D01*
X0053353Y0098781D01*
X0051648Y0098781D01*
X0050711Y0097844D01*
X0050711Y0088054D01*
X0051648Y0087117D01*
X0060016Y0087117D01*
X0061853Y0085973D01*
X0061853Y0056379D01*
X0062218Y0055497D01*
X0062893Y0054821D01*
X0063775Y0054456D01*
X0068208Y0054456D01*
X0074332Y0048332D01*
X0073551Y0048332D01*
X0072089Y0047727D01*
X0070970Y0046608D01*
X0070405Y0045244D01*
X0069841Y0046608D01*
X0068722Y0047727D01*
X0067260Y0048332D01*
X0065677Y0048332D01*
X0064215Y0047727D01*
X0063096Y0046608D01*
X0062531Y0045244D01*
X0061967Y0046608D01*
X0060848Y0047727D01*
X0059386Y0048332D01*
X0057803Y0048332D01*
X0056341Y0047727D01*
X0055222Y0046608D01*
X0054657Y0045244D01*
X0054093Y0046608D01*
X0052974Y0047727D01*
X0051512Y0048332D01*
X0049929Y0048332D01*
X0048467Y0047727D01*
X0047348Y0046608D01*
X0046783Y0045244D01*
X0046219Y0046608D01*
X0045100Y0047727D01*
X0043638Y0048332D01*
X0042055Y0048332D01*
X0040593Y0047727D01*
X0039474Y0046608D01*
X0038909Y0045244D01*
X0038345Y0046608D01*
X0037226Y0047727D01*
X0035764Y0048332D01*
X0034181Y0048332D01*
X0032719Y0047727D01*
X0031600Y0046608D01*
X0030994Y0045146D01*
X0030994Y0039175D01*
X0023345Y0046825D01*
X0024366Y0045804D02*
X0031267Y0045804D01*
X0030994Y0044205D02*
X0025964Y0044205D01*
X0027563Y0042607D02*
X0030994Y0042607D01*
X0030994Y0041008D02*
X0029161Y0041008D01*
X0030760Y0039410D02*
X0030994Y0039410D01*
X0032395Y0047402D02*
X0029047Y0047402D01*
X0030421Y0049001D02*
X0073663Y0049001D01*
X0072065Y0050600D02*
X0030840Y0050600D01*
X0031651Y0052198D02*
X0070466Y0052198D01*
X0068868Y0053797D02*
X0033250Y0053797D01*
X0034731Y0055395D02*
X0062319Y0055395D01*
X0061853Y0056994D02*
X0035014Y0056994D01*
X0035014Y0058592D02*
X0061853Y0058592D01*
X0061853Y0060191D02*
X0035014Y0060191D01*
X0035014Y0061789D02*
X0061853Y0061789D01*
X0061853Y0063388D02*
X0035014Y0063388D01*
X0035014Y0064986D02*
X0061853Y0064986D01*
X0061853Y0066585D02*
X0035014Y0066585D01*
X0035014Y0068183D02*
X0061853Y0068183D01*
X0061853Y0069782D02*
X0035014Y0069782D01*
X0035014Y0071380D02*
X0061853Y0071380D01*
X0061853Y0072979D02*
X0035014Y0072979D01*
X0035014Y0074577D02*
X0035331Y0074577D01*
X0039094Y0074577D02*
X0040694Y0074577D01*
X0040694Y0074267D02*
X0043674Y0074267D01*
X0044132Y0074390D01*
X0044542Y0074627D01*
X0044877Y0074962D01*
X0045114Y0075372D01*
X0045237Y0075830D01*
X0045237Y0079499D01*
X0040694Y0079499D01*
X0040694Y0074267D01*
X0040694Y0076176D02*
X0039094Y0076176D01*
X0039094Y0077774D02*
X0040694Y0077774D01*
X0040694Y0079373D02*
X0039094Y0079373D01*
X0039894Y0080299D02*
X0040353Y0081806D01*
X0042003Y0080156D01*
X0049153Y0080156D01*
X0049153Y0110406D01*
X0050803Y0112056D01*
X0071703Y0112056D01*
X0071703Y0112356D01*
X0074203Y0114856D01*
X0073703Y0135156D01*
X0070603Y0137256D01*
X0054203Y0137256D01*
X0048703Y0130756D01*
X0040353Y0130756D01*
X0040051Y0130689D01*
X0039572Y0130525D02*
X0017808Y0130525D01*
X0017799Y0128927D02*
X0035102Y0128927D01*
X0035286Y0127328D02*
X0017137Y0127328D01*
X0017425Y0125730D02*
X0035302Y0125730D01*
X0035302Y0124131D02*
X0018946Y0124131D01*
X0020253Y0122533D02*
X0035302Y0122533D01*
X0035302Y0120934D02*
X0020237Y0120934D01*
X0020237Y0119335D02*
X0035559Y0119335D01*
X0040703Y0117737D02*
X0020237Y0117737D01*
X0020237Y0116138D02*
X0040703Y0116138D01*
X0043103Y0119756D02*
X0053003Y0129656D01*
X0062353Y0129656D01*
X0062783Y0130075D01*
X0054097Y0132124D02*
X0045001Y0132124D01*
X0045001Y0131169D02*
X0045001Y0133485D01*
X0044878Y0133943D01*
X0044641Y0134353D01*
X0044306Y0134688D01*
X0043896Y0134925D01*
X0043438Y0135048D01*
X0040531Y0135048D01*
X0040531Y0131169D01*
X0045001Y0131169D01*
X0045001Y0128927D02*
X0048879Y0128927D01*
X0050477Y0130525D02*
X0040531Y0130525D01*
X0040531Y0132124D02*
X0039572Y0132124D01*
X0039572Y0133722D02*
X0040531Y0133722D01*
X0044937Y0133722D02*
X0054097Y0133722D01*
X0054349Y0135321D02*
X0003800Y0135321D01*
X0003800Y0136919D02*
X0106401Y0136919D01*
X0106401Y0135321D02*
X0071218Y0135321D01*
X0071470Y0133722D02*
X0094562Y0133722D01*
X0093166Y0132124D02*
X0071470Y0132124D01*
X0071470Y0130525D02*
X0092608Y0130525D01*
X0092617Y0128927D02*
X0071470Y0128927D01*
X0071470Y0127328D02*
X0093279Y0127328D01*
X0092680Y0125730D02*
X0071470Y0125730D01*
X0071703Y0112056D02*
X0071703Y0106006D01*
X0071882Y0105673D01*
X0072253Y0105456D01*
X0072253Y0093356D01*
X0071703Y0092806D02*
X0067853Y0092956D01*
X0066017Y0088964D02*
X0078963Y0088964D01*
X0078790Y0090562D02*
X0063563Y0090562D01*
X0060998Y0092161D02*
X0079285Y0092161D01*
X0081030Y0093759D02*
X0060998Y0093759D01*
X0060998Y0095358D02*
X0079831Y0095358D01*
X0078914Y0096956D02*
X0060998Y0096956D01*
X0060287Y0098555D02*
X0078790Y0098555D01*
X0079334Y0100153D02*
X0075707Y0100153D01*
X0075722Y0100168D02*
X0075959Y0100579D01*
X0076081Y0101037D01*
X0076081Y0105273D01*
X0072282Y0105273D01*
X0072282Y0099474D01*
X0074518Y0099474D01*
X0074976Y0099596D01*
X0075387Y0099833D01*
X0075722Y0100168D01*
X0076081Y0101752D02*
X0081317Y0101752D01*
X0079713Y0103350D02*
X0076081Y0103350D01*
X0076081Y0104949D02*
X0078865Y0104949D01*
X0078790Y0106547D02*
X0076081Y0106547D01*
X0076081Y0106073D02*
X0076081Y0110310D01*
X0075959Y0110768D01*
X0075722Y0111178D01*
X0075387Y0111513D01*
X0074976Y0111750D01*
X0074518Y0111873D01*
X0072282Y0111873D01*
X0072282Y0106073D01*
X0076081Y0106073D01*
X0076081Y0108146D02*
X0079384Y0108146D01*
X0080368Y0109744D02*
X0076081Y0109744D01*
X0075557Y0111343D02*
X0080368Y0111343D01*
X0080385Y0112941D02*
X0047490Y0112941D01*
X0047490Y0111343D02*
X0050293Y0111343D01*
X0049685Y0109744D02*
X0047490Y0109744D01*
X0047490Y0108146D02*
X0049685Y0108146D01*
X0049685Y0106547D02*
X0042753Y0106547D01*
X0042753Y0104949D02*
X0049685Y0104949D01*
X0049685Y0103350D02*
X0042753Y0103350D01*
X0042753Y0101752D02*
X0049685Y0101752D01*
X0050143Y0100153D02*
X0042753Y0100153D01*
X0044472Y0098555D02*
X0051422Y0098555D01*
X0050711Y0096956D02*
X0045037Y0096956D01*
X0045037Y0095358D02*
X0050711Y0095358D01*
X0050711Y0093759D02*
X0045037Y0093759D01*
X0045037Y0092161D02*
X0050711Y0092161D01*
X0050711Y0090562D02*
X0045037Y0090562D01*
X0045037Y0088964D02*
X0050711Y0088964D01*
X0051400Y0087365D02*
X0044203Y0087365D01*
X0044747Y0085767D02*
X0051146Y0085767D01*
X0051206Y0085826D02*
X0050871Y0085491D01*
X0050634Y0085081D01*
X0050511Y0084623D01*
X0050511Y0080954D01*
X0055054Y0080954D01*
X0055054Y0086186D01*
X0052074Y0086186D01*
X0051616Y0086063D01*
X0051206Y0085826D01*
X0050511Y0084168D02*
X0045237Y0084168D01*
X0045237Y0082570D02*
X0050511Y0082570D01*
X0050511Y0080971D02*
X0040694Y0080971D01*
X0040694Y0082570D02*
X0039094Y0082570D01*
X0039094Y0084168D02*
X0040694Y0084168D01*
X0040694Y0085767D02*
X0039094Y0085767D01*
X0032614Y0086763D02*
X0039803Y0093256D01*
X0039803Y0094456D01*
X0039894Y0093094D01*
X0040353Y0095556D01*
X0040353Y0108206D01*
X0043103Y0110956D01*
X0043331Y0111543D01*
X0043103Y0112056D01*
X0043103Y0119756D01*
X0040353Y0122506D01*
X0040051Y0122815D01*
X0044801Y0125730D02*
X0045682Y0125730D01*
X0044816Y0127328D02*
X0047280Y0127328D01*
X0049273Y0122533D02*
X0089483Y0122533D01*
X0091082Y0124131D02*
X0050872Y0124131D01*
X0052470Y0125730D02*
X0054097Y0125730D01*
X0047675Y0120934D02*
X0087885Y0120934D01*
X0086286Y0119335D02*
X0046076Y0119335D01*
X0045503Y0117737D02*
X0084688Y0117737D01*
X0083089Y0116138D02*
X0045503Y0116138D01*
X0047490Y0114540D02*
X0081491Y0114540D01*
X0082768Y0112423D02*
X0100208Y0129863D01*
X0105855Y0133722D02*
X0106401Y0133722D01*
X0106401Y0138518D02*
X0003800Y0138518D01*
X0003800Y0133722D02*
X0004562Y0133722D01*
X0010208Y0129863D02*
X0010653Y0129656D01*
X0015855Y0133722D02*
X0035165Y0133722D01*
X0035102Y0132124D02*
X0017251Y0132124D01*
X0021355Y0114540D02*
X0031691Y0114540D01*
X0031691Y0112941D02*
X0022953Y0112941D01*
X0024552Y0111343D02*
X0031691Y0111343D01*
X0031691Y0109744D02*
X0028027Y0109744D01*
X0030246Y0108146D02*
X0031691Y0108146D01*
X0030840Y0106547D02*
X0033450Y0106547D01*
X0033450Y0104949D02*
X0030765Y0104949D01*
X0029917Y0103350D02*
X0033450Y0103350D01*
X0032704Y0101752D02*
X0028313Y0101752D01*
X0030296Y0100153D02*
X0031106Y0100153D01*
X0032203Y0097856D02*
X0032203Y0095514D01*
X0026862Y0090173D01*
X0032614Y0086763D02*
X0032614Y0056555D01*
X0026862Y0050803D01*
X0037550Y0047402D02*
X0040269Y0047402D01*
X0039141Y0045804D02*
X0038678Y0045804D01*
X0045424Y0047402D02*
X0048143Y0047402D01*
X0047015Y0045804D02*
X0046552Y0045804D01*
X0053298Y0047402D02*
X0056017Y0047402D01*
X0054889Y0045804D02*
X0054426Y0045804D01*
X0061172Y0047402D02*
X0063891Y0047402D01*
X0062763Y0045804D02*
X0062300Y0045804D01*
X0069046Y0047402D02*
X0071765Y0047402D01*
X0070637Y0045804D02*
X0070174Y0045804D01*
X0075656Y0053797D02*
X0079853Y0053797D01*
X0080424Y0055395D02*
X0074058Y0055395D01*
X0072459Y0056994D02*
X0079159Y0056994D01*
X0078790Y0058592D02*
X0070861Y0058592D01*
X0069203Y0056856D02*
X0064253Y0056856D01*
X0064253Y0087306D01*
X0056303Y0092256D01*
X0055854Y0092949D01*
X0055753Y0093356D01*
X0055753Y0103806D01*
X0054103Y0105456D01*
X0053685Y0105673D01*
X0057077Y0111343D02*
X0059391Y0111343D01*
X0059721Y0111673D02*
X0058784Y0110736D01*
X0058784Y0100611D01*
X0059721Y0099674D01*
X0065846Y0099674D01*
X0066783Y0100611D01*
X0066783Y0110736D01*
X0065846Y0111673D01*
X0059721Y0111673D01*
X0058784Y0109744D02*
X0057685Y0109744D01*
X0057685Y0108146D02*
X0058784Y0108146D01*
X0058784Y0106547D02*
X0057685Y0106547D01*
X0057877Y0104949D02*
X0058784Y0104949D01*
X0058784Y0103350D02*
X0058153Y0103350D01*
X0058153Y0101752D02*
X0058784Y0101752D01*
X0059241Y0100153D02*
X0058153Y0100153D01*
X0066326Y0100153D02*
X0068057Y0100153D01*
X0068042Y0100168D02*
X0068377Y0099833D01*
X0068788Y0099596D01*
X0069245Y0099474D01*
X0071482Y0099474D01*
X0071482Y0105273D01*
X0072282Y0105273D01*
X0072282Y0106073D01*
X0071482Y0106073D01*
X0071482Y0105273D01*
X0067682Y0105273D01*
X0067682Y0101037D01*
X0067805Y0100579D01*
X0068042Y0100168D01*
X0067682Y0101752D02*
X0066783Y0101752D01*
X0066783Y0103350D02*
X0067682Y0103350D01*
X0067682Y0104949D02*
X0066783Y0104949D01*
X0067682Y0106073D02*
X0071482Y0106073D01*
X0071482Y0111873D01*
X0069245Y0111873D01*
X0068788Y0111750D01*
X0068377Y0111513D01*
X0068042Y0111178D01*
X0067805Y0110768D01*
X0067682Y0110310D01*
X0067682Y0106073D01*
X0067682Y0106547D02*
X0066783Y0106547D01*
X0066783Y0108146D02*
X0067682Y0108146D01*
X0067682Y0109744D02*
X0066783Y0109744D01*
X0066176Y0111343D02*
X0068207Y0111343D01*
X0071482Y0111343D02*
X0072282Y0111343D01*
X0072282Y0109744D02*
X0071482Y0109744D01*
X0071482Y0108146D02*
X0072282Y0108146D01*
X0072282Y0106547D02*
X0071482Y0106547D01*
X0071482Y0104949D02*
X0072282Y0104949D01*
X0072282Y0103350D02*
X0071482Y0103350D01*
X0071482Y0101752D02*
X0072282Y0101752D01*
X0072282Y0100153D02*
X0071482Y0100153D01*
X0066695Y0087365D02*
X0079950Y0087365D01*
X0080744Y0085767D02*
X0066653Y0085767D01*
X0066653Y0084168D02*
X0079236Y0084168D01*
X0078790Y0082570D02*
X0066653Y0082570D01*
X0067853Y0081806D02*
X0074203Y0081806D01*
X0074203Y0073596D01*
X0074682Y0073117D02*
X0074682Y0074076D01*
X0078790Y0074076D01*
X0078790Y0073634D01*
X0079395Y0072172D01*
X0080514Y0071053D01*
X0081878Y0070488D01*
X0080514Y0069924D01*
X0079395Y0068805D01*
X0078790Y0067342D01*
X0078790Y0066049D01*
X0078755Y0066084D01*
X0078755Y0069338D01*
X0078378Y0069715D01*
X0078596Y0069932D01*
X0078833Y0070342D01*
X0078955Y0070800D01*
X0078955Y0073117D01*
X0074682Y0073117D01*
X0074682Y0074577D02*
X0073723Y0074577D01*
X0073723Y0076176D02*
X0074682Y0076176D01*
X0074682Y0077774D02*
X0073723Y0077774D01*
X0070454Y0077774D02*
X0066653Y0077774D01*
X0066653Y0076176D02*
X0069450Y0076176D01*
X0069450Y0074577D02*
X0066653Y0074577D01*
X0066653Y0072979D02*
X0069450Y0072979D01*
X0069450Y0071380D02*
X0066653Y0071380D01*
X0066653Y0069782D02*
X0069960Y0069782D01*
X0069650Y0068183D02*
X0066653Y0068183D01*
X0066653Y0066585D02*
X0069650Y0066585D01*
X0069650Y0064986D02*
X0066653Y0064986D01*
X0066653Y0063388D02*
X0069650Y0063388D01*
X0067853Y0060368D02*
X0067853Y0081806D01*
X0066653Y0080971D02*
X0079012Y0080971D01*
X0080069Y0079373D02*
X0066653Y0079373D01*
X0061853Y0079373D02*
X0056654Y0079373D01*
X0056654Y0079354D02*
X0056654Y0080954D01*
X0055054Y0080954D01*
X0055054Y0079354D01*
X0050511Y0079354D01*
X0050511Y0075684D01*
X0050634Y0075226D01*
X0050871Y0074816D01*
X0051206Y0074481D01*
X0051616Y0074244D01*
X0052074Y0074121D01*
X0055054Y0074121D01*
X0055054Y0079353D01*
X0056654Y0079353D01*
X0056654Y0074121D01*
X0059635Y0074121D01*
X0060092Y0074244D01*
X0060503Y0074481D01*
X0060838Y0074816D01*
X0061075Y0075226D01*
X0061198Y0075684D01*
X0061198Y0079354D01*
X0056654Y0079354D01*
X0055854Y0080154D02*
X0055753Y0080156D01*
X0049153Y0080156D01*
X0050511Y0077774D02*
X0045237Y0077774D01*
X0045237Y0076176D02*
X0050511Y0076176D01*
X0051110Y0074577D02*
X0044457Y0074577D01*
X0045237Y0079373D02*
X0055054Y0079373D01*
X0055054Y0080971D02*
X0056654Y0080971D01*
X0056654Y0080954D02*
X0056654Y0086186D01*
X0059635Y0086186D01*
X0060092Y0086063D01*
X0060503Y0085826D01*
X0060838Y0085491D01*
X0061075Y0085081D01*
X0061198Y0084623D01*
X0061198Y0080954D01*
X0056654Y0080954D01*
X0056654Y0082570D02*
X0055054Y0082570D01*
X0055054Y0084168D02*
X0056654Y0084168D01*
X0056654Y0085767D02*
X0055054Y0085767D01*
X0060562Y0085767D02*
X0061853Y0085767D01*
X0061853Y0084168D02*
X0061198Y0084168D01*
X0061198Y0082570D02*
X0061853Y0082570D01*
X0061853Y0080971D02*
X0061198Y0080971D01*
X0061198Y0077774D02*
X0061853Y0077774D01*
X0061853Y0076176D02*
X0061198Y0076176D01*
X0060599Y0074577D02*
X0061853Y0074577D01*
X0056654Y0074577D02*
X0055054Y0074577D01*
X0055054Y0076176D02*
X0056654Y0076176D01*
X0056654Y0077774D02*
X0055054Y0077774D01*
X0066653Y0061789D02*
X0076262Y0061789D01*
X0077860Y0060191D02*
X0066653Y0060191D01*
X0067853Y0060368D02*
X0073203Y0060368D01*
X0082768Y0050803D01*
X0082768Y0050803D01*
X0091702Y0050803D01*
X0091702Y0050474D01*
X0091599Y0049825D01*
X0091395Y0049199D01*
X0091097Y0048613D01*
X0090710Y0048081D01*
X0090245Y0047616D01*
X0089713Y0047230D01*
X0089127Y0046931D01*
X0088502Y0046728D01*
X0087852Y0046625D01*
X0082827Y0046625D01*
X0087189Y0042263D01*
X0093223Y0042263D01*
X0093309Y0042469D01*
X0094603Y0043763D01*
X0096293Y0044463D01*
X0104123Y0044463D01*
X0105814Y0043763D01*
X0106401Y0043176D01*
X0106401Y0046268D01*
X0106335Y0046202D01*
X0105724Y0045758D01*
X0105051Y0045415D01*
X0104332Y0045181D01*
X0103586Y0045063D01*
X0100408Y0045063D01*
X0100408Y0049663D01*
X0100008Y0049663D01*
X0092408Y0049663D01*
X0092408Y0049485D01*
X0092527Y0048739D01*
X0092760Y0048021D01*
X0093103Y0047348D01*
X0093547Y0046736D01*
X0094081Y0046202D01*
X0094693Y0045758D01*
X0095366Y0045415D01*
X0096084Y0045181D01*
X0096831Y0045063D01*
X0100008Y0045063D01*
X0100008Y0049663D01*
X0100008Y0050063D01*
X0092408Y0050063D01*
X0092408Y0050241D01*
X0092527Y0050987D01*
X0092760Y0051706D01*
X0093103Y0052379D01*
X0093547Y0052990D01*
X0094081Y0053524D01*
X0094693Y0053969D01*
X0095366Y0054312D01*
X0096084Y0054545D01*
X0096831Y0054663D01*
X0100008Y0054663D01*
X0100008Y0050063D01*
X0100408Y0050063D01*
X0100408Y0054663D01*
X0103586Y0054663D01*
X0104332Y0054545D01*
X0105051Y0054312D01*
X0105724Y0053969D01*
X0106335Y0053524D01*
X0106401Y0053459D01*
X0106401Y0056268D01*
X0106335Y0056202D01*
X0105724Y0055758D01*
X0105051Y0055415D01*
X0104332Y0055181D01*
X0103586Y0055063D01*
X0100408Y0055063D01*
X0100408Y0059663D01*
X0100008Y0059663D01*
X0092408Y0059663D01*
X0092408Y0059485D01*
X0092527Y0058739D01*
X0092760Y0058021D01*
X0093103Y0057348D01*
X0093547Y0056736D01*
X0094081Y0056202D01*
X0094693Y0055758D01*
X0095366Y0055415D01*
X0096084Y0055181D01*
X0096831Y0055063D01*
X0100008Y0055063D01*
X0100008Y0059663D01*
X0100008Y0060063D01*
X0092408Y0060063D01*
X0092408Y0060241D01*
X0092527Y0060987D01*
X0092760Y0061706D01*
X0093086Y0062345D01*
X0091123Y0060382D01*
X0091502Y0059468D01*
X0091502Y0057886D01*
X0090896Y0056424D01*
X0089777Y0055305D01*
X0088639Y0054834D01*
X0089127Y0054675D01*
X0089713Y0054376D01*
X0090245Y0053990D01*
X0090710Y0053525D01*
X0091097Y0052993D01*
X0091395Y0052407D01*
X0091599Y0051781D01*
X0091702Y0051132D01*
X0091702Y0050803D01*
X0082768Y0050803D01*
X0099268Y0050803D01*
X0100208Y0049863D01*
X0100208Y0059863D01*
X0100008Y0060063D02*
X0100008Y0064663D01*
X0096831Y0064663D01*
X0096084Y0064545D01*
X0095366Y0064312D01*
X0094726Y0063986D01*
X0096089Y0065348D01*
X0096293Y0065263D01*
X0104123Y0065263D01*
X0105814Y0065964D01*
X0106401Y0066550D01*
X0106401Y0063459D01*
X0106335Y0063524D01*
X0105724Y0063969D01*
X0105051Y0064312D01*
X0104332Y0064545D01*
X0103586Y0064663D01*
X0100408Y0064663D01*
X0100408Y0060063D01*
X0100008Y0060063D01*
X0100008Y0060191D02*
X0100408Y0060191D01*
X0100408Y0061789D02*
X0100008Y0061789D01*
X0100008Y0063388D02*
X0100408Y0063388D01*
X0100408Y0058592D02*
X0100008Y0058592D01*
X0100008Y0056994D02*
X0100408Y0056994D01*
X0100408Y0055395D02*
X0100008Y0055395D01*
X0100008Y0053797D02*
X0100408Y0053797D01*
X0100408Y0052198D02*
X0100008Y0052198D01*
X0100008Y0050600D02*
X0100408Y0050600D01*
X0100408Y0049001D02*
X0100008Y0049001D01*
X0100008Y0047402D02*
X0100408Y0047402D01*
X0100408Y0045804D02*
X0100008Y0045804D01*
X0095671Y0044205D02*
X0085247Y0044205D01*
X0086846Y0042607D02*
X0093447Y0042607D01*
X0094629Y0045804D02*
X0083649Y0045804D01*
X0086195Y0039863D02*
X0069203Y0056856D01*
X0074203Y0066116D02*
X0076329Y0065116D01*
X0082768Y0058677D01*
X0086024Y0058677D01*
X0096203Y0068856D01*
X0099201Y0068856D01*
X0100208Y0069863D01*
X0095727Y0064986D02*
X0106401Y0064986D01*
X0106401Y0055395D02*
X0104990Y0055395D01*
X0105961Y0053797D02*
X0106401Y0053797D01*
X0106401Y0045804D02*
X0105787Y0045804D01*
X0106401Y0044205D02*
X0104746Y0044205D01*
X0100208Y0039863D02*
X0086195Y0039863D01*
X0089951Y0047402D02*
X0093075Y0047402D01*
X0092485Y0049001D02*
X0091294Y0049001D01*
X0091702Y0050600D02*
X0092465Y0050600D01*
X0093011Y0052198D02*
X0091463Y0052198D01*
X0090439Y0053797D02*
X0094456Y0053797D01*
X0095427Y0055395D02*
X0089867Y0055395D01*
X0091132Y0056994D02*
X0093360Y0056994D01*
X0092574Y0058592D02*
X0091502Y0058592D01*
X0091202Y0060191D02*
X0092408Y0060191D01*
X0092530Y0061789D02*
X0092802Y0061789D01*
X0085898Y0066551D02*
X0097203Y0077856D01*
X0098201Y0077856D01*
X0100208Y0079863D01*
X0092203Y0080856D02*
X0092203Y0081857D01*
X0100208Y0089863D01*
X0098201Y0097856D02*
X0097203Y0097856D01*
X0092203Y0092856D01*
X0092203Y0087856D01*
X0086646Y0082299D01*
X0082768Y0082299D01*
X0080491Y0077774D02*
X0077951Y0077774D01*
X0078955Y0076176D02*
X0079187Y0076176D01*
X0079061Y0072979D02*
X0078955Y0072979D01*
X0078955Y0071380D02*
X0080187Y0071380D01*
X0080373Y0069782D02*
X0078445Y0069782D01*
X0078755Y0068183D02*
X0079138Y0068183D01*
X0078790Y0066585D02*
X0078755Y0066585D01*
X0082768Y0066551D02*
X0085898Y0066551D01*
X0085772Y0074425D02*
X0082768Y0074425D01*
X0085772Y0074425D02*
X0092203Y0080856D01*
X0087394Y0098047D02*
X0082768Y0098047D01*
X0087394Y0098047D02*
X0092203Y0102856D01*
X0092203Y0111857D01*
X0100208Y0119863D01*
X0100208Y0099863D02*
X0098201Y0097856D01*
X0082768Y0105921D02*
X0082768Y0112423D01*
X0078828Y0052198D02*
X0077255Y0052198D01*
X0075924Y0025023D02*
X0075069Y0025023D01*
X0074885Y0023425D02*
X0077523Y0023425D01*
X0079121Y0021826D02*
X0074016Y0021826D01*
X0071487Y0020228D02*
X0080720Y0020228D01*
X0082003Y0018629D02*
X0059316Y0018629D01*
X0059316Y0020228D02*
X0063452Y0020228D01*
X0060923Y0021826D02*
X0059316Y0021826D01*
X0059316Y0017031D02*
X0082003Y0017031D01*
X0082003Y0015432D02*
X0059316Y0015432D01*
X0059316Y0013834D02*
X0082003Y0013834D01*
X0082003Y0012235D02*
X0059316Y0012235D01*
X0059316Y0010637D02*
X0061332Y0010637D01*
X0061342Y0010647D02*
X0060808Y0010112D01*
X0060364Y0009501D01*
X0060021Y0008828D01*
X0059787Y0008109D01*
X0059669Y0007363D01*
X0059669Y0007185D01*
X0067269Y0007185D01*
X0067269Y0011785D01*
X0064092Y0011785D01*
X0063345Y0011667D01*
X0062627Y0011434D01*
X0061954Y0011091D01*
X0061342Y0010647D01*
X0060128Y0009038D02*
X0059088Y0009038D01*
X0059681Y0007440D02*
X0049657Y0007440D01*
X0049545Y0005841D02*
X0059794Y0005841D01*
X0060529Y0004243D02*
X0048810Y0004243D01*
X0049210Y0009038D02*
X0050439Y0009038D01*
X0067269Y0009038D02*
X0067669Y0009038D01*
X0067669Y0007440D02*
X0067269Y0007440D01*
X0067269Y0010637D02*
X0067669Y0010637D01*
X0073606Y0010637D02*
X0082003Y0010637D01*
X0082003Y0009038D02*
X0074810Y0009038D01*
X0075257Y0007440D02*
X0093233Y0007440D01*
X0094898Y0005841D02*
X0075145Y0005841D01*
X0074410Y0004243D02*
X0106401Y0004243D01*
X0106401Y0005841D02*
X0105519Y0005841D01*
X0032203Y0097856D02*
X0035850Y0101504D01*
X0035850Y0111543D01*
X0010408Y0039410D02*
X0010008Y0039410D01*
X0010008Y0037811D02*
X0010408Y0037811D01*
X0010408Y0036213D02*
X0010008Y0036213D01*
X0003944Y0026622D02*
X0003800Y0026622D01*
D19*
X0018037Y0049022D02*
X0039203Y0027856D01*
X0039203Y0027452D01*
X0041869Y0024785D01*
X0067469Y0024785D01*
X0054273Y0024785D01*
X0054203Y0024856D01*
X0054203Y0020529D01*
X0054763Y0019969D01*
X0054763Y0012488D02*
X0043570Y0012488D01*
X0031203Y0024856D01*
X0031203Y0030863D01*
X0012203Y0049863D01*
X0010208Y0049863D01*
X0018037Y0049022D02*
X0018037Y0114747D01*
X0026862Y0105921D01*
X0018037Y0114747D02*
X0018037Y0121894D01*
X0010653Y0129656D01*
X0067853Y0092956D02*
X0067853Y0081806D01*
X0066469Y0044354D02*
X0066469Y0040590D01*
X0072203Y0034856D01*
X0077203Y0034856D01*
X0088203Y0023856D01*
X0088203Y0019856D01*
X0100201Y0019856D01*
X0100208Y0019863D01*
X0100208Y0009863D02*
X0100201Y0009856D01*
X0084203Y0009856D01*
X0084203Y0019856D01*
X0073203Y0030856D01*
X0069203Y0030856D01*
X0067203Y0032856D01*
X0066203Y0032856D01*
X0058594Y0040464D01*
X0058594Y0044354D01*
X0074343Y0044354D02*
X0074343Y0042716D01*
X0086203Y0030856D01*
X0099216Y0030856D01*
X0100208Y0029863D01*
D20*
X0054203Y0054856D03*
X0018203Y0136856D03*
X0091203Y0136856D03*
M02*
