G75*
%MOIN*%
%OFA0B0*%
%FSLAX25Y25*%
%IPPOS*%
%LPD*%
%AMOC8*
5,1,8,0,0,1.08239X$1,22.5*
%
%ADD10C,0.04134*%
%ADD11C,0.06000*%
%ADD12R,0.04799X0.08799*%
%ADD13R,0.14173X0.08661*%
%ADD14R,0.06299X0.05118*%
%ADD15R,0.05118X0.05906*%
%ADD16R,0.05906X0.05118*%
%ADD17C,0.01600*%
%ADD18C,0.01200*%
%ADD19R,0.04134X0.04134*%
D10*
X0035972Y0055220D02*
X0035972Y0059354D01*
X0043846Y0059354D02*
X0043846Y0055220D01*
X0051720Y0055220D02*
X0051720Y0059354D01*
X0059594Y0059354D02*
X0059594Y0055220D01*
X0067469Y0055220D02*
X0067469Y0059354D01*
X0075343Y0059354D02*
X0075343Y0055220D01*
X0083768Y0065803D02*
X0087902Y0065803D01*
X0087902Y0073677D02*
X0083768Y0073677D01*
X0083768Y0081551D02*
X0087902Y0081551D01*
X0087902Y0089425D02*
X0083768Y0089425D01*
X0083768Y0097299D02*
X0087902Y0097299D01*
X0087902Y0105173D02*
X0083768Y0105173D01*
X0083768Y0113047D02*
X0087902Y0113047D01*
X0087902Y0120921D02*
X0083768Y0120921D01*
X0027862Y0120921D02*
X0023728Y0120921D01*
X0023728Y0113047D02*
X0027862Y0113047D01*
X0027862Y0105173D02*
X0023728Y0105173D01*
X0023728Y0097299D02*
X0027862Y0097299D01*
X0027862Y0089425D02*
X0023728Y0089425D01*
X0023728Y0081551D02*
X0027862Y0081551D01*
X0027862Y0073677D02*
X0023728Y0073677D01*
X0023728Y0065803D02*
X0027862Y0065803D01*
D11*
X0013208Y0069863D02*
X0007208Y0069863D01*
X0007208Y0079863D02*
X0013208Y0079863D01*
X0013208Y0089863D02*
X0007208Y0089863D01*
X0007208Y0099863D02*
X0013208Y0099863D01*
X0013208Y0109863D02*
X0007208Y0109863D01*
X0007208Y0119863D02*
X0013208Y0119863D01*
X0013208Y0129863D02*
X0007208Y0129863D01*
X0007208Y0059863D02*
X0013208Y0059863D01*
X0013208Y0049863D02*
X0007208Y0049863D01*
X0007208Y0039863D02*
X0013208Y0039863D01*
X0013208Y0029863D02*
X0007208Y0029863D01*
X0007208Y0019863D02*
X0013208Y0019863D01*
X0013208Y0009863D02*
X0007208Y0009863D01*
X0031273Y0007523D02*
X0031273Y0013523D01*
X0031273Y0033123D02*
X0031273Y0039123D01*
X0049073Y0039123D02*
X0049073Y0033123D01*
X0061303Y0033123D02*
X0061303Y0039123D01*
X0079103Y0039123D02*
X0079103Y0033123D01*
X0079103Y0013523D02*
X0079103Y0007523D01*
X0061303Y0007523D02*
X0061303Y0013523D01*
X0049073Y0013523D02*
X0049073Y0007523D01*
X0097208Y0009863D02*
X0103208Y0009863D01*
X0103208Y0019863D02*
X0097208Y0019863D01*
X0097208Y0029863D02*
X0103208Y0029863D01*
X0103208Y0039863D02*
X0097208Y0039863D01*
X0097208Y0049863D02*
X0103208Y0049863D01*
X0103208Y0059863D02*
X0097208Y0059863D01*
X0097208Y0069863D02*
X0103208Y0069863D01*
X0103208Y0079863D02*
X0097208Y0079863D01*
X0097208Y0089863D02*
X0103208Y0089863D01*
X0103208Y0099863D02*
X0097208Y0099863D01*
X0097208Y0109863D02*
X0103208Y0109863D01*
X0103208Y0119863D02*
X0097208Y0119863D01*
X0097208Y0129863D02*
X0103208Y0129863D01*
D12*
X0071882Y0105673D03*
X0062783Y0105673D03*
X0053685Y0105673D03*
D13*
X0062783Y0130075D03*
D14*
X0040051Y0130689D03*
X0040051Y0122815D03*
X0040511Y0092952D03*
X0040511Y0085078D03*
X0055551Y0085224D03*
X0055551Y0093098D03*
D15*
X0043331Y0111543D03*
X0035850Y0111543D03*
X0036090Y0023417D03*
X0043570Y0023417D03*
X0066462Y0023856D03*
X0073943Y0023856D03*
D16*
X0077203Y0074116D03*
X0077203Y0081596D03*
D17*
X0002600Y0136856D02*
X0002600Y0002600D01*
X0107601Y0002600D01*
X0107601Y0008447D01*
X0107108Y0007258D01*
X0105814Y0005964D01*
X0104123Y0005263D01*
X0096293Y0005263D01*
X0094603Y0005964D01*
X0093309Y0007258D01*
X0092608Y0008948D01*
X0092608Y0010778D01*
X0093309Y0012469D01*
X0094603Y0013763D01*
X0096293Y0014463D01*
X0104123Y0014463D01*
X0105814Y0013763D01*
X0107108Y0012469D01*
X0107601Y0011279D01*
X0107601Y0018447D01*
X0107108Y0017258D01*
X0105814Y0015964D01*
X0104123Y0015263D01*
X0096293Y0015263D01*
X0094603Y0015964D01*
X0093309Y0017258D01*
X0092608Y0018948D01*
X0092608Y0020778D01*
X0093309Y0022469D01*
X0094603Y0023763D01*
X0096293Y0024463D01*
X0104123Y0024463D01*
X0105814Y0023763D01*
X0107108Y0022469D01*
X0107601Y0021279D01*
X0107601Y0028447D01*
X0107108Y0027258D01*
X0105814Y0025964D01*
X0104123Y0025263D01*
X0096293Y0025263D01*
X0094603Y0025964D01*
X0093309Y0027258D01*
X0092608Y0028948D01*
X0092608Y0030056D01*
X0083703Y0038962D01*
X0083703Y0032208D01*
X0083002Y0030517D01*
X0081708Y0029223D01*
X0081303Y0029055D01*
X0081303Y0017591D01*
X0081708Y0017423D01*
X0083002Y0016129D01*
X0083703Y0014438D01*
X0083703Y0006608D01*
X0083002Y0004917D01*
X0081708Y0003623D01*
X0080018Y0002923D01*
X0078188Y0002923D01*
X0076497Y0003623D01*
X0075203Y0004917D01*
X0074503Y0006608D01*
X0074503Y0014438D01*
X0075203Y0016129D01*
X0076497Y0017423D01*
X0076903Y0017591D01*
X0076903Y0019303D01*
X0070721Y0019303D01*
X0070203Y0019822D01*
X0069684Y0019303D01*
X0063241Y0019303D01*
X0062303Y0020241D01*
X0062303Y0021017D01*
X0047729Y0021017D01*
X0047729Y0019801D01*
X0046792Y0018864D01*
X0040349Y0018864D01*
X0039830Y0019382D01*
X0039312Y0018864D01*
X0033473Y0018864D01*
X0033473Y0017591D01*
X0033879Y0017423D01*
X0035173Y0016129D01*
X0035873Y0014438D01*
X0035873Y0006608D01*
X0035173Y0004917D01*
X0033879Y0003623D01*
X0032188Y0002923D01*
X0030358Y0002923D01*
X0028668Y0003623D01*
X0027374Y0004917D01*
X0026673Y0006608D01*
X0026673Y0014438D01*
X0027374Y0016129D01*
X0028668Y0017423D01*
X0029073Y0017591D01*
X0029073Y0022723D01*
X0028979Y0023495D01*
X0029073Y0023615D01*
X0029073Y0029055D01*
X0028668Y0029223D01*
X0027374Y0030517D01*
X0026673Y0032208D01*
X0026673Y0037379D01*
X0017176Y0046159D01*
X0017126Y0046159D01*
X0016568Y0046717D01*
X0015814Y0045964D01*
X0014123Y0045263D01*
X0006293Y0045263D01*
X0004603Y0045964D01*
X0003309Y0047258D01*
X0002608Y0048948D01*
X0002608Y0050778D01*
X0003309Y0052469D01*
X0004603Y0053763D01*
X0006293Y0054463D01*
X0014123Y0054463D01*
X0015814Y0053763D01*
X0015837Y0053740D01*
X0015837Y0055987D01*
X0015814Y0055964D01*
X0014123Y0055263D01*
X0006293Y0055263D01*
X0004603Y0055964D01*
X0003309Y0057258D01*
X0002608Y0058948D01*
X0002608Y0060778D01*
X0003309Y0062469D01*
X0004603Y0063763D01*
X0006293Y0064463D01*
X0014123Y0064463D01*
X0015814Y0063763D01*
X0015837Y0063740D01*
X0015837Y0065987D01*
X0015814Y0065964D01*
X0014123Y0065263D01*
X0006293Y0065263D01*
X0004603Y0065964D01*
X0003309Y0067258D01*
X0002608Y0068948D01*
X0002608Y0070778D01*
X0003309Y0072469D01*
X0004603Y0073763D01*
X0006293Y0074463D01*
X0014123Y0074463D01*
X0015814Y0073763D01*
X0015837Y0073740D01*
X0015837Y0075987D01*
X0015814Y0075964D01*
X0014123Y0075263D01*
X0006293Y0075263D01*
X0004603Y0075964D01*
X0003309Y0077258D01*
X0002608Y0078948D01*
X0002608Y0080778D01*
X0003309Y0082469D01*
X0004603Y0083763D01*
X0006293Y0084463D01*
X0014123Y0084463D01*
X0015814Y0083763D01*
X0015837Y0083740D01*
X0015837Y0085987D01*
X0015814Y0085964D01*
X0014123Y0085263D01*
X0006293Y0085263D01*
X0004603Y0085964D01*
X0003309Y0087258D01*
X0002608Y0088948D01*
X0002608Y0090778D01*
X0003309Y0092469D01*
X0004603Y0093763D01*
X0006293Y0094463D01*
X0014123Y0094463D01*
X0015814Y0093763D01*
X0015837Y0093740D01*
X0015837Y0095987D01*
X0015814Y0095964D01*
X0014123Y0095263D01*
X0006293Y0095263D01*
X0004603Y0095964D01*
X0003309Y0097258D01*
X0002608Y0098948D01*
X0002608Y0100778D01*
X0003309Y0102469D01*
X0004603Y0103763D01*
X0006293Y0104463D01*
X0014123Y0104463D01*
X0015814Y0103763D01*
X0015837Y0103740D01*
X0015837Y0105987D01*
X0015814Y0105964D01*
X0014123Y0105263D01*
X0006293Y0105263D01*
X0004603Y0105964D01*
X0003309Y0107258D01*
X0002608Y0108948D01*
X0002608Y0110778D01*
X0003309Y0112469D01*
X0004603Y0113763D01*
X0006293Y0114463D01*
X0014123Y0114463D01*
X0015814Y0113763D01*
X0015837Y0113740D01*
X0015837Y0115987D01*
X0015814Y0115964D01*
X0014123Y0115263D01*
X0006293Y0115263D01*
X0004603Y0115964D01*
X0003309Y0117258D01*
X0002608Y0118948D01*
X0002608Y0120778D01*
X0003309Y0122469D01*
X0004603Y0123763D01*
X0006293Y0124463D01*
X0012556Y0124463D01*
X0011795Y0125263D01*
X0006293Y0125263D01*
X0004603Y0125964D01*
X0003309Y0127258D01*
X0002608Y0128948D01*
X0002608Y0130778D01*
X0003309Y0132469D01*
X0004603Y0133763D01*
X0006293Y0134463D01*
X0014123Y0134463D01*
X0015814Y0133763D01*
X0017108Y0132469D01*
X0017808Y0130778D01*
X0017808Y0128948D01*
X0017108Y0127258D01*
X0016525Y0126675D01*
X0019612Y0123431D01*
X0020237Y0122806D01*
X0020237Y0122774D01*
X0020259Y0122751D01*
X0020242Y0122088D01*
X0020620Y0122998D01*
X0021651Y0124030D01*
X0022999Y0124588D01*
X0028592Y0124588D01*
X0029939Y0124030D01*
X0030971Y0122998D01*
X0031529Y0121651D01*
X0031529Y0120192D01*
X0030971Y0118844D01*
X0029939Y0117813D01*
X0028592Y0117254D01*
X0022999Y0117254D01*
X0021651Y0117813D01*
X0020620Y0118844D01*
X0020237Y0119768D01*
X0020237Y0114200D01*
X0020620Y0115124D01*
X0021651Y0116156D01*
X0022999Y0116714D01*
X0028592Y0116714D01*
X0029939Y0116156D01*
X0030971Y0115124D01*
X0031529Y0113777D01*
X0031529Y0112318D01*
X0030971Y0110970D01*
X0029939Y0109939D01*
X0028592Y0109380D01*
X0022999Y0109380D01*
X0021651Y0109939D01*
X0020620Y0110970D01*
X0020237Y0111894D01*
X0020237Y0106326D01*
X0020620Y0107250D01*
X0021651Y0108282D01*
X0022999Y0108840D01*
X0028592Y0108840D01*
X0029939Y0108282D01*
X0030965Y0107256D01*
X0031208Y0107256D01*
X0031786Y0107833D01*
X0031691Y0107928D01*
X0031691Y0115159D01*
X0032629Y0116096D01*
X0039072Y0116096D01*
X0039591Y0115578D01*
X0040109Y0116096D01*
X0040703Y0116096D01*
X0040703Y0118656D01*
X0036239Y0118656D01*
X0035302Y0119593D01*
X0035302Y0126037D01*
X0036043Y0126778D01*
X0035919Y0126850D01*
X0035621Y0127147D01*
X0035411Y0127512D01*
X0035302Y0127919D01*
X0035302Y0130209D01*
X0039572Y0130209D01*
X0039572Y0131169D01*
X0039572Y0134848D01*
X0036691Y0134848D01*
X0036284Y0134739D01*
X0035919Y0134528D01*
X0035621Y0134230D01*
X0035411Y0133866D01*
X0035302Y0133459D01*
X0035302Y0131169D01*
X0039572Y0131169D01*
X0040531Y0131169D01*
X0040531Y0134848D01*
X0043411Y0134848D01*
X0043818Y0134739D01*
X0044183Y0134528D01*
X0044481Y0134230D01*
X0044692Y0133866D01*
X0044801Y0133459D01*
X0044801Y0131169D01*
X0040531Y0131169D01*
X0040531Y0130209D01*
X0044801Y0130209D01*
X0044801Y0127919D01*
X0044692Y0127512D01*
X0044481Y0127147D01*
X0044183Y0126850D01*
X0044059Y0126778D01*
X0044801Y0126037D01*
X0044801Y0124848D01*
X0051643Y0131691D01*
X0052525Y0132056D01*
X0054097Y0132056D01*
X0054097Y0135068D01*
X0055034Y0136005D01*
X0070533Y0136005D01*
X0071470Y0135068D01*
X0071470Y0125081D01*
X0070533Y0124144D01*
X0055034Y0124144D01*
X0054097Y0125081D01*
X0054097Y0127256D01*
X0053997Y0127256D01*
X0045503Y0118762D01*
X0045503Y0116096D01*
X0046552Y0116096D01*
X0047490Y0115159D01*
X0047490Y0107928D01*
X0046552Y0106991D01*
X0042753Y0106991D01*
X0042753Y0097111D01*
X0044324Y0097111D01*
X0045261Y0096174D01*
X0045261Y0089731D01*
X0044520Y0088989D01*
X0044643Y0088918D01*
X0044941Y0088620D01*
X0045152Y0088255D01*
X0045261Y0087848D01*
X0045261Y0085558D01*
X0040991Y0085558D01*
X0040991Y0084599D01*
X0045261Y0084599D01*
X0045261Y0082309D01*
X0045152Y0081902D01*
X0044941Y0081537D01*
X0044643Y0081239D01*
X0044279Y0081028D01*
X0043872Y0080919D01*
X0040991Y0080919D01*
X0040991Y0084599D01*
X0040032Y0084599D01*
X0035762Y0084599D01*
X0035762Y0082309D01*
X0035871Y0081902D01*
X0036081Y0081537D01*
X0036379Y0081239D01*
X0036744Y0081028D01*
X0037151Y0080919D01*
X0040032Y0080919D01*
X0040032Y0084599D01*
X0040032Y0085558D01*
X0035762Y0085558D01*
X0035762Y0086372D01*
X0035014Y0085697D01*
X0035014Y0065790D01*
X0034649Y0064908D01*
X0034237Y0064497D01*
X0033562Y0063821D01*
X0032680Y0063456D01*
X0030701Y0063456D01*
X0030603Y0063358D01*
X0030603Y0053850D01*
X0044541Y0039912D01*
X0044586Y0040200D01*
X0044810Y0040889D01*
X0045139Y0041534D01*
X0045565Y0042120D01*
X0046077Y0042632D01*
X0046662Y0043057D01*
X0047307Y0043386D01*
X0047996Y0043610D01*
X0048711Y0043723D01*
X0048873Y0043723D01*
X0048873Y0036323D01*
X0049273Y0036323D01*
X0049273Y0043723D01*
X0049435Y0043723D01*
X0050150Y0043610D01*
X0050839Y0043386D01*
X0051484Y0043057D01*
X0052070Y0042632D01*
X0052582Y0042120D01*
X0053007Y0041534D01*
X0053336Y0040889D01*
X0053560Y0040200D01*
X0053673Y0039485D01*
X0053673Y0036323D01*
X0049273Y0036323D01*
X0049273Y0035923D01*
X0049273Y0028523D01*
X0049435Y0028523D01*
X0050150Y0028636D01*
X0050839Y0028860D01*
X0051484Y0029189D01*
X0052070Y0029614D01*
X0052582Y0030126D01*
X0053007Y0030712D01*
X0053336Y0031357D01*
X0053560Y0032046D01*
X0053673Y0032761D01*
X0053673Y0035923D01*
X0049273Y0035923D01*
X0048873Y0035923D01*
X0048873Y0028523D01*
X0048711Y0028523D01*
X0047996Y0028636D01*
X0047307Y0028860D01*
X0046662Y0029189D01*
X0046077Y0029614D01*
X0045970Y0029720D01*
X0045970Y0027970D01*
X0046792Y0027970D01*
X0047729Y0027032D01*
X0047729Y0025817D01*
X0062303Y0025817D01*
X0062303Y0027472D01*
X0063241Y0028409D01*
X0069684Y0028409D01*
X0070203Y0027890D01*
X0070721Y0028409D01*
X0076903Y0028409D01*
X0076903Y0029055D01*
X0076497Y0029223D01*
X0075203Y0030517D01*
X0074503Y0032208D01*
X0074503Y0040038D01*
X0075203Y0041729D01*
X0076497Y0043023D01*
X0078188Y0043723D01*
X0078942Y0043723D01*
X0073308Y0049357D01*
X0072943Y0050239D01*
X0072943Y0052435D01*
X0072234Y0053143D01*
X0071676Y0054491D01*
X0071676Y0060084D01*
X0072234Y0061431D01*
X0073258Y0062456D01*
X0069553Y0062456D01*
X0070577Y0061431D01*
X0071135Y0060084D01*
X0071135Y0054491D01*
X0070577Y0053143D01*
X0069546Y0052112D01*
X0068198Y0051554D01*
X0066739Y0051554D01*
X0065391Y0052112D01*
X0064360Y0053143D01*
X0063802Y0054491D01*
X0063802Y0060084D01*
X0064360Y0061431D01*
X0065384Y0062456D01*
X0062725Y0062456D01*
X0061843Y0062821D01*
X0061168Y0063497D01*
X0060803Y0064379D01*
X0060803Y0085862D01*
X0060300Y0086364D01*
X0060300Y0085703D01*
X0056030Y0085703D01*
X0056030Y0084744D01*
X0056030Y0081065D01*
X0058911Y0081065D01*
X0059318Y0081174D01*
X0059683Y0081385D01*
X0059981Y0081682D01*
X0060191Y0082047D01*
X0060300Y0082454D01*
X0060300Y0084744D01*
X0056030Y0084744D01*
X0055071Y0084744D01*
X0055071Y0081065D01*
X0052190Y0081065D01*
X0051784Y0081174D01*
X0051419Y0081385D01*
X0051121Y0081682D01*
X0050910Y0082047D01*
X0050801Y0082454D01*
X0050801Y0084744D01*
X0055071Y0084744D01*
X0055071Y0085703D01*
X0050801Y0085703D01*
X0050801Y0087994D01*
X0050910Y0088401D01*
X0051121Y0088765D01*
X0051419Y0089063D01*
X0051543Y0089135D01*
X0050801Y0089876D01*
X0050801Y0096320D01*
X0051738Y0097257D01*
X0053353Y0097257D01*
X0053353Y0099674D01*
X0050623Y0099674D01*
X0049685Y0100611D01*
X0049685Y0110736D01*
X0050623Y0111673D01*
X0056747Y0111673D01*
X0057685Y0110736D01*
X0057685Y0105268D01*
X0057787Y0105166D01*
X0058153Y0104283D01*
X0058153Y0097257D01*
X0059363Y0097257D01*
X0060300Y0096320D01*
X0060300Y0093152D01*
X0065237Y0088216D01*
X0065603Y0087333D01*
X0065603Y0067256D01*
X0076680Y0067256D01*
X0077562Y0066891D01*
X0080783Y0063669D01*
X0080518Y0064066D01*
X0080242Y0064734D01*
X0080101Y0065442D01*
X0080101Y0065803D01*
X0083768Y0065803D01*
X0083768Y0065803D01*
X0091568Y0065803D01*
X0091568Y0065442D01*
X0091428Y0064734D01*
X0091151Y0064066D01*
X0090750Y0063466D01*
X0090239Y0062955D01*
X0089639Y0062554D01*
X0088971Y0062277D01*
X0088263Y0062136D01*
X0083768Y0062136D01*
X0083768Y0065803D01*
X0083768Y0065803D01*
X0091568Y0065803D01*
X0091568Y0066164D01*
X0091428Y0066873D01*
X0091151Y0067540D01*
X0090750Y0068141D01*
X0090239Y0068651D01*
X0089639Y0069053D01*
X0088971Y0069329D01*
X0088263Y0069470D01*
X0083768Y0069470D01*
X0083768Y0065803D01*
X0082255Y0065803D01*
X0079203Y0068856D01*
X0068203Y0068856D01*
X0068203Y0081456D01*
X0077062Y0081456D01*
X0077203Y0081596D01*
X0077682Y0082076D02*
X0076723Y0082076D01*
X0076723Y0085755D01*
X0074039Y0085755D01*
X0073632Y0085646D01*
X0073267Y0085436D01*
X0072969Y0085138D01*
X0072759Y0084773D01*
X0072650Y0084366D01*
X0072650Y0082076D01*
X0076723Y0082076D01*
X0076723Y0081117D01*
X0072650Y0081117D01*
X0072650Y0078827D01*
X0072759Y0078420D01*
X0072969Y0078055D01*
X0073168Y0077856D01*
X0072650Y0077338D01*
X0072650Y0070894D01*
X0073587Y0069957D01*
X0080818Y0069957D01*
X0081560Y0070699D01*
X0081691Y0070568D01*
X0083038Y0070010D01*
X0088631Y0070010D01*
X0089979Y0070568D01*
X0090537Y0071127D01*
X0092608Y0069056D01*
X0092608Y0068948D01*
X0093309Y0067258D01*
X0094603Y0065964D01*
X0096293Y0065263D01*
X0104123Y0065263D01*
X0105814Y0065964D01*
X0107108Y0067258D01*
X0107601Y0068447D01*
X0107601Y0061230D01*
X0107471Y0061629D01*
X0107143Y0062274D01*
X0106717Y0062860D01*
X0106205Y0063372D01*
X0105619Y0063798D01*
X0104974Y0064126D01*
X0104285Y0064350D01*
X0103570Y0064463D01*
X0100408Y0064463D01*
X0100408Y0060063D01*
X0100008Y0060063D01*
X0100008Y0059663D01*
X0092608Y0059663D01*
X0092608Y0059501D01*
X0092722Y0058786D01*
X0092945Y0058097D01*
X0093274Y0057452D01*
X0093700Y0056867D01*
X0094212Y0056355D01*
X0094797Y0055929D01*
X0095443Y0055600D01*
X0096131Y0055377D01*
X0096846Y0055263D01*
X0100008Y0055263D01*
X0100008Y0059663D01*
X0100408Y0059663D01*
X0100408Y0055263D01*
X0103570Y0055263D01*
X0104285Y0055377D01*
X0104974Y0055600D01*
X0105619Y0055929D01*
X0106205Y0056355D01*
X0106717Y0056867D01*
X0107143Y0057452D01*
X0107471Y0058097D01*
X0107601Y0058496D01*
X0107601Y0051230D01*
X0107471Y0051629D01*
X0107143Y0052274D01*
X0106717Y0052860D01*
X0106205Y0053372D01*
X0105619Y0053798D01*
X0104974Y0054126D01*
X0104285Y0054350D01*
X0103570Y0054463D01*
X0100408Y0054463D01*
X0100408Y0050063D01*
X0100008Y0050063D01*
X0100008Y0049663D01*
X0092608Y0049663D01*
X0092608Y0049501D01*
X0092722Y0048786D01*
X0092945Y0048097D01*
X0093274Y0047452D01*
X0093700Y0046867D01*
X0094212Y0046355D01*
X0094797Y0045929D01*
X0095443Y0045600D01*
X0096131Y0045377D01*
X0096846Y0045263D01*
X0100008Y0045263D01*
X0100008Y0049663D01*
X0100408Y0049663D01*
X0100408Y0045263D01*
X0103570Y0045263D01*
X0104285Y0045377D01*
X0104974Y0045600D01*
X0105619Y0045929D01*
X0106205Y0046355D01*
X0106717Y0046867D01*
X0107143Y0047452D01*
X0107471Y0048097D01*
X0107601Y0048496D01*
X0107601Y0041279D01*
X0107108Y0042469D01*
X0105814Y0043763D01*
X0104123Y0044463D01*
X0096293Y0044463D01*
X0094603Y0043763D01*
X0093646Y0042807D01*
X0087603Y0048850D01*
X0087603Y0056333D01*
X0087237Y0057216D01*
X0086562Y0057891D01*
X0081634Y0062819D01*
X0082031Y0062554D01*
X0082698Y0062277D01*
X0083407Y0062136D01*
X0083768Y0062136D01*
X0083768Y0065803D01*
X0089255Y0065803D01*
X0094203Y0060856D01*
X0099216Y0060856D01*
X0100208Y0059863D01*
X0100208Y0049863D01*
X0099268Y0050803D01*
X0100008Y0050600D02*
X0100408Y0050600D01*
X0100008Y0050063D02*
X0100008Y0054463D01*
X0096846Y0054463D01*
X0096131Y0054350D01*
X0095443Y0054126D01*
X0094797Y0053798D01*
X0094212Y0053372D01*
X0093700Y0052860D01*
X0093274Y0052274D01*
X0092945Y0051629D01*
X0092722Y0050940D01*
X0092608Y0050225D01*
X0092608Y0050063D01*
X0100008Y0050063D01*
X0100008Y0049001D02*
X0100408Y0049001D01*
X0100408Y0047402D02*
X0100008Y0047402D01*
X0100008Y0045804D02*
X0100408Y0045804D01*
X0104746Y0044205D02*
X0107601Y0044205D01*
X0107601Y0042607D02*
X0106970Y0042607D01*
X0107601Y0045804D02*
X0105374Y0045804D01*
X0107106Y0047402D02*
X0107601Y0047402D01*
X0107601Y0052198D02*
X0107181Y0052198D01*
X0107601Y0053797D02*
X0105621Y0053797D01*
X0104342Y0055395D02*
X0107601Y0055395D01*
X0107601Y0056994D02*
X0106809Y0056994D01*
X0107390Y0061789D02*
X0107601Y0061789D01*
X0107601Y0063388D02*
X0106183Y0063388D01*
X0107601Y0064986D02*
X0091478Y0064986D01*
X0091485Y0066585D02*
X0093982Y0066585D01*
X0092925Y0068183D02*
X0090707Y0068183D01*
X0091883Y0069782D02*
X0065603Y0069782D01*
X0065603Y0071380D02*
X0072650Y0071380D01*
X0072650Y0072979D02*
X0065603Y0072979D01*
X0065603Y0074577D02*
X0072650Y0074577D01*
X0072650Y0076176D02*
X0065603Y0076176D01*
X0065603Y0077774D02*
X0073086Y0077774D01*
X0072650Y0079373D02*
X0065603Y0079373D01*
X0065603Y0080971D02*
X0072650Y0080971D01*
X0072650Y0082570D02*
X0065603Y0082570D01*
X0065603Y0084168D02*
X0072650Y0084168D01*
X0076723Y0084168D02*
X0077682Y0084168D01*
X0077682Y0085755D02*
X0077682Y0082076D01*
X0077682Y0082570D02*
X0076723Y0082570D01*
X0077682Y0085755D02*
X0080366Y0085755D01*
X0080773Y0085646D01*
X0081138Y0085436D01*
X0081436Y0085138D01*
X0081646Y0084773D01*
X0081679Y0084649D01*
X0081691Y0084660D01*
X0083038Y0085218D01*
X0088631Y0085218D01*
X0089979Y0084660D01*
X0090687Y0083951D01*
X0095057Y0083951D01*
X0096293Y0084463D01*
X0104123Y0084463D01*
X0105814Y0083763D01*
X0107108Y0082469D01*
X0107601Y0081279D01*
X0107601Y0088447D01*
X0107108Y0087258D01*
X0105814Y0085964D01*
X0104123Y0085263D01*
X0096293Y0085263D01*
X0094603Y0085964D01*
X0093309Y0087258D01*
X0092608Y0088948D01*
X0092608Y0090778D01*
X0093309Y0092469D01*
X0094603Y0093763D01*
X0096293Y0094463D01*
X0104123Y0094463D01*
X0105814Y0093763D01*
X0107108Y0092469D01*
X0107601Y0091279D01*
X0107601Y0098447D01*
X0107108Y0097258D01*
X0105814Y0095964D01*
X0104123Y0095263D01*
X0096293Y0095263D01*
X0094603Y0095964D01*
X0093309Y0097258D01*
X0092608Y0098948D01*
X0092608Y0100778D01*
X0093309Y0102469D01*
X0094603Y0103763D01*
X0096293Y0104463D01*
X0104123Y0104463D01*
X0105814Y0103763D01*
X0107108Y0102469D01*
X0107601Y0101279D01*
X0107601Y0108447D01*
X0107108Y0107258D01*
X0105814Y0105964D01*
X0104123Y0105263D01*
X0096293Y0105263D01*
X0094603Y0105964D01*
X0093309Y0107258D01*
X0092608Y0108948D01*
X0092608Y0110778D01*
X0093309Y0112469D01*
X0094603Y0113763D01*
X0096293Y0114463D01*
X0104123Y0114463D01*
X0105814Y0113763D01*
X0107108Y0112469D01*
X0107601Y0111279D01*
X0107601Y0118447D01*
X0107108Y0117258D01*
X0105814Y0115964D01*
X0104123Y0115263D01*
X0096293Y0115263D01*
X0094603Y0115964D01*
X0093309Y0117258D01*
X0092608Y0118948D01*
X0092608Y0120778D01*
X0093309Y0122469D01*
X0094603Y0123763D01*
X0096293Y0124463D01*
X0104123Y0124463D01*
X0105814Y0123763D01*
X0107108Y0122469D01*
X0107601Y0121279D01*
X0107601Y0128447D01*
X0107108Y0127258D01*
X0105814Y0125964D01*
X0104123Y0125263D01*
X0096293Y0125263D01*
X0094603Y0125964D01*
X0093309Y0127258D01*
X0092608Y0128948D01*
X0092608Y0130778D01*
X0093309Y0132469D01*
X0094603Y0133763D01*
X0096293Y0134463D01*
X0104123Y0134463D01*
X0105814Y0133763D01*
X0107108Y0132469D01*
X0107601Y0131279D01*
X0107601Y0136856D01*
X0002600Y0136856D01*
X0002600Y0135321D02*
X0054349Y0135321D01*
X0054097Y0133722D02*
X0044730Y0133722D01*
X0044801Y0132124D02*
X0054097Y0132124D01*
X0053003Y0129656D02*
X0043103Y0119756D01*
X0040353Y0122506D01*
X0040051Y0122815D01*
X0043103Y0119756D02*
X0043103Y0112056D01*
X0043331Y0111543D01*
X0043103Y0110956D01*
X0040353Y0108206D01*
X0040353Y0093111D01*
X0040511Y0092952D01*
X0040106Y0092952D01*
X0039803Y0093256D01*
X0032614Y0086763D01*
X0032614Y0066268D01*
X0032203Y0065856D01*
X0027915Y0065856D01*
X0027862Y0065803D01*
X0028203Y0065463D01*
X0028203Y0052856D01*
X0043570Y0037488D01*
X0043570Y0023417D01*
X0066023Y0023417D01*
X0066462Y0023856D01*
X0063052Y0028220D02*
X0045970Y0028220D01*
X0047729Y0026622D02*
X0062303Y0026622D01*
X0061665Y0028523D02*
X0062380Y0028636D01*
X0063068Y0028860D01*
X0063713Y0029189D01*
X0064299Y0029614D01*
X0064811Y0030126D01*
X0065237Y0030712D01*
X0065566Y0031357D01*
X0065789Y0032046D01*
X0065903Y0032761D01*
X0065903Y0035923D01*
X0061503Y0035923D01*
X0061503Y0036323D01*
X0065903Y0036323D01*
X0065903Y0039485D01*
X0065789Y0040200D01*
X0065566Y0040889D01*
X0065237Y0041534D01*
X0064811Y0042120D01*
X0064299Y0042632D01*
X0063713Y0043057D01*
X0063068Y0043386D01*
X0062380Y0043610D01*
X0061665Y0043723D01*
X0061503Y0043723D01*
X0061503Y0036323D01*
X0061103Y0036323D01*
X0061103Y0043723D01*
X0060940Y0043723D01*
X0060225Y0043610D01*
X0059537Y0043386D01*
X0058892Y0043057D01*
X0058306Y0042632D01*
X0057794Y0042120D01*
X0057368Y0041534D01*
X0057040Y0040889D01*
X0056816Y0040200D01*
X0056703Y0039485D01*
X0056703Y0036323D01*
X0061102Y0036323D01*
X0061102Y0035923D01*
X0056703Y0035923D01*
X0056703Y0032761D01*
X0056816Y0032046D01*
X0057040Y0031357D01*
X0057368Y0030712D01*
X0057794Y0030126D01*
X0058306Y0029614D01*
X0058892Y0029189D01*
X0059537Y0028860D01*
X0060225Y0028636D01*
X0060940Y0028523D01*
X0061103Y0028523D01*
X0061103Y0035923D01*
X0061503Y0035923D01*
X0061503Y0028523D01*
X0061665Y0028523D01*
X0061503Y0029819D02*
X0061103Y0029819D01*
X0061103Y0031417D02*
X0061503Y0031417D01*
X0061503Y0033016D02*
X0061103Y0033016D01*
X0061103Y0034614D02*
X0061503Y0034614D01*
X0061503Y0036213D02*
X0074503Y0036213D01*
X0074503Y0037811D02*
X0065903Y0037811D01*
X0065903Y0039410D02*
X0074503Y0039410D01*
X0074905Y0041008D02*
X0065504Y0041008D01*
X0064324Y0042607D02*
X0076081Y0042607D01*
X0078459Y0044205D02*
X0040247Y0044205D01*
X0041846Y0042607D02*
X0046052Y0042607D01*
X0044871Y0041008D02*
X0043444Y0041008D01*
X0038649Y0045804D02*
X0076861Y0045804D01*
X0075262Y0047402D02*
X0037050Y0047402D01*
X0035452Y0049001D02*
X0073663Y0049001D01*
X0072943Y0050600D02*
X0033853Y0050600D01*
X0033895Y0052112D02*
X0035243Y0051554D01*
X0036702Y0051554D01*
X0038050Y0052112D01*
X0039081Y0053143D01*
X0039639Y0054491D01*
X0039639Y0060084D01*
X0039081Y0061431D01*
X0038050Y0062463D01*
X0036702Y0063021D01*
X0035243Y0063021D01*
X0033895Y0062463D01*
X0032864Y0061431D01*
X0032306Y0060084D01*
X0032306Y0054491D01*
X0032864Y0053143D01*
X0033895Y0052112D01*
X0033809Y0052198D02*
X0032255Y0052198D01*
X0032593Y0053797D02*
X0030656Y0053797D01*
X0030603Y0055395D02*
X0032306Y0055395D01*
X0032306Y0056994D02*
X0030603Y0056994D01*
X0030603Y0058592D02*
X0032306Y0058592D01*
X0032350Y0060191D02*
X0030603Y0060191D01*
X0030603Y0061789D02*
X0033221Y0061789D01*
X0030632Y0063388D02*
X0061277Y0063388D01*
X0061672Y0062463D02*
X0060324Y0063021D01*
X0058865Y0063021D01*
X0057517Y0062463D01*
X0056486Y0061431D01*
X0055928Y0060084D01*
X0055928Y0054491D01*
X0056486Y0053143D01*
X0057517Y0052112D01*
X0058865Y0051554D01*
X0060324Y0051554D01*
X0061672Y0052112D01*
X0062703Y0053143D01*
X0063261Y0054491D01*
X0063261Y0060084D01*
X0062703Y0061431D01*
X0061672Y0062463D01*
X0062346Y0061789D02*
X0064717Y0061789D01*
X0063846Y0060191D02*
X0063217Y0060191D01*
X0063261Y0058592D02*
X0063802Y0058592D01*
X0063802Y0056994D02*
X0063261Y0056994D01*
X0063261Y0055395D02*
X0063802Y0055395D01*
X0064089Y0053797D02*
X0062974Y0053797D01*
X0061758Y0052198D02*
X0065305Y0052198D01*
X0069632Y0052198D02*
X0072943Y0052198D01*
X0071963Y0053797D02*
X0070848Y0053797D01*
X0071135Y0055395D02*
X0071676Y0055395D01*
X0071676Y0056994D02*
X0071135Y0056994D01*
X0071135Y0058592D02*
X0071676Y0058592D01*
X0071720Y0060191D02*
X0071091Y0060191D01*
X0070220Y0061789D02*
X0072591Y0061789D01*
X0075343Y0059354D02*
X0075343Y0050716D01*
X0096203Y0029856D01*
X0100201Y0029856D01*
X0100208Y0029863D01*
X0093944Y0026622D02*
X0081303Y0026622D01*
X0081303Y0028220D02*
X0092910Y0028220D01*
X0092608Y0029819D02*
X0082304Y0029819D01*
X0083375Y0031417D02*
X0091247Y0031417D01*
X0089649Y0033016D02*
X0083703Y0033016D01*
X0083703Y0034614D02*
X0088050Y0034614D01*
X0086452Y0036213D02*
X0083703Y0036213D01*
X0083703Y0037811D02*
X0084853Y0037811D01*
X0090649Y0045804D02*
X0095043Y0045804D01*
X0095671Y0044205D02*
X0092247Y0044205D01*
X0093310Y0047402D02*
X0089050Y0047402D01*
X0087603Y0049001D02*
X0092688Y0049001D01*
X0092668Y0050600D02*
X0087603Y0050600D01*
X0087603Y0052198D02*
X0093235Y0052198D01*
X0094796Y0053797D02*
X0087603Y0053797D01*
X0087603Y0055395D02*
X0096074Y0055395D01*
X0093607Y0056994D02*
X0087329Y0056994D01*
X0085861Y0058592D02*
X0092785Y0058592D01*
X0092608Y0060063D02*
X0100008Y0060063D01*
X0100008Y0064463D01*
X0096846Y0064463D01*
X0096131Y0064350D01*
X0095443Y0064126D01*
X0094797Y0063798D01*
X0094212Y0063372D01*
X0093700Y0062860D01*
X0093274Y0062274D01*
X0092945Y0061629D01*
X0092722Y0060940D01*
X0092608Y0060225D01*
X0092608Y0060063D01*
X0092608Y0060191D02*
X0084262Y0060191D01*
X0082664Y0061789D02*
X0093027Y0061789D01*
X0094233Y0063388D02*
X0090672Y0063388D01*
X0095203Y0069856D02*
X0100201Y0069856D01*
X0100208Y0069863D01*
X0095203Y0069856D02*
X0091381Y0073677D01*
X0083768Y0073677D01*
X0083329Y0074116D01*
X0077203Y0074116D01*
X0081430Y0068651D02*
X0080919Y0068141D01*
X0080518Y0067540D01*
X0080242Y0066873D01*
X0080101Y0066164D01*
X0080101Y0065803D01*
X0083768Y0065803D01*
X0083768Y0065803D01*
X0083768Y0065803D01*
X0083768Y0069470D01*
X0083407Y0069470D01*
X0082698Y0069329D01*
X0082031Y0069053D01*
X0081430Y0068651D01*
X0080962Y0068183D02*
X0065603Y0068183D01*
X0063203Y0064856D02*
X0076203Y0064856D01*
X0085203Y0055856D01*
X0085203Y0047856D01*
X0093203Y0039856D01*
X0100201Y0039856D01*
X0100208Y0039863D01*
X0107507Y0028220D02*
X0107601Y0028220D01*
X0107601Y0026622D02*
X0106472Y0026622D01*
X0107601Y0025023D02*
X0081303Y0025023D01*
X0081303Y0023425D02*
X0094264Y0023425D01*
X0093042Y0021826D02*
X0081303Y0021826D01*
X0081303Y0020228D02*
X0092608Y0020228D01*
X0092740Y0018629D02*
X0081303Y0018629D01*
X0082100Y0017031D02*
X0093535Y0017031D01*
X0095885Y0015432D02*
X0083291Y0015432D01*
X0083703Y0013834D02*
X0094774Y0013834D01*
X0093212Y0012235D02*
X0083703Y0012235D01*
X0083703Y0010637D02*
X0092608Y0010637D01*
X0092608Y0009038D02*
X0083703Y0009038D01*
X0083703Y0007440D02*
X0093233Y0007440D01*
X0094898Y0005841D02*
X0083385Y0005841D01*
X0082328Y0004243D02*
X0107601Y0004243D01*
X0107601Y0005841D02*
X0105519Y0005841D01*
X0107183Y0007440D02*
X0107601Y0007440D01*
X0107601Y0012235D02*
X0107205Y0012235D01*
X0107601Y0013834D02*
X0105643Y0013834D01*
X0104531Y0015432D02*
X0107601Y0015432D01*
X0107601Y0017031D02*
X0106881Y0017031D01*
X0107374Y0021826D02*
X0107601Y0021826D01*
X0107601Y0023425D02*
X0106152Y0023425D01*
X0107601Y0002644D02*
X0002600Y0002644D01*
X0002600Y0004243D02*
X0028048Y0004243D01*
X0026991Y0005841D02*
X0015519Y0005841D01*
X0015814Y0005964D02*
X0014123Y0005263D01*
X0006293Y0005263D01*
X0004603Y0005964D01*
X0003309Y0007258D01*
X0002608Y0008948D01*
X0002608Y0010778D01*
X0003309Y0012469D01*
X0004603Y0013763D01*
X0006293Y0014463D01*
X0014123Y0014463D01*
X0015814Y0013763D01*
X0017108Y0012469D01*
X0017808Y0010778D01*
X0017808Y0008948D01*
X0017108Y0007258D01*
X0015814Y0005964D01*
X0017183Y0007440D02*
X0026673Y0007440D01*
X0026673Y0009038D02*
X0017808Y0009038D01*
X0017808Y0010637D02*
X0026673Y0010637D01*
X0026673Y0012235D02*
X0017205Y0012235D01*
X0015643Y0013834D02*
X0026673Y0013834D01*
X0027085Y0015432D02*
X0014531Y0015432D01*
X0014123Y0015263D02*
X0015814Y0015964D01*
X0017108Y0017258D01*
X0017808Y0018948D01*
X0017808Y0020778D01*
X0017108Y0022469D01*
X0015814Y0023763D01*
X0014123Y0024463D01*
X0006293Y0024463D01*
X0004603Y0023763D01*
X0003309Y0022469D01*
X0002608Y0020778D01*
X0002608Y0018948D01*
X0003309Y0017258D01*
X0004603Y0015964D01*
X0006293Y0015263D01*
X0014123Y0015263D01*
X0016881Y0017031D02*
X0028276Y0017031D01*
X0029073Y0018629D02*
X0017676Y0018629D01*
X0017808Y0020228D02*
X0029073Y0020228D01*
X0029073Y0021826D02*
X0017374Y0021826D01*
X0016152Y0023425D02*
X0028988Y0023425D01*
X0029073Y0025023D02*
X0002600Y0025023D01*
X0002600Y0023425D02*
X0004264Y0023425D01*
X0003042Y0021826D02*
X0002600Y0021826D01*
X0002600Y0020228D02*
X0002608Y0020228D01*
X0002600Y0018629D02*
X0002740Y0018629D01*
X0002600Y0017031D02*
X0003535Y0017031D01*
X0002600Y0015432D02*
X0005885Y0015432D01*
X0004774Y0013834D02*
X0002600Y0013834D01*
X0002600Y0012235D02*
X0003212Y0012235D01*
X0002608Y0010637D02*
X0002600Y0010637D01*
X0002600Y0009038D02*
X0002608Y0009038D01*
X0002600Y0007440D02*
X0003233Y0007440D01*
X0002600Y0005841D02*
X0004898Y0005841D01*
X0006293Y0025263D02*
X0004603Y0025964D01*
X0003309Y0027258D01*
X0002608Y0028948D01*
X0002608Y0030778D01*
X0003309Y0032469D01*
X0004603Y0033763D01*
X0006293Y0034463D01*
X0014123Y0034463D01*
X0015814Y0033763D01*
X0017108Y0032469D01*
X0017808Y0030778D01*
X0017808Y0028948D01*
X0017108Y0027258D01*
X0015814Y0025964D01*
X0014123Y0025263D01*
X0006293Y0025263D01*
X0003944Y0026622D02*
X0002600Y0026622D01*
X0002600Y0028220D02*
X0002910Y0028220D01*
X0002608Y0029819D02*
X0002600Y0029819D01*
X0002600Y0031417D02*
X0002873Y0031417D01*
X0002600Y0033016D02*
X0003856Y0033016D01*
X0002600Y0034614D02*
X0026673Y0034614D01*
X0026673Y0033016D02*
X0016561Y0033016D01*
X0017544Y0031417D02*
X0027001Y0031417D01*
X0028072Y0029819D02*
X0017808Y0029819D01*
X0017507Y0028220D02*
X0029073Y0028220D01*
X0029073Y0026622D02*
X0016472Y0026622D01*
X0014285Y0035377D02*
X0014974Y0035600D01*
X0015619Y0035929D01*
X0016205Y0036355D01*
X0016717Y0036867D01*
X0017143Y0037452D01*
X0017471Y0038097D01*
X0017695Y0038786D01*
X0017808Y0039501D01*
X0017808Y0039663D01*
X0010408Y0039663D01*
X0010408Y0035263D01*
X0013570Y0035263D01*
X0014285Y0035377D01*
X0016010Y0036213D02*
X0026673Y0036213D01*
X0026206Y0037811D02*
X0017326Y0037811D01*
X0017794Y0039410D02*
X0024477Y0039410D01*
X0022747Y0041008D02*
X0017673Y0041008D01*
X0017695Y0040940D02*
X0017471Y0041629D01*
X0017143Y0042274D01*
X0016717Y0042860D01*
X0016205Y0043372D01*
X0015619Y0043798D01*
X0014974Y0044126D01*
X0014285Y0044350D01*
X0013570Y0044463D01*
X0010408Y0044463D01*
X0010408Y0040063D01*
X0010008Y0040063D01*
X0010008Y0039663D01*
X0002608Y0039663D01*
X0002608Y0039501D01*
X0002722Y0038786D01*
X0002945Y0038097D01*
X0003274Y0037452D01*
X0003700Y0036867D01*
X0004212Y0036355D01*
X0004797Y0035929D01*
X0005443Y0035600D01*
X0006131Y0035377D01*
X0006846Y0035263D01*
X0010008Y0035263D01*
X0010008Y0039663D01*
X0010408Y0039663D01*
X0010408Y0040063D01*
X0017808Y0040063D01*
X0017808Y0040225D01*
X0017695Y0040940D01*
X0016901Y0042607D02*
X0021018Y0042607D01*
X0019289Y0044205D02*
X0014730Y0044205D01*
X0015429Y0045804D02*
X0017560Y0045804D01*
X0015837Y0053797D02*
X0015733Y0053797D01*
X0015837Y0055395D02*
X0014441Y0055395D01*
X0015837Y0064986D02*
X0002600Y0064986D01*
X0002600Y0063388D02*
X0004227Y0063388D01*
X0003027Y0061789D02*
X0002600Y0061789D01*
X0002600Y0060191D02*
X0002608Y0060191D01*
X0002600Y0058592D02*
X0002756Y0058592D01*
X0002600Y0056994D02*
X0003573Y0056994D01*
X0002600Y0055395D02*
X0005975Y0055395D01*
X0004684Y0053797D02*
X0002600Y0053797D01*
X0002600Y0052198D02*
X0003196Y0052198D01*
X0002608Y0050600D02*
X0002600Y0050600D01*
X0002600Y0049001D02*
X0002608Y0049001D01*
X0002600Y0047402D02*
X0003249Y0047402D01*
X0002600Y0045804D02*
X0004988Y0045804D01*
X0005443Y0044126D02*
X0004797Y0043798D01*
X0004212Y0043372D01*
X0003700Y0042860D01*
X0003274Y0042274D01*
X0002945Y0041629D01*
X0002722Y0040940D01*
X0002608Y0040225D01*
X0002608Y0040063D01*
X0010008Y0040063D01*
X0010008Y0044463D01*
X0006846Y0044463D01*
X0006131Y0044350D01*
X0005443Y0044126D01*
X0005686Y0044205D02*
X0002600Y0044205D01*
X0002600Y0042607D02*
X0003516Y0042607D01*
X0002744Y0041008D02*
X0002600Y0041008D01*
X0002600Y0039410D02*
X0002623Y0039410D01*
X0002600Y0037811D02*
X0003091Y0037811D01*
X0002600Y0036213D02*
X0004407Y0036213D01*
X0010008Y0036213D02*
X0010408Y0036213D01*
X0010408Y0037811D02*
X0010008Y0037811D01*
X0010008Y0039410D02*
X0010408Y0039410D01*
X0010408Y0041008D02*
X0010008Y0041008D01*
X0010008Y0042607D02*
X0010408Y0042607D01*
X0010408Y0044205D02*
X0010008Y0044205D01*
X0003982Y0066585D02*
X0002600Y0066585D01*
X0002600Y0068183D02*
X0002925Y0068183D01*
X0002608Y0069782D02*
X0002600Y0069782D01*
X0002600Y0071380D02*
X0002858Y0071380D01*
X0002600Y0072979D02*
X0003818Y0072979D01*
X0002600Y0074577D02*
X0015837Y0074577D01*
X0015837Y0084168D02*
X0014836Y0084168D01*
X0015339Y0085767D02*
X0015837Y0085767D01*
X0015818Y0093759D02*
X0015837Y0093759D01*
X0015837Y0095358D02*
X0014352Y0095358D01*
X0015837Y0104949D02*
X0002600Y0104949D01*
X0002600Y0106547D02*
X0004019Y0106547D01*
X0002941Y0108146D02*
X0002600Y0108146D01*
X0002600Y0109744D02*
X0002608Y0109744D01*
X0002600Y0111343D02*
X0002842Y0111343D01*
X0002600Y0112941D02*
X0003781Y0112941D01*
X0002600Y0114540D02*
X0015837Y0114540D01*
X0020237Y0114540D02*
X0020378Y0114540D01*
X0020237Y0116138D02*
X0021634Y0116138D01*
X0021834Y0117737D02*
X0020237Y0117737D01*
X0020237Y0119335D02*
X0020416Y0119335D01*
X0020427Y0122533D02*
X0020253Y0122533D01*
X0018946Y0124131D02*
X0021895Y0124131D01*
X0017425Y0125730D02*
X0035302Y0125730D01*
X0035302Y0124131D02*
X0029695Y0124131D01*
X0031164Y0122533D02*
X0035302Y0122533D01*
X0035302Y0120934D02*
X0031529Y0120934D01*
X0031174Y0119335D02*
X0035559Y0119335D01*
X0031691Y0114540D02*
X0031213Y0114540D01*
X0031529Y0112941D02*
X0031691Y0112941D01*
X0031691Y0111343D02*
X0031125Y0111343D01*
X0031691Y0109744D02*
X0029471Y0109744D01*
X0030075Y0108146D02*
X0031691Y0108146D01*
X0032203Y0104856D02*
X0028179Y0104856D01*
X0027862Y0105173D01*
X0032203Y0104856D02*
X0035850Y0108504D01*
X0035850Y0111543D01*
X0040703Y0116138D02*
X0029957Y0116138D01*
X0029757Y0117737D02*
X0040703Y0117737D01*
X0045503Y0117737D02*
X0081873Y0117737D01*
X0081691Y0117813D02*
X0083038Y0117254D01*
X0088631Y0117254D01*
X0089979Y0117813D01*
X0091010Y0118844D01*
X0091568Y0120192D01*
X0091568Y0121651D01*
X0091010Y0122998D01*
X0089979Y0124030D01*
X0088631Y0124588D01*
X0083038Y0124588D01*
X0081691Y0124030D01*
X0080659Y0122998D01*
X0080101Y0121651D01*
X0080101Y0120192D01*
X0080659Y0118844D01*
X0081691Y0117813D01*
X0081691Y0116156D02*
X0080659Y0115124D01*
X0080101Y0113777D01*
X0080101Y0112318D01*
X0080659Y0110970D01*
X0081691Y0109939D01*
X0083038Y0109380D01*
X0088631Y0109380D01*
X0089979Y0109939D01*
X0091010Y0110970D01*
X0091568Y0112318D01*
X0091568Y0113777D01*
X0091010Y0115124D01*
X0089979Y0116156D01*
X0088631Y0116714D01*
X0083038Y0116714D01*
X0081691Y0116156D01*
X0081673Y0116138D02*
X0045503Y0116138D01*
X0047490Y0114540D02*
X0080417Y0114540D01*
X0080101Y0112941D02*
X0047490Y0112941D01*
X0047490Y0111343D02*
X0050293Y0111343D01*
X0050803Y0112056D02*
X0071703Y0112056D01*
X0071703Y0112356D01*
X0074203Y0114856D01*
X0074492Y0111673D02*
X0072282Y0111673D01*
X0072282Y0106073D01*
X0075881Y0106073D01*
X0075881Y0110283D01*
X0075772Y0110690D01*
X0075562Y0111055D01*
X0075264Y0111353D01*
X0074899Y0111564D01*
X0074492Y0111673D01*
X0075274Y0111343D02*
X0080505Y0111343D01*
X0082159Y0109744D02*
X0075881Y0109744D01*
X0075881Y0108146D02*
X0081555Y0108146D01*
X0081691Y0108282D02*
X0080659Y0107250D01*
X0080101Y0105903D01*
X0080101Y0104444D01*
X0080659Y0103096D01*
X0081691Y0102065D01*
X0083038Y0101506D01*
X0088631Y0101506D01*
X0089979Y0102065D01*
X0091010Y0103096D01*
X0091568Y0104444D01*
X0091568Y0105903D01*
X0091010Y0107250D01*
X0089979Y0108282D01*
X0088631Y0108840D01*
X0083038Y0108840D01*
X0081691Y0108282D01*
X0080368Y0106547D02*
X0075881Y0106547D01*
X0075881Y0105273D02*
X0072282Y0105273D01*
X0072282Y0099674D01*
X0074492Y0099674D01*
X0074899Y0099783D01*
X0075264Y0099993D01*
X0075562Y0100291D01*
X0075772Y0100656D01*
X0075881Y0101063D01*
X0075881Y0105273D01*
X0075881Y0104949D02*
X0080101Y0104949D01*
X0080554Y0103350D02*
X0075881Y0103350D01*
X0075881Y0101752D02*
X0082445Y0101752D01*
X0083038Y0100966D02*
X0081691Y0100408D01*
X0080659Y0099376D01*
X0080101Y0098029D01*
X0080101Y0096570D01*
X0080659Y0095222D01*
X0081691Y0094191D01*
X0083038Y0093632D01*
X0088631Y0093632D01*
X0089979Y0094191D01*
X0091010Y0095222D01*
X0091568Y0096570D01*
X0091568Y0098029D01*
X0091010Y0099376D01*
X0089979Y0100408D01*
X0088631Y0100966D01*
X0083038Y0100966D01*
X0081436Y0100153D02*
X0075424Y0100153D01*
X0072282Y0100153D02*
X0071482Y0100153D01*
X0071482Y0099674D02*
X0069272Y0099674D01*
X0068865Y0099783D01*
X0068500Y0099993D01*
X0068202Y0100291D01*
X0067991Y0100656D01*
X0067882Y0101063D01*
X0067882Y0105273D01*
X0071482Y0105273D01*
X0072282Y0105273D01*
X0072282Y0106073D01*
X0071482Y0106073D01*
X0071482Y0105273D01*
X0071482Y0099674D01*
X0071482Y0101752D02*
X0072282Y0101752D01*
X0072282Y0103350D02*
X0071482Y0103350D01*
X0071482Y0104949D02*
X0072282Y0104949D01*
X0072253Y0105456D02*
X0071882Y0105673D01*
X0071703Y0106006D01*
X0071703Y0112056D01*
X0071482Y0111673D02*
X0069272Y0111673D01*
X0068865Y0111564D01*
X0068500Y0111353D01*
X0068202Y0111055D01*
X0067991Y0110690D01*
X0067882Y0110283D01*
X0067882Y0106073D01*
X0071482Y0106073D01*
X0071482Y0111673D01*
X0071482Y0111343D02*
X0072282Y0111343D01*
X0072282Y0109744D02*
X0071482Y0109744D01*
X0071482Y0108146D02*
X0072282Y0108146D01*
X0072282Y0106547D02*
X0071482Y0106547D01*
X0072253Y0105456D02*
X0072253Y0093356D01*
X0071703Y0092806D02*
X0067853Y0092956D01*
X0064489Y0088964D02*
X0080101Y0088964D01*
X0080101Y0088696D02*
X0080659Y0087348D01*
X0081691Y0086317D01*
X0083038Y0085758D01*
X0088631Y0085758D01*
X0089979Y0086317D01*
X0091010Y0087348D01*
X0091568Y0088696D01*
X0091568Y0090155D01*
X0091010Y0091502D01*
X0089979Y0092534D01*
X0088631Y0093092D01*
X0083038Y0093092D01*
X0081691Y0092534D01*
X0080659Y0091502D01*
X0080101Y0090155D01*
X0080101Y0088696D01*
X0080652Y0087365D02*
X0065589Y0087365D01*
X0065603Y0085767D02*
X0083018Y0085767D01*
X0083768Y0081551D02*
X0098520Y0081551D01*
X0100208Y0079863D01*
X0095581Y0084168D02*
X0090470Y0084168D01*
X0088651Y0085767D02*
X0095078Y0085767D01*
X0093264Y0087365D02*
X0091017Y0087365D01*
X0091568Y0088964D02*
X0092608Y0088964D01*
X0092608Y0090562D02*
X0091400Y0090562D01*
X0090352Y0092161D02*
X0093181Y0092161D01*
X0094599Y0093759D02*
X0088938Y0093759D01*
X0091066Y0095358D02*
X0096065Y0095358D01*
X0093610Y0096956D02*
X0091568Y0096956D01*
X0091351Y0098555D02*
X0092771Y0098555D01*
X0092608Y0100153D02*
X0090233Y0100153D01*
X0089224Y0101752D02*
X0093012Y0101752D01*
X0094190Y0103350D02*
X0091116Y0103350D01*
X0091568Y0104949D02*
X0107601Y0104949D01*
X0107601Y0106547D02*
X0106398Y0106547D01*
X0107476Y0108146D02*
X0107601Y0108146D01*
X0107574Y0111343D02*
X0107601Y0111343D01*
X0107601Y0112941D02*
X0106636Y0112941D01*
X0107601Y0114540D02*
X0091252Y0114540D01*
X0091568Y0112941D02*
X0093781Y0112941D01*
X0092842Y0111343D02*
X0091165Y0111343D01*
X0092608Y0109744D02*
X0089510Y0109744D01*
X0090115Y0108146D02*
X0092941Y0108146D01*
X0094019Y0106547D02*
X0091301Y0106547D01*
X0089996Y0116138D02*
X0094428Y0116138D01*
X0093110Y0117737D02*
X0089796Y0117737D01*
X0091214Y0119335D02*
X0092608Y0119335D01*
X0092673Y0120934D02*
X0091568Y0120934D01*
X0091203Y0122533D02*
X0093372Y0122533D01*
X0095491Y0124131D02*
X0089735Y0124131D01*
X0093279Y0127328D02*
X0071470Y0127328D01*
X0071470Y0128927D02*
X0092617Y0128927D01*
X0092608Y0130525D02*
X0071470Y0130525D01*
X0071470Y0132124D02*
X0093166Y0132124D01*
X0094562Y0133722D02*
X0071470Y0133722D01*
X0071218Y0135321D02*
X0107601Y0135321D01*
X0107601Y0133722D02*
X0105855Y0133722D01*
X0107251Y0132124D02*
X0107601Y0132124D01*
X0107601Y0127328D02*
X0107137Y0127328D01*
X0107601Y0125730D02*
X0105249Y0125730D01*
X0104925Y0124131D02*
X0107601Y0124131D01*
X0107601Y0122533D02*
X0107044Y0122533D01*
X0107307Y0117737D02*
X0107601Y0117737D01*
X0107601Y0116138D02*
X0105989Y0116138D01*
X0106227Y0103350D02*
X0107601Y0103350D01*
X0107601Y0101752D02*
X0107405Y0101752D01*
X0107601Y0096956D02*
X0106807Y0096956D01*
X0107601Y0095358D02*
X0104352Y0095358D01*
X0105818Y0093759D02*
X0107601Y0093759D01*
X0107601Y0092161D02*
X0107236Y0092161D01*
X0107153Y0087365D02*
X0107601Y0087365D01*
X0107601Y0085767D02*
X0105339Y0085767D01*
X0104836Y0084168D02*
X0107601Y0084168D01*
X0107601Y0082570D02*
X0107007Y0082570D01*
X0107491Y0068183D02*
X0107601Y0068183D01*
X0107601Y0066585D02*
X0106435Y0066585D01*
X0100408Y0063388D02*
X0100008Y0063388D01*
X0100008Y0061789D02*
X0100408Y0061789D01*
X0100408Y0060191D02*
X0100008Y0060191D01*
X0100008Y0058592D02*
X0100408Y0058592D01*
X0100408Y0056994D02*
X0100008Y0056994D01*
X0100008Y0055395D02*
X0100408Y0055395D01*
X0100408Y0053797D02*
X0100008Y0053797D01*
X0100008Y0052198D02*
X0100408Y0052198D01*
X0083768Y0063388D02*
X0083768Y0063388D01*
X0083768Y0064986D02*
X0083768Y0064986D01*
X0083768Y0066585D02*
X0083768Y0066585D01*
X0083768Y0068183D02*
X0083768Y0068183D01*
X0080184Y0066585D02*
X0077868Y0066585D01*
X0079467Y0064986D02*
X0080191Y0064986D01*
X0068203Y0081456D02*
X0067853Y0081806D01*
X0063203Y0086856D02*
X0057803Y0092256D01*
X0056303Y0092256D01*
X0055551Y0093008D01*
X0055551Y0093098D01*
X0055753Y0093300D01*
X0055753Y0103806D01*
X0054103Y0105456D01*
X0053685Y0105673D01*
X0057685Y0106547D02*
X0058784Y0106547D01*
X0058784Y0104949D02*
X0057877Y0104949D01*
X0058153Y0103350D02*
X0058784Y0103350D01*
X0058784Y0101752D02*
X0058153Y0101752D01*
X0058784Y0100611D02*
X0059721Y0099674D01*
X0065846Y0099674D01*
X0066783Y0100611D01*
X0066783Y0110736D01*
X0065846Y0111673D01*
X0059721Y0111673D01*
X0058784Y0110736D01*
X0058784Y0100611D01*
X0059241Y0100153D02*
X0058153Y0100153D01*
X0058153Y0098555D02*
X0080319Y0098555D01*
X0080101Y0096956D02*
X0059664Y0096956D01*
X0060300Y0095358D02*
X0080603Y0095358D01*
X0082732Y0093759D02*
X0060300Y0093759D01*
X0061292Y0092161D02*
X0081318Y0092161D01*
X0080270Y0090562D02*
X0062890Y0090562D01*
X0063203Y0086856D02*
X0063203Y0064856D01*
X0060803Y0064986D02*
X0034681Y0064986D01*
X0035014Y0066585D02*
X0060803Y0066585D01*
X0060803Y0068183D02*
X0035014Y0068183D01*
X0035014Y0069782D02*
X0060803Y0069782D01*
X0060803Y0071380D02*
X0035014Y0071380D01*
X0035014Y0072979D02*
X0060803Y0072979D01*
X0060803Y0074577D02*
X0035014Y0074577D01*
X0035014Y0076176D02*
X0060803Y0076176D01*
X0060803Y0077774D02*
X0035014Y0077774D01*
X0035014Y0079373D02*
X0060803Y0079373D01*
X0060803Y0080971D02*
X0044066Y0080971D01*
X0045261Y0082570D02*
X0050801Y0082570D01*
X0050801Y0084168D02*
X0045261Y0084168D01*
X0045261Y0085767D02*
X0050801Y0085767D01*
X0050801Y0087365D02*
X0045261Y0087365D01*
X0044564Y0088964D02*
X0051319Y0088964D01*
X0050801Y0090562D02*
X0045261Y0090562D01*
X0045261Y0092161D02*
X0050801Y0092161D01*
X0050801Y0093759D02*
X0045261Y0093759D01*
X0045261Y0095358D02*
X0050801Y0095358D01*
X0051438Y0096956D02*
X0044479Y0096956D01*
X0042753Y0098555D02*
X0053353Y0098555D01*
X0050143Y0100153D02*
X0042753Y0100153D01*
X0042753Y0101752D02*
X0049685Y0101752D01*
X0049685Y0103350D02*
X0042753Y0103350D01*
X0042753Y0104949D02*
X0049685Y0104949D01*
X0049685Y0106547D02*
X0042753Y0106547D01*
X0047490Y0108146D02*
X0049685Y0108146D01*
X0049685Y0109744D02*
X0047490Y0109744D01*
X0049153Y0110406D02*
X0049153Y0085224D01*
X0055551Y0085224D01*
X0040657Y0085224D01*
X0040511Y0085078D01*
X0040032Y0084168D02*
X0040991Y0084168D01*
X0040991Y0082570D02*
X0040032Y0082570D01*
X0040032Y0080971D02*
X0040991Y0080971D01*
X0036957Y0080971D02*
X0035014Y0080971D01*
X0035014Y0082570D02*
X0035762Y0082570D01*
X0035762Y0084168D02*
X0035014Y0084168D01*
X0035091Y0085767D02*
X0035762Y0085767D01*
X0020329Y0106547D02*
X0020237Y0106547D01*
X0020237Y0108146D02*
X0021515Y0108146D01*
X0022120Y0109744D02*
X0020237Y0109744D01*
X0020237Y0111343D02*
X0020465Y0111343D01*
X0017137Y0127328D02*
X0035517Y0127328D01*
X0035302Y0128927D02*
X0017799Y0128927D01*
X0017808Y0130525D02*
X0039572Y0130525D01*
X0040051Y0130689D02*
X0040353Y0130756D01*
X0048703Y0130756D01*
X0048879Y0128927D02*
X0044801Y0128927D01*
X0044585Y0127328D02*
X0047280Y0127328D01*
X0045682Y0125730D02*
X0044801Y0125730D01*
X0047675Y0120934D02*
X0080101Y0120934D01*
X0080455Y0119335D02*
X0046076Y0119335D01*
X0049273Y0122533D02*
X0080466Y0122533D01*
X0081935Y0124131D02*
X0050872Y0124131D01*
X0052470Y0125730D02*
X0054097Y0125730D01*
X0053003Y0129656D02*
X0062353Y0129656D01*
X0062783Y0130075D01*
X0071470Y0125730D02*
X0095168Y0125730D01*
X0068490Y0111343D02*
X0066176Y0111343D01*
X0066783Y0109744D02*
X0067882Y0109744D01*
X0067882Y0108146D02*
X0066783Y0108146D01*
X0066783Y0106547D02*
X0067882Y0106547D01*
X0067882Y0104949D02*
X0066783Y0104949D01*
X0066783Y0103350D02*
X0067882Y0103350D01*
X0067882Y0101752D02*
X0066783Y0101752D01*
X0066326Y0100153D02*
X0068340Y0100153D01*
X0059391Y0111343D02*
X0057077Y0111343D01*
X0057685Y0109744D02*
X0058784Y0109744D01*
X0058784Y0108146D02*
X0057685Y0108146D01*
X0050803Y0112056D02*
X0049153Y0110406D01*
X0050477Y0130525D02*
X0040531Y0130525D01*
X0040531Y0132124D02*
X0039572Y0132124D01*
X0039572Y0133722D02*
X0040531Y0133722D01*
X0035372Y0133722D02*
X0015855Y0133722D01*
X0017251Y0132124D02*
X0035302Y0132124D01*
X0010653Y0129656D02*
X0010208Y0129863D01*
X0005168Y0125730D02*
X0002600Y0125730D01*
X0002600Y0124131D02*
X0005491Y0124131D01*
X0003372Y0122533D02*
X0002600Y0122533D01*
X0002600Y0120934D02*
X0002673Y0120934D01*
X0002600Y0119335D02*
X0002608Y0119335D01*
X0002600Y0117737D02*
X0003110Y0117737D01*
X0002600Y0116138D02*
X0004428Y0116138D01*
X0003279Y0127328D02*
X0002600Y0127328D01*
X0002600Y0128927D02*
X0002617Y0128927D01*
X0002600Y0130525D02*
X0002608Y0130525D01*
X0002600Y0132124D02*
X0003166Y0132124D01*
X0002600Y0133722D02*
X0004562Y0133722D01*
X0004190Y0103350D02*
X0002600Y0103350D01*
X0002600Y0101752D02*
X0003012Y0101752D01*
X0002608Y0100153D02*
X0002600Y0100153D01*
X0002600Y0098555D02*
X0002771Y0098555D01*
X0002600Y0096956D02*
X0003610Y0096956D01*
X0002600Y0095358D02*
X0006065Y0095358D01*
X0004599Y0093759D02*
X0002600Y0093759D01*
X0002600Y0092161D02*
X0003181Y0092161D01*
X0002608Y0090562D02*
X0002600Y0090562D01*
X0002600Y0088964D02*
X0002608Y0088964D01*
X0002600Y0087365D02*
X0003264Y0087365D01*
X0002600Y0085767D02*
X0005078Y0085767D01*
X0005581Y0084168D02*
X0002600Y0084168D01*
X0002600Y0082570D02*
X0003409Y0082570D01*
X0002688Y0080971D02*
X0002600Y0080971D01*
X0002600Y0079373D02*
X0002608Y0079373D01*
X0002600Y0077774D02*
X0003095Y0077774D01*
X0002600Y0076176D02*
X0004391Y0076176D01*
X0038723Y0061789D02*
X0041095Y0061789D01*
X0040738Y0061431D02*
X0040180Y0060084D01*
X0040180Y0054491D01*
X0040738Y0053143D01*
X0041769Y0052112D01*
X0043117Y0051554D01*
X0044576Y0051554D01*
X0045924Y0052112D01*
X0046955Y0053143D01*
X0047513Y0054491D01*
X0047513Y0060084D01*
X0046955Y0061431D01*
X0045924Y0062463D01*
X0044576Y0063021D01*
X0043117Y0063021D01*
X0041769Y0062463D01*
X0040738Y0061431D01*
X0040224Y0060191D02*
X0039595Y0060191D01*
X0039639Y0058592D02*
X0040180Y0058592D01*
X0040180Y0056994D02*
X0039639Y0056994D01*
X0039639Y0055395D02*
X0040180Y0055395D01*
X0040467Y0053797D02*
X0039352Y0053797D01*
X0038136Y0052198D02*
X0041683Y0052198D01*
X0046010Y0052198D02*
X0049557Y0052198D01*
X0049643Y0052112D02*
X0050991Y0051554D01*
X0052450Y0051554D01*
X0053798Y0052112D01*
X0054829Y0053143D01*
X0055387Y0054491D01*
X0055387Y0060084D01*
X0054829Y0061431D01*
X0053798Y0062463D01*
X0052450Y0063021D01*
X0050991Y0063021D01*
X0049643Y0062463D01*
X0048612Y0061431D01*
X0048054Y0060084D01*
X0048054Y0054491D01*
X0048612Y0053143D01*
X0049643Y0052112D01*
X0048341Y0053797D02*
X0047226Y0053797D01*
X0047513Y0055395D02*
X0048054Y0055395D01*
X0048054Y0056994D02*
X0047513Y0056994D01*
X0047513Y0058592D02*
X0048054Y0058592D01*
X0048098Y0060191D02*
X0047469Y0060191D01*
X0046598Y0061789D02*
X0048969Y0061789D01*
X0054472Y0061789D02*
X0056843Y0061789D01*
X0055972Y0060191D02*
X0055343Y0060191D01*
X0055387Y0058592D02*
X0055928Y0058592D01*
X0055928Y0056994D02*
X0055387Y0056994D01*
X0055387Y0055395D02*
X0055928Y0055395D01*
X0056215Y0053797D02*
X0055100Y0053797D01*
X0053884Y0052198D02*
X0057431Y0052198D01*
X0058281Y0042607D02*
X0052094Y0042607D01*
X0053275Y0041008D02*
X0057101Y0041008D01*
X0056703Y0039410D02*
X0053673Y0039410D01*
X0053673Y0037811D02*
X0056703Y0037811D01*
X0056703Y0034614D02*
X0053673Y0034614D01*
X0053673Y0033016D02*
X0056703Y0033016D01*
X0057020Y0031417D02*
X0053356Y0031417D01*
X0052275Y0029819D02*
X0058101Y0029819D01*
X0061102Y0036213D02*
X0049273Y0036213D01*
X0049273Y0037811D02*
X0048873Y0037811D01*
X0048873Y0039410D02*
X0049273Y0039410D01*
X0049273Y0041008D02*
X0048873Y0041008D01*
X0048873Y0042607D02*
X0049273Y0042607D01*
X0049273Y0034614D02*
X0048873Y0034614D01*
X0048873Y0033016D02*
X0049273Y0033016D01*
X0049273Y0031417D02*
X0048873Y0031417D01*
X0048873Y0029819D02*
X0049273Y0029819D01*
X0047729Y0020228D02*
X0062316Y0020228D01*
X0061665Y0018123D02*
X0061503Y0018123D01*
X0061503Y0010723D01*
X0065903Y0010723D01*
X0065903Y0013885D01*
X0065789Y0014600D01*
X0065566Y0015289D01*
X0065237Y0015934D01*
X0064811Y0016520D01*
X0064299Y0017032D01*
X0063713Y0017457D01*
X0063068Y0017786D01*
X0062380Y0018010D01*
X0061665Y0018123D01*
X0061103Y0018123D02*
X0060940Y0018123D01*
X0060225Y0018010D01*
X0059537Y0017786D01*
X0058892Y0017457D01*
X0058306Y0017032D01*
X0057794Y0016520D01*
X0057368Y0015934D01*
X0057040Y0015289D01*
X0056816Y0014600D01*
X0056703Y0013885D01*
X0056703Y0010723D01*
X0061102Y0010723D01*
X0061102Y0010323D01*
X0056703Y0010323D01*
X0056703Y0007161D01*
X0056816Y0006446D01*
X0057040Y0005757D01*
X0057368Y0005112D01*
X0057794Y0004526D01*
X0058306Y0004014D01*
X0058892Y0003589D01*
X0059537Y0003260D01*
X0060225Y0003036D01*
X0060940Y0002923D01*
X0061103Y0002923D01*
X0061103Y0010323D01*
X0061503Y0010323D01*
X0061503Y0010723D01*
X0061103Y0010723D01*
X0061103Y0018123D01*
X0061103Y0017031D02*
X0061503Y0017031D01*
X0061503Y0015432D02*
X0061103Y0015432D01*
X0061103Y0013834D02*
X0061503Y0013834D01*
X0061503Y0012235D02*
X0061103Y0012235D01*
X0061102Y0010637D02*
X0049273Y0010637D01*
X0049273Y0010723D02*
X0053673Y0010723D01*
X0053673Y0013885D01*
X0053560Y0014600D01*
X0053336Y0015289D01*
X0053007Y0015934D01*
X0052582Y0016520D01*
X0052070Y0017032D01*
X0051484Y0017457D01*
X0050839Y0017786D01*
X0050150Y0018010D01*
X0049435Y0018123D01*
X0049273Y0018123D01*
X0049273Y0010723D01*
X0048873Y0010723D01*
X0048873Y0010323D01*
X0044473Y0010323D01*
X0044473Y0007161D01*
X0044586Y0006446D01*
X0044810Y0005757D01*
X0045139Y0005112D01*
X0045565Y0004526D01*
X0046077Y0004014D01*
X0046662Y0003589D01*
X0047307Y0003260D01*
X0047996Y0003036D01*
X0048711Y0002923D01*
X0048873Y0002923D01*
X0048873Y0010323D01*
X0049273Y0010323D01*
X0049273Y0002923D01*
X0049435Y0002923D01*
X0050150Y0003036D01*
X0050839Y0003260D01*
X0051484Y0003589D01*
X0052070Y0004014D01*
X0052582Y0004526D01*
X0053007Y0005112D01*
X0053336Y0005757D01*
X0053560Y0006446D01*
X0053673Y0007161D01*
X0053673Y0010323D01*
X0049273Y0010323D01*
X0049273Y0010723D01*
X0048873Y0010723D02*
X0048873Y0018123D01*
X0048711Y0018123D01*
X0047996Y0018010D01*
X0047307Y0017786D01*
X0046662Y0017457D01*
X0046077Y0017032D01*
X0045565Y0016520D01*
X0045139Y0015934D01*
X0044810Y0015289D01*
X0044586Y0014600D01*
X0044473Y0013885D01*
X0044473Y0010723D01*
X0048873Y0010723D01*
X0048873Y0010637D02*
X0035873Y0010637D01*
X0035873Y0012235D02*
X0044473Y0012235D01*
X0044473Y0013834D02*
X0035873Y0013834D01*
X0035461Y0015432D02*
X0044883Y0015432D01*
X0046076Y0017031D02*
X0034271Y0017031D01*
X0033473Y0018629D02*
X0076903Y0018629D01*
X0076105Y0017031D02*
X0064300Y0017031D01*
X0065492Y0015432D02*
X0074914Y0015432D01*
X0074503Y0013834D02*
X0065903Y0013834D01*
X0065903Y0012235D02*
X0074503Y0012235D01*
X0074503Y0010637D02*
X0061503Y0010637D01*
X0061503Y0010323D02*
X0065903Y0010323D01*
X0065903Y0007161D01*
X0065789Y0006446D01*
X0065566Y0005757D01*
X0065237Y0005112D01*
X0064811Y0004526D01*
X0064299Y0004014D01*
X0063713Y0003589D01*
X0063068Y0003260D01*
X0062380Y0003036D01*
X0061665Y0002923D01*
X0061503Y0002923D01*
X0061503Y0010323D01*
X0061503Y0009038D02*
X0061103Y0009038D01*
X0061103Y0007440D02*
X0061503Y0007440D01*
X0061503Y0005841D02*
X0061103Y0005841D01*
X0061103Y0004243D02*
X0061503Y0004243D01*
X0064528Y0004243D02*
X0075877Y0004243D01*
X0074820Y0005841D02*
X0065593Y0005841D01*
X0065903Y0007440D02*
X0074503Y0007440D01*
X0074503Y0009038D02*
X0065903Y0009038D01*
X0058077Y0004243D02*
X0052298Y0004243D01*
X0053364Y0005841D02*
X0057012Y0005841D01*
X0056703Y0007440D02*
X0053673Y0007440D01*
X0053673Y0009038D02*
X0056703Y0009038D01*
X0056703Y0012235D02*
X0053673Y0012235D01*
X0053673Y0013834D02*
X0056703Y0013834D01*
X0057113Y0015432D02*
X0053263Y0015432D01*
X0052071Y0017031D02*
X0058305Y0017031D01*
X0049273Y0017031D02*
X0048873Y0017031D01*
X0048873Y0015432D02*
X0049273Y0015432D01*
X0049273Y0013834D02*
X0048873Y0013834D01*
X0048873Y0012235D02*
X0049273Y0012235D01*
X0049273Y0009038D02*
X0048873Y0009038D01*
X0048873Y0007440D02*
X0049273Y0007440D01*
X0049273Y0005841D02*
X0048873Y0005841D01*
X0048873Y0004243D02*
X0049273Y0004243D01*
X0045848Y0004243D02*
X0034498Y0004243D01*
X0035556Y0005841D02*
X0044783Y0005841D01*
X0044473Y0007440D02*
X0035873Y0007440D01*
X0035873Y0009038D02*
X0044473Y0009038D01*
X0064504Y0029819D02*
X0075901Y0029819D01*
X0074830Y0031417D02*
X0065585Y0031417D01*
X0065903Y0033016D02*
X0074503Y0033016D01*
X0074503Y0034614D02*
X0065903Y0034614D01*
X0061503Y0037811D02*
X0061103Y0037811D01*
X0061103Y0039410D02*
X0061503Y0039410D01*
X0061503Y0041008D02*
X0061103Y0041008D01*
X0061103Y0042607D02*
X0061503Y0042607D01*
X0069873Y0028220D02*
X0070532Y0028220D01*
X0060803Y0082570D02*
X0060300Y0082570D01*
X0060300Y0084168D02*
X0060803Y0084168D01*
X0060803Y0085767D02*
X0060300Y0085767D01*
X0056030Y0084168D02*
X0055071Y0084168D01*
X0055071Y0082570D02*
X0056030Y0082570D01*
D18*
X0067853Y0081806D02*
X0067853Y0092956D01*
X0074203Y0114856D02*
X0074203Y0136856D01*
X0053203Y0136856D01*
X0053203Y0135256D01*
X0048703Y0130756D01*
X0018037Y0121894D02*
X0018037Y0048359D01*
X0031273Y0036123D01*
X0031273Y0022856D01*
X0031712Y0023417D01*
X0036090Y0023417D01*
X0031273Y0022856D02*
X0031273Y0010523D01*
X0073943Y0023856D02*
X0079103Y0023856D01*
X0079103Y0036123D01*
X0079103Y0023856D02*
X0079103Y0010523D01*
X0018037Y0121894D02*
X0010653Y0129656D01*
D19*
X0031203Y0130856D03*
X0072203Y0093856D03*
X0055203Y0067856D03*
X0079203Y0131856D03*
M02*
