G75*
%MOIN*%
%OFA0B0*%
%FSLAX25Y25*%
%IPPOS*%
%LPD*%
%AMOC8*
5,1,8,0,0,1.08239X$1,22.5*
%
%ADD10C,0.04134*%
%ADD11C,0.06000*%
%ADD12C,0.01600*%
%ADD13R,0.04134X0.04134*%
%ADD14C,0.01200*%
D10*
X0035972Y0055220D02*
X0035972Y0059354D01*
X0043846Y0059354D02*
X0043846Y0055220D01*
X0051720Y0055220D02*
X0051720Y0059354D01*
X0059594Y0059354D02*
X0059594Y0055220D01*
X0067469Y0055220D02*
X0067469Y0059354D01*
X0075343Y0059354D02*
X0075343Y0055220D01*
X0083768Y0065803D02*
X0087902Y0065803D01*
X0087902Y0073677D02*
X0083768Y0073677D01*
X0083768Y0081551D02*
X0087902Y0081551D01*
X0087902Y0089425D02*
X0083768Y0089425D01*
X0083768Y0097299D02*
X0087902Y0097299D01*
X0087902Y0105173D02*
X0083768Y0105173D01*
X0083768Y0113047D02*
X0087902Y0113047D01*
X0087902Y0120921D02*
X0083768Y0120921D01*
X0027862Y0120921D02*
X0023728Y0120921D01*
X0023728Y0113047D02*
X0027862Y0113047D01*
X0027862Y0105173D02*
X0023728Y0105173D01*
X0023728Y0097299D02*
X0027862Y0097299D01*
X0027862Y0089425D02*
X0023728Y0089425D01*
X0023728Y0081551D02*
X0027862Y0081551D01*
X0027862Y0073677D02*
X0023728Y0073677D01*
X0023728Y0065803D02*
X0027862Y0065803D01*
D11*
X0013208Y0069863D02*
X0007208Y0069863D01*
X0007208Y0079863D02*
X0013208Y0079863D01*
X0013208Y0089863D02*
X0007208Y0089863D01*
X0007208Y0099863D02*
X0013208Y0099863D01*
X0013208Y0109863D02*
X0007208Y0109863D01*
X0007208Y0119863D02*
X0013208Y0119863D01*
X0013208Y0129863D02*
X0007208Y0129863D01*
X0007208Y0059863D02*
X0013208Y0059863D01*
X0013208Y0049863D02*
X0007208Y0049863D01*
X0007208Y0039863D02*
X0013208Y0039863D01*
X0013208Y0029863D02*
X0007208Y0029863D01*
X0007208Y0019863D02*
X0013208Y0019863D01*
X0013208Y0009863D02*
X0007208Y0009863D01*
X0031273Y0007523D02*
X0031273Y0013523D01*
X0031273Y0033123D02*
X0031273Y0039123D01*
X0049073Y0039123D02*
X0049073Y0033123D01*
X0061303Y0033123D02*
X0061303Y0039123D01*
X0079103Y0039123D02*
X0079103Y0033123D01*
X0079103Y0013523D02*
X0079103Y0007523D01*
X0061303Y0007523D02*
X0061303Y0013523D01*
X0049073Y0013523D02*
X0049073Y0007523D01*
X0097208Y0009863D02*
X0103208Y0009863D01*
X0103208Y0019863D02*
X0097208Y0019863D01*
X0097208Y0029863D02*
X0103208Y0029863D01*
X0103208Y0039863D02*
X0097208Y0039863D01*
X0097208Y0049863D02*
X0103208Y0049863D01*
X0103208Y0059863D02*
X0097208Y0059863D01*
X0097208Y0069863D02*
X0103208Y0069863D01*
X0103208Y0079863D02*
X0097208Y0079863D01*
X0097208Y0089863D02*
X0103208Y0089863D01*
X0103208Y0099863D02*
X0097208Y0099863D01*
X0097208Y0109863D02*
X0103208Y0109863D01*
X0103208Y0119863D02*
X0097208Y0119863D01*
X0097208Y0129863D02*
X0103208Y0129863D01*
D12*
X0002600Y0136856D02*
X0002600Y0002600D01*
X0107601Y0002600D01*
X0107601Y0008447D01*
X0107108Y0007258D01*
X0105814Y0005964D01*
X0104123Y0005263D01*
X0096293Y0005263D01*
X0094603Y0005964D01*
X0093309Y0007258D01*
X0093144Y0007656D01*
X0093039Y0007656D01*
X0092983Y0007606D01*
X0092138Y0007656D01*
X0091291Y0007656D01*
X0091238Y0007709D01*
X0091164Y0007713D01*
X0090601Y0008346D01*
X0090003Y0008945D01*
X0090003Y0009020D01*
X0083215Y0016656D01*
X0082475Y0016656D01*
X0083002Y0016129D01*
X0083703Y0014438D01*
X0083703Y0006608D01*
X0083002Y0004917D01*
X0081708Y0003623D01*
X0080018Y0002923D01*
X0078188Y0002923D01*
X0076497Y0003623D01*
X0075203Y0004917D01*
X0074503Y0006608D01*
X0074503Y0014438D01*
X0075203Y0016129D01*
X0075730Y0016656D01*
X0066291Y0016656D01*
X0065003Y0017945D01*
X0065003Y0030389D01*
X0064811Y0030126D01*
X0064299Y0029614D01*
X0063713Y0029189D01*
X0063068Y0028860D01*
X0062380Y0028636D01*
X0061665Y0028523D01*
X0061503Y0028523D01*
X0061503Y0035923D01*
X0061103Y0035923D01*
X0061103Y0028523D01*
X0060940Y0028523D01*
X0060225Y0028636D01*
X0059537Y0028860D01*
X0058892Y0029189D01*
X0058306Y0029614D01*
X0057794Y0030126D01*
X0057368Y0030712D01*
X0057040Y0031357D01*
X0056816Y0032046D01*
X0056703Y0032761D01*
X0056703Y0035923D01*
X0061102Y0035923D01*
X0061102Y0036323D01*
X0056703Y0036323D01*
X0056703Y0039485D01*
X0056816Y0040200D01*
X0057040Y0040889D01*
X0057368Y0041534D01*
X0057794Y0042120D01*
X0058306Y0042632D01*
X0058892Y0043057D01*
X0059537Y0043386D01*
X0060225Y0043610D01*
X0060940Y0043723D01*
X0061103Y0043723D01*
X0061103Y0036323D01*
X0061503Y0036323D01*
X0061503Y0043723D01*
X0061665Y0043723D01*
X0062380Y0043610D01*
X0063068Y0043386D01*
X0063713Y0043057D01*
X0064299Y0042632D01*
X0064811Y0042120D01*
X0065003Y0041856D01*
X0065003Y0042945D01*
X0057394Y0050553D01*
X0057394Y0052235D01*
X0056486Y0053143D01*
X0055928Y0054491D01*
X0055928Y0060084D01*
X0056486Y0061431D01*
X0057517Y0062463D01*
X0058865Y0063021D01*
X0060324Y0063021D01*
X0061672Y0062463D01*
X0062703Y0061431D01*
X0063261Y0060084D01*
X0063261Y0054491D01*
X0062703Y0053143D01*
X0061865Y0052305D01*
X0065269Y0048901D01*
X0065269Y0052235D01*
X0064360Y0053143D01*
X0063802Y0054491D01*
X0063802Y0060084D01*
X0064360Y0061431D01*
X0065391Y0062463D01*
X0066739Y0063021D01*
X0068198Y0063021D01*
X0069546Y0062463D01*
X0070577Y0061431D01*
X0071135Y0060084D01*
X0071135Y0054491D01*
X0070577Y0053143D01*
X0069668Y0052235D01*
X0069668Y0050501D01*
X0072114Y0048056D01*
X0073403Y0046767D01*
X0073403Y0024056D01*
X0089114Y0024056D01*
X0091114Y0022056D01*
X0093138Y0022056D01*
X0093309Y0022469D01*
X0094603Y0023763D01*
X0096293Y0024463D01*
X0104123Y0024463D01*
X0105814Y0023763D01*
X0107108Y0022469D01*
X0107601Y0021279D01*
X0107601Y0028447D01*
X0107108Y0027258D01*
X0105814Y0025964D01*
X0104123Y0025263D01*
X0096293Y0025263D01*
X0094603Y0025964D01*
X0093309Y0027258D01*
X0092608Y0028948D01*
X0092608Y0030778D01*
X0093309Y0032469D01*
X0094603Y0033763D01*
X0096293Y0034463D01*
X0104123Y0034463D01*
X0105814Y0033763D01*
X0107108Y0032469D01*
X0107601Y0031279D01*
X0107601Y0038447D01*
X0107108Y0037258D01*
X0105814Y0035964D01*
X0104123Y0035263D01*
X0096293Y0035263D01*
X0094603Y0035964D01*
X0093309Y0037258D01*
X0092608Y0038948D01*
X0092608Y0040778D01*
X0093309Y0042469D01*
X0094603Y0043763D01*
X0096293Y0044463D01*
X0104123Y0044463D01*
X0105814Y0043763D01*
X0107108Y0042469D01*
X0107601Y0041279D01*
X0107601Y0048496D01*
X0107471Y0048097D01*
X0107143Y0047452D01*
X0106717Y0046867D01*
X0106205Y0046355D01*
X0105619Y0045929D01*
X0104974Y0045600D01*
X0104285Y0045377D01*
X0103570Y0045263D01*
X0100408Y0045263D01*
X0100408Y0049663D01*
X0100008Y0049663D01*
X0092608Y0049663D01*
X0092608Y0049501D01*
X0092722Y0048786D01*
X0092945Y0048097D01*
X0093274Y0047452D01*
X0093700Y0046867D01*
X0094212Y0046355D01*
X0094797Y0045929D01*
X0095443Y0045600D01*
X0096131Y0045377D01*
X0096846Y0045263D01*
X0100008Y0045263D01*
X0100008Y0049663D01*
X0100008Y0050063D01*
X0092608Y0050063D01*
X0092608Y0050225D01*
X0092722Y0050940D01*
X0092945Y0051629D01*
X0093274Y0052274D01*
X0093700Y0052860D01*
X0094212Y0053372D01*
X0094797Y0053798D01*
X0095443Y0054126D01*
X0096131Y0054350D01*
X0096846Y0054463D01*
X0100008Y0054463D01*
X0100008Y0050063D01*
X0100408Y0050063D01*
X0100408Y0054463D01*
X0103570Y0054463D01*
X0104285Y0054350D01*
X0104974Y0054126D01*
X0105619Y0053798D01*
X0106205Y0053372D01*
X0106717Y0052860D01*
X0107143Y0052274D01*
X0107471Y0051629D01*
X0107601Y0051230D01*
X0107601Y0058496D01*
X0107471Y0058097D01*
X0107143Y0057452D01*
X0106717Y0056867D01*
X0106205Y0056355D01*
X0105619Y0055929D01*
X0104974Y0055600D01*
X0104285Y0055377D01*
X0103570Y0055263D01*
X0100408Y0055263D01*
X0100408Y0059663D01*
X0100008Y0059663D01*
X0092608Y0059663D01*
X0092608Y0059501D01*
X0092722Y0058786D01*
X0092945Y0058097D01*
X0093274Y0057452D01*
X0093700Y0056867D01*
X0094212Y0056355D01*
X0094797Y0055929D01*
X0095443Y0055600D01*
X0096131Y0055377D01*
X0096846Y0055263D01*
X0100008Y0055263D01*
X0100008Y0059663D01*
X0100008Y0060063D01*
X0092608Y0060063D01*
X0092608Y0060225D01*
X0092722Y0060940D01*
X0092945Y0061629D01*
X0093274Y0062274D01*
X0093700Y0062860D01*
X0094212Y0063372D01*
X0094797Y0063798D01*
X0095443Y0064126D01*
X0096131Y0064350D01*
X0096846Y0064463D01*
X0100008Y0064463D01*
X0100008Y0060063D01*
X0100408Y0060063D01*
X0100408Y0064463D01*
X0103570Y0064463D01*
X0104285Y0064350D01*
X0104974Y0064126D01*
X0105619Y0063798D01*
X0106205Y0063372D01*
X0106717Y0062860D01*
X0107143Y0062274D01*
X0107471Y0061629D01*
X0107601Y0061230D01*
X0107601Y0068447D01*
X0107108Y0067258D01*
X0105814Y0065964D01*
X0104123Y0065263D01*
X0096293Y0065263D01*
X0094603Y0065964D01*
X0093309Y0067258D01*
X0092608Y0068948D01*
X0092608Y0070778D01*
X0093309Y0072469D01*
X0094603Y0073763D01*
X0096293Y0074463D01*
X0104123Y0074463D01*
X0105814Y0073763D01*
X0107108Y0072469D01*
X0107601Y0071279D01*
X0107601Y0078447D01*
X0107108Y0077258D01*
X0105814Y0075964D01*
X0104123Y0075263D01*
X0096293Y0075263D01*
X0094603Y0075964D01*
X0093309Y0077258D01*
X0092608Y0078948D01*
X0092608Y0080778D01*
X0093309Y0082469D01*
X0094603Y0083763D01*
X0096293Y0084463D01*
X0104123Y0084463D01*
X0105814Y0083763D01*
X0107108Y0082469D01*
X0107601Y0081279D01*
X0107601Y0088447D01*
X0107108Y0087258D01*
X0105814Y0085964D01*
X0104123Y0085263D01*
X0096293Y0085263D01*
X0094603Y0085964D01*
X0093541Y0087025D01*
X0090687Y0087025D01*
X0089979Y0086317D01*
X0088631Y0085758D01*
X0083038Y0085758D01*
X0081691Y0086317D01*
X0081403Y0086605D01*
X0081403Y0084372D01*
X0081691Y0084660D01*
X0083038Y0085218D01*
X0088631Y0085218D01*
X0089979Y0084660D01*
X0091010Y0083628D01*
X0091568Y0082281D01*
X0091568Y0080822D01*
X0091010Y0079474D01*
X0089979Y0078443D01*
X0088631Y0077884D01*
X0083038Y0077884D01*
X0081691Y0078443D01*
X0081403Y0078731D01*
X0081403Y0076498D01*
X0081691Y0076786D01*
X0083038Y0077344D01*
X0088631Y0077344D01*
X0089979Y0076786D01*
X0091010Y0075754D01*
X0091568Y0074407D01*
X0091568Y0072948D01*
X0091010Y0071600D01*
X0089979Y0070568D01*
X0088631Y0070010D01*
X0083038Y0070010D01*
X0081691Y0070568D01*
X0081403Y0070857D01*
X0081403Y0068624D01*
X0081430Y0068651D01*
X0082031Y0069053D01*
X0082698Y0069329D01*
X0083407Y0069470D01*
X0083768Y0069470D01*
X0083768Y0065803D01*
X0083768Y0065803D01*
X0091568Y0065803D01*
X0091568Y0065442D01*
X0091428Y0064734D01*
X0091151Y0064066D01*
X0090750Y0063466D01*
X0090239Y0062955D01*
X0089639Y0062554D01*
X0088971Y0062277D01*
X0088263Y0062136D01*
X0083768Y0062136D01*
X0083768Y0065803D01*
X0083768Y0065803D01*
X0091568Y0065803D01*
X0091568Y0066164D01*
X0091428Y0066873D01*
X0091151Y0067540D01*
X0090750Y0068141D01*
X0090239Y0068651D01*
X0089639Y0069053D01*
X0088971Y0069329D01*
X0088263Y0069470D01*
X0083768Y0069470D01*
X0083768Y0065803D01*
X0083768Y0065803D01*
X0083768Y0062136D01*
X0083407Y0062136D01*
X0082941Y0062229D01*
X0083403Y0061767D01*
X0083403Y0044945D01*
X0081547Y0043089D01*
X0081708Y0043023D01*
X0083002Y0041729D01*
X0083703Y0040038D01*
X0083703Y0032208D01*
X0083002Y0030517D01*
X0081708Y0029223D01*
X0080018Y0028523D01*
X0078188Y0028523D01*
X0076497Y0029223D01*
X0075203Y0030517D01*
X0074503Y0032208D01*
X0074503Y0040038D01*
X0075203Y0041729D01*
X0076497Y0043023D01*
X0077003Y0043232D01*
X0077003Y0044767D01*
X0078291Y0046056D01*
X0079003Y0046767D01*
X0079003Y0054474D01*
X0078451Y0053143D01*
X0077420Y0052112D01*
X0076072Y0051554D01*
X0074613Y0051554D01*
X0073265Y0052112D01*
X0072234Y0053143D01*
X0071676Y0054491D01*
X0071676Y0060084D01*
X0072234Y0061431D01*
X0073265Y0062463D01*
X0074613Y0063021D01*
X0076072Y0063021D01*
X0077003Y0062636D01*
X0077003Y0090336D01*
X0078291Y0091625D01*
X0080782Y0091625D01*
X0081691Y0092534D01*
X0083038Y0093092D01*
X0088631Y0093092D01*
X0089979Y0092534D01*
X0090687Y0091825D01*
X0093042Y0091825D01*
X0093309Y0092469D01*
X0094603Y0093763D01*
X0096293Y0094463D01*
X0104123Y0094463D01*
X0105814Y0093763D01*
X0107108Y0092469D01*
X0107601Y0091279D01*
X0107601Y0098447D01*
X0107108Y0097258D01*
X0105814Y0095964D01*
X0104123Y0095263D01*
X0096293Y0095263D01*
X0094674Y0095934D01*
X0094005Y0095265D01*
X0093123Y0094899D01*
X0090687Y0094899D01*
X0089979Y0094191D01*
X0088631Y0093632D01*
X0083038Y0093632D01*
X0081691Y0094191D01*
X0080659Y0095222D01*
X0080101Y0096570D01*
X0080101Y0098029D01*
X0080659Y0099376D01*
X0081691Y0100408D01*
X0083038Y0100966D01*
X0088631Y0100966D01*
X0089979Y0100408D01*
X0090687Y0099699D01*
X0091652Y0099699D01*
X0092608Y0100656D01*
X0092608Y0100778D01*
X0093309Y0102469D01*
X0094603Y0103763D01*
X0096293Y0104463D01*
X0104123Y0104463D01*
X0105814Y0103763D01*
X0107108Y0102469D01*
X0107601Y0101279D01*
X0107601Y0108447D01*
X0107108Y0107258D01*
X0105814Y0105964D01*
X0104123Y0105263D01*
X0096293Y0105263D01*
X0094674Y0105934D01*
X0091879Y0103139D01*
X0090997Y0102773D01*
X0090687Y0102773D01*
X0089979Y0102065D01*
X0088631Y0101506D01*
X0083038Y0101506D01*
X0081691Y0102065D01*
X0080659Y0103096D01*
X0080101Y0104444D01*
X0080101Y0105903D01*
X0080659Y0107250D01*
X0081691Y0108282D01*
X0083038Y0108840D01*
X0088631Y0108840D01*
X0089979Y0108282D01*
X0090106Y0108154D01*
X0092168Y0110216D01*
X0092608Y0110656D01*
X0092608Y0110778D01*
X0093309Y0112469D01*
X0094603Y0113763D01*
X0096293Y0114463D01*
X0104123Y0114463D01*
X0105814Y0113763D01*
X0107108Y0112469D01*
X0107601Y0111279D01*
X0107601Y0118447D01*
X0107108Y0117258D01*
X0105814Y0115964D01*
X0104123Y0115263D01*
X0096293Y0115263D01*
X0095382Y0115641D01*
X0091222Y0111482D01*
X0091010Y0110970D01*
X0089979Y0109939D01*
X0088631Y0109380D01*
X0083038Y0109380D01*
X0081691Y0109939D01*
X0080659Y0110970D01*
X0080101Y0112318D01*
X0080101Y0113777D01*
X0080659Y0115124D01*
X0081691Y0116156D01*
X0083038Y0116714D01*
X0088631Y0116714D01*
X0089363Y0116411D01*
X0092608Y0119656D01*
X0092608Y0120778D01*
X0093309Y0122469D01*
X0094603Y0123763D01*
X0096293Y0124463D01*
X0104123Y0124463D01*
X0105814Y0123763D01*
X0107108Y0122469D01*
X0107601Y0121279D01*
X0107601Y0128447D01*
X0107108Y0127258D01*
X0105814Y0125964D01*
X0104123Y0125263D01*
X0096293Y0125263D01*
X0094603Y0125964D01*
X0093403Y0127163D01*
X0090125Y0123884D01*
X0091010Y0122998D01*
X0091568Y0121651D01*
X0091568Y0120192D01*
X0091010Y0118844D01*
X0089979Y0117813D01*
X0088631Y0117254D01*
X0083038Y0117254D01*
X0081691Y0117813D01*
X0080659Y0118844D01*
X0080101Y0120192D01*
X0080101Y0121651D01*
X0080659Y0122998D01*
X0081691Y0124030D01*
X0083038Y0124588D01*
X0084041Y0124588D01*
X0091350Y0131898D01*
X0092232Y0132263D01*
X0093223Y0132263D01*
X0093309Y0132469D01*
X0094603Y0133763D01*
X0096293Y0134463D01*
X0104123Y0134463D01*
X0105814Y0133763D01*
X0107108Y0132469D01*
X0107601Y0131279D01*
X0107601Y0136856D01*
X0002600Y0136856D01*
X0002600Y0135321D02*
X0107601Y0135321D01*
X0107601Y0133722D02*
X0105855Y0133722D01*
X0107251Y0132124D02*
X0107601Y0132124D01*
X0107601Y0127328D02*
X0107137Y0127328D01*
X0107601Y0125730D02*
X0105249Y0125730D01*
X0104925Y0124131D02*
X0107601Y0124131D01*
X0107601Y0122533D02*
X0107044Y0122533D01*
X0107307Y0117737D02*
X0107601Y0117737D01*
X0107601Y0116138D02*
X0105989Y0116138D01*
X0107601Y0114540D02*
X0094281Y0114540D01*
X0093781Y0112941D02*
X0092682Y0112941D01*
X0092842Y0111343D02*
X0091165Y0111343D01*
X0091697Y0109744D02*
X0089510Y0109744D01*
X0089394Y0113047D02*
X0096203Y0119856D01*
X0100201Y0119856D01*
X0100208Y0119863D01*
X0095491Y0124131D02*
X0090372Y0124131D01*
X0091203Y0122533D02*
X0093372Y0122533D01*
X0092673Y0120934D02*
X0091568Y0120934D01*
X0091214Y0119335D02*
X0092288Y0119335D01*
X0090689Y0117737D02*
X0089796Y0117737D01*
X0089394Y0113047D02*
X0083768Y0113047D01*
X0082159Y0109744D02*
X0029471Y0109744D01*
X0029939Y0109939D02*
X0030971Y0110970D01*
X0031529Y0112318D01*
X0031529Y0113777D01*
X0030971Y0115124D01*
X0029939Y0116156D01*
X0028592Y0116714D01*
X0022999Y0116714D01*
X0022108Y0116345D01*
X0017808Y0120644D01*
X0017808Y0120778D01*
X0017108Y0122469D01*
X0015814Y0123763D01*
X0014123Y0124463D01*
X0006293Y0124463D01*
X0004603Y0123763D01*
X0003309Y0122469D01*
X0002608Y0120778D01*
X0002608Y0118948D01*
X0003309Y0117258D01*
X0004603Y0115964D01*
X0006293Y0115263D01*
X0014123Y0115263D01*
X0015734Y0115930D01*
X0020567Y0111098D01*
X0020620Y0110970D01*
X0021651Y0109939D01*
X0022999Y0109380D01*
X0028592Y0109380D01*
X0029939Y0109939D01*
X0029939Y0108282D02*
X0028592Y0108840D01*
X0022999Y0108840D01*
X0021651Y0108282D01*
X0021411Y0108042D01*
X0018237Y0111216D01*
X0017562Y0111891D01*
X0017303Y0111998D01*
X0017108Y0112469D01*
X0015814Y0113763D01*
X0014123Y0114463D01*
X0006293Y0114463D01*
X0004603Y0113763D01*
X0003309Y0112469D01*
X0002608Y0110778D01*
X0002608Y0108948D01*
X0003309Y0107258D01*
X0004603Y0105964D01*
X0006293Y0105263D01*
X0014123Y0105263D01*
X0015814Y0105964D01*
X0016257Y0106407D01*
X0019526Y0103139D01*
X0020408Y0102773D01*
X0020943Y0102773D01*
X0021651Y0102065D01*
X0022999Y0101506D01*
X0028592Y0101506D01*
X0029939Y0102065D01*
X0030971Y0103096D01*
X0031529Y0104444D01*
X0031529Y0105903D01*
X0030971Y0107250D01*
X0029939Y0108282D01*
X0030075Y0108146D02*
X0081555Y0108146D01*
X0080368Y0106547D02*
X0031262Y0106547D01*
X0031529Y0104949D02*
X0080101Y0104949D01*
X0080554Y0103350D02*
X0031076Y0103350D01*
X0029184Y0101752D02*
X0082445Y0101752D01*
X0081436Y0100153D02*
X0030194Y0100153D01*
X0029939Y0100408D02*
X0030971Y0099376D01*
X0031529Y0098029D01*
X0031529Y0096570D01*
X0030971Y0095222D01*
X0029939Y0094191D01*
X0028592Y0093632D01*
X0022999Y0093632D01*
X0021651Y0094191D01*
X0020943Y0094899D01*
X0019282Y0094899D01*
X0018400Y0095265D01*
X0016757Y0096907D01*
X0015814Y0095964D01*
X0014123Y0095263D01*
X0006293Y0095263D01*
X0004603Y0095964D01*
X0003309Y0097258D01*
X0002608Y0098948D01*
X0002608Y0100778D01*
X0003309Y0102469D01*
X0004603Y0103763D01*
X0006293Y0104463D01*
X0014123Y0104463D01*
X0015814Y0103763D01*
X0017108Y0102469D01*
X0017196Y0102256D01*
X0017680Y0102256D01*
X0018562Y0101891D01*
X0019237Y0101216D01*
X0020754Y0099699D01*
X0020943Y0099699D01*
X0021651Y0100408D01*
X0022999Y0100966D01*
X0028592Y0100966D01*
X0029939Y0100408D01*
X0031311Y0098555D02*
X0080319Y0098555D01*
X0080101Y0096956D02*
X0031529Y0096956D01*
X0031027Y0095358D02*
X0080603Y0095358D01*
X0082732Y0093759D02*
X0028898Y0093759D01*
X0028592Y0093092D02*
X0022999Y0093092D01*
X0021651Y0092534D01*
X0020943Y0091825D01*
X0017375Y0091825D01*
X0017108Y0092469D01*
X0015814Y0093763D01*
X0014123Y0094463D01*
X0006293Y0094463D01*
X0004603Y0093763D01*
X0003309Y0092469D01*
X0002608Y0090778D01*
X0002608Y0088948D01*
X0003309Y0087258D01*
X0004603Y0085964D01*
X0006293Y0085263D01*
X0014123Y0085263D01*
X0015814Y0085964D01*
X0016876Y0087025D01*
X0020943Y0087025D01*
X0021651Y0086317D01*
X0022999Y0085758D01*
X0028592Y0085758D01*
X0029939Y0086317D01*
X0030971Y0087348D01*
X0031529Y0088696D01*
X0031529Y0090155D01*
X0030971Y0091502D01*
X0029939Y0092534D01*
X0028592Y0093092D01*
X0030312Y0092161D02*
X0081318Y0092161D01*
X0083768Y0089425D02*
X0099770Y0089425D01*
X0100208Y0089863D01*
X0095078Y0085767D02*
X0088651Y0085767D01*
X0090470Y0084168D02*
X0095581Y0084168D01*
X0093409Y0082570D02*
X0091449Y0082570D01*
X0091568Y0080971D02*
X0092688Y0080971D01*
X0092608Y0079373D02*
X0090909Y0079373D01*
X0093095Y0077774D02*
X0081403Y0077774D01*
X0077003Y0077774D02*
X0017322Y0077774D01*
X0017108Y0077258D02*
X0017808Y0078948D01*
X0017808Y0079151D01*
X0020943Y0079151D01*
X0021651Y0078443D01*
X0022999Y0077884D01*
X0028592Y0077884D01*
X0029939Y0078443D01*
X0030971Y0079474D01*
X0031529Y0080822D01*
X0031529Y0082281D01*
X0030971Y0083628D01*
X0029939Y0084660D01*
X0028592Y0085218D01*
X0022999Y0085218D01*
X0021651Y0084660D01*
X0020943Y0083951D01*
X0015360Y0083951D01*
X0014123Y0084463D01*
X0006293Y0084463D01*
X0004603Y0083763D01*
X0003309Y0082469D01*
X0002608Y0080778D01*
X0002608Y0078948D01*
X0003309Y0077258D01*
X0004603Y0075964D01*
X0006293Y0075263D01*
X0014123Y0075263D01*
X0015814Y0075964D01*
X0017108Y0077258D01*
X0016026Y0076176D02*
X0021041Y0076176D01*
X0020943Y0076077D02*
X0020546Y0076077D01*
X0019664Y0075712D01*
X0017208Y0073256D01*
X0016321Y0073256D01*
X0015814Y0073763D01*
X0014123Y0074463D01*
X0006293Y0074463D01*
X0004603Y0073763D01*
X0003309Y0072469D01*
X0002608Y0070778D01*
X0002608Y0068948D01*
X0003309Y0067258D01*
X0004603Y0065964D01*
X0006293Y0065263D01*
X0014123Y0065263D01*
X0015814Y0065964D01*
X0017108Y0067258D01*
X0017604Y0068456D01*
X0018680Y0068456D01*
X0019562Y0068821D01*
X0020237Y0069497D01*
X0021480Y0070740D01*
X0021651Y0070568D01*
X0022999Y0070010D01*
X0028592Y0070010D01*
X0029939Y0070568D01*
X0030971Y0071600D01*
X0031529Y0072948D01*
X0031529Y0074407D01*
X0030971Y0075754D01*
X0029939Y0076786D01*
X0028592Y0077344D01*
X0022999Y0077344D01*
X0021651Y0076786D01*
X0020943Y0076077D01*
X0021024Y0073677D02*
X0018203Y0070856D01*
X0011201Y0070856D01*
X0010208Y0069863D01*
X0006293Y0064463D02*
X0004603Y0063763D01*
X0003309Y0062469D01*
X0002608Y0060778D01*
X0002608Y0058948D01*
X0003309Y0057258D01*
X0004603Y0055964D01*
X0006293Y0055263D01*
X0007808Y0055263D01*
X0007808Y0054463D01*
X0006293Y0054463D01*
X0004603Y0053763D01*
X0003309Y0052469D01*
X0002608Y0050778D01*
X0002608Y0048948D01*
X0003309Y0047258D01*
X0004603Y0045964D01*
X0006293Y0045263D01*
X0014123Y0045263D01*
X0015814Y0045964D01*
X0017108Y0047258D01*
X0017808Y0048948D01*
X0017808Y0050778D01*
X0017108Y0052469D01*
X0015814Y0053763D01*
X0014123Y0054463D01*
X0012608Y0054463D01*
X0012608Y0055263D01*
X0014123Y0055263D01*
X0015814Y0055964D01*
X0017108Y0057258D01*
X0017296Y0057711D01*
X0017562Y0057821D01*
X0018237Y0058497D01*
X0022205Y0062465D01*
X0022999Y0062136D01*
X0028592Y0062136D01*
X0029939Y0062694D01*
X0030971Y0063726D01*
X0031529Y0065074D01*
X0031529Y0066533D01*
X0030971Y0067880D01*
X0029939Y0068912D01*
X0028592Y0069470D01*
X0022999Y0069470D01*
X0021651Y0068912D01*
X0020620Y0067880D01*
X0020469Y0067517D01*
X0016265Y0063312D01*
X0015814Y0063763D01*
X0014123Y0064463D01*
X0006293Y0064463D01*
X0004227Y0063388D02*
X0002600Y0063388D01*
X0002600Y0064986D02*
X0017938Y0064986D01*
X0016435Y0066585D02*
X0019537Y0066585D01*
X0020923Y0068183D02*
X0017491Y0068183D01*
X0020522Y0069782D02*
X0077003Y0069782D01*
X0077003Y0071380D02*
X0030751Y0071380D01*
X0031529Y0072979D02*
X0077003Y0072979D01*
X0077003Y0074577D02*
X0031458Y0074577D01*
X0030549Y0076176D02*
X0077003Y0076176D01*
X0077003Y0079373D02*
X0030870Y0079373D01*
X0031529Y0080971D02*
X0077003Y0080971D01*
X0077003Y0082570D02*
X0031409Y0082570D01*
X0030431Y0084168D02*
X0077003Y0084168D01*
X0077003Y0085767D02*
X0028612Y0085767D01*
X0030978Y0087365D02*
X0077003Y0087365D01*
X0077003Y0088964D02*
X0031529Y0088964D01*
X0031360Y0090562D02*
X0077228Y0090562D01*
X0081403Y0085767D02*
X0083018Y0085767D01*
X0088938Y0093759D02*
X0094599Y0093759D01*
X0094098Y0095358D02*
X0096065Y0095358D01*
X0092646Y0097299D02*
X0095203Y0099856D01*
X0100201Y0099856D01*
X0100208Y0099863D01*
X0104352Y0095358D02*
X0107601Y0095358D01*
X0107601Y0096956D02*
X0106807Y0096956D01*
X0107601Y0093759D02*
X0105818Y0093759D01*
X0107236Y0092161D02*
X0107601Y0092161D01*
X0107601Y0087365D02*
X0107153Y0087365D01*
X0107601Y0085767D02*
X0105339Y0085767D01*
X0104836Y0084168D02*
X0107601Y0084168D01*
X0107601Y0082570D02*
X0107007Y0082570D01*
X0107322Y0077774D02*
X0107601Y0077774D01*
X0107601Y0076176D02*
X0106026Y0076176D01*
X0107601Y0074577D02*
X0091498Y0074577D01*
X0091568Y0072979D02*
X0093818Y0072979D01*
X0092858Y0071380D02*
X0090790Y0071380D01*
X0092608Y0069782D02*
X0081403Y0069782D01*
X0083768Y0068183D02*
X0083768Y0068183D01*
X0083768Y0066585D02*
X0083768Y0066585D01*
X0083768Y0064986D02*
X0083768Y0064986D01*
X0083768Y0063388D02*
X0083768Y0063388D01*
X0083381Y0061789D02*
X0093027Y0061789D01*
X0092608Y0060191D02*
X0083403Y0060191D01*
X0083403Y0058592D02*
X0092785Y0058592D01*
X0093607Y0056994D02*
X0083403Y0056994D01*
X0083403Y0055395D02*
X0096074Y0055395D01*
X0094796Y0053797D02*
X0083403Y0053797D01*
X0083403Y0052198D02*
X0093235Y0052198D01*
X0092668Y0050600D02*
X0083403Y0050600D01*
X0083403Y0049001D02*
X0092688Y0049001D01*
X0093310Y0047402D02*
X0083403Y0047402D01*
X0083403Y0045804D02*
X0095043Y0045804D01*
X0095671Y0044205D02*
X0082663Y0044205D01*
X0082124Y0042607D02*
X0093447Y0042607D01*
X0092704Y0041008D02*
X0083300Y0041008D01*
X0083703Y0039410D02*
X0092608Y0039410D01*
X0093079Y0037811D02*
X0083703Y0037811D01*
X0083703Y0036213D02*
X0094353Y0036213D01*
X0093856Y0033016D02*
X0083703Y0033016D01*
X0083703Y0034614D02*
X0107601Y0034614D01*
X0107601Y0033016D02*
X0106561Y0033016D01*
X0107544Y0031417D02*
X0107601Y0031417D01*
X0107601Y0028220D02*
X0107507Y0028220D01*
X0107601Y0026622D02*
X0106472Y0026622D01*
X0107601Y0025023D02*
X0073403Y0025023D01*
X0073403Y0026622D02*
X0093944Y0026622D01*
X0092910Y0028220D02*
X0073403Y0028220D01*
X0073403Y0029819D02*
X0075901Y0029819D01*
X0074830Y0031417D02*
X0073403Y0031417D01*
X0073403Y0033016D02*
X0074503Y0033016D01*
X0074503Y0034614D02*
X0073403Y0034614D01*
X0073403Y0036213D02*
X0074503Y0036213D01*
X0074503Y0037811D02*
X0073403Y0037811D01*
X0073403Y0039410D02*
X0074503Y0039410D01*
X0074905Y0041008D02*
X0073403Y0041008D01*
X0073403Y0042607D02*
X0076081Y0042607D01*
X0077003Y0044205D02*
X0073403Y0044205D01*
X0073403Y0045804D02*
X0078039Y0045804D01*
X0079003Y0047402D02*
X0072767Y0047402D01*
X0071169Y0049001D02*
X0079003Y0049001D01*
X0079003Y0050600D02*
X0069668Y0050600D01*
X0069668Y0052198D02*
X0073179Y0052198D01*
X0071963Y0053797D02*
X0070848Y0053797D01*
X0071135Y0055395D02*
X0071676Y0055395D01*
X0071676Y0056994D02*
X0071135Y0056994D01*
X0071135Y0058592D02*
X0071676Y0058592D01*
X0071720Y0060191D02*
X0071091Y0060191D01*
X0070220Y0061789D02*
X0072591Y0061789D01*
X0077003Y0063388D02*
X0030632Y0063388D01*
X0031493Y0064986D02*
X0077003Y0064986D01*
X0077003Y0066585D02*
X0031508Y0066585D01*
X0030668Y0068183D02*
X0077003Y0068183D01*
X0078722Y0053797D02*
X0079003Y0053797D01*
X0079003Y0052198D02*
X0077506Y0052198D01*
X0065269Y0052198D02*
X0061972Y0052198D01*
X0062974Y0053797D02*
X0064089Y0053797D01*
X0063802Y0055395D02*
X0063261Y0055395D01*
X0063261Y0056994D02*
X0063802Y0056994D01*
X0063802Y0058592D02*
X0063261Y0058592D01*
X0063217Y0060191D02*
X0063846Y0060191D01*
X0064717Y0061789D02*
X0062346Y0061789D01*
X0056843Y0061789D02*
X0054472Y0061789D01*
X0054829Y0061431D02*
X0053798Y0062463D01*
X0052450Y0063021D01*
X0050991Y0063021D01*
X0049643Y0062463D01*
X0048612Y0061431D01*
X0048054Y0060084D01*
X0048054Y0054491D01*
X0048543Y0053308D01*
X0040291Y0045056D01*
X0039003Y0043767D01*
X0039003Y0032767D01*
X0018291Y0012056D01*
X0017279Y0012056D01*
X0017108Y0012469D01*
X0015814Y0013763D01*
X0014123Y0014463D01*
X0006293Y0014463D01*
X0004603Y0013763D01*
X0003309Y0012469D01*
X0002608Y0010778D01*
X0002608Y0008948D01*
X0003309Y0007258D01*
X0004603Y0005964D01*
X0006293Y0005263D01*
X0014123Y0005263D01*
X0015814Y0005964D01*
X0017108Y0007258D01*
X0017273Y0007656D01*
X0020114Y0007656D01*
X0021403Y0008945D01*
X0026673Y0014216D01*
X0026673Y0006608D01*
X0027374Y0004917D01*
X0028668Y0003623D01*
X0030358Y0002923D01*
X0032188Y0002923D01*
X0033879Y0003623D01*
X0035173Y0004917D01*
X0035873Y0006608D01*
X0035873Y0014438D01*
X0035173Y0016129D01*
X0033879Y0017423D01*
X0032188Y0018123D01*
X0030581Y0018123D01*
X0043403Y0030945D01*
X0043403Y0041945D01*
X0053408Y0051951D01*
X0053798Y0052112D01*
X0054829Y0053143D01*
X0055387Y0054491D01*
X0055387Y0060084D01*
X0054829Y0061431D01*
X0055343Y0060191D02*
X0055972Y0060191D01*
X0055928Y0058592D02*
X0055387Y0058592D01*
X0055387Y0056994D02*
X0055928Y0056994D01*
X0055928Y0055395D02*
X0055387Y0055395D01*
X0055100Y0053797D02*
X0056215Y0053797D01*
X0057394Y0052198D02*
X0053884Y0052198D01*
X0052057Y0050600D02*
X0057394Y0050600D01*
X0058946Y0049001D02*
X0050459Y0049001D01*
X0048860Y0047402D02*
X0060545Y0047402D01*
X0062143Y0045804D02*
X0047262Y0045804D01*
X0047996Y0043610D02*
X0047307Y0043386D01*
X0046662Y0043057D01*
X0046077Y0042632D01*
X0045565Y0042120D01*
X0045139Y0041534D01*
X0044810Y0040889D01*
X0044586Y0040200D01*
X0044473Y0039485D01*
X0044473Y0036323D01*
X0048873Y0036323D01*
X0048873Y0035923D01*
X0044473Y0035923D01*
X0044473Y0032761D01*
X0044586Y0032046D01*
X0044810Y0031357D01*
X0045139Y0030712D01*
X0045565Y0030126D01*
X0046077Y0029614D01*
X0046662Y0029189D01*
X0047307Y0028860D01*
X0047996Y0028636D01*
X0048711Y0028523D01*
X0048873Y0028523D01*
X0048873Y0035923D01*
X0049273Y0035923D01*
X0049273Y0028523D01*
X0049435Y0028523D01*
X0050150Y0028636D01*
X0050839Y0028860D01*
X0051484Y0029189D01*
X0052070Y0029614D01*
X0052582Y0030126D01*
X0053007Y0030712D01*
X0053336Y0031357D01*
X0053560Y0032046D01*
X0053673Y0032761D01*
X0053673Y0035923D01*
X0049273Y0035923D01*
X0049273Y0036323D01*
X0048873Y0036323D01*
X0048873Y0043723D01*
X0048711Y0043723D01*
X0047996Y0043610D01*
X0049273Y0043723D02*
X0049273Y0036323D01*
X0053673Y0036323D01*
X0053673Y0039485D01*
X0053560Y0040200D01*
X0053336Y0040889D01*
X0053007Y0041534D01*
X0052582Y0042120D01*
X0052070Y0042632D01*
X0051484Y0043057D01*
X0050839Y0043386D01*
X0050150Y0043610D01*
X0049435Y0043723D01*
X0049273Y0043723D01*
X0049273Y0042607D02*
X0048873Y0042607D01*
X0048873Y0041008D02*
X0049273Y0041008D01*
X0049273Y0039410D02*
X0048873Y0039410D01*
X0048873Y0037811D02*
X0049273Y0037811D01*
X0049273Y0036213D02*
X0061102Y0036213D01*
X0061103Y0037811D02*
X0061503Y0037811D01*
X0061503Y0039410D02*
X0061103Y0039410D01*
X0061103Y0041008D02*
X0061503Y0041008D01*
X0061503Y0042607D02*
X0061103Y0042607D01*
X0058281Y0042607D02*
X0052094Y0042607D01*
X0053275Y0041008D02*
X0057101Y0041008D01*
X0056703Y0039410D02*
X0053673Y0039410D01*
X0053673Y0037811D02*
X0056703Y0037811D01*
X0056703Y0034614D02*
X0053673Y0034614D01*
X0053673Y0033016D02*
X0056703Y0033016D01*
X0057020Y0031417D02*
X0053356Y0031417D01*
X0052275Y0029819D02*
X0058101Y0029819D01*
X0061103Y0029819D02*
X0061503Y0029819D01*
X0061503Y0031417D02*
X0061103Y0031417D01*
X0061103Y0033016D02*
X0061503Y0033016D01*
X0061503Y0034614D02*
X0061103Y0034614D01*
X0064504Y0029819D02*
X0065003Y0029819D01*
X0065003Y0028220D02*
X0040678Y0028220D01*
X0039080Y0026622D02*
X0065003Y0026622D01*
X0065003Y0025023D02*
X0037481Y0025023D01*
X0035883Y0023425D02*
X0065003Y0023425D01*
X0065003Y0021826D02*
X0034284Y0021826D01*
X0032686Y0020228D02*
X0065003Y0020228D01*
X0065003Y0018629D02*
X0031087Y0018629D01*
X0028061Y0021826D02*
X0025403Y0021826D01*
X0025403Y0020228D02*
X0026463Y0020228D01*
X0025403Y0019945D02*
X0025403Y0038945D01*
X0026799Y0040341D01*
X0026673Y0040038D01*
X0026673Y0032208D01*
X0027374Y0030517D01*
X0028668Y0029223D01*
X0030358Y0028523D01*
X0032188Y0028523D01*
X0033879Y0029223D01*
X0035173Y0030517D01*
X0035873Y0032208D01*
X0035873Y0040038D01*
X0035173Y0041729D01*
X0033879Y0043023D01*
X0032188Y0043723D01*
X0030358Y0043723D01*
X0030055Y0043597D01*
X0032114Y0045656D01*
X0038114Y0045656D01*
X0039403Y0046945D01*
X0044011Y0051554D01*
X0044576Y0051554D01*
X0045924Y0052112D01*
X0046955Y0053143D01*
X0047513Y0054491D01*
X0047513Y0060084D01*
X0046955Y0061431D01*
X0045924Y0062463D01*
X0044576Y0063021D01*
X0043117Y0063021D01*
X0041769Y0062463D01*
X0040738Y0061431D01*
X0040180Y0060084D01*
X0040180Y0054491D01*
X0040340Y0054104D01*
X0036291Y0050056D01*
X0031514Y0050056D01*
X0033732Y0052275D01*
X0033895Y0052112D01*
X0035243Y0051554D01*
X0036702Y0051554D01*
X0038050Y0052112D01*
X0039081Y0053143D01*
X0039639Y0054491D01*
X0039639Y0060084D01*
X0039081Y0061431D01*
X0038050Y0062463D01*
X0036702Y0063021D01*
X0035243Y0063021D01*
X0033895Y0062463D01*
X0032864Y0061431D01*
X0032306Y0060084D01*
X0032306Y0057070D01*
X0018291Y0043056D01*
X0017266Y0042031D01*
X0017143Y0042274D01*
X0016717Y0042860D01*
X0016205Y0043372D01*
X0015619Y0043798D01*
X0014974Y0044126D01*
X0014285Y0044350D01*
X0013570Y0044463D01*
X0010408Y0044463D01*
X0010408Y0040063D01*
X0010008Y0040063D01*
X0010008Y0039663D01*
X0002608Y0039663D01*
X0002608Y0039501D01*
X0002722Y0038786D01*
X0002945Y0038097D01*
X0003274Y0037452D01*
X0003700Y0036867D01*
X0004212Y0036355D01*
X0004797Y0035929D01*
X0005443Y0035600D01*
X0006131Y0035377D01*
X0006846Y0035263D01*
X0010008Y0035263D01*
X0010008Y0039663D01*
X0010408Y0039663D01*
X0010408Y0035263D01*
X0013570Y0035263D01*
X0014285Y0035377D01*
X0014974Y0035600D01*
X0015619Y0035929D01*
X0016205Y0036355D01*
X0016717Y0036867D01*
X0017003Y0037260D01*
X0017003Y0032574D01*
X0015814Y0033763D01*
X0014123Y0034463D01*
X0006293Y0034463D01*
X0004603Y0033763D01*
X0003309Y0032469D01*
X0002608Y0030778D01*
X0002608Y0028948D01*
X0003309Y0027258D01*
X0004603Y0025964D01*
X0006293Y0025263D01*
X0014123Y0025263D01*
X0015814Y0025964D01*
X0017108Y0027258D01*
X0017273Y0027656D01*
X0020114Y0027656D01*
X0021003Y0028545D01*
X0021003Y0023056D01*
X0016521Y0023056D01*
X0015814Y0023763D01*
X0014123Y0024463D01*
X0006293Y0024463D01*
X0004603Y0023763D01*
X0003309Y0022469D01*
X0002608Y0020778D01*
X0002608Y0018948D01*
X0003309Y0017258D01*
X0004603Y0015964D01*
X0006293Y0015263D01*
X0014123Y0015263D01*
X0015814Y0015964D01*
X0017108Y0017258D01*
X0017687Y0018656D01*
X0024114Y0018656D01*
X0025403Y0019945D01*
X0024864Y0018629D02*
X0017676Y0018629D01*
X0016881Y0017031D02*
X0023266Y0017031D01*
X0021667Y0015432D02*
X0014531Y0015432D01*
X0015643Y0013834D02*
X0020069Y0013834D01*
X0018470Y0012235D02*
X0017205Y0012235D01*
X0017183Y0007440D02*
X0026673Y0007440D01*
X0026673Y0009038D02*
X0021496Y0009038D01*
X0023094Y0010637D02*
X0026673Y0010637D01*
X0026673Y0012235D02*
X0024693Y0012235D01*
X0026291Y0013834D02*
X0026673Y0013834D01*
X0026991Y0005841D02*
X0015519Y0005841D01*
X0005885Y0015432D02*
X0002600Y0015432D01*
X0002600Y0013834D02*
X0004774Y0013834D01*
X0003212Y0012235D02*
X0002600Y0012235D01*
X0002600Y0010637D02*
X0002608Y0010637D01*
X0002600Y0009038D02*
X0002608Y0009038D01*
X0002600Y0007440D02*
X0003233Y0007440D01*
X0002600Y0005841D02*
X0004898Y0005841D01*
X0002600Y0004243D02*
X0028048Y0004243D01*
X0034498Y0004243D02*
X0045848Y0004243D01*
X0046077Y0004014D02*
X0046662Y0003589D01*
X0047307Y0003260D01*
X0047996Y0003036D01*
X0048711Y0002923D01*
X0048873Y0002923D01*
X0048873Y0010323D01*
X0044473Y0010323D01*
X0044473Y0007161D01*
X0044586Y0006446D01*
X0044810Y0005757D01*
X0045139Y0005112D01*
X0045565Y0004526D01*
X0046077Y0004014D01*
X0044783Y0005841D02*
X0035556Y0005841D01*
X0035873Y0007440D02*
X0044473Y0007440D01*
X0044473Y0009038D02*
X0035873Y0009038D01*
X0035873Y0010637D02*
X0048873Y0010637D01*
X0048873Y0010723D02*
X0048873Y0010323D01*
X0049273Y0010323D01*
X0049273Y0002923D01*
X0049435Y0002923D01*
X0050150Y0003036D01*
X0050839Y0003260D01*
X0051484Y0003589D01*
X0052070Y0004014D01*
X0052582Y0004526D01*
X0053007Y0005112D01*
X0053336Y0005757D01*
X0053560Y0006446D01*
X0053673Y0007161D01*
X0053673Y0010323D01*
X0049273Y0010323D01*
X0049273Y0010723D01*
X0048873Y0010723D01*
X0044473Y0010723D01*
X0044473Y0013885D01*
X0044586Y0014600D01*
X0044810Y0015289D01*
X0045139Y0015934D01*
X0045565Y0016520D01*
X0046077Y0017032D01*
X0046662Y0017457D01*
X0047307Y0017786D01*
X0047996Y0018010D01*
X0048711Y0018123D01*
X0048873Y0018123D01*
X0048873Y0010723D01*
X0049273Y0010723D02*
X0049273Y0018123D01*
X0049435Y0018123D01*
X0050150Y0018010D01*
X0050839Y0017786D01*
X0051484Y0017457D01*
X0052070Y0017032D01*
X0052582Y0016520D01*
X0053007Y0015934D01*
X0053336Y0015289D01*
X0053560Y0014600D01*
X0053673Y0013885D01*
X0053673Y0010723D01*
X0049273Y0010723D01*
X0049273Y0010637D02*
X0061102Y0010637D01*
X0061102Y0010723D02*
X0061102Y0010323D01*
X0056703Y0010323D01*
X0056703Y0007161D01*
X0056816Y0006446D01*
X0057040Y0005757D01*
X0057368Y0005112D01*
X0057794Y0004526D01*
X0058306Y0004014D01*
X0058892Y0003589D01*
X0059537Y0003260D01*
X0060225Y0003036D01*
X0060940Y0002923D01*
X0061103Y0002923D01*
X0061103Y0010323D01*
X0061503Y0010323D01*
X0061503Y0010723D01*
X0065903Y0010723D01*
X0065903Y0013885D01*
X0065789Y0014600D01*
X0065566Y0015289D01*
X0065237Y0015934D01*
X0064811Y0016520D01*
X0064299Y0017032D01*
X0063713Y0017457D01*
X0063068Y0017786D01*
X0062380Y0018010D01*
X0061665Y0018123D01*
X0061503Y0018123D01*
X0061503Y0010723D01*
X0061103Y0010723D01*
X0061103Y0018123D01*
X0060940Y0018123D01*
X0060225Y0018010D01*
X0059537Y0017786D01*
X0058892Y0017457D01*
X0058306Y0017032D01*
X0057794Y0016520D01*
X0057368Y0015934D01*
X0057040Y0015289D01*
X0056816Y0014600D01*
X0056703Y0013885D01*
X0056703Y0010723D01*
X0061102Y0010723D01*
X0061503Y0010637D02*
X0074503Y0010637D01*
X0074503Y0012235D02*
X0065903Y0012235D01*
X0065903Y0013834D02*
X0074503Y0013834D01*
X0074914Y0015432D02*
X0065492Y0015432D01*
X0065917Y0017031D02*
X0064300Y0017031D01*
X0061503Y0017031D02*
X0061103Y0017031D01*
X0061103Y0015432D02*
X0061503Y0015432D01*
X0061503Y0013834D02*
X0061103Y0013834D01*
X0061103Y0012235D02*
X0061503Y0012235D01*
X0061503Y0010323D02*
X0065903Y0010323D01*
X0065903Y0007161D01*
X0065789Y0006446D01*
X0065566Y0005757D01*
X0065237Y0005112D01*
X0064811Y0004526D01*
X0064299Y0004014D01*
X0063713Y0003589D01*
X0063068Y0003260D01*
X0062380Y0003036D01*
X0061665Y0002923D01*
X0061503Y0002923D01*
X0061503Y0010323D01*
X0061503Y0009038D02*
X0061103Y0009038D01*
X0061103Y0007440D02*
X0061503Y0007440D01*
X0061503Y0005841D02*
X0061103Y0005841D01*
X0061103Y0004243D02*
X0061503Y0004243D01*
X0064528Y0004243D02*
X0075877Y0004243D01*
X0074820Y0005841D02*
X0065593Y0005841D01*
X0065903Y0007440D02*
X0074503Y0007440D01*
X0074503Y0009038D02*
X0065903Y0009038D01*
X0058077Y0004243D02*
X0052298Y0004243D01*
X0053364Y0005841D02*
X0057012Y0005841D01*
X0056703Y0007440D02*
X0053673Y0007440D01*
X0053673Y0009038D02*
X0056703Y0009038D01*
X0056703Y0012235D02*
X0053673Y0012235D01*
X0053673Y0013834D02*
X0056703Y0013834D01*
X0057113Y0015432D02*
X0053263Y0015432D01*
X0052071Y0017031D02*
X0058305Y0017031D01*
X0049273Y0017031D02*
X0048873Y0017031D01*
X0048873Y0015432D02*
X0049273Y0015432D01*
X0049273Y0013834D02*
X0048873Y0013834D01*
X0048873Y0012235D02*
X0049273Y0012235D01*
X0049273Y0009038D02*
X0048873Y0009038D01*
X0048873Y0007440D02*
X0049273Y0007440D01*
X0049273Y0005841D02*
X0048873Y0005841D01*
X0048873Y0004243D02*
X0049273Y0004243D01*
X0044473Y0012235D02*
X0035873Y0012235D01*
X0035873Y0013834D02*
X0044473Y0013834D01*
X0044883Y0015432D02*
X0035461Y0015432D01*
X0034271Y0017031D02*
X0046076Y0017031D01*
X0045872Y0029819D02*
X0042277Y0029819D01*
X0043403Y0031417D02*
X0044791Y0031417D01*
X0044473Y0033016D02*
X0043403Y0033016D01*
X0043403Y0034614D02*
X0044473Y0034614D01*
X0043403Y0036213D02*
X0048873Y0036213D01*
X0048873Y0034614D02*
X0049273Y0034614D01*
X0049273Y0033016D02*
X0048873Y0033016D01*
X0048873Y0031417D02*
X0049273Y0031417D01*
X0049273Y0029819D02*
X0048873Y0029819D01*
X0044473Y0037811D02*
X0043403Y0037811D01*
X0043403Y0039410D02*
X0044473Y0039410D01*
X0044871Y0041008D02*
X0043403Y0041008D01*
X0044065Y0042607D02*
X0046052Y0042607D01*
X0045663Y0044205D02*
X0063742Y0044205D01*
X0064324Y0042607D02*
X0065003Y0042607D01*
X0065169Y0049001D02*
X0065269Y0049001D01*
X0065269Y0050600D02*
X0063570Y0050600D01*
X0048341Y0053797D02*
X0047226Y0053797D01*
X0047433Y0052198D02*
X0046010Y0052198D01*
X0045835Y0050600D02*
X0043057Y0050600D01*
X0044236Y0049001D02*
X0041459Y0049001D01*
X0042638Y0047402D02*
X0039860Y0047402D01*
X0041039Y0045804D02*
X0038262Y0045804D01*
X0039441Y0044205D02*
X0030663Y0044205D01*
X0034294Y0042607D02*
X0039003Y0042607D01*
X0039003Y0041008D02*
X0035471Y0041008D01*
X0035873Y0039410D02*
X0039003Y0039410D01*
X0039003Y0037811D02*
X0035873Y0037811D01*
X0035873Y0036213D02*
X0039003Y0036213D01*
X0039003Y0034614D02*
X0035873Y0034614D01*
X0035873Y0033016D02*
X0039003Y0033016D01*
X0037653Y0031417D02*
X0035546Y0031417D01*
X0036054Y0029819D02*
X0034475Y0029819D01*
X0034456Y0028220D02*
X0025403Y0028220D01*
X0025403Y0026622D02*
X0032857Y0026622D01*
X0031259Y0025023D02*
X0025403Y0025023D01*
X0025403Y0023425D02*
X0029660Y0023425D01*
X0028072Y0029819D02*
X0025403Y0029819D01*
X0025403Y0031417D02*
X0027001Y0031417D01*
X0026673Y0033016D02*
X0025403Y0033016D01*
X0025403Y0034614D02*
X0026673Y0034614D01*
X0026673Y0036213D02*
X0025403Y0036213D01*
X0025403Y0037811D02*
X0026673Y0037811D01*
X0026673Y0039410D02*
X0025868Y0039410D01*
X0021039Y0045804D02*
X0015429Y0045804D01*
X0014730Y0044205D02*
X0019441Y0044205D01*
X0017842Y0042607D02*
X0016901Y0042607D01*
X0017168Y0047402D02*
X0022638Y0047402D01*
X0024236Y0049001D02*
X0017808Y0049001D01*
X0017808Y0050600D02*
X0025835Y0050600D01*
X0027433Y0052198D02*
X0017220Y0052198D01*
X0015733Y0053797D02*
X0029032Y0053797D01*
X0030630Y0055395D02*
X0014441Y0055395D01*
X0016844Y0056994D02*
X0032229Y0056994D01*
X0032306Y0058592D02*
X0018333Y0058592D01*
X0019931Y0060191D02*
X0032350Y0060191D01*
X0033221Y0061789D02*
X0021530Y0061789D01*
X0022150Y0065803D02*
X0016203Y0059856D01*
X0010216Y0059856D01*
X0010208Y0059863D01*
X0010208Y0049863D01*
X0010008Y0044463D02*
X0006846Y0044463D01*
X0006131Y0044350D01*
X0005443Y0044126D01*
X0004797Y0043798D01*
X0004212Y0043372D01*
X0003700Y0042860D01*
X0003274Y0042274D01*
X0002945Y0041629D01*
X0002722Y0040940D01*
X0002608Y0040225D01*
X0002608Y0040063D01*
X0010008Y0040063D01*
X0010008Y0044463D01*
X0010008Y0044205D02*
X0010408Y0044205D01*
X0010408Y0042607D02*
X0010008Y0042607D01*
X0010008Y0041008D02*
X0010408Y0041008D01*
X0010408Y0039410D02*
X0010008Y0039410D01*
X0010008Y0037811D02*
X0010408Y0037811D01*
X0010408Y0036213D02*
X0010008Y0036213D01*
X0004407Y0036213D02*
X0002600Y0036213D01*
X0002600Y0037811D02*
X0003091Y0037811D01*
X0002623Y0039410D02*
X0002600Y0039410D01*
X0002600Y0041008D02*
X0002744Y0041008D01*
X0002600Y0042607D02*
X0003516Y0042607D01*
X0002600Y0044205D02*
X0005686Y0044205D01*
X0004988Y0045804D02*
X0002600Y0045804D01*
X0002600Y0047402D02*
X0003249Y0047402D01*
X0002608Y0049001D02*
X0002600Y0049001D01*
X0002600Y0050600D02*
X0002608Y0050600D01*
X0002600Y0052198D02*
X0003196Y0052198D01*
X0002600Y0053797D02*
X0004684Y0053797D01*
X0005975Y0055395D02*
X0002600Y0055395D01*
X0002600Y0056994D02*
X0003573Y0056994D01*
X0002756Y0058592D02*
X0002600Y0058592D01*
X0002600Y0060191D02*
X0002608Y0060191D01*
X0002600Y0061789D02*
X0003027Y0061789D01*
X0002600Y0066585D02*
X0003982Y0066585D01*
X0002925Y0068183D02*
X0002600Y0068183D01*
X0002600Y0069782D02*
X0002608Y0069782D01*
X0002600Y0071380D02*
X0002858Y0071380D01*
X0002600Y0072979D02*
X0003818Y0072979D01*
X0002600Y0074577D02*
X0018530Y0074577D01*
X0021024Y0073677D02*
X0027862Y0073677D01*
X0027862Y0065803D02*
X0022150Y0065803D01*
X0016340Y0063388D02*
X0016189Y0063388D01*
X0004391Y0076176D02*
X0002600Y0076176D01*
X0002600Y0077774D02*
X0003095Y0077774D01*
X0002608Y0079373D02*
X0002600Y0079373D01*
X0002600Y0080971D02*
X0002688Y0080971D01*
X0002600Y0082570D02*
X0003409Y0082570D01*
X0002600Y0084168D02*
X0005581Y0084168D01*
X0005078Y0085767D02*
X0002600Y0085767D01*
X0002600Y0087365D02*
X0003264Y0087365D01*
X0002608Y0088964D02*
X0002600Y0088964D01*
X0002600Y0090562D02*
X0002608Y0090562D01*
X0002600Y0092161D02*
X0003181Y0092161D01*
X0002600Y0093759D02*
X0004599Y0093759D01*
X0006065Y0095358D02*
X0002600Y0095358D01*
X0002600Y0096956D02*
X0003610Y0096956D01*
X0002771Y0098555D02*
X0002600Y0098555D01*
X0002600Y0100153D02*
X0002608Y0100153D01*
X0002600Y0101752D02*
X0003012Y0101752D01*
X0002600Y0103350D02*
X0004190Y0103350D01*
X0002600Y0104949D02*
X0017716Y0104949D01*
X0016227Y0103350D02*
X0019314Y0103350D01*
X0018701Y0101752D02*
X0022406Y0101752D01*
X0021397Y0100153D02*
X0020299Y0100153D01*
X0019759Y0097299D02*
X0017203Y0099856D01*
X0010216Y0099856D01*
X0010208Y0099863D01*
X0014352Y0095358D02*
X0018307Y0095358D01*
X0019759Y0097299D02*
X0027862Y0097299D01*
X0022692Y0093759D02*
X0015818Y0093759D01*
X0017236Y0092161D02*
X0021278Y0092161D01*
X0022978Y0085767D02*
X0015339Y0085767D01*
X0014836Y0084168D02*
X0021160Y0084168D01*
X0027862Y0081551D02*
X0011896Y0081551D01*
X0010208Y0079863D01*
X0010646Y0089425D02*
X0010208Y0089863D01*
X0010646Y0089425D02*
X0027862Y0089425D01*
X0027862Y0105173D02*
X0020885Y0105173D01*
X0016203Y0109856D01*
X0010216Y0109856D01*
X0010208Y0109863D01*
X0016636Y0112941D02*
X0018723Y0112941D01*
X0018110Y0111343D02*
X0020322Y0111343D01*
X0019708Y0109744D02*
X0022120Y0109744D01*
X0021515Y0108146D02*
X0021307Y0108146D01*
X0022011Y0113047D02*
X0015203Y0119856D01*
X0010216Y0119856D01*
X0010208Y0119863D01*
X0006293Y0125263D02*
X0014123Y0125263D01*
X0015814Y0125964D01*
X0017108Y0127258D01*
X0017193Y0127463D01*
X0017926Y0127463D01*
X0021505Y0123884D01*
X0020620Y0122998D01*
X0020061Y0121651D01*
X0020061Y0120192D01*
X0020620Y0118844D01*
X0021651Y0117813D01*
X0022999Y0117254D01*
X0028592Y0117254D01*
X0029939Y0117813D01*
X0030971Y0118844D01*
X0031529Y0120192D01*
X0031529Y0121651D01*
X0030971Y0122998D01*
X0029939Y0124030D01*
X0028592Y0124588D01*
X0027589Y0124588D01*
X0020955Y0131223D01*
X0020280Y0131898D01*
X0019398Y0132263D01*
X0017193Y0132263D01*
X0017108Y0132469D01*
X0015814Y0133763D01*
X0014123Y0134463D01*
X0006293Y0134463D01*
X0004603Y0133763D01*
X0003309Y0132469D01*
X0002608Y0130778D01*
X0002608Y0128948D01*
X0003309Y0127258D01*
X0004603Y0125964D01*
X0006293Y0125263D01*
X0005168Y0125730D02*
X0002600Y0125730D01*
X0002600Y0124131D02*
X0005491Y0124131D01*
X0003372Y0122533D02*
X0002600Y0122533D01*
X0002600Y0120934D02*
X0002673Y0120934D01*
X0002600Y0119335D02*
X0002608Y0119335D01*
X0002600Y0117737D02*
X0003110Y0117737D01*
X0002600Y0116138D02*
X0004428Y0116138D01*
X0002600Y0114540D02*
X0017125Y0114540D01*
X0020716Y0117737D02*
X0021834Y0117737D01*
X0020416Y0119335D02*
X0019117Y0119335D01*
X0020061Y0120934D02*
X0017744Y0120934D01*
X0017044Y0122533D02*
X0020427Y0122533D01*
X0021258Y0124131D02*
X0014925Y0124131D01*
X0015249Y0125730D02*
X0019660Y0125730D01*
X0018061Y0127328D02*
X0017137Y0127328D01*
X0018920Y0129863D02*
X0010208Y0129863D01*
X0004562Y0133722D02*
X0002600Y0133722D01*
X0002600Y0132124D02*
X0003166Y0132124D01*
X0002608Y0130525D02*
X0002600Y0130525D01*
X0002600Y0128927D02*
X0002617Y0128927D01*
X0002600Y0127328D02*
X0003279Y0127328D01*
X0003781Y0112941D02*
X0002600Y0112941D01*
X0002600Y0111343D02*
X0002842Y0111343D01*
X0002608Y0109744D02*
X0002600Y0109744D01*
X0002600Y0108146D02*
X0002941Y0108146D01*
X0002600Y0106547D02*
X0004019Y0106547D01*
X0018920Y0129863D02*
X0027862Y0120921D01*
X0029695Y0124131D02*
X0081935Y0124131D01*
X0080466Y0122533D02*
X0031164Y0122533D01*
X0031529Y0120934D02*
X0080101Y0120934D01*
X0080455Y0119335D02*
X0031174Y0119335D01*
X0029757Y0117737D02*
X0081873Y0117737D01*
X0081673Y0116138D02*
X0029957Y0116138D01*
X0031213Y0114540D02*
X0080417Y0114540D01*
X0080101Y0112941D02*
X0031529Y0112941D01*
X0031125Y0111343D02*
X0080505Y0111343D01*
X0083768Y0105173D02*
X0090520Y0105173D01*
X0094203Y0108856D01*
X0099201Y0108856D01*
X0100208Y0109863D01*
X0094190Y0103350D02*
X0092091Y0103350D01*
X0093012Y0101752D02*
X0089224Y0101752D01*
X0090233Y0100153D02*
X0092106Y0100153D01*
X0092646Y0097299D02*
X0083768Y0097299D01*
X0090352Y0092161D02*
X0093181Y0092161D01*
X0093689Y0104949D02*
X0107601Y0104949D01*
X0107601Y0106547D02*
X0106398Y0106547D01*
X0107476Y0108146D02*
X0107601Y0108146D01*
X0107574Y0111343D02*
X0107601Y0111343D01*
X0107601Y0112941D02*
X0106636Y0112941D01*
X0106227Y0103350D02*
X0107601Y0103350D01*
X0107601Y0101752D02*
X0107405Y0101752D01*
X0095168Y0125730D02*
X0091970Y0125730D01*
X0092710Y0129863D02*
X0083768Y0120921D01*
X0085182Y0125730D02*
X0026448Y0125730D01*
X0024850Y0127328D02*
X0086780Y0127328D01*
X0088379Y0128927D02*
X0023251Y0128927D01*
X0021652Y0130525D02*
X0089977Y0130525D01*
X0091895Y0132124D02*
X0019735Y0132124D01*
X0015855Y0133722D02*
X0094562Y0133722D01*
X0092710Y0129863D02*
X0100208Y0129863D01*
X0094391Y0076176D02*
X0090589Y0076176D01*
X0090707Y0068183D02*
X0092925Y0068183D01*
X0093982Y0066585D02*
X0091485Y0066585D01*
X0091478Y0064986D02*
X0107601Y0064986D01*
X0107601Y0063388D02*
X0106183Y0063388D01*
X0107390Y0061789D02*
X0107601Y0061789D01*
X0107601Y0056994D02*
X0106809Y0056994D01*
X0107601Y0055395D02*
X0104342Y0055395D01*
X0105621Y0053797D02*
X0107601Y0053797D01*
X0107601Y0052198D02*
X0107181Y0052198D01*
X0107106Y0047402D02*
X0107601Y0047402D01*
X0107601Y0045804D02*
X0105374Y0045804D01*
X0104746Y0044205D02*
X0107601Y0044205D01*
X0107601Y0042607D02*
X0106970Y0042607D01*
X0107337Y0037811D02*
X0107601Y0037811D01*
X0107601Y0036213D02*
X0106063Y0036213D01*
X0100408Y0045804D02*
X0100008Y0045804D01*
X0100008Y0047402D02*
X0100408Y0047402D01*
X0100408Y0049001D02*
X0100008Y0049001D01*
X0100008Y0050600D02*
X0100408Y0050600D01*
X0100408Y0052198D02*
X0100008Y0052198D01*
X0100008Y0053797D02*
X0100408Y0053797D01*
X0100408Y0055395D02*
X0100008Y0055395D01*
X0100008Y0056994D02*
X0100408Y0056994D01*
X0100408Y0058592D02*
X0100008Y0058592D01*
X0100008Y0060191D02*
X0100408Y0060191D01*
X0100408Y0061789D02*
X0100008Y0061789D01*
X0100008Y0063388D02*
X0100408Y0063388D01*
X0106435Y0066585D02*
X0107601Y0066585D01*
X0107601Y0068183D02*
X0107491Y0068183D01*
X0107559Y0071380D02*
X0107601Y0071380D01*
X0107601Y0072979D02*
X0106598Y0072979D01*
X0094233Y0063388D02*
X0090672Y0063388D01*
X0092873Y0031417D02*
X0083375Y0031417D01*
X0082304Y0029819D02*
X0092608Y0029819D01*
X0094264Y0023425D02*
X0089745Y0023425D01*
X0084302Y0015432D02*
X0083291Y0015432D01*
X0083703Y0013834D02*
X0085723Y0013834D01*
X0087144Y0012235D02*
X0083703Y0012235D01*
X0083703Y0010637D02*
X0088565Y0010637D01*
X0089986Y0009038D02*
X0083703Y0009038D01*
X0083703Y0007440D02*
X0093233Y0007440D01*
X0094898Y0005841D02*
X0083385Y0005841D01*
X0082328Y0004243D02*
X0107601Y0004243D01*
X0107601Y0005841D02*
X0105519Y0005841D01*
X0107183Y0007440D02*
X0107601Y0007440D01*
X0107601Y0002644D02*
X0002600Y0002644D01*
X0002600Y0017031D02*
X0003535Y0017031D01*
X0002740Y0018629D02*
X0002600Y0018629D01*
X0002600Y0020228D02*
X0002608Y0020228D01*
X0002600Y0021826D02*
X0003042Y0021826D01*
X0002600Y0023425D02*
X0004264Y0023425D01*
X0002600Y0025023D02*
X0021003Y0025023D01*
X0021003Y0023425D02*
X0016152Y0023425D01*
X0016472Y0026622D02*
X0021003Y0026622D01*
X0021003Y0028220D02*
X0020678Y0028220D01*
X0017003Y0033016D02*
X0016561Y0033016D01*
X0017003Y0034614D02*
X0002600Y0034614D01*
X0002600Y0033016D02*
X0003856Y0033016D01*
X0002873Y0031417D02*
X0002600Y0031417D01*
X0002600Y0029819D02*
X0002608Y0029819D01*
X0002600Y0028220D02*
X0002910Y0028220D01*
X0002600Y0026622D02*
X0003944Y0026622D01*
X0016010Y0036213D02*
X0017003Y0036213D01*
X0032057Y0050600D02*
X0036835Y0050600D01*
X0038136Y0052198D02*
X0038433Y0052198D01*
X0039352Y0053797D02*
X0040032Y0053797D01*
X0040180Y0055395D02*
X0039639Y0055395D01*
X0039639Y0056994D02*
X0040180Y0056994D01*
X0040180Y0058592D02*
X0039639Y0058592D01*
X0039595Y0060191D02*
X0040224Y0060191D01*
X0041095Y0061789D02*
X0038723Y0061789D01*
X0033809Y0052198D02*
X0033656Y0052198D01*
X0046598Y0061789D02*
X0048969Y0061789D01*
X0048098Y0060191D02*
X0047469Y0060191D01*
X0047513Y0058592D02*
X0048054Y0058592D01*
X0048054Y0056994D02*
X0047513Y0056994D01*
X0047513Y0055395D02*
X0048054Y0055395D01*
X0027862Y0113047D02*
X0022011Y0113047D01*
X0106152Y0023425D02*
X0107601Y0023425D01*
X0107601Y0021826D02*
X0107374Y0021826D01*
D13*
X0072203Y0093856D03*
X0055203Y0067856D03*
X0031203Y0130856D03*
X0079203Y0131856D03*
D14*
X0079203Y0089425D02*
X0079203Y0062856D01*
X0081203Y0060856D01*
X0081203Y0045856D01*
X0079203Y0043856D01*
X0079203Y0035756D01*
X0079103Y0036123D01*
X0071203Y0045856D02*
X0071203Y0021856D01*
X0088203Y0021856D01*
X0090203Y0019856D01*
X0100201Y0019856D01*
X0100208Y0019863D01*
X0100208Y0009863D02*
X0100201Y0009856D01*
X0092203Y0009856D01*
X0084203Y0018856D01*
X0067203Y0018856D01*
X0067203Y0043856D01*
X0059594Y0051464D01*
X0059594Y0059354D01*
X0051720Y0059354D02*
X0051720Y0053374D01*
X0041203Y0042856D01*
X0041203Y0031856D01*
X0019203Y0009856D01*
X0010216Y0009856D01*
X0010208Y0009863D01*
X0010208Y0019863D02*
X0011201Y0020856D01*
X0023203Y0020856D01*
X0023203Y0039856D01*
X0031203Y0047856D01*
X0037203Y0047856D01*
X0043846Y0054500D01*
X0043846Y0059354D01*
X0035972Y0059354D02*
X0035972Y0057626D01*
X0019203Y0040856D01*
X0019203Y0029856D01*
X0010216Y0029856D01*
X0010208Y0029863D01*
X0049203Y0035123D02*
X0049073Y0036123D01*
X0061303Y0036123D01*
X0061303Y0010523D01*
X0049073Y0010523D01*
X0049203Y0010856D02*
X0049203Y0035123D01*
X0067469Y0049590D02*
X0067469Y0059354D01*
X0067469Y0049590D02*
X0071203Y0045856D01*
X0079203Y0089425D02*
X0083768Y0089425D01*
M02*
