G75*
%MOIN*%
%OFA0B0*%
%FSLAX25Y25*%
%IPPOS*%
%LPD*%
%AMOC8*
5,1,8,0,0,1.08239X$1,22.5*
%
%ADD10C,0.00000*%
%ADD11C,0.00800*%
%ADD12C,0.00400*%
D10*
X0001000Y0001000D02*
X0001000Y0153886D01*
X0109201Y0153886D01*
X0109201Y0001000D01*
X0001000Y0001000D01*
D11*
X0049882Y0110874D02*
X0075685Y0110874D01*
X0075685Y0124874D01*
X0049882Y0124874D01*
X0049882Y0110874D01*
D12*
X0044417Y0106261D02*
X0042115Y0106261D01*
X0041348Y0105493D01*
X0041348Y0103959D01*
X0042115Y0103191D01*
X0044417Y0103191D01*
X0044417Y0101657D02*
X0044417Y0106261D01*
X0042883Y0103191D02*
X0041348Y0101657D01*
X0039813Y0101657D02*
X0036744Y0101657D01*
X0038279Y0101657D02*
X0038279Y0106261D01*
X0039813Y0104726D01*
X0045393Y0090893D02*
X0045393Y0087824D01*
X0048462Y0090893D01*
X0049230Y0090893D01*
X0049997Y0090126D01*
X0049997Y0088591D01*
X0049230Y0087824D01*
X0049230Y0086289D02*
X0049997Y0085522D01*
X0049997Y0083987D01*
X0049230Y0083220D01*
X0046160Y0083220D01*
X0045393Y0083987D01*
X0045393Y0085522D01*
X0046160Y0086289D01*
X0061354Y0085376D02*
X0061354Y0083841D01*
X0062121Y0083074D01*
X0065190Y0083074D01*
X0065957Y0083841D01*
X0065957Y0085376D01*
X0065190Y0086143D01*
X0064423Y0087678D02*
X0065957Y0089213D01*
X0061354Y0089213D01*
X0061354Y0090747D02*
X0061354Y0087678D01*
X0062121Y0086143D02*
X0061354Y0085376D01*
X0065170Y0072229D02*
X0064403Y0071462D01*
X0064403Y0069927D01*
X0065170Y0069160D01*
X0064403Y0067625D02*
X0065937Y0066091D01*
X0065937Y0066858D02*
X0065937Y0064556D01*
X0064403Y0064556D02*
X0069006Y0064556D01*
X0069006Y0066858D01*
X0068239Y0067625D01*
X0066704Y0067625D01*
X0065937Y0066858D01*
X0068239Y0069160D02*
X0069006Y0069927D01*
X0069006Y0071462D01*
X0068239Y0072229D01*
X0067472Y0072229D01*
X0066704Y0071462D01*
X0065937Y0072229D01*
X0065170Y0072229D01*
X0066704Y0071462D02*
X0066704Y0070695D01*
X0063858Y0019879D02*
X0064626Y0019112D01*
X0064626Y0017577D01*
X0063858Y0016810D01*
X0063858Y0015275D02*
X0062324Y0015275D01*
X0061556Y0014508D01*
X0061556Y0012206D01*
X0060022Y0012206D02*
X0064626Y0012206D01*
X0064626Y0014508D01*
X0063858Y0015275D01*
X0061556Y0013740D02*
X0060022Y0015275D01*
X0060022Y0016810D02*
X0063091Y0019879D01*
X0063858Y0019879D01*
X0060022Y0019879D02*
X0060022Y0016810D01*
X0049033Y0127015D02*
X0045963Y0127015D01*
X0045196Y0127782D01*
X0045196Y0129317D01*
X0045963Y0130084D01*
X0045963Y0131619D02*
X0045196Y0132386D01*
X0045196Y0133921D01*
X0045963Y0134688D01*
X0046731Y0134688D01*
X0047498Y0133921D01*
X0047498Y0133154D01*
X0047498Y0133921D02*
X0048265Y0134688D01*
X0049033Y0134688D01*
X0049800Y0133921D01*
X0049800Y0132386D01*
X0049033Y0131619D01*
X0049033Y0130084D02*
X0049800Y0129317D01*
X0049800Y0127782D01*
X0049033Y0127015D01*
X0073183Y0128074D02*
X0073183Y0129609D01*
X0073183Y0128841D02*
X0077787Y0128841D01*
X0077787Y0128074D02*
X0077787Y0129609D01*
X0077020Y0131143D02*
X0073951Y0131143D01*
X0073183Y0131911D01*
X0073183Y0133445D01*
X0073951Y0134213D01*
X0073183Y0135747D02*
X0073183Y0138816D01*
X0073183Y0137282D02*
X0077787Y0137282D01*
X0076253Y0135747D01*
X0077020Y0134213D02*
X0077787Y0133445D01*
X0077787Y0131911D01*
X0077020Y0131143D01*
M02*
