%
M48
M72
T01C0.02756
T02C0.04000
%
T01
X35270Y44998
X43144Y44998
X51018Y44998
X54500Y55500
X58892Y44998
X66766Y44998
X74640Y44998
X83065Y51447
X83065Y59321
X83065Y67195
X83065Y75069
X83065Y82943
X83065Y90817
X83065Y98691
X83065Y106565
X91500Y137500
X27160Y106565
X27160Y98691
X27160Y90817
X27160Y82943
X27160Y75069
X27160Y67195
X27160Y59321
X27160Y51447
X18500Y137500
T02
X10506Y10507
X10506Y20507
X10506Y30507
X10506Y40507
X10506Y50507
X10506Y60507
X10506Y70507
X10506Y80507
X10506Y90507
X10506Y100507
X10506Y110507
X10506Y120507
X10506Y130507
X42167Y25429
X42167Y7629
X67767Y7629
X67767Y25429
X100506Y20507
X100506Y30507
X100506Y40507
X100506Y50507
X100506Y60507
X100506Y70507
X100506Y80507
X100506Y90507
X100506Y100507
X100506Y110507
X100506Y120507
X100506Y130507
X100506Y10507
M30
