G75*
%MOIN*%
%OFA0B0*%
%FSLAX25Y25*%
%IPPOS*%
%LPD*%
%AMOC8*
5,1,8,0,0,1.08239X$1,22.5*
%
%ADD10C,0.00000*%
%ADD11C,0.00800*%
%ADD12C,0.00400*%
D10*
X0001297Y0001644D02*
X0001297Y0154530D01*
X0109498Y0154530D01*
X0109498Y0001644D01*
X0001297Y0001644D01*
D11*
X0050179Y0111518D02*
X0075983Y0111518D01*
X0075983Y0125518D01*
X0050179Y0125518D01*
X0050179Y0111518D01*
D12*
X0044715Y0106905D02*
X0042413Y0106905D01*
X0041645Y0106137D01*
X0041645Y0104603D01*
X0042413Y0103835D01*
X0044715Y0103835D01*
X0044715Y0102301D02*
X0044715Y0106905D01*
X0043180Y0103835D02*
X0041645Y0102301D01*
X0040111Y0102301D02*
X0037042Y0102301D01*
X0038576Y0102301D02*
X0038576Y0106905D01*
X0040111Y0105370D01*
X0045690Y0091537D02*
X0045690Y0088468D01*
X0048760Y0091537D01*
X0049527Y0091537D01*
X0050294Y0090769D01*
X0050294Y0089235D01*
X0049527Y0088468D01*
X0049527Y0086933D02*
X0050294Y0086166D01*
X0050294Y0084631D01*
X0049527Y0083864D01*
X0046458Y0083864D01*
X0045690Y0084631D01*
X0045690Y0086166D01*
X0046458Y0086933D01*
X0061651Y0086020D02*
X0061651Y0084485D01*
X0062418Y0083718D01*
X0065488Y0083718D01*
X0066255Y0084485D01*
X0066255Y0086020D01*
X0065488Y0086787D01*
X0064720Y0088322D02*
X0066255Y0089856D01*
X0061651Y0089856D01*
X0061651Y0088322D02*
X0061651Y0091391D01*
X0062418Y0086787D02*
X0061651Y0086020D01*
X0065467Y0072873D02*
X0064700Y0072106D01*
X0064700Y0070571D01*
X0065467Y0069804D01*
X0064700Y0068269D02*
X0066235Y0066735D01*
X0066235Y0067502D02*
X0066235Y0065200D01*
X0064700Y0065200D02*
X0069304Y0065200D01*
X0069304Y0067502D01*
X0068537Y0068269D01*
X0067002Y0068269D01*
X0066235Y0067502D01*
X0068537Y0069804D02*
X0069304Y0070571D01*
X0069304Y0072106D01*
X0068537Y0072873D01*
X0067769Y0072873D01*
X0067002Y0072106D01*
X0066235Y0072873D01*
X0065467Y0072873D01*
X0067002Y0072106D02*
X0067002Y0071339D01*
X0064156Y0020523D02*
X0064923Y0019756D01*
X0064923Y0018221D01*
X0064156Y0017454D01*
X0064156Y0015919D02*
X0062621Y0015919D01*
X0061854Y0015152D01*
X0061854Y0012850D01*
X0061854Y0014384D02*
X0060319Y0015919D01*
X0060319Y0017454D02*
X0063389Y0020523D01*
X0064156Y0020523D01*
X0060319Y0020523D02*
X0060319Y0017454D01*
X0064156Y0015919D02*
X0064923Y0015152D01*
X0064923Y0012850D01*
X0060319Y0012850D01*
X0049330Y0127659D02*
X0046261Y0127659D01*
X0045494Y0128426D01*
X0045494Y0129961D01*
X0046261Y0130728D01*
X0046261Y0132263D02*
X0045494Y0133030D01*
X0045494Y0134565D01*
X0046261Y0135332D01*
X0047028Y0135332D01*
X0047795Y0134565D01*
X0047795Y0133797D01*
X0047795Y0134565D02*
X0048563Y0135332D01*
X0049330Y0135332D01*
X0050097Y0134565D01*
X0050097Y0133030D01*
X0049330Y0132263D01*
X0049330Y0130728D02*
X0050097Y0129961D01*
X0050097Y0128426D01*
X0049330Y0127659D01*
X0073481Y0128718D02*
X0073481Y0130253D01*
X0073481Y0129485D02*
X0078085Y0129485D01*
X0078085Y0128718D02*
X0078085Y0130253D01*
X0077318Y0131787D02*
X0074248Y0131787D01*
X0073481Y0132555D01*
X0073481Y0134089D01*
X0074248Y0134856D01*
X0073481Y0136391D02*
X0073481Y0139460D01*
X0073481Y0137926D02*
X0078085Y0137926D01*
X0076550Y0136391D01*
X0077318Y0134856D02*
X0078085Y0134089D01*
X0078085Y0132555D01*
X0077318Y0131787D01*
M02*
