%
M48
M72
T01C0.02756
T02C0.04000
%
T01
X35972Y59354
X43846Y59354
X51720Y59354
X55203Y67856
X59594Y59354
X67469Y59354
X75343Y59354
X83768Y65803
X83768Y73677
X83768Y81551
X83768Y89425
X83768Y97299
X83768Y105173
X83768Y113047
X83768Y120921
X79203Y131856
X72203Y93856
X31203Y130856
X27862Y120921
X27862Y113047
X27862Y105173
X27862Y97299
X27862Y89425
X27862Y81551
X27862Y73677
X27862Y65803
T02
X10208Y9863
X10208Y19863
X10208Y29863
X10208Y39863
X10208Y49863
X10208Y59863
X10208Y69863
X10208Y79863
X10208Y89863
X10208Y99863
X10208Y109863
X10208Y119863
X10208Y129863
X31273Y36123
X49073Y36123
X61303Y36123
X79103Y36123
X79103Y10523
X61303Y10523
X49073Y10523
X31273Y10523
X100208Y9863
X100208Y19863
X100208Y29863
X100208Y39863
X100208Y49863
X100208Y59863
X100208Y69863
X100208Y79863
X100208Y89863
X100208Y99863
X100208Y109863
X100208Y119863
X100208Y129863
M30
