G75*
%MOIN*%
%OFA0B0*%
%FSLAX25Y25*%
%IPPOS*%
%LPD*%
%AMOC8*
5,1,8,0,0,1.08239X$1,22.5*
%
%ADD10C,0.05556*%
%ADD11C,0.06800*%
%ADD12R,0.05599X0.09599*%
%ADD13R,0.14973X0.09461*%
%ADD14R,0.07887X0.09265*%
%ADD15R,0.07099X0.05918*%
%ADD16R,0.05918X0.06706*%
%ADD17R,0.06706X0.05918*%
%ADD18R,0.05156X0.05156*%
D10*
X0034972Y0039598D02*
X0034972Y0044354D01*
X0042846Y0044354D02*
X0042846Y0039598D01*
X0050720Y0039598D02*
X0050720Y0044354D01*
X0058594Y0044354D02*
X0058594Y0039598D01*
X0066469Y0039598D02*
X0066469Y0044354D01*
X0074343Y0044354D02*
X0074343Y0039598D01*
X0082768Y0050803D02*
X0087524Y0050803D01*
X0087524Y0058677D02*
X0082768Y0058677D01*
X0082768Y0066551D02*
X0087524Y0066551D01*
X0087524Y0074425D02*
X0082768Y0074425D01*
X0082768Y0082299D02*
X0087524Y0082299D01*
X0087524Y0090173D02*
X0082768Y0090173D01*
X0082768Y0098047D02*
X0087524Y0098047D01*
X0087524Y0105921D02*
X0082768Y0105921D01*
X0026862Y0105921D02*
X0022106Y0105921D01*
X0022106Y0098047D02*
X0026862Y0098047D01*
X0026862Y0090173D02*
X0022106Y0090173D01*
X0022106Y0082299D02*
X0026862Y0082299D01*
X0026862Y0074425D02*
X0022106Y0074425D01*
X0022106Y0066551D02*
X0026862Y0066551D01*
X0026862Y0058677D02*
X0022106Y0058677D01*
X0022106Y0050803D02*
X0026862Y0050803D01*
D11*
X0013208Y0009863D02*
X0007208Y0009863D01*
X0007208Y0019863D02*
X0013208Y0019863D01*
X0013208Y0029863D02*
X0007208Y0029863D01*
X0007208Y0039863D02*
X0013208Y0039863D01*
X0013208Y0049863D02*
X0007208Y0049863D01*
X0007208Y0059863D02*
X0013208Y0059863D01*
X0013208Y0069863D02*
X0007208Y0069863D01*
X0007208Y0079863D02*
X0013208Y0079863D01*
X0013208Y0089863D02*
X0007208Y0089863D01*
X0007208Y0099863D02*
X0013208Y0099863D01*
X0013208Y0109863D02*
X0007208Y0109863D01*
X0007208Y0119863D02*
X0013208Y0119863D01*
X0013208Y0129863D02*
X0007208Y0129863D01*
X0038869Y0024785D02*
X0044869Y0024785D01*
X0044869Y0006985D02*
X0038869Y0006985D01*
X0064469Y0006985D02*
X0070469Y0006985D01*
X0070469Y0024785D02*
X0064469Y0024785D01*
X0097208Y0019863D02*
X0103208Y0019863D01*
X0103208Y0009863D02*
X0097208Y0009863D01*
X0097208Y0029863D02*
X0103208Y0029863D01*
X0103208Y0039863D02*
X0097208Y0039863D01*
X0097208Y0049863D02*
X0103208Y0049863D01*
X0103208Y0059863D02*
X0097208Y0059863D01*
X0097208Y0069863D02*
X0103208Y0069863D01*
X0103208Y0079863D02*
X0097208Y0079863D01*
X0097208Y0089863D02*
X0103208Y0089863D01*
X0103208Y0099863D02*
X0097208Y0099863D01*
X0097208Y0109863D02*
X0103208Y0109863D01*
X0103208Y0119863D02*
X0097208Y0119863D01*
X0097208Y0129863D02*
X0103208Y0129863D01*
D12*
X0071882Y0105673D03*
X0062783Y0105673D03*
X0053685Y0105673D03*
D13*
X0062783Y0130075D03*
D14*
X0055854Y0092949D03*
X0055854Y0080154D03*
X0039894Y0080299D03*
X0039894Y0093094D03*
D15*
X0040051Y0122815D03*
X0040051Y0130689D03*
D16*
X0043331Y0111543D03*
X0035850Y0111543D03*
D17*
X0074203Y0073596D03*
X0074203Y0066116D03*
X0054763Y0019969D03*
X0054763Y0012488D03*
D18*
X0054203Y0054856D03*
X0018203Y0136856D03*
X0091203Y0136856D03*
M02*
