G75*
%MOIN*%
%OFA0B0*%
%FSLAX25Y25*%
%IPPOS*%
%LPD*%
%AMOC8*
5,1,8,0,0,1.08239X$1,22.5*
%
%ADD10C,0.04134*%
%ADD11C,0.06000*%
%ADD12R,0.04799X0.08799*%
%ADD13R,0.14173X0.08661*%
%ADD14R,0.06299X0.05118*%
%ADD15R,0.05118X0.05906*%
%ADD16R,0.05906X0.05118*%
D10*
X0035972Y0055220D02*
X0035972Y0059354D01*
X0043846Y0059354D02*
X0043846Y0055220D01*
X0051720Y0055220D02*
X0051720Y0059354D01*
X0059594Y0059354D02*
X0059594Y0055220D01*
X0067469Y0055220D02*
X0067469Y0059354D01*
X0075343Y0059354D02*
X0075343Y0055220D01*
X0083768Y0065803D02*
X0087902Y0065803D01*
X0087902Y0073677D02*
X0083768Y0073677D01*
X0083768Y0081551D02*
X0087902Y0081551D01*
X0087902Y0089425D02*
X0083768Y0089425D01*
X0083768Y0097299D02*
X0087902Y0097299D01*
X0087902Y0105173D02*
X0083768Y0105173D01*
X0083768Y0113047D02*
X0087902Y0113047D01*
X0087902Y0120921D02*
X0083768Y0120921D01*
X0027862Y0120921D02*
X0023728Y0120921D01*
X0023728Y0113047D02*
X0027862Y0113047D01*
X0027862Y0105173D02*
X0023728Y0105173D01*
X0023728Y0097299D02*
X0027862Y0097299D01*
X0027862Y0089425D02*
X0023728Y0089425D01*
X0023728Y0081551D02*
X0027862Y0081551D01*
X0027862Y0073677D02*
X0023728Y0073677D01*
X0023728Y0065803D02*
X0027862Y0065803D01*
D11*
X0013208Y0009863D02*
X0007208Y0009863D01*
X0007208Y0019863D02*
X0013208Y0019863D01*
X0013208Y0029863D02*
X0007208Y0029863D01*
X0007208Y0039863D02*
X0013208Y0039863D01*
X0013208Y0049863D02*
X0007208Y0049863D01*
X0007208Y0059863D02*
X0013208Y0059863D01*
X0013208Y0069863D02*
X0007208Y0069863D01*
X0007208Y0079863D02*
X0013208Y0079863D01*
X0013208Y0089863D02*
X0007208Y0089863D01*
X0007208Y0099863D02*
X0013208Y0099863D01*
X0013208Y0109863D02*
X0007208Y0109863D01*
X0007208Y0119863D02*
X0013208Y0119863D01*
X0013208Y0129863D02*
X0007208Y0129863D01*
X0031273Y0039123D02*
X0031273Y0033123D01*
X0031273Y0013523D02*
X0031273Y0007523D01*
X0049073Y0007523D02*
X0049073Y0013523D01*
X0061303Y0013523D02*
X0061303Y0007523D01*
X0079103Y0007523D02*
X0079103Y0013523D01*
X0079103Y0033123D02*
X0079103Y0039123D01*
X0061303Y0039123D02*
X0061303Y0033123D01*
X0049073Y0033123D02*
X0049073Y0039123D01*
X0097208Y0039863D02*
X0103208Y0039863D01*
X0103208Y0029863D02*
X0097208Y0029863D01*
X0097208Y0019863D02*
X0103208Y0019863D01*
X0103208Y0009863D02*
X0097208Y0009863D01*
X0097208Y0049863D02*
X0103208Y0049863D01*
X0103208Y0059863D02*
X0097208Y0059863D01*
X0097208Y0069863D02*
X0103208Y0069863D01*
X0103208Y0079863D02*
X0097208Y0079863D01*
X0097208Y0089863D02*
X0103208Y0089863D01*
X0103208Y0099863D02*
X0097208Y0099863D01*
X0097208Y0109863D02*
X0103208Y0109863D01*
X0103208Y0119863D02*
X0097208Y0119863D01*
X0097208Y0129863D02*
X0103208Y0129863D01*
D12*
X0071882Y0105673D03*
X0062783Y0105673D03*
X0053685Y0105673D03*
D13*
X0062783Y0130075D03*
D14*
X0040051Y0130689D03*
X0040051Y0122815D03*
X0040511Y0092952D03*
X0040511Y0085078D03*
X0055551Y0085224D03*
X0055551Y0093098D03*
D15*
X0043331Y0111543D03*
X0035850Y0111543D03*
X0036090Y0023417D03*
X0043570Y0023417D03*
X0066462Y0023856D03*
X0073943Y0023856D03*
D16*
X0077203Y0074116D03*
X0077203Y0081596D03*
M02*
