G75*
%MOIN*%
%OFA0B0*%
%FSLAX25Y25*%
%IPPOS*%
%LPD*%
%AMOC8*
5,1,8,0,0,1.08239X$1,22.5*
%
%ADD10C,0.04756*%
%ADD11C,0.06000*%
%ADD12R,0.04799X0.08799*%
%ADD13R,0.14173X0.08661*%
%ADD14R,0.07087X0.08465*%
%ADD15R,0.06299X0.05118*%
%ADD16R,0.05118X0.05906*%
%ADD17R,0.05906X0.05118*%
%ADD18C,0.01600*%
%ADD19C,0.01200*%
%ADD20R,0.04134X0.04134*%
D10*
X0035270Y0040242D02*
X0035270Y0044998D01*
X0043144Y0044998D02*
X0043144Y0040242D01*
X0051018Y0040242D02*
X0051018Y0044998D01*
X0058892Y0044998D02*
X0058892Y0040242D01*
X0066766Y0040242D02*
X0066766Y0044998D01*
X0074640Y0044998D02*
X0074640Y0040242D01*
X0083065Y0051447D02*
X0087821Y0051447D01*
X0087821Y0059321D02*
X0083065Y0059321D01*
X0083065Y0067195D02*
X0087821Y0067195D01*
X0087821Y0075069D02*
X0083065Y0075069D01*
X0083065Y0082943D02*
X0087821Y0082943D01*
X0087821Y0090817D02*
X0083065Y0090817D01*
X0083065Y0098691D02*
X0087821Y0098691D01*
X0087821Y0106565D02*
X0083065Y0106565D01*
X0027160Y0106565D02*
X0022404Y0106565D01*
X0022404Y0098691D02*
X0027160Y0098691D01*
X0027160Y0090817D02*
X0022404Y0090817D01*
X0022404Y0082943D02*
X0027160Y0082943D01*
X0027160Y0075069D02*
X0022404Y0075069D01*
X0022404Y0067195D02*
X0027160Y0067195D01*
X0027160Y0059321D02*
X0022404Y0059321D01*
X0022404Y0051447D02*
X0027160Y0051447D01*
D11*
X0013506Y0050507D02*
X0007506Y0050507D01*
X0007506Y0060507D02*
X0013506Y0060507D01*
X0013506Y0070507D02*
X0007506Y0070507D01*
X0007506Y0080507D02*
X0013506Y0080507D01*
X0013506Y0090507D02*
X0007506Y0090507D01*
X0007506Y0100507D02*
X0013506Y0100507D01*
X0013506Y0110507D02*
X0007506Y0110507D01*
X0007506Y0120507D02*
X0013506Y0120507D01*
X0013506Y0130507D02*
X0007506Y0130507D01*
X0007506Y0040507D02*
X0013506Y0040507D01*
X0013506Y0030507D02*
X0007506Y0030507D01*
X0007506Y0020507D02*
X0013506Y0020507D01*
X0013506Y0010507D02*
X0007506Y0010507D01*
X0039167Y0007629D02*
X0045167Y0007629D01*
X0045167Y0025429D02*
X0039167Y0025429D01*
X0064767Y0025429D02*
X0070767Y0025429D01*
X0070767Y0007629D02*
X0064767Y0007629D01*
X0097506Y0010507D02*
X0103506Y0010507D01*
X0103506Y0020507D02*
X0097506Y0020507D01*
X0097506Y0030507D02*
X0103506Y0030507D01*
X0103506Y0040507D02*
X0097506Y0040507D01*
X0097506Y0050507D02*
X0103506Y0050507D01*
X0103506Y0060507D02*
X0097506Y0060507D01*
X0097506Y0070507D02*
X0103506Y0070507D01*
X0103506Y0080507D02*
X0097506Y0080507D01*
X0097506Y0090507D02*
X0103506Y0090507D01*
X0103506Y0100507D02*
X0097506Y0100507D01*
X0097506Y0110507D02*
X0103506Y0110507D01*
X0103506Y0120507D02*
X0097506Y0120507D01*
X0097506Y0130507D02*
X0103506Y0130507D01*
D12*
X0072179Y0106317D03*
X0063081Y0106317D03*
X0053983Y0106317D03*
D13*
X0063081Y0130719D03*
D14*
X0040191Y0093738D03*
X0040191Y0080943D03*
X0056152Y0080797D03*
X0056152Y0093593D03*
D15*
X0040349Y0123459D03*
X0040349Y0131333D03*
D16*
X0043628Y0112187D03*
X0036148Y0112187D03*
D17*
X0074500Y0074240D03*
X0074500Y0066760D03*
X0055061Y0020612D03*
X0055061Y0013132D03*
D18*
X0003097Y0009129D02*
X0003097Y0003444D01*
X0036808Y0003444D01*
X0036651Y0003524D01*
X0036040Y0003968D01*
X0035506Y0004502D01*
X0035061Y0005114D01*
X0034718Y0005787D01*
X0034485Y0006505D01*
X0034367Y0007252D01*
X0034367Y0007429D01*
X0041967Y0007429D01*
X0041967Y0007829D01*
X0034367Y0007829D01*
X0034367Y0008007D01*
X0034485Y0008753D01*
X0034718Y0009472D01*
X0035061Y0010145D01*
X0035506Y0010756D01*
X0036040Y0011291D01*
X0036651Y0011735D01*
X0037324Y0012078D01*
X0038043Y0012311D01*
X0038789Y0012429D01*
X0041459Y0012429D01*
X0030589Y0023300D01*
X0029300Y0024589D01*
X0029300Y0030596D01*
X0018150Y0041745D01*
X0018188Y0041631D01*
X0018306Y0040885D01*
X0018306Y0040707D01*
X0010706Y0040707D01*
X0010706Y0040307D01*
X0018306Y0040307D01*
X0018306Y0040129D01*
X0018188Y0039383D01*
X0017954Y0038665D01*
X0017611Y0037991D01*
X0017167Y0037380D01*
X0016633Y0036846D01*
X0016022Y0036402D01*
X0015348Y0036059D01*
X0014630Y0035825D01*
X0013884Y0035707D01*
X0010706Y0035707D01*
X0010706Y0040307D01*
X0010306Y0040307D01*
X0010306Y0035707D01*
X0007128Y0035707D01*
X0006382Y0035825D01*
X0005663Y0036059D01*
X0004990Y0036402D01*
X0004379Y0036846D01*
X0003845Y0037380D01*
X0003400Y0037991D01*
X0003097Y0038586D01*
X0003097Y0031885D01*
X0003606Y0033113D01*
X0004900Y0034407D01*
X0006591Y0035107D01*
X0014421Y0035107D01*
X0016111Y0034407D01*
X0017405Y0033113D01*
X0018106Y0031422D01*
X0018106Y0029592D01*
X0017405Y0027902D01*
X0016111Y0026608D01*
X0014421Y0025907D01*
X0006591Y0025907D01*
X0004900Y0026608D01*
X0003606Y0027902D01*
X0003097Y0029129D01*
X0003097Y0021885D01*
X0003606Y0023113D01*
X0004900Y0024407D01*
X0006591Y0025107D01*
X0014421Y0025107D01*
X0016111Y0024407D01*
X0017405Y0023113D01*
X0018106Y0021422D01*
X0018106Y0019592D01*
X0017405Y0017902D01*
X0016111Y0016608D01*
X0014421Y0015907D01*
X0006591Y0015907D01*
X0004900Y0016608D01*
X0003606Y0017902D01*
X0003097Y0019129D01*
X0003097Y0011885D01*
X0003606Y0013113D01*
X0004900Y0014407D01*
X0006591Y0015107D01*
X0014421Y0015107D01*
X0016111Y0014407D01*
X0017405Y0013113D01*
X0018106Y0011422D01*
X0018106Y0009592D01*
X0017405Y0007902D01*
X0016111Y0006608D01*
X0014421Y0005907D01*
X0006591Y0005907D01*
X0004900Y0006608D01*
X0003606Y0007902D01*
X0003097Y0009129D01*
X0003097Y0008084D02*
X0003531Y0008084D01*
X0003097Y0006485D02*
X0005196Y0006485D01*
X0003097Y0004887D02*
X0035226Y0004887D01*
X0034491Y0006485D02*
X0015816Y0006485D01*
X0017481Y0008084D02*
X0034379Y0008084D01*
X0034826Y0009682D02*
X0018106Y0009682D01*
X0018106Y0011281D02*
X0036030Y0011281D01*
X0039411Y0014478D02*
X0015941Y0014478D01*
X0014829Y0016076D02*
X0037813Y0016076D01*
X0036214Y0017675D02*
X0017179Y0017675D01*
X0017974Y0019273D02*
X0034616Y0019273D01*
X0033017Y0020872D02*
X0018106Y0020872D01*
X0017672Y0022470D02*
X0031418Y0022470D01*
X0029820Y0024069D02*
X0016450Y0024069D01*
X0016770Y0027266D02*
X0029300Y0027266D01*
X0029300Y0028864D02*
X0017804Y0028864D01*
X0018106Y0030463D02*
X0029300Y0030463D01*
X0027835Y0032061D02*
X0017841Y0032061D01*
X0016859Y0033660D02*
X0026236Y0033660D01*
X0024638Y0035258D02*
X0003097Y0035258D01*
X0003097Y0033660D02*
X0004153Y0033660D01*
X0003171Y0032061D02*
X0003097Y0032061D01*
X0003097Y0028864D02*
X0003207Y0028864D01*
X0003097Y0027266D02*
X0004242Y0027266D01*
X0003097Y0025667D02*
X0029300Y0025667D01*
X0023039Y0036857D02*
X0016644Y0036857D01*
X0017493Y0038507D02*
X0019500Y0036500D01*
X0019500Y0010500D01*
X0019629Y0007629D01*
X0042167Y0007629D01*
X0042367Y0007429D02*
X0042367Y0007829D01*
X0049967Y0007829D01*
X0049967Y0008007D01*
X0049849Y0008753D01*
X0049615Y0009472D01*
X0049272Y0010145D01*
X0048828Y0010756D01*
X0048652Y0010932D01*
X0050508Y0010932D01*
X0050508Y0009910D01*
X0051445Y0008973D01*
X0058676Y0008973D01*
X0059614Y0009910D01*
X0059614Y0016354D01*
X0059095Y0016872D01*
X0059614Y0017391D01*
X0059614Y0023229D01*
X0060699Y0023229D01*
X0060867Y0022824D01*
X0062161Y0021530D01*
X0063852Y0020829D01*
X0071682Y0020829D01*
X0073372Y0021530D01*
X0074666Y0022824D01*
X0075367Y0024514D01*
X0075367Y0026344D01*
X0075241Y0026648D01*
X0082300Y0019589D01*
X0082300Y0009589D01*
X0083589Y0008300D01*
X0093441Y0008300D01*
X0093606Y0007902D01*
X0094900Y0006608D01*
X0096591Y0005907D01*
X0104421Y0005907D01*
X0106111Y0006608D01*
X0107405Y0007902D01*
X0107698Y0008608D01*
X0107698Y0003444D01*
X0073125Y0003444D01*
X0073282Y0003524D01*
X0073894Y0003968D01*
X0074428Y0004502D01*
X0074872Y0005114D01*
X0075215Y0005787D01*
X0075449Y0006505D01*
X0075567Y0007252D01*
X0075567Y0007429D01*
X0067967Y0007429D01*
X0067967Y0007829D01*
X0075567Y0007829D01*
X0075567Y0008007D01*
X0075449Y0008753D01*
X0075215Y0009472D01*
X0074872Y0010145D01*
X0074428Y0010756D01*
X0073894Y0011291D01*
X0073282Y0011735D01*
X0072609Y0012078D01*
X0071891Y0012311D01*
X0071145Y0012429D01*
X0067967Y0012429D01*
X0067967Y0007829D01*
X0067567Y0007829D01*
X0067567Y0007429D01*
X0059967Y0007429D01*
X0059967Y0007252D01*
X0060085Y0006505D01*
X0060318Y0005787D01*
X0060661Y0005114D01*
X0061106Y0004502D01*
X0061640Y0003968D01*
X0062251Y0003524D01*
X0062408Y0003444D01*
X0047525Y0003444D01*
X0047682Y0003524D01*
X0048294Y0003968D01*
X0048828Y0004502D01*
X0049272Y0005114D01*
X0049615Y0005787D01*
X0049849Y0006505D01*
X0049967Y0007252D01*
X0049967Y0007429D01*
X0042367Y0007429D01*
X0041010Y0012879D02*
X0017502Y0012879D01*
X0006183Y0016076D02*
X0003097Y0016076D01*
X0003097Y0014478D02*
X0005071Y0014478D01*
X0003509Y0012879D02*
X0003097Y0012879D01*
X0003097Y0017675D02*
X0003833Y0017675D01*
X0003340Y0022470D02*
X0003097Y0022470D01*
X0003097Y0024069D02*
X0004562Y0024069D01*
X0004368Y0036857D02*
X0003097Y0036857D01*
X0003097Y0038455D02*
X0003164Y0038455D01*
X0003097Y0042428D02*
X0003097Y0049129D01*
X0003606Y0047902D01*
X0004900Y0046608D01*
X0006591Y0045907D01*
X0013989Y0045907D01*
X0014744Y0045152D01*
X0014630Y0045189D01*
X0013884Y0045307D01*
X0010706Y0045307D01*
X0010706Y0040707D01*
X0010306Y0040707D01*
X0010306Y0045307D01*
X0007128Y0045307D01*
X0006382Y0045189D01*
X0005663Y0044956D01*
X0004990Y0044613D01*
X0004379Y0044168D01*
X0003845Y0043634D01*
X0003400Y0043023D01*
X0003097Y0042428D01*
X0003097Y0043251D02*
X0003566Y0043251D01*
X0003097Y0044849D02*
X0005455Y0044849D01*
X0005285Y0046448D02*
X0003097Y0046448D01*
X0003097Y0048046D02*
X0003546Y0048046D01*
X0010306Y0044849D02*
X0010706Y0044849D01*
X0010706Y0043251D02*
X0010306Y0043251D01*
X0010306Y0041652D02*
X0010706Y0041652D01*
X0010506Y0040507D02*
X0017493Y0038507D01*
X0017847Y0038455D02*
X0021441Y0038455D01*
X0019842Y0040054D02*
X0018294Y0040054D01*
X0018244Y0041652D02*
X0018181Y0041652D01*
X0023642Y0047469D02*
X0027951Y0047469D01*
X0029413Y0048075D01*
X0030532Y0049194D01*
X0031138Y0050656D01*
X0031138Y0052031D01*
X0034946Y0055839D01*
X0035311Y0056722D01*
X0035311Y0075502D01*
X0035543Y0075270D01*
X0035953Y0075034D01*
X0036411Y0074911D01*
X0039391Y0074911D01*
X0039391Y0080143D01*
X0040991Y0080143D01*
X0040991Y0074911D01*
X0043971Y0074911D01*
X0044429Y0075034D01*
X0044840Y0075270D01*
X0045175Y0075606D01*
X0045412Y0076016D01*
X0045534Y0076474D01*
X0045534Y0080143D01*
X0040991Y0080143D01*
X0040991Y0081743D01*
X0039391Y0081743D01*
X0039391Y0086975D01*
X0036411Y0086975D01*
X0035953Y0086853D01*
X0035745Y0086733D01*
X0037044Y0087906D01*
X0044397Y0087906D01*
X0045334Y0088843D01*
X0045334Y0098633D01*
X0044397Y0099571D01*
X0043050Y0099571D01*
X0043050Y0107634D01*
X0046850Y0107634D01*
X0047787Y0108572D01*
X0047787Y0115803D01*
X0046850Y0116740D01*
X0045800Y0116740D01*
X0045800Y0119406D01*
X0054294Y0127900D01*
X0054394Y0127900D01*
X0054394Y0125725D01*
X0055332Y0124788D01*
X0070830Y0124788D01*
X0071768Y0125725D01*
X0071768Y0135712D01*
X0070830Y0136649D01*
X0055332Y0136649D01*
X0054394Y0135712D01*
X0054394Y0132700D01*
X0052823Y0132700D01*
X0051941Y0132335D01*
X0045098Y0125492D01*
X0045098Y0126681D01*
X0044503Y0127276D01*
X0044603Y0127333D01*
X0044939Y0127669D01*
X0045176Y0128079D01*
X0045298Y0128537D01*
X0045298Y0130853D01*
X0040828Y0130853D01*
X0040828Y0131812D01*
X0045298Y0131812D01*
X0045298Y0134129D01*
X0045176Y0134587D01*
X0044939Y0134997D01*
X0044603Y0135332D01*
X0044193Y0135569D01*
X0043735Y0135692D01*
X0040828Y0135692D01*
X0040828Y0131813D01*
X0039869Y0131813D01*
X0039869Y0135692D01*
X0036962Y0135692D01*
X0036504Y0135569D01*
X0036094Y0135332D01*
X0035759Y0134997D01*
X0035522Y0134587D01*
X0035399Y0134129D01*
X0035399Y0131812D01*
X0039869Y0131812D01*
X0039869Y0130853D01*
X0035399Y0130853D01*
X0035399Y0128537D01*
X0035522Y0128079D01*
X0035759Y0127669D01*
X0036094Y0127333D01*
X0036194Y0127276D01*
X0035599Y0126681D01*
X0035599Y0120237D01*
X0036536Y0119300D01*
X0041000Y0119300D01*
X0041000Y0116740D01*
X0040406Y0116740D01*
X0039888Y0116222D01*
X0039370Y0116740D01*
X0032926Y0116740D01*
X0031989Y0115803D01*
X0031989Y0108572D01*
X0032926Y0107634D01*
X0033748Y0107634D01*
X0033748Y0103142D01*
X0031141Y0100535D01*
X0030830Y0100224D01*
X0030532Y0100944D01*
X0029413Y0102063D01*
X0028050Y0102628D01*
X0029413Y0103193D01*
X0030532Y0104312D01*
X0031138Y0105774D01*
X0031138Y0107356D01*
X0030532Y0108819D01*
X0029413Y0109938D01*
X0027951Y0110543D01*
X0026293Y0110543D01*
X0020534Y0116302D01*
X0020534Y0122511D01*
X0020556Y0123395D01*
X0020534Y0123418D01*
X0020534Y0123450D01*
X0019909Y0124075D01*
X0016823Y0127319D01*
X0017405Y0127902D01*
X0018106Y0129592D01*
X0018106Y0131422D01*
X0017405Y0133113D01*
X0016111Y0134407D01*
X0014421Y0135107D01*
X0006591Y0135107D01*
X0004900Y0134407D01*
X0003606Y0133113D01*
X0003097Y0131885D01*
X0003097Y0140500D01*
X0107698Y0140500D01*
X0107698Y0132406D01*
X0107405Y0133113D01*
X0106111Y0134407D01*
X0104421Y0135107D01*
X0096591Y0135107D01*
X0094900Y0134407D01*
X0093606Y0133113D01*
X0092906Y0131422D01*
X0092906Y0129592D01*
X0093606Y0127902D01*
X0094056Y0127452D01*
X0081031Y0114426D01*
X0080665Y0113544D01*
X0080665Y0109791D01*
X0079693Y0108819D01*
X0079087Y0107356D01*
X0079087Y0105774D01*
X0079693Y0104312D01*
X0080812Y0103193D01*
X0082175Y0102628D01*
X0080812Y0102063D01*
X0079693Y0100944D01*
X0079087Y0099482D01*
X0079087Y0097900D01*
X0079693Y0096438D01*
X0080812Y0095319D01*
X0082175Y0094754D01*
X0080812Y0094189D01*
X0079693Y0093070D01*
X0079087Y0091608D01*
X0079087Y0090026D01*
X0079693Y0088564D01*
X0080812Y0087445D01*
X0082175Y0086880D01*
X0080812Y0086315D01*
X0079693Y0085196D01*
X0079087Y0083734D01*
X0079087Y0082152D01*
X0079693Y0080690D01*
X0080812Y0079571D01*
X0082175Y0079006D01*
X0080812Y0078441D01*
X0079693Y0077322D01*
X0079253Y0076260D01*
X0079253Y0077036D01*
X0079130Y0077494D01*
X0078893Y0077904D01*
X0078558Y0078240D01*
X0078148Y0078477D01*
X0077690Y0078599D01*
X0074980Y0078599D01*
X0074980Y0074720D01*
X0079087Y0074720D01*
X0079087Y0074278D01*
X0079693Y0072816D01*
X0080812Y0071697D01*
X0082175Y0071132D01*
X0080812Y0070567D01*
X0079693Y0069448D01*
X0079087Y0067986D01*
X0079087Y0066693D01*
X0079053Y0066728D01*
X0079053Y0069982D01*
X0078676Y0070359D01*
X0078893Y0070576D01*
X0079130Y0070986D01*
X0079253Y0071444D01*
X0079253Y0073761D01*
X0074980Y0073761D01*
X0074980Y0074720D01*
X0074020Y0074720D01*
X0074020Y0073761D01*
X0069747Y0073761D01*
X0069747Y0071444D01*
X0069870Y0070986D01*
X0070107Y0070576D01*
X0070324Y0070359D01*
X0069947Y0069982D01*
X0069947Y0063538D01*
X0070884Y0062601D01*
X0076391Y0062601D01*
X0079087Y0059905D01*
X0079087Y0058530D01*
X0079693Y0057068D01*
X0080812Y0055949D01*
X0081950Y0055478D01*
X0081461Y0055319D01*
X0080875Y0055020D01*
X0080343Y0054634D01*
X0079878Y0054169D01*
X0079492Y0053637D01*
X0079193Y0053051D01*
X0078990Y0052425D01*
X0078887Y0051776D01*
X0078887Y0051507D01*
X0071535Y0058859D01*
X0070859Y0059535D01*
X0069977Y0059900D01*
X0066950Y0059900D01*
X0066950Y0087753D01*
X0066996Y0088029D01*
X0066950Y0088225D01*
X0066950Y0088427D01*
X0066843Y0088686D01*
X0066779Y0088959D01*
X0066662Y0089123D01*
X0066585Y0089309D01*
X0066387Y0089507D01*
X0066224Y0089735D01*
X0066052Y0089842D01*
X0065909Y0089985D01*
X0065651Y0090092D01*
X0061295Y0092804D01*
X0061295Y0098488D01*
X0060358Y0099425D01*
X0058450Y0099425D01*
X0058450Y0104927D01*
X0058085Y0105809D01*
X0057982Y0105912D01*
X0057982Y0111379D01*
X0057045Y0112317D01*
X0050920Y0112317D01*
X0049983Y0111379D01*
X0049983Y0101255D01*
X0050920Y0100318D01*
X0053650Y0100318D01*
X0053650Y0099425D01*
X0051946Y0099425D01*
X0051008Y0098488D01*
X0051008Y0088698D01*
X0051946Y0087760D01*
X0060314Y0087760D01*
X0062150Y0086617D01*
X0062150Y0057023D01*
X0062515Y0056141D01*
X0063191Y0055465D01*
X0064073Y0055100D01*
X0068506Y0055100D01*
X0074630Y0048976D01*
X0073849Y0048976D01*
X0072387Y0048371D01*
X0071268Y0047252D01*
X0070703Y0045888D01*
X0070138Y0047252D01*
X0069019Y0048371D01*
X0067557Y0048976D01*
X0065975Y0048976D01*
X0064513Y0048371D01*
X0063394Y0047252D01*
X0062829Y0045888D01*
X0062264Y0047252D01*
X0061145Y0048371D01*
X0059683Y0048976D01*
X0058101Y0048976D01*
X0056639Y0048371D01*
X0055520Y0047252D01*
X0054955Y0045888D01*
X0054390Y0047252D01*
X0053271Y0048371D01*
X0051809Y0048976D01*
X0050227Y0048976D01*
X0048765Y0048371D01*
X0047646Y0047252D01*
X0047081Y0045888D01*
X0046516Y0047252D01*
X0045397Y0048371D01*
X0043935Y0048976D01*
X0042353Y0048976D01*
X0040891Y0048371D01*
X0039772Y0047252D01*
X0039207Y0045888D01*
X0038642Y0047252D01*
X0037523Y0048371D01*
X0036061Y0048976D01*
X0034479Y0048976D01*
X0033017Y0048371D01*
X0031898Y0047252D01*
X0031292Y0045790D01*
X0031292Y0039819D01*
X0023642Y0047469D01*
X0024663Y0046448D02*
X0031565Y0046448D01*
X0031292Y0044849D02*
X0026262Y0044849D01*
X0027860Y0043251D02*
X0031292Y0043251D01*
X0031292Y0041652D02*
X0029459Y0041652D01*
X0031057Y0040054D02*
X0031292Y0040054D01*
X0032692Y0048046D02*
X0029345Y0048046D01*
X0030719Y0049645D02*
X0073961Y0049645D01*
X0072362Y0051243D02*
X0031138Y0051243D01*
X0031949Y0052842D02*
X0070764Y0052842D01*
X0069165Y0054440D02*
X0033547Y0054440D01*
X0035029Y0056039D02*
X0062617Y0056039D01*
X0062150Y0057637D02*
X0035311Y0057637D01*
X0035311Y0059236D02*
X0062150Y0059236D01*
X0062150Y0060834D02*
X0035311Y0060834D01*
X0035311Y0062433D02*
X0062150Y0062433D01*
X0062150Y0064032D02*
X0035311Y0064032D01*
X0035311Y0065630D02*
X0062150Y0065630D01*
X0062150Y0067229D02*
X0035311Y0067229D01*
X0035311Y0068827D02*
X0062150Y0068827D01*
X0062150Y0070426D02*
X0035311Y0070426D01*
X0035311Y0072024D02*
X0062150Y0072024D01*
X0062150Y0073623D02*
X0035311Y0073623D01*
X0035311Y0075221D02*
X0035628Y0075221D01*
X0039391Y0075221D02*
X0040991Y0075221D01*
X0040991Y0076820D02*
X0039391Y0076820D01*
X0039391Y0078418D02*
X0040991Y0078418D01*
X0040991Y0080017D02*
X0039391Y0080017D01*
X0040191Y0080943D02*
X0040650Y0082450D01*
X0042300Y0080800D01*
X0049450Y0080800D01*
X0049450Y0111050D01*
X0051100Y0112700D01*
X0072000Y0112700D01*
X0072000Y0113000D01*
X0074500Y0115500D01*
X0074000Y0135800D01*
X0070900Y0137900D01*
X0054500Y0137900D01*
X0049000Y0131400D01*
X0040650Y0131400D01*
X0040349Y0131333D01*
X0040828Y0131169D02*
X0050775Y0131169D01*
X0049176Y0129570D02*
X0045298Y0129570D01*
X0045114Y0127972D02*
X0047578Y0127972D01*
X0045979Y0126373D02*
X0045098Y0126373D01*
X0040650Y0123150D02*
X0043400Y0120400D01*
X0053300Y0130300D01*
X0062650Y0130300D01*
X0063081Y0130719D01*
X0054394Y0132768D02*
X0045298Y0132768D01*
X0045235Y0134366D02*
X0054394Y0134366D01*
X0054647Y0135965D02*
X0003097Y0135965D01*
X0003097Y0137563D02*
X0107698Y0137563D01*
X0107698Y0135965D02*
X0071515Y0135965D01*
X0071768Y0134366D02*
X0094859Y0134366D01*
X0093463Y0132768D02*
X0071768Y0132768D01*
X0071768Y0131169D02*
X0092906Y0131169D01*
X0092915Y0129570D02*
X0071768Y0129570D01*
X0071768Y0127972D02*
X0093577Y0127972D01*
X0092978Y0126373D02*
X0071768Y0126373D01*
X0072000Y0112700D02*
X0072000Y0106650D01*
X0072179Y0106317D01*
X0072550Y0106100D01*
X0072550Y0094000D01*
X0072000Y0093450D02*
X0068150Y0093600D01*
X0066315Y0089608D02*
X0079260Y0089608D01*
X0079087Y0091206D02*
X0063861Y0091206D01*
X0061295Y0092805D02*
X0079583Y0092805D01*
X0081328Y0094403D02*
X0061295Y0094403D01*
X0061295Y0096002D02*
X0080129Y0096002D01*
X0079211Y0097600D02*
X0061295Y0097600D01*
X0060584Y0099199D02*
X0079087Y0099199D01*
X0079632Y0100797D02*
X0076004Y0100797D01*
X0076019Y0100812D02*
X0076256Y0101223D01*
X0076379Y0101681D01*
X0076379Y0105917D01*
X0072579Y0105917D01*
X0072579Y0100118D01*
X0074816Y0100118D01*
X0075274Y0100240D01*
X0075684Y0100477D01*
X0076019Y0100812D01*
X0076379Y0102396D02*
X0081614Y0102396D01*
X0080010Y0103994D02*
X0076379Y0103994D01*
X0076379Y0105593D02*
X0079162Y0105593D01*
X0079087Y0107191D02*
X0076379Y0107191D01*
X0076379Y0106717D02*
X0076379Y0110954D01*
X0076256Y0111412D01*
X0076019Y0111822D01*
X0075684Y0112157D01*
X0075274Y0112394D01*
X0074816Y0112517D01*
X0072579Y0112517D01*
X0072579Y0106717D01*
X0071780Y0106717D01*
X0071780Y0112517D01*
X0069543Y0112517D01*
X0069085Y0112394D01*
X0068675Y0112157D01*
X0068339Y0111822D01*
X0068102Y0111412D01*
X0067980Y0110954D01*
X0067980Y0106717D01*
X0071779Y0106717D01*
X0071779Y0105917D01*
X0067980Y0105917D01*
X0067980Y0101681D01*
X0068102Y0101223D01*
X0068339Y0100812D01*
X0068675Y0100477D01*
X0069085Y0100240D01*
X0069543Y0100118D01*
X0071780Y0100118D01*
X0071780Y0105917D01*
X0072579Y0105917D01*
X0072579Y0106717D01*
X0076379Y0106717D01*
X0076379Y0108790D02*
X0079681Y0108790D01*
X0080665Y0110388D02*
X0076379Y0110388D01*
X0075854Y0111987D02*
X0080665Y0111987D01*
X0080682Y0113585D02*
X0047787Y0113585D01*
X0047787Y0111987D02*
X0050590Y0111987D01*
X0049983Y0110388D02*
X0047787Y0110388D01*
X0047787Y0108790D02*
X0049983Y0108790D01*
X0049983Y0107191D02*
X0043050Y0107191D01*
X0043050Y0105593D02*
X0049983Y0105593D01*
X0049983Y0103994D02*
X0043050Y0103994D01*
X0043050Y0102396D02*
X0049983Y0102396D01*
X0050440Y0100797D02*
X0043050Y0100797D01*
X0044769Y0099199D02*
X0051720Y0099199D01*
X0051008Y0097600D02*
X0045334Y0097600D01*
X0045334Y0096002D02*
X0051008Y0096002D01*
X0051008Y0094403D02*
X0045334Y0094403D01*
X0045334Y0092805D02*
X0051008Y0092805D01*
X0051008Y0091206D02*
X0045334Y0091206D01*
X0045334Y0089608D02*
X0051008Y0089608D01*
X0051697Y0088009D02*
X0044500Y0088009D01*
X0044429Y0086853D02*
X0043971Y0086975D01*
X0040991Y0086975D01*
X0040991Y0081743D01*
X0045534Y0081743D01*
X0045534Y0085412D01*
X0045412Y0085870D01*
X0045175Y0086281D01*
X0044840Y0086616D01*
X0044429Y0086853D01*
X0045045Y0086411D02*
X0051444Y0086411D01*
X0051503Y0086470D02*
X0051168Y0086135D01*
X0050931Y0085725D01*
X0050808Y0085267D01*
X0050808Y0081597D01*
X0055352Y0081597D01*
X0055352Y0079997D01*
X0056952Y0079997D01*
X0056952Y0074765D01*
X0059932Y0074765D01*
X0060390Y0074888D01*
X0060800Y0075125D01*
X0061135Y0075460D01*
X0061372Y0075870D01*
X0061495Y0076328D01*
X0061495Y0079997D01*
X0056952Y0079997D01*
X0056952Y0081597D01*
X0061495Y0081597D01*
X0061495Y0085267D01*
X0061372Y0085725D01*
X0061135Y0086135D01*
X0060800Y0086470D01*
X0060390Y0086707D01*
X0059932Y0086830D01*
X0056952Y0086830D01*
X0056952Y0081598D01*
X0055352Y0081598D01*
X0055352Y0086830D01*
X0052372Y0086830D01*
X0051914Y0086707D01*
X0051503Y0086470D01*
X0050808Y0084812D02*
X0045534Y0084812D01*
X0045534Y0083214D02*
X0050808Y0083214D01*
X0050808Y0081615D02*
X0040991Y0081615D01*
X0040991Y0083214D02*
X0039391Y0083214D01*
X0039391Y0084812D02*
X0040991Y0084812D01*
X0040991Y0086411D02*
X0039391Y0086411D01*
X0032912Y0087407D02*
X0040100Y0093900D01*
X0040100Y0095100D01*
X0040191Y0093738D01*
X0040650Y0096200D01*
X0040650Y0108850D01*
X0043400Y0111600D01*
X0043628Y0112187D01*
X0043400Y0112700D01*
X0043400Y0120400D01*
X0046374Y0119979D02*
X0086584Y0119979D01*
X0088182Y0121578D02*
X0047972Y0121578D01*
X0049571Y0123176D02*
X0089781Y0123176D01*
X0091379Y0124775D02*
X0051169Y0124775D01*
X0052768Y0126373D02*
X0054394Y0126373D01*
X0045800Y0118381D02*
X0084985Y0118381D01*
X0083387Y0116782D02*
X0045800Y0116782D01*
X0047787Y0115184D02*
X0081788Y0115184D01*
X0083065Y0113067D02*
X0100506Y0130507D01*
X0106152Y0134366D02*
X0107698Y0134366D01*
X0107698Y0132768D02*
X0107549Y0132768D01*
X0107698Y0139162D02*
X0003097Y0139162D01*
X0003097Y0134366D02*
X0004859Y0134366D01*
X0003463Y0132768D02*
X0003097Y0132768D01*
X0010506Y0130507D02*
X0010950Y0130300D01*
X0016152Y0134366D02*
X0035463Y0134366D01*
X0035399Y0132768D02*
X0017549Y0132768D01*
X0018106Y0131169D02*
X0039869Y0131169D01*
X0039869Y0132768D02*
X0040828Y0132768D01*
X0040828Y0134366D02*
X0039869Y0134366D01*
X0035399Y0129570D02*
X0018097Y0129570D01*
X0017435Y0127972D02*
X0035584Y0127972D01*
X0035599Y0126373D02*
X0017722Y0126373D01*
X0019243Y0124775D02*
X0035599Y0124775D01*
X0035599Y0123176D02*
X0020551Y0123176D01*
X0020534Y0121578D02*
X0035599Y0121578D01*
X0035857Y0119979D02*
X0020534Y0119979D01*
X0020534Y0118381D02*
X0041000Y0118381D01*
X0041000Y0116782D02*
X0020534Y0116782D01*
X0021652Y0115184D02*
X0031989Y0115184D01*
X0031989Y0113585D02*
X0023251Y0113585D01*
X0024849Y0111987D02*
X0031989Y0111987D01*
X0031989Y0110388D02*
X0028325Y0110388D01*
X0030544Y0108790D02*
X0031989Y0108790D01*
X0031138Y0107191D02*
X0033748Y0107191D01*
X0033748Y0105593D02*
X0031063Y0105593D01*
X0030214Y0103994D02*
X0033748Y0103994D01*
X0033002Y0102396D02*
X0028611Y0102396D01*
X0030593Y0100797D02*
X0031403Y0100797D01*
X0032500Y0098500D02*
X0032500Y0096157D01*
X0027160Y0090817D01*
X0032912Y0087407D02*
X0032912Y0057199D01*
X0027160Y0051447D01*
X0037847Y0048046D02*
X0040566Y0048046D01*
X0039439Y0046448D02*
X0038975Y0046448D01*
X0045721Y0048046D02*
X0048440Y0048046D01*
X0047313Y0046448D02*
X0046849Y0046448D01*
X0053595Y0048046D02*
X0056314Y0048046D01*
X0055187Y0046448D02*
X0054723Y0046448D01*
X0061469Y0048046D02*
X0064188Y0048046D01*
X0063061Y0046448D02*
X0062597Y0046448D01*
X0069343Y0048046D02*
X0072062Y0048046D01*
X0070935Y0046448D02*
X0070471Y0046448D01*
X0075954Y0054440D02*
X0080150Y0054440D01*
X0080722Y0056039D02*
X0074355Y0056039D01*
X0072757Y0057637D02*
X0079457Y0057637D01*
X0079087Y0059236D02*
X0071158Y0059236D01*
X0069500Y0057500D02*
X0064550Y0057500D01*
X0064550Y0087950D01*
X0056600Y0092900D01*
X0056152Y0093593D01*
X0056050Y0094000D01*
X0056050Y0104450D01*
X0054400Y0106100D01*
X0053983Y0106317D01*
X0057375Y0111987D02*
X0059689Y0111987D01*
X0060019Y0112317D02*
X0059081Y0111379D01*
X0059081Y0101255D01*
X0060019Y0100318D01*
X0066143Y0100318D01*
X0067081Y0101255D01*
X0067081Y0111379D01*
X0066143Y0112317D01*
X0060019Y0112317D01*
X0059081Y0110388D02*
X0057982Y0110388D01*
X0057982Y0108790D02*
X0059081Y0108790D01*
X0059081Y0107191D02*
X0057982Y0107191D01*
X0058174Y0105593D02*
X0059081Y0105593D01*
X0059081Y0103994D02*
X0058450Y0103994D01*
X0058450Y0102396D02*
X0059081Y0102396D01*
X0059539Y0100797D02*
X0058450Y0100797D01*
X0066473Y0111987D02*
X0068504Y0111987D01*
X0067980Y0110388D02*
X0067081Y0110388D01*
X0067081Y0108790D02*
X0067980Y0108790D01*
X0067980Y0107191D02*
X0067081Y0107191D01*
X0067081Y0105593D02*
X0067980Y0105593D01*
X0067980Y0103994D02*
X0067081Y0103994D01*
X0067081Y0102396D02*
X0067980Y0102396D01*
X0068354Y0100797D02*
X0066623Y0100797D01*
X0071780Y0100797D02*
X0072579Y0100797D01*
X0072579Y0102396D02*
X0071780Y0102396D01*
X0071780Y0103994D02*
X0072579Y0103994D01*
X0072579Y0105593D02*
X0071780Y0105593D01*
X0071780Y0107191D02*
X0072579Y0107191D01*
X0072579Y0108790D02*
X0071780Y0108790D01*
X0071780Y0110388D02*
X0072579Y0110388D01*
X0072579Y0111987D02*
X0071780Y0111987D01*
X0083065Y0113067D02*
X0083065Y0106565D01*
X0083065Y0098691D02*
X0087691Y0098691D01*
X0092500Y0103500D01*
X0092500Y0112501D01*
X0100506Y0120507D01*
X0100506Y0100507D02*
X0098499Y0098500D01*
X0097500Y0098500D01*
X0092500Y0093500D01*
X0092500Y0088500D01*
X0086943Y0082943D01*
X0083065Y0082943D01*
X0080366Y0080017D02*
X0066950Y0080017D01*
X0066950Y0081615D02*
X0079310Y0081615D01*
X0079087Y0083214D02*
X0066950Y0083214D01*
X0068150Y0082450D02*
X0074500Y0082450D01*
X0074500Y0074240D01*
X0074020Y0074720D02*
X0069747Y0074720D01*
X0069747Y0077036D01*
X0069870Y0077494D01*
X0070107Y0077904D01*
X0070442Y0078240D01*
X0070852Y0078477D01*
X0071310Y0078599D01*
X0074020Y0078599D01*
X0074020Y0074720D01*
X0074020Y0075221D02*
X0074980Y0075221D01*
X0074980Y0076820D02*
X0074020Y0076820D01*
X0074020Y0078418D02*
X0074980Y0078418D01*
X0078249Y0078418D02*
X0080789Y0078418D01*
X0079485Y0076820D02*
X0079253Y0076820D01*
X0079253Y0073623D02*
X0079359Y0073623D01*
X0079253Y0072024D02*
X0080485Y0072024D01*
X0080670Y0070426D02*
X0078743Y0070426D01*
X0079053Y0068827D02*
X0079435Y0068827D01*
X0079087Y0067229D02*
X0079053Y0067229D01*
X0076626Y0065760D02*
X0083065Y0059321D01*
X0086321Y0059321D01*
X0096500Y0069500D01*
X0099499Y0069500D01*
X0100506Y0070507D01*
X0096591Y0065907D02*
X0104421Y0065907D01*
X0106111Y0066608D01*
X0107405Y0067902D01*
X0107698Y0068608D01*
X0107698Y0062852D01*
X0107611Y0063023D01*
X0107167Y0063634D01*
X0106633Y0064168D01*
X0106022Y0064613D01*
X0105348Y0064956D01*
X0104630Y0065189D01*
X0103884Y0065307D01*
X0100706Y0065307D01*
X0100706Y0060707D01*
X0100306Y0060707D01*
X0100306Y0060307D01*
X0100706Y0060307D01*
X0100706Y0055707D01*
X0103884Y0055707D01*
X0104630Y0055825D01*
X0105348Y0056059D01*
X0106022Y0056402D01*
X0106633Y0056846D01*
X0107167Y0057380D01*
X0107611Y0057991D01*
X0107698Y0058163D01*
X0107698Y0052852D01*
X0107611Y0053023D01*
X0107167Y0053634D01*
X0106633Y0054168D01*
X0106022Y0054613D01*
X0105348Y0054956D01*
X0104630Y0055189D01*
X0103884Y0055307D01*
X0100706Y0055307D01*
X0100706Y0050707D01*
X0100306Y0050707D01*
X0100306Y0050307D01*
X0100706Y0050307D01*
X0100706Y0045707D01*
X0103884Y0045707D01*
X0104630Y0045825D01*
X0105348Y0046059D01*
X0106022Y0046402D01*
X0106633Y0046846D01*
X0107167Y0047380D01*
X0107611Y0047991D01*
X0107698Y0048163D01*
X0107698Y0042406D01*
X0107405Y0043113D01*
X0106111Y0044407D01*
X0104421Y0045107D01*
X0096591Y0045107D01*
X0094900Y0044407D01*
X0093606Y0043113D01*
X0093521Y0042907D01*
X0087487Y0042907D01*
X0083125Y0047269D01*
X0088150Y0047269D01*
X0088799Y0047372D01*
X0089425Y0047575D01*
X0090011Y0047874D01*
X0090543Y0048260D01*
X0091008Y0048725D01*
X0091394Y0049257D01*
X0091693Y0049843D01*
X0091896Y0050469D01*
X0091999Y0051118D01*
X0091999Y0051447D01*
X0083065Y0051447D01*
X0099566Y0051447D01*
X0100506Y0050507D01*
X0100506Y0060507D01*
X0100306Y0060307D02*
X0100306Y0055707D01*
X0097128Y0055707D01*
X0096382Y0055825D01*
X0095663Y0056059D01*
X0094990Y0056402D01*
X0094379Y0056846D01*
X0093845Y0057380D01*
X0093400Y0057991D01*
X0093057Y0058665D01*
X0092824Y0059383D01*
X0092706Y0060129D01*
X0092706Y0060307D01*
X0100306Y0060307D01*
X0100306Y0060707D02*
X0092706Y0060707D01*
X0092706Y0060885D01*
X0092824Y0061631D01*
X0093057Y0062350D01*
X0093383Y0062989D01*
X0091420Y0061026D01*
X0091799Y0060112D01*
X0091799Y0058530D01*
X0091193Y0057068D01*
X0090074Y0055949D01*
X0088937Y0055478D01*
X0089425Y0055319D01*
X0090011Y0055020D01*
X0090543Y0054634D01*
X0091008Y0054169D01*
X0091394Y0053637D01*
X0091693Y0053051D01*
X0091896Y0052425D01*
X0091999Y0051776D01*
X0091999Y0051447D01*
X0083065Y0051447D01*
X0073500Y0061012D01*
X0068150Y0061012D01*
X0068150Y0082450D01*
X0066950Y0084812D02*
X0079534Y0084812D01*
X0081042Y0086411D02*
X0066950Y0086411D01*
X0066993Y0088009D02*
X0080247Y0088009D01*
X0083065Y0075069D02*
X0086069Y0075069D01*
X0092500Y0081500D01*
X0092500Y0082501D01*
X0100506Y0090507D01*
X0100506Y0080507D02*
X0098499Y0078500D01*
X0097500Y0078500D01*
X0086195Y0067195D01*
X0083065Y0067195D01*
X0076626Y0065760D02*
X0074500Y0066760D01*
X0076559Y0062433D02*
X0066950Y0062433D01*
X0066950Y0064032D02*
X0069947Y0064032D01*
X0069947Y0065630D02*
X0066950Y0065630D01*
X0066950Y0067229D02*
X0069947Y0067229D01*
X0069947Y0068827D02*
X0066950Y0068827D01*
X0066950Y0070426D02*
X0070257Y0070426D01*
X0069747Y0072024D02*
X0066950Y0072024D01*
X0066950Y0073623D02*
X0069747Y0073623D01*
X0069747Y0075221D02*
X0066950Y0075221D01*
X0066950Y0076820D02*
X0069747Y0076820D01*
X0070751Y0078418D02*
X0066950Y0078418D01*
X0062150Y0078418D02*
X0061495Y0078418D01*
X0061495Y0076820D02*
X0062150Y0076820D01*
X0062150Y0075221D02*
X0060897Y0075221D01*
X0056952Y0075221D02*
X0055352Y0075221D01*
X0055352Y0074765D02*
X0055352Y0079997D01*
X0050808Y0079997D01*
X0050808Y0076328D01*
X0050931Y0075870D01*
X0051168Y0075460D01*
X0051503Y0075125D01*
X0051914Y0074888D01*
X0052372Y0074765D01*
X0055352Y0074765D01*
X0055352Y0076820D02*
X0056952Y0076820D01*
X0056952Y0078418D02*
X0055352Y0078418D01*
X0055352Y0080017D02*
X0045534Y0080017D01*
X0045534Y0078418D02*
X0050808Y0078418D01*
X0050808Y0076820D02*
X0045534Y0076820D01*
X0044754Y0075221D02*
X0051407Y0075221D01*
X0049450Y0080800D02*
X0056050Y0080800D01*
X0056152Y0080797D01*
X0056952Y0080017D02*
X0062150Y0080017D01*
X0062150Y0081615D02*
X0061495Y0081615D01*
X0061495Y0083214D02*
X0062150Y0083214D01*
X0062150Y0084812D02*
X0061495Y0084812D01*
X0060860Y0086411D02*
X0062150Y0086411D01*
X0056952Y0086411D02*
X0055352Y0086411D01*
X0055352Y0084812D02*
X0056952Y0084812D01*
X0056952Y0083214D02*
X0055352Y0083214D01*
X0055352Y0081615D02*
X0056952Y0081615D01*
X0066950Y0060834D02*
X0078158Y0060834D01*
X0077552Y0052842D02*
X0079125Y0052842D01*
X0083065Y0051447D02*
X0083065Y0051447D01*
X0083946Y0046448D02*
X0094927Y0046448D01*
X0094990Y0046402D02*
X0095663Y0046059D01*
X0096382Y0045825D01*
X0097128Y0045707D01*
X0100306Y0045707D01*
X0100306Y0050307D01*
X0092706Y0050307D01*
X0092706Y0050129D01*
X0092824Y0049383D01*
X0093057Y0048665D01*
X0093400Y0047991D01*
X0093845Y0047380D01*
X0094379Y0046846D01*
X0094990Y0046402D01*
X0095968Y0044849D02*
X0085545Y0044849D01*
X0087143Y0043251D02*
X0093744Y0043251D01*
X0093372Y0048046D02*
X0090248Y0048046D01*
X0091592Y0049645D02*
X0092783Y0049645D01*
X0092706Y0050707D02*
X0100306Y0050707D01*
X0100306Y0055307D01*
X0097128Y0055307D01*
X0096382Y0055189D01*
X0095663Y0054956D01*
X0094990Y0054613D01*
X0094379Y0054168D01*
X0093845Y0053634D01*
X0093400Y0053023D01*
X0093057Y0052350D01*
X0092824Y0051631D01*
X0092706Y0050885D01*
X0092706Y0050707D01*
X0092763Y0051243D02*
X0091999Y0051243D01*
X0091761Y0052842D02*
X0093308Y0052842D01*
X0094753Y0054440D02*
X0090736Y0054440D01*
X0090165Y0056039D02*
X0095724Y0056039D01*
X0093658Y0057637D02*
X0091429Y0057637D01*
X0091799Y0059236D02*
X0092872Y0059236D01*
X0092706Y0060834D02*
X0091500Y0060834D01*
X0092827Y0062433D02*
X0093100Y0062433D01*
X0095024Y0064630D02*
X0096386Y0065992D01*
X0096591Y0065907D01*
X0096024Y0065630D02*
X0107698Y0065630D01*
X0107698Y0064032D02*
X0106770Y0064032D01*
X0106733Y0067229D02*
X0107698Y0067229D01*
X0100306Y0065307D02*
X0100306Y0060707D01*
X0100306Y0060834D02*
X0100706Y0060834D01*
X0100706Y0059236D02*
X0100306Y0059236D01*
X0100306Y0057637D02*
X0100706Y0057637D01*
X0100706Y0056039D02*
X0100306Y0056039D01*
X0100306Y0054440D02*
X0100706Y0054440D01*
X0100706Y0052842D02*
X0100306Y0052842D01*
X0100306Y0051243D02*
X0100706Y0051243D01*
X0100706Y0049645D02*
X0100306Y0049645D01*
X0100306Y0048046D02*
X0100706Y0048046D01*
X0100706Y0046448D02*
X0100306Y0046448D01*
X0105043Y0044849D02*
X0107698Y0044849D01*
X0107698Y0043251D02*
X0107267Y0043251D01*
X0107698Y0046448D02*
X0106085Y0046448D01*
X0107639Y0048046D02*
X0107698Y0048046D01*
X0107698Y0054440D02*
X0106258Y0054440D01*
X0105287Y0056039D02*
X0107698Y0056039D01*
X0107698Y0057637D02*
X0107354Y0057637D01*
X0100706Y0062433D02*
X0100306Y0062433D01*
X0100306Y0064032D02*
X0100706Y0064032D01*
X0100306Y0065307D02*
X0097128Y0065307D01*
X0096382Y0065189D01*
X0095663Y0064956D01*
X0095024Y0064630D01*
X0100506Y0040507D02*
X0086493Y0040507D01*
X0069500Y0057500D01*
X0075367Y0025667D02*
X0076221Y0025667D01*
X0075182Y0024069D02*
X0077820Y0024069D01*
X0079418Y0022470D02*
X0074313Y0022470D01*
X0071784Y0020872D02*
X0081017Y0020872D01*
X0082300Y0019273D02*
X0059614Y0019273D01*
X0059614Y0017675D02*
X0082300Y0017675D01*
X0082300Y0016076D02*
X0059614Y0016076D01*
X0059614Y0014478D02*
X0082300Y0014478D01*
X0082300Y0012879D02*
X0059614Y0012879D01*
X0059614Y0011281D02*
X0061630Y0011281D01*
X0061640Y0011291D02*
X0061106Y0010756D01*
X0060661Y0010145D01*
X0060318Y0009472D01*
X0060085Y0008753D01*
X0059967Y0008007D01*
X0059967Y0007829D01*
X0067567Y0007829D01*
X0067567Y0012429D01*
X0064389Y0012429D01*
X0063643Y0012311D01*
X0062924Y0012078D01*
X0062251Y0011735D01*
X0061640Y0011291D01*
X0060426Y0009682D02*
X0059385Y0009682D01*
X0059979Y0008084D02*
X0049955Y0008084D01*
X0049842Y0006485D02*
X0060091Y0006485D01*
X0060826Y0004887D02*
X0049107Y0004887D01*
X0049508Y0009682D02*
X0050736Y0009682D01*
X0059614Y0020872D02*
X0063749Y0020872D01*
X0061220Y0022470D02*
X0059614Y0022470D01*
X0067567Y0011281D02*
X0067967Y0011281D01*
X0067967Y0009682D02*
X0067567Y0009682D01*
X0067567Y0008084D02*
X0067967Y0008084D01*
X0073904Y0011281D02*
X0082300Y0011281D01*
X0082300Y0009682D02*
X0075108Y0009682D01*
X0075555Y0008084D02*
X0093531Y0008084D01*
X0095196Y0006485D02*
X0075442Y0006485D01*
X0074707Y0004887D02*
X0107698Y0004887D01*
X0107698Y0006485D02*
X0105816Y0006485D01*
X0107481Y0008084D02*
X0107698Y0008084D01*
X0032500Y0098500D02*
X0036148Y0102148D01*
X0036148Y0112187D01*
X0040650Y0123150D02*
X0040349Y0123459D01*
X0010706Y0040054D02*
X0010306Y0040054D01*
X0010306Y0038455D02*
X0010706Y0038455D01*
X0010706Y0036857D02*
X0010306Y0036857D01*
D19*
X0018334Y0049666D02*
X0039500Y0028500D01*
X0039500Y0028096D01*
X0042167Y0025429D01*
X0067767Y0025429D01*
X0054571Y0025429D01*
X0054500Y0025500D01*
X0054500Y0021173D01*
X0055061Y0020612D01*
X0055061Y0013132D02*
X0043868Y0013132D01*
X0031500Y0025500D01*
X0031500Y0031507D01*
X0012500Y0050507D01*
X0010506Y0050507D01*
X0018334Y0049666D02*
X0018334Y0115390D01*
X0027160Y0106565D01*
X0018334Y0115390D02*
X0018334Y0122538D01*
X0010950Y0130300D01*
X0068150Y0093600D02*
X0068150Y0082450D01*
X0066766Y0044998D02*
X0066766Y0041234D01*
X0072500Y0035500D01*
X0077500Y0035500D01*
X0088500Y0024500D01*
X0088500Y0020500D01*
X0100499Y0020500D01*
X0100506Y0020507D01*
X0100506Y0030507D02*
X0099513Y0031500D01*
X0086500Y0031500D01*
X0074640Y0043360D01*
X0074640Y0044998D01*
X0067500Y0033500D02*
X0069500Y0031500D01*
X0073500Y0031500D01*
X0084500Y0020500D01*
X0084500Y0010500D01*
X0100499Y0010500D01*
X0100506Y0010507D01*
X0067500Y0033500D02*
X0066500Y0033500D01*
X0058892Y0041108D01*
X0058892Y0044998D01*
D20*
X0054500Y0055500D03*
X0018500Y0137500D03*
X0091500Y0137500D03*
M02*
