G75*
%MOIN*%
%OFA0B0*%
%FSLAX25Y25*%
%IPPOS*%
%LPD*%
%AMOC8*
5,1,8,0,0,1.08239X$1,22.5*
%
%ADD10C,0.05156*%
%ADD11C,0.06400*%
%ADD12R,0.05199X0.09199*%
%ADD13R,0.14573X0.09061*%
%ADD14R,0.07487X0.08865*%
%ADD15R,0.06699X0.05518*%
%ADD16R,0.05518X0.06306*%
%ADD17R,0.06306X0.05518*%
%ADD18R,0.04534X0.04534*%
D10*
X0035270Y0040242D02*
X0035270Y0044998D01*
X0043144Y0044998D02*
X0043144Y0040242D01*
X0051018Y0040242D02*
X0051018Y0044998D01*
X0058892Y0044998D02*
X0058892Y0040242D01*
X0066766Y0040242D02*
X0066766Y0044998D01*
X0074640Y0044998D02*
X0074640Y0040242D01*
X0083065Y0051447D02*
X0087821Y0051447D01*
X0087821Y0059321D02*
X0083065Y0059321D01*
X0083065Y0067195D02*
X0087821Y0067195D01*
X0087821Y0075069D02*
X0083065Y0075069D01*
X0083065Y0082943D02*
X0087821Y0082943D01*
X0087821Y0090817D02*
X0083065Y0090817D01*
X0083065Y0098691D02*
X0087821Y0098691D01*
X0087821Y0106565D02*
X0083065Y0106565D01*
X0027160Y0106565D02*
X0022404Y0106565D01*
X0022404Y0098691D02*
X0027160Y0098691D01*
X0027160Y0090817D02*
X0022404Y0090817D01*
X0022404Y0082943D02*
X0027160Y0082943D01*
X0027160Y0075069D02*
X0022404Y0075069D01*
X0022404Y0067195D02*
X0027160Y0067195D01*
X0027160Y0059321D02*
X0022404Y0059321D01*
X0022404Y0051447D02*
X0027160Y0051447D01*
D11*
X0013506Y0010507D02*
X0007506Y0010507D01*
X0007506Y0020507D02*
X0013506Y0020507D01*
X0013506Y0030507D02*
X0007506Y0030507D01*
X0007506Y0040507D02*
X0013506Y0040507D01*
X0013506Y0050507D02*
X0007506Y0050507D01*
X0007506Y0060507D02*
X0013506Y0060507D01*
X0013506Y0070507D02*
X0007506Y0070507D01*
X0007506Y0080507D02*
X0013506Y0080507D01*
X0013506Y0090507D02*
X0007506Y0090507D01*
X0007506Y0100507D02*
X0013506Y0100507D01*
X0013506Y0110507D02*
X0007506Y0110507D01*
X0007506Y0120507D02*
X0013506Y0120507D01*
X0013506Y0130507D02*
X0007506Y0130507D01*
X0039167Y0025429D02*
X0045167Y0025429D01*
X0045167Y0007629D02*
X0039167Y0007629D01*
X0064767Y0007629D02*
X0070767Y0007629D01*
X0070767Y0025429D02*
X0064767Y0025429D01*
X0097506Y0020507D02*
X0103506Y0020507D01*
X0103506Y0030507D02*
X0097506Y0030507D01*
X0097506Y0040507D02*
X0103506Y0040507D01*
X0103506Y0050507D02*
X0097506Y0050507D01*
X0097506Y0060507D02*
X0103506Y0060507D01*
X0103506Y0070507D02*
X0097506Y0070507D01*
X0097506Y0080507D02*
X0103506Y0080507D01*
X0103506Y0090507D02*
X0097506Y0090507D01*
X0097506Y0100507D02*
X0103506Y0100507D01*
X0103506Y0110507D02*
X0097506Y0110507D01*
X0097506Y0120507D02*
X0103506Y0120507D01*
X0103506Y0130507D02*
X0097506Y0130507D01*
X0097506Y0010507D02*
X0103506Y0010507D01*
D12*
X0072179Y0106317D03*
X0063081Y0106317D03*
X0053983Y0106317D03*
D13*
X0063081Y0130719D03*
D14*
X0040191Y0093738D03*
X0040191Y0080943D03*
X0056152Y0080797D03*
X0056152Y0093593D03*
D15*
X0040349Y0123459D03*
X0040349Y0131333D03*
D16*
X0043628Y0112187D03*
X0036148Y0112187D03*
D17*
X0074500Y0074240D03*
X0074500Y0066760D03*
X0055061Y0020612D03*
X0055061Y0013132D03*
D18*
X0054500Y0055500D03*
X0018500Y0137500D03*
X0091500Y0137500D03*
M02*
